<svg version="1.1" viewBox="0.0 0.0 960.0 720.0" fill="none" stroke="none" stroke-linecap="square" stroke-miterlimit="10" xmlns:xlink="http://www.w3.org/1999/xlink" xmlns="http://www.w3.org/2000/svg"><clipPath id="p.0"><path d="m0 0l960.0 0l0 720.0l-960.0 0l0 -720.0z" clip-rule="nonzero"/></clipPath><g clip-path="url(#p.0)"><path fill="#000000" fill-opacity="0.0" d="m0 0l960.0 0l0 720.0l-960.0 0z" fill-rule="evenodd"/><path fill="#cfe2f3" d="m221.44357 139.15749l175.46457 0l0 106.48819l-175.46457 0z" fill-rule="evenodd"/><path stroke="#000000" stroke-width="1.0" stroke-linejoin="round" stroke-linecap="butt" d="m221.44357 139.15749l175.46457 0l0 106.48819l-175.46457 0z" fill-rule="evenodd"/><path fill="#cfe2f3" d="m554.48553 139.15749l175.4646 0l0 106.48819l-175.4646 0z" fill-rule="evenodd"/><path stroke="#000000" stroke-width="1.0" stroke-linejoin="round" stroke-linecap="butt" d="m554.48553 139.15749l175.4646 0l0 106.48819l-175.4646 0z" fill-rule="evenodd"/><path fill="#000000" fill-opacity="0.0" d="m309.17584 245.64568l-1.8267517 406.58264" fill-rule="evenodd"/><path stroke="#000000" stroke-width="1.0" stroke-linejoin="round" stroke-linecap="butt" d="m309.17584 245.64568l-1.8267517 406.58264" fill-rule="evenodd"/><path fill="#000000" fill-opacity="0.0" d="m641.0079 245.64568l2.7716675 409.00787" fill-rule="evenodd"/><path stroke="#000000" stroke-width="1.0" stroke-linejoin="round" stroke-linecap="butt" d="m641.0079 245.64568l2.7716675 409.00787" fill-rule="evenodd"/><path fill="#000000" fill-opacity="0.0" d="m265.00787 187.5643l697.0079 0l0 81.322845l-697.0079 0z" fill-rule="evenodd"/><path fill="#000000" fill-opacity="0.0" d="m288.15222 151.74016l42.04724 0l0 81.32283l-42.04724 0z" fill-rule="evenodd"/><path fill="#000000" d="m307.3241 177.98828l7.34375 0l0 1.421875l-16.03125 0l0 -1.421875l7.203125 0l0 -4.59375l-5.125 0l0 -1.421875l5.125 0l0 -3.625l-6.53125 0l0 -1.421875l7.265625 0q-1.1875 -1.40625 -2.671875 -2.4375l1.265625 -1.125q1.484375 0.96875 2.96875 2.53125l-1.328125 1.03125l7.046875 0l0 1.421875l-6.53125 0l0 3.625l5.125 0l0 1.421875l-5.125 0l0 4.59375z" fill-rule="nonzero"/><path fill="#000000" d="m303.68347 200.8164q2.75 -1.265625 2.75 -5.578125l0 -8.53125l5.78125 0l0 12.84375q0 0.59375 0.53125 0.59375l0.4375 0q0.375 0 0.453125 -0.53125l0.140625 -1.546875l1.5625 0.59375l-0.296875 1.84375q-0.15625 1.046875 -1.1875 1.046875l-1.78125 0q-1.34375 0 -1.34375 -1.265625l0 -12.171875l-2.8125 0l0 7.046875q0 5.34375 -3.1875 7.0625l-1.046875 -1.40625zm-0.4375 1.40625l-1.484375 0l0 -7.578125q-1.046875 2.375 -2.609375 4.078125l-0.953125 -1.625q2.96875 -3.046875 3.40625 -6.3125l-2.96875 0l0 -1.40625l3.125 0l0 -3.9375l1.40625 0q0.734375 0.078125 0.078125 0.453125l0 3.484375l2.59375 0l0 1.40625l-2.59375 0l0 2.234375q1.328125 0.59375 2.671875 1.625l-0.828125 1.703125q-0.890625 -0.953125 -1.84375 -1.78125l0 7.65625z" fill-rule="nonzero"/><path fill="#000000" d="m297.12097 222.66016l5.125 -13.359375l1.90625 0l5.46875 13.359375l-2.015625 0l-1.546875 -4.046875l-5.59375 0l-1.46875 4.046875l-1.875 0zm3.859375 -5.484375l4.53125 0l-1.40625 -3.703125q-0.625 -1.6875 -0.9375 -2.765625q-0.265625 1.28125 -0.71875 2.546875l-1.46875 3.921875z" fill-rule="nonzero"/><path fill="#000000" fill-opacity="0.0" d="m620.7559 151.74016l42.04724 0l0 81.32283l-42.04724 0z" fill-rule="evenodd"/><path fill="#000000" d="m639.9278 177.98828l7.34375 0l0 1.421875l-16.03125 0l0 -1.421875l7.203125 0l0 -4.59375l-5.125 0l0 -1.421875l5.125 0l0 -3.625l-6.53125 0l0 -1.421875l7.265625 0q-1.1875 -1.40625 -2.671875 -2.4375l1.265625 -1.125q1.484375 0.96875 2.96875 2.53125l-1.328125 1.03125l7.046875 0l0 1.421875l-6.53125 0l0 3.625l5.125 0l0 1.421875l-5.125 0l0 4.59375z" fill-rule="nonzero"/><path fill="#000000" d="m636.2872 200.8164q2.75 -1.265625 2.75 -5.578125l0 -8.53125l5.78125 0l0 12.84375q0 0.59375 0.53125 0.59375l0.4375 0q0.375 0 0.453125 -0.53125l0.140625 -1.546875l1.5625 0.59375l-0.296875 1.84375q-0.15625 1.046875 -1.1875 1.046875l-1.78125 0q-1.34375 0 -1.34375 -1.265625l0 -12.171875l-2.8125 0l0 7.046875q0 5.34375 -3.1875 7.0625l-1.046875 -1.40625zm-0.4375 1.40625l-1.484375 0l0 -7.578125q-1.046875 2.375 -2.609375 4.078125l-0.953125 -1.625q2.96875 -3.046875 3.40625 -6.3125l-2.96875 0l0 -1.40625l3.125 0l0 -3.9375l1.40625 0q0.734375 0.078125 0.078125 0.453125l0 3.484375l2.59375 0l0 1.40625l-2.59375 0l0 2.234375q1.328125 0.59375 2.671875 1.625l-0.828125 1.703125q-0.890625 -0.953125 -1.84375 -1.78125l0 7.65625z" fill-rule="nonzero"/><path fill="#000000" d="m631.1153 222.66016l0 -13.359375l5.015625 0q1.53125 0 2.453125 0.40625q0.921875 0.40625 1.4375 1.25q0.53125 0.84375 0.53125 1.765625q0 0.859375 -0.46875 1.625q-0.453125 0.75 -1.390625 1.203125q1.203125 0.359375 1.859375 1.21875q0.65625 0.859375 0.65625 2.015625q0 0.9375 -0.40625 1.75q-0.390625 0.796875 -0.984375 1.234375q-0.578125 0.4375 -1.453125 0.671875q-0.875 0.21875 -2.15625 0.21875l-5.09375 0zm1.78125 -7.75l2.875 0q1.1875 0 1.6875 -0.140625q0.671875 -0.203125 1.015625 -0.671875q0.34375 -0.46875 0.34375 -1.171875q0 -0.65625 -0.328125 -1.15625q-0.3125 -0.515625 -0.90625 -0.703125q-0.59375 -0.1875 -2.03125 -0.1875l-2.65625 0l0 4.03125zm0 6.171875l3.3125 0q0.859375 0 1.203125 -0.0625q0.609375 -0.109375 1.015625 -0.359375q0.421875 -0.265625 0.6875 -0.75q0.265625 -0.484375 0.265625 -1.125q0 -0.75 -0.390625 -1.296875q-0.375 -0.546875 -1.0625 -0.765625q-0.671875 -0.234375 -1.953125 -0.234375l-3.078125 0l0 4.59375z" fill-rule="nonzero"/><path fill="#000000" fill-opacity="0.0" d="m319.46194 289.20996l205.70078 53.259857" fill-rule="evenodd"/><path stroke="#000000" stroke-width="1.0" stroke-linejoin="round" stroke-linecap="butt" d="m319.46194 289.20996l199.8923 51.75595" fill-rule="evenodd"/><path fill="#000000" stroke="#000000" stroke-width="1.0" stroke-linecap="butt" d="m518.94025 342.5649l4.807251 -0.46151733l-3.979187 -2.7365112z" fill-rule="evenodd"/><path fill="#000000" fill-opacity="0.0" d="m528.8058 364.2362l697.0078 0l0 81.322845l-697.0078 0z" fill-rule="evenodd"/><path fill="#000000" d="m552.8839 376.65622q0.375 0.796875 0.953125 1.453125q-1.96875 0.21875 -5.96875 0.578125l0 2.34375l3.28125 0q1.015625 0 2.328125 -0.078125l0 1.3125q-1.25 -0.078125 -2.328125 -0.078125l-3.28125 0l0 2.40625l5.3125 0q0.953125 0 2.265625 -0.0625l0 1.375q-1.3125 -0.0625 -2.265625 -0.0625l-7.21875 0q0.65625 0.640625 0.953125 0.859375q-0.734375 0.734375 -3.578125 4.015625q1.75 0 7.734375 -0.21875q-1.453125 -1.671875 -2.046875 -2.265625q0.515625 -0.359375 1.09375 -0.9375q0.734375 0.875 2.046875 2.265625q1.3125 1.375 2.109375 2.328125q-0.953125 0.65625 -1.234375 0.9375q-0.375 -0.5 -1.03125 -1.234375q-2.546875 0.140625 -5.75 0.28125q-3.203125 0.15625 -4.59375 0.453125q-0.0625 -0.65625 -0.578125 -1.609375q1.09375 -0.296875 2.515625 -2.078125q1.421875 -1.78125 1.859375 -2.796875l-4.453125 0q-0.796875 0 -2.1875 0.0625l0 -1.375q1.46875 0.0625 2.1875 0.0625l5.46875 0l0 -2.40625l-3.71875 0q-1.09375 0 -2.25 0.078125l0 -1.3125q1.234375 0.078125 2.171875 0.078125l3.796875 0l0 -2.1875q-4.734375 0.21875 -5.609375 0.28125q-0.140625 -0.71875 -0.515625 -1.3125q2.84375 0.078125 6.671875 -0.203125q3.828125 -0.296875 5.859375 -0.953125z" fill-rule="nonzero"/><path fill="#000000" d="m562.10266 379.5781q-2.078125 2.890625 -3.859375 4.15625l-0.8125 -1.40625q3.34375 -2.53125 4.75 -6.53125l1.484375 0.359375q0.296875 0.296875 -0.21875 0.375q-0.234375 0.671875 -0.75 1.640625l9.71875 0l0 8.75q0 1.265625 -1.25 1.265625l-2.53125 0l-0.140625 -1.40625l2.21875 0q0.21875 0 0.21875 -0.234375l0 -6.96875l-8.828125 0zm-1.1875 3.265625l0 -1.40625l6.75 0l0 5.703125l-1.484375 0l0 -0.4375l-4.515625 0l0 3.703125q0 0.53125 0.4375 0.53125l9.421875 0q0.828125 0 0.96875 -0.59375l0.453125 -1.5625l1.546875 0.515625l-0.515625 1.859375q-0.296875 1.1875 -1.625 1.1875l-10.84375 0q-1.328125 0 -1.328125 -1.34375l0 -5.703125l6.0 0l0 -2.453125l-5.265625 0z" fill-rule="nonzero"/><path fill="#000000" fill-opacity="0.0" d="m260.16797 331.5643l48.409454 0" fill-rule="evenodd"/><path stroke="#000000" stroke-width="1.0" stroke-linejoin="round" stroke-linecap="butt" d="m260.16797 331.5643l48.409454 0" fill-rule="evenodd"/><path fill="#000000" fill-opacity="0.0" d="m262.58792 490.08398l44.787415 0" fill-rule="evenodd"/><path stroke="#000000" stroke-width="1.0" stroke-linejoin="round" stroke-linecap="butt" d="m262.58792 490.08398l44.787415 0" fill-rule="evenodd"/><path fill="#000000" fill-opacity="0.0" d="m150.04987 394.4882l169.41733 0l0 42.362213l-169.41733 0z" fill-rule="evenodd"/><path fill="#000000" d="m176.19049 413.2363l0 1.640625l-15.65625 0l0 -1.640625l15.65625 0zm3.125 8.546875q3.640625 -2.234375 3.5625 -7.125l1.703125 0.296875q0.21875 0.21875 -0.140625 0.4375l-0.375 2.671875q1.109375 1.34375 2.890625 2.296875l0 -7.1875l-5.046875 0l0 -1.421875l11.203125 0l0 1.421875l-4.671875 0l0 2.734375l5.203125 0l0 1.421875l-5.203125 0l0 3.5625q1.109375 0.296875 2.234375 0.296875l4.890625 0l-0.296875 1.40625l-4.59375 0q-4.3125 0 -7.0625 -3.125q-1.109375 2.453125 -3.109375 3.71875l-1.1875 -1.40625zm9.046875 -13.59375l6.828125 0l0 3.9375l-1.484375 0l0 -2.515625l-12.3125 0l0 2.671875l-1.484375 0l0 -4.09375l6.75 0l0 -2.140625l1.640625 0q0.734375 0.140625 0.0625 0.59375l0 1.546875zm20.34375 2.671875q-0.75 2.078125 -2.375 3.9375l-1.109375 -1.328125q2.515625 -2.53125 3.1875 -7.203125l1.5625 0.515625q0.65625 0.296875 -0.078125 0.453125q-0.21875 1.03125 -0.59375 2.21875l5.34375 0l-0.375 10.09375q-0.078125 2.96875 -2.375 2.96875l-2.078125 0l-0.21875 -1.40625l1.921875 0q1.046875 0 1.125 -1.34375l0.359375 -8.90625l-4.296875 0zm0.890625 6.90625q-1.046875 -1.484375 -2.296875 -2.671875l1.25 -1.328125q1.484375 1.328125 2.375 2.59375l-1.328125 1.40625zm-8.765625 -8.3125q0.453125 -1.40625 0.828125 -3.265625l1.78125 0.671875q0.296875 0.296875 -0.234375 0.375q-0.21875 0.953125 -0.8125 2.21875l2.75 0l0 12.25l-1.484375 0l0 -0.890625l-3.265625 0l0 1.484375l-1.484375 0l0 -12.84375l1.921875 0zm2.828125 1.40625l-3.265625 0l0 3.265625l3.265625 0l0 -3.265625zm0 4.6875l-3.265625 0l0 3.859375l3.265625 0l0 -3.859375z" fill-rule="nonzero"/><path fill="#000000" d="m223.40924 408.06442q-0.078125 2.625 -0.078125 6.34375q0 3.71875 0.078125 5.828125l-1.53125 0l0 -1.375l-2.90625 0l0 2.40625l-1.53125 0q0.0625 -3.359375 0.0625 -6.703125q0 -3.4375 -0.0625 -6.5l5.96875 0zm6.84375 2.1875q0 -2.1875 -0.0625 -4.078125l1.59375 0q-0.0625 1.890625 -0.0625 4.078125q1.09375 0 2.328125 -0.0625l0 1.375q-1.234375 -0.0625 -2.328125 -0.0625l0 9.765625q0 1.09375 -0.875 1.375q-0.875 0.296875 -2.265625 0.4375q0 -0.875 -0.796875 -1.671875q1.390625 0.140625 1.921875 0.0625q0.546875 -0.0625 0.546875 -0.9375l0 -9.03125q-3.640625 0 -6.109375 0.0625l0 -1.375q2.328125 0.0625 6.109375 0.0625zm-8.375 7.359375l0 -3.640625l-2.90625 0l0 3.640625l2.90625 0zm0 -4.875l0 -3.421875l-2.90625 0l0 3.421875l2.90625 0zm4.515625 0.734375q0.953125 1.53125 1.828125 3.265625q-0.734375 0.21875 -1.53125 0.65625q-0.578125 -1.734375 -1.671875 -3.265625q0.65625 -0.296875 1.375 -0.65625zm21.28125 -2.40625q-0.0625 1.375 -0.0625 2.40625l0 3.859375q0 0.9375 0.0625 2.25l-7.359375 0q0.078125 -1.3125 0.078125 -2.328125l0 -3.78125q0 -1.03125 -0.078125 -2.40625l7.359375 0zm3.9375 -3.859375q-0.078125 1.375 -0.078125 2.765625l0 10.703125q0.078125 1.6875 -0.90625 2.046875q-0.984375 0.359375 -2.140625 0.515625q-0.078125 -0.875 -0.59375 -1.75q1.390625 0.0625 1.78125 -0.15625q0.40625 -0.21875 0.40625 -0.9375l0 -11.953125l-4.375 0q-1.75 0 -3.28125 0.0625l0 -1.375q1.53125 0.078125 3.28125 0.078125l5.90625 0zm-15.296875 15.734375q0.140625 -1.453125 0.140625 -3.0625l0 -7.65625q0 -1.53125 -0.140625 -2.546875l1.671875 0q-0.078125 1.09375 -0.078125 2.109375l0 8.171875q0 1.453125 0.078125 2.984375l-1.671875 0zm9.90625 -4.515625l0 -2.703125l-4.453125 0l0 2.703125l4.453125 0zm0 -3.859375l0 -2.34375l-4.453125 0l0 2.34375l4.453125 0zm-7.0625 -8.609375q0.640625 0.875 2.03125 2.765625q-0.796875 0.375 -1.53125 0.8125q-0.71875 -1.46875 -1.8125 -2.765625q0.796875 -0.59375 1.3125 -0.8125zm27.171875 5.109375q-0.0625 1.375 -0.0625 2.40625l0 3.859375q0 0.9375 0.0625 2.25l-7.359375 0q0.078125 -1.3125 0.078125 -2.328125l0 -3.78125q0 -1.03125 -0.078125 -2.40625l7.359375 0zm3.9375 -3.859375q-0.078125 1.375 -0.078125 2.765625l0 10.703125q0.078125 1.6875 -0.90625 2.046875q-0.984375 0.359375 -2.140625 0.515625q-0.078125 -0.875 -0.59375 -1.75q1.390625 0.0625 1.78125 -0.15625q0.40625 -0.21875 0.40625 -0.9375l0 -11.953125l-4.375 0q-1.75 0 -3.28125 0.0625l0 -1.375q1.53125 0.078125 3.28125 0.078125l5.90625 0zm-15.296875 15.734375q0.140625 -1.453125 0.140625 -3.0625l0 -7.65625q0 -1.53125 -0.140625 -2.546875l1.671875 0q-0.078125 1.09375 -0.078125 2.109375l0 8.171875q0 1.453125 0.078125 2.984375l-1.671875 0zm9.90625 -4.515625l0 -2.703125l-4.453125 0l0 2.703125l4.453125 0zm0 -3.859375l0 -2.34375l-4.453125 0l0 2.34375l4.453125 0zm-7.0625 -8.609375q0.640625 0.875 2.03125 2.765625q-0.796875 0.375 -1.53125 0.8125q-0.71875 -1.46875 -1.8125 -2.765625q0.796875 -0.59375 1.3125 -0.8125z" fill-rule="nonzero"/><path fill="#000000" d="m275.79987 417.76755l0.890625 0q0.53125 0 0.53125 -0.515625q0.0625 -3.421875 -1.71875 -5.71875l1.421875 -3.484375l-1.9375 0l0 14.84375l-1.484375 0l0 -16.03125l4.015625 0l0.296875 -0.375l1.109375 0.96875l-0.296875 0.296875l-1.703125 3.703125q1.84375 2.75 1.78125 5.421875q-0.078125 2.53125 -1.78125 2.53125l-0.96875 0l-0.15625 -1.640625zm12.25 3.640625q0.296875 0 0.296875 -0.296875l0 -4.375q-0.140625 0.59375 -0.734375 0.59375l-1.859375 0q-1.046875 0 -1.046875 -1.125l0 -1.40625l-1.109375 0q0.078125 2.453125 -2.078125 3.5625l-0.671875 -1.1875q1.484375 -0.671875 1.484375 -2.375l-1.78125 0l0 8.09375l-1.25 0l0 -9.28125l10.3125 0l0 8.171875q0 1.03125 -1.046875 1.03125l-1.546875 0l-0.234375 -1.40625l1.265625 0zm-2.078125 -5.5q0 0.53125 0.515625 0.53125l0.53125 0q0.359375 0 0.4375 -0.75l0.890625 0.21875l0 -1.109375l-2.375 0l0 1.109375zm-4.0 3.203125l0 -0.890625l5.046875 0l0 0.890625l-1.859375 0l0 2.75l-1.265625 0l0 -2.75l-1.921875 0zm-1.484375 -6.609375l0 -3.265625l7.9375 0l0 3.265625l-7.9375 0zm9.34375 -5.71875l0 1.1875l-10.53125 0l0 -1.1875l10.53125 0zm-8.09375 3.34375l0 1.484375l5.421875 0l0 -1.484375l-5.421875 0z" fill-rule="nonzero"/><path fill="#000000" fill-opacity="0.0" d="m335.46194 490.08398l271.99997 39.93701" fill-rule="evenodd"/><path stroke="#000000" stroke-width="1.0" stroke-linejoin="round" stroke-linecap="butt" d="m335.46194 490.08398l266.06363 39.06537" fill-rule="evenodd"/><path fill="#000000" stroke="#000000" stroke-width="1.0" stroke-linecap="butt" d="m601.28564 530.78357l4.7299194 -0.97491455l-4.25 -2.293457z" fill-rule="evenodd"/><path fill="#000000" fill-opacity="0.0" d="m409.00787 465.8819l697.0079 0l0 81.322815l-697.0079 0z" fill-rule="evenodd"/><path fill="#000000" d="m426.91412 479.58313q-2.8125 0.078125 -5.484375 0l-0.296875 -1.1875q7.640625 0.078125 11.34375 -0.734375l0.828125 1.328125q0.140625 0.375 -0.53125 0.15625l-4.375 0.296875l0 1.1875l7.203125 0l0 1.1875l-7.203125 0l0 1.109375l5.046875 0l0 5.71875l-5.046875 0l0 1.328125l5.5625 0l0 1.1875l-5.5625 0l0 1.484375l7.421875 0l0 1.203125l-16.46875 0l0 -1.203125l7.5625 0l0 -1.484375l-5.71875 0l0 -1.1875l5.71875 0l0 -1.328125l-2.515625 0l-2.453125 0l0 -5.71875l4.96875 0l0 -1.109375l-7.265625 0l0 -1.1875l7.265625 0l0 -1.046875zm-3.703125 5.71875l3.703125 0l0 -1.1875l-3.703125 0l0 1.1875zm0 2.15625l3.703125 0l0 -1.265625l-3.703125 0l0 1.265625zm5.1875 -2.15625l3.78125 0l0 -1.1875l-3.78125 0l0 1.1875zm3.78125 2.15625l0 -1.265625l-3.78125 0l0 1.265625l3.78125 0z" fill-rule="nonzero"/><path fill="#000000" d="m453.03912 487.05188q-1.390625 3.046875 -2.328125 5.015625q0.796875 0.4375 2.1875 1.3125q-0.4375 0.515625 -0.953125 1.390625q-1.234375 -0.875 -3.25 -2.0q-2.0 -1.140625 -2.796875 -1.5q0.359375 -0.65625 0.65625 -1.234375q0.953125 0.4375 2.921875 1.375q0.71875 -1.453125 1.375 -3.125l-5.6875 0q0.4375 -1.3125 0.953125 -3.203125l-1.609375 0q-1.09375 0 -1.890625 0.0625l0 -1.3125q0.953125 0.078125 1.96875 0.078125l1.75 0q0.296875 -1.390625 0.4375 -2.265625l-1.09375 0q-1.3125 0 -2.109375 0.078125l0 -1.3125q0.875 0.078125 2.03125 0.078125l1.390625 0q0.296875 -2.109375 0.296875 -2.921875q0.9375 0.21875 1.671875 0.296875q-0.21875 0.359375 -0.65625 2.625l3.125 0q1.171875 0 2.1875 -0.078125l0 1.3125q-0.9375 -0.078125 -2.25 -0.078125l-3.203125 0q-0.15625 0.8125 -0.4375 2.265625l4.578125 0q1.46875 0 2.265625 -0.078125l0 1.3125q-0.875 -0.0625 -2.265625 -0.0625l-4.796875 0q-0.296875 1.15625 -0.515625 1.96875l6.046875 0zm-9.546875 -8.453125q-0.578125 0.578125 -1.671875 3.265625l0 9.328125q0 1.6875 0.0625 3.140625l-1.59375 0q0.140625 -1.171875 0.140625 -3.0625l0 -7.21875q-1.09375 1.75 -1.8125 2.78125q-0.296875 -0.59375 -1.03125 -1.171875q0.875 -1.015625 2.109375 -3.125q1.25 -2.125 2.046875 -4.8125q0.65625 0.359375 1.75 0.875z" fill-rule="nonzero"/><path fill="#000000" d="m469.47662 488.72375q1.03125 -2.015625 1.25 -6.09375l-2.515625 0q0.21875 4.078125 1.265625 6.09375zm2.734375 -6.09375q-0.140625 4.609375 -1.78125 7.421875q1.1875 1.484375 3.34375 2.59375l-0.96875 1.640625q-2.375 -1.5625 -3.328125 -2.96875q-1.71875 1.9375 -5.28125 3.34375l-0.734375 -1.484375q3.859375 -1.5625 5.125 -3.203125q-1.265625 -2.4375 -1.421875 -4.890625q-0.4375 1.109375 -0.890625 1.703125l-1.25 -0.96875q2.21875 -3.265625 2.671875 -8.078125l1.546875 0.359375q0.453125 0.296875 -0.21875 0.453125q-0.21875 1.328125 -0.59375 2.671875l5.046875 0l0 1.40625l-1.265625 0zm-6.890625 -3.5625q-0.453125 1.109375 -1.046875 1.859375l-1.1875 -0.671875q0.59375 -0.96875 1.109375 -2.21875l1.34375 0.65625q0.296875 0.296875 -0.21875 0.375zm-4.75 10.46875q1.03125 0.296875 1.84375 0.671875q0.59375 -0.671875 0.96875 -2.015625l-2.15625 0q-0.296875 0.671875 -0.65625 1.34375zm-1.046875 1.859375l-1.1875 -0.671875q0.75 -1.109375 1.484375 -2.53125l-2.8125 0l0 -1.1875l3.265625 0q0.4375 -0.953125 0.65625 -1.625l1.421875 0.375q0.296875 0.296875 -0.234375 0.359375l-0.4375 0.890625l4.234375 0l0 1.1875l-1.125 0q-0.359375 1.484375 -1.109375 2.53125q0.671875 0.296875 1.40625 0.734375l-0.65625 1.1875q-0.828125 -0.515625 -1.484375 -0.8125q-1.9375 1.9375 -5.203125 2.375l-0.515625 -1.328125q2.890625 -0.296875 4.453125 -1.640625q-0.8125 -0.375 -1.640625 -0.671875l-0.515625 0.828125zm1.484375 -13.953125l1.1875 0q0.59375 0.0625 0.078125 0.4375l0 3.1875l3.78125 0l0 1.1875l-3.109375 0q0.8125 0.96875 2.515625 1.859375l-0.8125 1.265625q-1.265625 -0.75 -2.375 -2.078125l0 1.78125l-1.265625 0l0 -1.40625q-1.1875 1.484375 -3.265625 2.671875l-0.96875 -1.1875q2.3125 -1.1875 3.796875 -2.90625l-3.421875 0l0 -1.1875l3.859375 0l0 -3.625zm-2.078125 3.40625q-0.515625 -1.109375 -1.328125 -1.921875l1.1875 -0.75q0.890625 0.890625 1.328125 1.859375l-1.1875 0.8125zm23.15625 -2.96875l9.71875 0l0 4.671875l-3.328125 0l0 2.15625l4.15625 0l0 1.1875l-4.15625 0l0 2.234375l2.890625 0l0 6.15625l-1.265625 0l0 -0.8125l-4.453125 0l0 1.03125l-1.265625 0l0 -6.375l2.609375 0l0 -2.234375l-3.640625 0l0 1.1875q0 4.96875 -2.15625 7.203125l-1.109375 -1.109375q2.0 -2.015625 2.0 -6.390625l0 -8.90625zm8.015625 11.4375l-4.453125 0l0 2.96875l4.453125 0l0 -2.96875zm-3.109375 -4.609375l0 -2.15625l-3.640625 0l0 2.15625l3.640625 0zm-3.640625 -3.34375l6.96875 0l0 -2.296875l-6.96875 0l0 2.296875zm-1.9375 5.578125l-1.921875 0.65625l0 5.796875q0 1.1875 -1.1875 1.1875l-1.484375 0l-0.21875 -1.40625l1.109375 0q0.296875 0 0.296875 -0.296875l0 -4.828125l-1.5625 0.515625q-0.078125 0.515625 -0.375 0.21875l-0.515625 -1.78125l2.453125 -0.515625l0 -3.859375l-2.078125 0l0 -1.40625l2.078125 0l0 -3.859375l1.40625 0q0.59375 0.078125 0.078125 0.4375l0 3.421875l1.921875 0l0 1.40625l-1.921875 0l0 3.5625l1.78125 -0.515625l0.140625 1.265625zm16.625 -5.421875q0.828125 -1.703125 2.75 -3.484375l0.8125 0.734375q-1.84375 1.703125 -2.59375 3.265625q-0.8125 1.703125 -0.8125 4.078125q0 2.015625 0.8125 3.796875q0.75 1.625 2.59375 3.640625l-0.8125 0.8125q-1.859375 -2.078125 -2.75 -3.9375q-0.953125 -2.0 -0.953125 -4.3125q0 -2.59375 0.953125 -4.59375z" fill-rule="nonzero"/><path fill="#000000" d="m510.11725 492.80188l-1.640625 0l0 -10.453125q-0.59375 0.5625 -1.5625 1.140625q-0.953125 0.5625 -1.71875 0.84375l0 -1.59375q1.375 -0.640625 2.40625 -1.5625q1.03125 -0.921875 1.453125 -1.78125l1.0625 0l0 13.40625zm4.0163574 -4.015625l0 -1.640625l5.03125 0l0 1.640625l-5.03125 0zm12.5720215 4.015625l-1.640625 0l0 -10.453125q-0.59375 0.5625 -1.5625 1.140625q-0.953125 0.5625 -1.71875 0.84375l0 -1.59375q1.375 -0.640625 2.40625 -1.5625q1.03125 -0.921875 1.453125 -1.78125l1.0625 0l0 13.40625zm4.2038574 -6.59375q0 -2.359375 0.484375 -3.796875q0.484375 -1.453125 1.4375 -2.234375q0.96875 -0.78125 2.421875 -0.78125q1.078125 0 1.890625 0.4375q0.8125 0.421875 1.328125 1.25q0.53125 0.8125 0.828125 1.984375q0.3125 1.15625 0.3125 3.140625q0 2.359375 -0.484375 3.8125q-0.484375 1.4375 -1.453125 2.234375q-0.953125 0.78125 -2.421875 0.78125q-1.921875 0 -3.03125 -1.390625q-1.3125 -1.671875 -1.3125 -5.4375zm1.671875 0q0 3.296875 0.765625 4.390625q0.78125 1.078125 1.90625 1.078125q1.140625 0 1.90625 -1.09375q0.765625 -1.09375 0.765625 -4.375q0 -3.296875 -0.765625 -4.375q-0.765625 -1.078125 -1.921875 -1.078125q-1.125 0 -1.796875 0.953125q-0.859375 1.21875 -0.859375 4.5zm8.703857 0q0 -2.359375 0.484375 -3.796875q0.484375 -1.453125 1.4375 -2.234375q0.96875 -0.78125 2.421875 -0.78125q1.078125 0 1.890625 0.4375q0.8125 0.421875 1.328125 1.25q0.53125 0.8125 0.828125 1.984375q0.3125 1.15625 0.3125 3.140625q0 2.359375 -0.484375 3.8125q-0.484375 1.4375 -1.453125 2.234375q-0.953125 0.78125 -2.421875 0.78125q-1.921875 0 -3.03125 -1.390625q-1.3125 -1.671875 -1.3125 -5.4375zm1.671875 0q0 3.296875 0.765625 4.390625q0.78125 1.078125 1.90625 1.078125q1.140625 0 1.90625 -1.09375q0.765625 -1.09375 0.765625 -4.375q0 -3.296875 -0.765625 -4.375q-0.765625 -1.078125 -1.921875 -1.078125q-1.125 0 -1.796875 0.953125q-0.859375 1.21875 -0.859375 4.5zm8.703857 0q0 -2.359375 0.484375 -3.796875q0.484375 -1.453125 1.4375 -2.234375q0.96875 -0.78125 2.421875 -0.78125q1.078125 0 1.890625 0.4375q0.8125 0.421875 1.328125 1.25q0.53125 0.8125 0.828125 1.984375q0.3125 1.15625 0.3125 3.140625q0 2.359375 -0.484375 3.8125q-0.484375 1.4375 -1.453125 2.234375q-0.953125 0.78125 -2.421875 0.78125q-1.921875 0 -3.03125 -1.390625q-1.3125 -1.671875 -1.3125 -5.4375zm1.671875 0q0 3.296875 0.765625 4.390625q0.78125 1.078125 1.90625 1.078125q1.140625 0 1.90625 -1.09375q0.765625 -1.09375 0.765625 -4.375q0 -3.296875 -0.765625 -4.375q-0.765625 -1.078125 -1.921875 -1.078125q-1.125 0 -1.796875 0.953125q-0.859375 1.21875 -0.859375 4.5z" fill-rule="nonzero"/><path fill="#000000" d="m566.30225 490.42688q-0.890625 1.859375 -2.75 3.9375l-0.8125 -0.8125q1.859375 -2.015625 2.59375 -3.640625q0.828125 -1.78125 0.828125 -3.796875q0 -2.375 -0.828125 -4.078125q-0.734375 -1.5625 -2.59375 -3.265625l0.8125 -0.734375q1.9375 1.78125 2.75 3.484375q0.96875 2.0 0.96875 4.59375q0 2.3125 -0.96875 4.3125z" fill-rule="nonzero"/><path fill="#000000" fill-opacity="0.0" d="m396.90814 268.88715l709.10236 0l0 104.06299l-709.10236 0z" fill-rule="evenodd"/><path fill="#000000" d="m419.72064 291.729q1.03125 -2.015625 1.25 -6.09375l-2.515625 0q0.21875 4.078125 1.265625 6.09375zm2.734375 -6.09375q-0.140625 4.609375 -1.78125 7.421875q1.1875 1.484375 3.34375 2.59375l-0.96875 1.640625q-2.375 -1.5625 -3.328125 -2.96875q-1.71875 1.9375 -5.28125 3.34375l-0.734375 -1.484375q3.859375 -1.5625 5.125 -3.203125q-1.265625 -2.4375 -1.421875 -4.890625q-0.4375 1.109375 -0.890625 1.703125l-1.25 -0.96875q2.21875 -3.265625 2.671875 -8.078125l1.546875 0.359375q0.453125 0.296875 -0.21875 0.453125q-0.21875 1.328125 -0.59375 2.671875l5.046875 0l0 1.40625l-1.265625 0zm-6.890625 -3.5625q-0.453125 1.109375 -1.046875 1.859375l-1.1875 -0.671875q0.59375 -0.96875 1.109375 -2.21875l1.34375 0.65625q0.296875 0.296875 -0.21875 0.375zm-4.75 10.46875q1.03125 0.296875 1.84375 0.671875q0.59375 -0.671875 0.96875 -2.015625l-2.15625 0q-0.296875 0.671875 -0.65625 1.34375zm-1.046875 1.859375l-1.1875 -0.671875q0.75 -1.109375 1.484375 -2.53125l-2.8125 0l0 -1.1875l3.265625 0q0.4375 -0.953125 0.65625 -1.625l1.421875 0.375q0.296875 0.296875 -0.234375 0.359375l-0.4375 0.890625l4.234375 0l0 1.1875l-1.125 0q-0.359375 1.484375 -1.109375 2.53125q0.671875 0.296875 1.40625 0.734375l-0.65625 1.1875q-0.828125 -0.515625 -1.484375 -0.8125q-1.9375 1.9375 -5.203125 2.375l-0.515625 -1.328125q2.890625 -0.296875 4.453125 -1.640625q-0.8125 -0.375 -1.640625 -0.671875l-0.515625 0.828125zm1.484375 -13.953125l1.1875 0q0.59375 0.0625 0.078125 0.4375l0 3.1875l3.78125 0l0 1.1875l-3.109375 0q0.8125 0.96875 2.515625 1.859375l-0.8125 1.265625q-1.265625 -0.75 -2.375 -2.078125l0 1.78125l-1.265625 0l0 -1.40625q-1.1875 1.484375 -3.265625 2.671875l-0.96875 -1.1875q2.3125 -1.1875 3.796875 -2.90625l-3.421875 0l0 -1.1875l3.859375 0l0 -3.625zm-2.078125 3.40625q-0.515625 -1.109375 -1.328125 -1.921875l1.1875 -0.75q0.890625 0.890625 1.328125 1.859375l-1.1875 0.8125zm23.15625 -2.96875l9.71875 0l0 4.671875l-3.328125 0l0 2.15625l4.15625 0l0 1.1875l-4.15625 0l0 2.234375l2.890625 0l0 6.15625l-1.265625 0l0 -0.8125l-4.453125 0l0 1.03125l-1.265625 0l0 -6.375l2.609375 0l0 -2.234375l-3.640625 0l0 1.1875q0 4.96875 -2.15625 7.203125l-1.109375 -1.109375q2.0 -2.015625 2.0 -6.390625l0 -8.90625zm8.015625 11.4375l-4.453125 0l0 2.96875l4.453125 0l0 -2.96875zm-3.109375 -4.609375l0 -2.15625l-3.640625 0l0 2.15625l3.640625 0zm-3.640625 -3.34375l6.96875 0l0 -2.296875l-6.96875 0l0 2.296875zm-1.9375 5.578125l-1.921875 0.65625l0 5.796875q0 1.1875 -1.1875 1.1875l-1.484375 0l-0.21875 -1.40625l1.109375 0q0.296875 0 0.296875 -0.296875l0 -4.828125l-1.5625 0.515625q-0.078125 0.515625 -0.375 0.21875l-0.515625 -1.78125l2.453125 -0.515625l0 -3.859375l-2.078125 0l0 -1.40625l2.078125 0l0 -3.859375l1.40625 0q0.59375 0.078125 0.078125 0.4375l0 3.421875l1.921875 0l0 1.40625l-1.921875 0l0 3.5625l1.78125 -0.515625l0.140625 1.265625zm16.625 -5.421875q0.828125 -1.703125 2.75 -3.484375l0.8125 0.734375q-1.84375 1.703125 -2.59375 3.265625q-0.8125 1.703125 -0.8125 4.078125q0 2.015625 0.8125 3.796875q0.75 1.625 2.59375 3.640625l-0.8125 0.8125q-1.859375 -2.078125 -2.75 -3.9375q-0.953125 -2.0 -0.953125 -4.3125q0 -2.59375 0.953125 -4.59375z" fill-rule="nonzero"/><path fill="#000000" d="m460.36127 295.80713l-1.640625 0l0 -10.453125q-0.59375 0.5625 -1.5625 1.140625q-0.953125 0.5625 -1.71875 0.84375l0 -1.59375q1.375 -0.640625 2.40625 -1.5625q1.03125 -0.921875 1.453125 -1.78125l1.0625 0l0 13.40625zm4.016327 -4.015625l0 -1.640625l5.03125 0l0 1.640625l-5.03125 0zm12.572052 4.015625l-1.640625 0l0 -10.453125q-0.59375 0.5625 -1.5625 1.140625q-0.953125 0.5625 -1.71875 0.84375l0 -1.59375q1.375 -0.640625 2.40625 -1.5625q1.03125 -0.921875 1.453125 -1.78125l1.0625 0l0 13.40625zm4.2038574 -6.59375q0 -2.359375 0.484375 -3.796875q0.484375 -1.453125 1.4375 -2.234375q0.96875 -0.78125 2.421875 -0.78125q1.078125 0 1.890625 0.4375q0.8125 0.421875 1.328125 1.25q0.53125 0.8125 0.828125 1.984375q0.3125 1.15625 0.3125 3.140625q0 2.359375 -0.484375 3.8125q-0.484375 1.4375 -1.453125 2.234375q-0.953125 0.78125 -2.421875 0.78125q-1.921875 0 -3.03125 -1.390625q-1.3125 -1.671875 -1.3125 -5.4375zm1.671875 0q0 3.296875 0.765625 4.390625q0.78125 1.078125 1.90625 1.078125q1.140625 0 1.90625 -1.09375q0.765625 -1.09375 0.765625 -4.375q0 -3.296875 -0.765625 -4.375q-0.765625 -1.078125 -1.921875 -1.078125q-1.125 0 -1.796875 0.953125q-0.859375 1.21875 -0.859375 4.5zm8.703827 0q0 -2.359375 0.484375 -3.796875q0.484375 -1.453125 1.4375 -2.234375q0.96875 -0.78125 2.421875 -0.78125q1.078125 0 1.890625 0.4375q0.8125 0.421875 1.328125 1.25q0.53125 0.8125 0.828125 1.984375q0.3125 1.15625 0.3125 3.140625q0 2.359375 -0.484375 3.8125q-0.484375 1.4375 -1.453125 2.234375q-0.953125 0.78125 -2.421875 0.78125q-1.921875 0 -3.03125 -1.390625q-1.3125 -1.671875 -1.3125 -5.4375zm1.671875 0q0 3.296875 0.765625 4.390625q0.78125 1.078125 1.90625 1.078125q1.140625 0 1.90625 -1.09375q0.765625 -1.09375 0.765625 -4.375q0 -3.296875 -0.765625 -4.375q-0.765625 -1.078125 -1.921875 -1.078125q-1.125 0 -1.796875 0.953125q-0.859375 1.21875 -0.859375 4.5zm8.703857 0q0 -2.359375 0.484375 -3.796875q0.484375 -1.453125 1.4375 -2.234375q0.96875 -0.78125 2.421875 -0.78125q1.078125 0 1.890625 0.4375q0.8125 0.421875 1.328125 1.25q0.53125 0.8125 0.828125 1.984375q0.3125 1.15625 0.3125 3.140625q0 2.359375 -0.484375 3.8125q-0.484375 1.4375 -1.453125 2.234375q-0.953125 0.78125 -2.421875 0.78125q-1.921875 0 -3.03125 -1.390625q-1.3125 -1.671875 -1.3125 -5.4375zm1.671875 0q0 3.296875 0.765625 4.390625q0.78125 1.078125 1.90625 1.078125q1.140625 0 1.90625 -1.09375q0.765625 -1.09375 0.765625 -4.375q0 -3.296875 -0.765625 -4.375q-0.765625 -1.078125 -1.921875 -1.078125q-1.125 0 -1.796875 0.953125q-0.859375 1.21875 -0.859375 4.5z" fill-rule="nonzero"/><path fill="#000000" d="m516.54626 293.43213q-0.890625 1.859375 -2.75 3.9375l-0.8125 -0.8125q1.859375 -2.015625 2.59375 -3.640625q0.828125 -1.78125 0.828125 -3.796875q0 -2.375 -0.828125 -4.078125q-0.734375 -1.5625 -2.59375 -3.265625l0.8125 -0.734375q1.9375 1.78125 2.75 3.484375q0.96875 2.0 0.96875 4.59375q0 2.3125 -0.96875 4.3125z" fill-rule="nonzero"/><path fill="#000000" fill-opacity="0.0" d="m597.78217 574.79004l-267.43307 38.70862" fill-rule="evenodd"/><path stroke="#000000" stroke-width="1.0" stroke-linejoin="round" stroke-linecap="butt" d="m597.78217 574.79004l-261.49496 37.84912" fill-rule="evenodd"/><path fill="#000000" stroke="#000000" stroke-width="1.0" stroke-linecap="butt" d="m336.0506 611.0045l-4.2546997 2.284729l4.7279053 0.98461914z" fill-rule="evenodd"/><path fill="#000000" fill-opacity="0.0" d="m389.6483 549.62994l720.0 0l0 104.06299l-720.0 0z" fill-rule="evenodd"/><path fill="#000000" d="m402.80453 569.2062l0 5.265625l1.5625 0l0 -5.265625l-1.5625 0zm2.828125 -1.1875l0 7.640625l-2.828125 0l0 2.0l-1.265625 0l0 -6.828125q-0.4375 0.96875 -1.40625 1.9375l-0.96875 -1.34375q2.53125 -2.515625 3.203125 -7.640625l-2.3125 0l0 -1.40625l6.390625 0l0 1.40625l-2.671875 0q-0.21875 2.15625 -0.890625 4.234375l2.75 0zm0 -0.53125q2.59375 -2.375 3.5625 -6.375l1.484375 0q0.734375 0.140625 -0.078125 0.4375l-0.375 0.96875l3.1875 0l0.15625 -0.21875l1.265625 0.4375q0.65625 0.296875 -0.078125 0.453125l-2.0 2.671875l3.328125 0l0 10.765625q0 1.265625 -1.109375 1.265625l-1.78125 0l-0.296875 -1.421875l1.484375 0q0.21875 0 0.21875 -0.21875l0 -2.890625l-5.265625 0q-0.4375 3.484375 -2.75 4.75l-0.8125 -1.265625q2.078125 -1.1875 2.078125 -4.75l0 -4.90625q-0.515625 0.75 -1.40625 1.5625l-0.8125 -1.265625zm6.96875 1.484375l2.0 0l0 -1.703125l-2.0 0l0 1.703125zm-3.265625 0l2.0 0l0 -1.703125l-2.0 0l0 1.703125zm2.0 1.1875l-2.0 0l0 1.78125l2.0 0l0 -1.78125zm1.265625 1.78125l2.0 0l0 -1.78125l-2.0 0l0 1.78125zm-2.8125 -8.234375q-0.375 1.109375 -1.046875 2.15625l2.671875 0l1.34375 -2.15625l-2.96875 0z" fill-rule="nonzero"/><path fill="#000000" d="m434.11703 578.2999q-1.96875 -1.671875 -3.03125 -3.5q-1.046875 -1.828125 -1.78125 -4.734375q-0.796875 3.203125 -2.296875 5.21875q-1.484375 2.0 -2.796875 3.09375q-0.296875 -0.515625 -1.390625 -1.03125q1.609375 -1.09375 2.875 -2.796875q1.28125 -1.71875 1.890625 -3.421875q0.625 -1.71875 0.734375 -3.421875q0.109375 -1.71875 0.109375 -3.03125q0 -1.3125 -0.0625 -3.0625q0.875 0.078125 1.890625 0.078125q-0.21875 0.28125 -0.296875 1.59375q-0.0625 1.3125 0.078125 3.328125q0.140625 2.0 0.71875 3.828125q0.59375 1.8125 1.6875 3.640625q1.09375 1.8125 3.125 3.046875q-1.15625 0.4375 -1.453125 1.171875zm-13.546875 -2.484375q0.5 -0.578125 0.5 -1.234375l0 -6.125q-1.671875 0 -2.46875 0.078125l0 -1.390625q0.796875 0.078125 1.75 0.078125l2.25 0q-0.078125 1.3125 -0.078125 2.484375l0 4.296875q0.59375 -0.59375 2.265625 -2.484375q0.296875 0.65625 0.796875 1.3125q-1.09375 1.09375 -2.109375 2.1875q-1.015625 1.09375 -1.671875 1.96875q-0.734375 -0.734375 -1.234375 -1.171875zm2.609375 -10.34375q-1.15625 -1.609375 -2.609375 -2.765625q0.65625 -0.4375 1.015625 -1.015625q1.15625 0.9375 2.765625 2.765625q-0.734375 0.4375 -1.171875 1.015625zm23.40625 -4.296875q0.5 1.3125 0.9375 2.546875l2.625 0q1.53125 0 3.203125 -0.078125l0 1.3125q-1.671875 -0.0625 -3.203125 -0.0625l-9.546875 0q0 4.296875 -0.140625 6.125q-0.140625 1.8125 -0.546875 3.71875q-0.40625 1.890625 -1.421875 3.640625q-0.515625 -0.65625 -1.3125 -1.09375q0.953125 -1.25 1.453125 -3.46875q0.515625 -2.21875 0.578125 -4.765625q0.078125 -2.5625 0.015625 -5.328125l6.546875 0q-0.21875 -1.015625 -0.71875 -2.03125q0.71875 -0.15625 1.53125 -0.515625zm6.109375 6.265625q-0.71875 1.609375 -1.265625 3.140625q-0.546875 1.515625 -2.15625 5.3125l2.046875 0q1.015625 0 2.25 -0.078125l0 1.53125q-1.234375 -0.0625 -2.25 -0.0625l-7.796875 0q-1.25 0 -2.984375 0.0625l0 -1.53125q1.671875 0.078125 2.984375 0.078125l4.296875 0q1.09375 -2.265625 1.921875 -4.734375q0.84375 -2.484375 1.203125 -4.375q0.953125 0.515625 1.75 0.65625zm-10.265625 0.796875q1.890625 3.0 2.84375 5.25q-0.515625 0.296875 -1.25 0.734375q-1.453125 -3.28125 -2.765625 -5.171875q0.65625 -0.515625 1.171875 -0.8125zm3.5 -1.671875q1.453125 2.546875 2.546875 5.03125q-0.65625 0.359375 -1.390625 0.71875q-0.875 -2.46875 -2.328125 -5.09375q0.578125 -0.21875 1.171875 -0.65625z" fill-rule="nonzero"/><path fill="#000000" d="m456.00766 570.31555q4.453125 -1.265625 7.9375 -4.96875l1.703125 0.296875q0.296875 0.296875 -0.21875 0.359375q2.078125 2.375 7.640625 3.796875l-0.515625 1.625q-2.671875 -0.671875 -4.375 -1.625l0 1.03125l-7.421875 0l0 -0.96875q-1.78125 1.265625 -4.15625 2.015625l-0.59375 -1.5625zm11.578125 -0.890625q-1.5625 -0.8125 -3.203125 -2.59375q-1.03125 1.328125 -2.96875 2.59375l6.171875 0zm-11.578125 -3.5625q1.78125 -1.5625 2.8125 -4.671875l1.5625 0.4375q0.296875 0.296875 -0.21875 0.375l-0.53125 1.03125l4.609375 0l0 1.1875l-2.75 0q0.453125 0.828125 0.890625 1.9375l-1.5625 0.4375q-0.359375 -1.328125 -0.8125 -2.375l-0.8125 0q-0.890625 1.78125 -2.15625 2.90625l-1.03125 -1.265625zm10.6875 -2.828125l5.78125 0l0 1.1875l-3.484375 0q0.59375 0.828125 0.96875 1.78125l-1.5625 0.59375q-0.375 -1.25 -0.96875 -2.375l-1.265625 0l-0.65625 1.1875l-1.265625 -0.734375q1.03125 -1.640625 1.625 -3.71875l1.484375 0.453125q0.296875 0.296875 -0.21875 0.375l-0.4375 1.25zm-6.171875 10.328125l0 2.59375l8.015625 0l0 -2.59375l-8.015625 0zm-1.484375 -1.1875l10.984375 0l0 5.78125l-1.484375 0l0 -0.8125l-8.015625 0l0 1.046875l-1.484375 0l0 -6.015625z" fill-rule="nonzero"/></g></svg>