<svg version="1.1" viewBox="0.0 0.0 960.0 720.0" fill="none" stroke="none" stroke-linecap="square" stroke-miterlimit="10" xmlns:xlink="http://www.w3.org/1999/xlink" xmlns="http://www.w3.org/2000/svg"><clipPath id="p.0"><path d="m0 0l960.0 0l0 720.0l-960.0 0l0 -720.0z" clip-rule="nonzero"/></clipPath><g clip-path="url(#p.0)"><path fill="#000000" fill-opacity="0.0" d="m0 0l960.0 0l0 720.0l-960.0 0z" fill-rule="evenodd"/><path fill="#cfe2f3" d="m196.04987 100.89239l181.13385 0l0 108.91338l-181.13385 0z" fill-rule="evenodd"/><path stroke="#000000" stroke-width="1.0" stroke-linejoin="round" stroke-linecap="butt" d="m196.04987 100.89239l181.13385 0l0 108.91338l-181.13385 0z" fill-rule="evenodd"/><path fill="#000000" d="m271.5669 161.5972l7.34375 0l0 1.421875l-16.03125 0l0 -1.421875l7.203125 0l0 -4.59375l-5.125 0l0 -1.421875l5.125 0l0 -3.625l-6.53125 0l0 -1.421875l7.265625 0q-1.1875 -1.40625 -2.671875 -2.4375l1.265625 -1.125q1.484375 0.96875 2.96875 2.53125l-1.328125 1.03125l7.046875 0l0 1.421875l-6.53125 0l0 3.625l5.125 0l0 1.421875l-5.125 0l0 4.59375zm15.359375 0.828125q2.75 -1.265625 2.75 -5.578125l0 -8.53125l5.78125 0l0 12.84375q0 0.59375 0.53125 0.59375l0.4375 0q0.375 0 0.453125 -0.53125l0.140625 -1.546875l1.5625 0.59375l-0.296875 1.84375q-0.15625 1.046875 -1.1875 1.046875l-1.78125 0q-1.34375 0 -1.34375 -1.265625l0 -12.171875l-2.8125 0l0 7.046875q0 5.34375 -3.1875 7.0625l-1.046875 -1.40625zm-0.4375 1.40625l-1.484375 0l0 -7.578125q-1.046875 2.375 -2.609375 4.078125l-0.953125 -1.625q2.96875 -3.046875 3.40625 -6.3125l-2.96875 0l0 -1.40625l3.125 0l0 -3.9375l1.40625 0q0.734375 0.078125 0.078125 0.453125l0 3.484375l2.59375 0l0 1.40625l-2.59375 0l0 2.234375q1.328125 0.59375 2.671875 1.625l-0.828125 1.703125q-0.890625 -0.953125 -1.84375 -1.78125l0 7.65625z" fill-rule="nonzero"/><path fill="#000000" d="m299.36377 162.26907l5.125 -13.359375l1.90625 0l5.46875 13.359375l-2.015625 0l-1.546875 -4.046875l-5.59375 0l-1.46875 4.046875l-1.875 0zm3.859375 -5.484375l4.53125 0l-1.40625 -3.703125q-0.625 -1.6875 -0.9375 -2.765625q-0.265625 1.28125 -0.71875 2.546875l-1.46875 3.921875z" fill-rule="nonzero"/><path fill="#cfe2f3" d="m581.22046 100.89239l181.13385 0l0 108.91338l-181.13385 0z" fill-rule="evenodd"/><path stroke="#000000" stroke-width="1.0" stroke-linejoin="round" stroke-linecap="butt" d="m581.22046 100.89239l181.13385 0l0 108.91338l-181.13385 0z" fill-rule="evenodd"/><path fill="#000000" d="m656.7375 161.5972l7.34375 0l0 1.421875l-16.03125 0l0 -1.421875l7.203125 0l0 -4.59375l-5.125 0l0 -1.421875l5.125 0l0 -3.625l-6.53125 0l0 -1.421875l7.265625 0q-1.1875 -1.40625 -2.671875 -2.4375l1.265625 -1.125q1.484375 0.96875 2.96875 2.53125l-1.328125 1.03125l7.046875 0l0 1.421875l-6.53125 0l0 3.625l5.125 0l0 1.421875l-5.125 0l0 4.59375zm15.359375 0.828125q2.75 -1.265625 2.75 -5.578125l0 -8.53125l5.78125 0l0 12.84375q0 0.59375 0.53125 0.59375l0.4375 0q0.375 0 0.453125 -0.53125l0.140625 -1.546875l1.5625 0.59375l-0.296875 1.84375q-0.15625 1.046875 -1.1875 1.046875l-1.78125 0q-1.34375 0 -1.34375 -1.265625l0 -12.171875l-2.8125 0l0 7.046875q0 5.34375 -3.1875 7.0625l-1.046875 -1.40625zm-0.4375 1.40625l-1.484375 0l0 -7.578125q-1.046875 2.375 -2.609375 4.078125l-0.953125 -1.625q2.96875 -3.046875 3.40625 -6.3125l-2.96875 0l0 -1.40625l3.125 0l0 -3.9375l1.40625 0q0.734375 0.078125 0.078125 0.453125l0 3.484375l2.59375 0l0 1.40625l-2.59375 0l0 2.234375q1.328125 0.59375 2.671875 1.625l-0.828125 1.703125q-0.890625 -0.953125 -1.84375 -1.78125l0 7.65625z" fill-rule="nonzero"/><path fill="#000000" d="m685.925 162.26907l0 -13.359375l5.015625 0q1.53125 0 2.453125 0.40625q0.921875 0.40625 1.4375 1.25q0.53125 0.84375 0.53125 1.765625q0 0.859375 -0.46875 1.625q-0.453125 0.75 -1.390625 1.203125q1.203125 0.359375 1.859375 1.21875q0.65625 0.859375 0.65625 2.015625q0 0.9375 -0.40625 1.75q-0.390625 0.796875 -0.984375 1.234375q-0.578125 0.4375 -1.453125 0.671875q-0.875 0.21875 -2.15625 0.21875l-5.09375 0zm1.78125 -7.75l2.875 0q1.1875 0 1.6875 -0.140625q0.671875 -0.203125 1.015625 -0.671875q0.34375 -0.46875 0.34375 -1.171875q0 -0.65625 -0.328125 -1.15625q-0.3125 -0.515625 -0.90625 -0.703125q-0.59375 -0.1875 -2.03125 -0.1875l-2.65625 0l0 4.03125zm0 6.171875l3.3125 0q0.859375 0 1.203125 -0.0625q0.609375 -0.109375 1.015625 -0.359375q0.421875 -0.265625 0.6875 -0.75q0.265625 -0.484375 0.265625 -1.125q0 -0.75 -0.390625 -1.296875q-0.375 -0.546875 -1.0625 -0.765625q-0.671875 -0.234375 -1.953125 -0.234375l-3.078125 0l0 4.59375z" fill-rule="nonzero"/><path fill="#000000" fill-opacity="0.0" d="m286.6168 209.80577l-2.2991943 483.81104" fill-rule="evenodd"/><path stroke="#000000" stroke-width="1.0" stroke-linejoin="round" stroke-linecap="butt" d="m286.6168 209.80577l-2.2991943 483.81104" fill-rule="evenodd"/><path fill="#000000" fill-opacity="0.0" d="m670.7008 215.54068l1.1338501 478.07877" fill-rule="evenodd"/><path stroke="#000000" stroke-width="1.0" stroke-linejoin="round" stroke-linecap="butt" d="m670.7008 215.54068l1.1338501 478.07877" fill-rule="evenodd"/><path fill="#000000" fill-opacity="0.0" d="m293.50394 243.05774l349.66928 46.992126" fill-rule="evenodd"/><path stroke="#000000" stroke-width="1.0" stroke-linejoin="round" stroke-linecap="butt" d="m293.50394 243.05774l343.72275 46.192993" fill-rule="evenodd"/><path fill="#000000" stroke="#000000" stroke-width="1.0" stroke-linecap="butt" d="m637.0067 290.88773l4.7176514 -1.0325623l-4.277649 -2.241455z" fill-rule="evenodd"/><path fill="#000000" fill-opacity="0.0" d="m652.35693 311.84778l-358.86612 51.590546" fill-rule="evenodd"/><path stroke="#000000" stroke-width="1.0" stroke-linejoin="round" stroke-linecap="butt" d="m652.35693 311.84778l-352.9272 50.736755" fill-rule="evenodd"/><path fill="#000000" stroke="#000000" stroke-width="1.0" stroke-linecap="butt" d="m299.19473 360.94962l-4.256897 2.2806702l4.726959 0.98916626z" fill-rule="evenodd"/><path fill="#000000" fill-opacity="0.0" d="m294.6378 385.2362l356.56693 4.5669556" fill-rule="evenodd"/><path stroke="#000000" stroke-width="1.0" stroke-linejoin="round" stroke-linecap="butt" d="m294.6378 385.2362l350.5674 4.490082" fill-rule="evenodd"/><path fill="#000000" stroke="#000000" stroke-width="1.0" stroke-linecap="butt" d="m645.1841 391.3779l4.558838 -1.5934753l-4.5165405 -1.7097168z" fill-rule="evenodd"/><path fill="#000000" fill-opacity="0.0" d="m288.91602 475.7953l361.13385 38.992126" fill-rule="evenodd"/><path stroke="#000000" stroke-width="1.0" stroke-linejoin="round" stroke-linecap="butt" d="m288.91602 475.7953l355.16852 38.348022" fill-rule="evenodd"/><path fill="#000000" stroke="#000000" stroke-width="1.0" stroke-linecap="butt" d="m643.9072 515.7855l4.689209 -1.1550293l-4.3345947 -2.1293945z" fill-rule="evenodd"/><path fill="#000000" fill-opacity="0.0" d="m644.3307 542.29395l-343.93698 26.362244" fill-rule="evenodd"/><path stroke="#000000" stroke-width="1.0" stroke-linejoin="round" stroke-linecap="butt" d="m644.3307 542.29395l-337.95453 25.903687" fill-rule="evenodd"/><path fill="#000000" stroke="#000000" stroke-width="1.0" stroke-linecap="butt" d="m306.2499 566.5507l-4.39859 1.9937134l4.651062 1.3001099z" fill-rule="evenodd"/><path fill="#000000" fill-opacity="0.0" d="m644.3307 585.8609l-339.37006 30.960632" fill-rule="evenodd"/><path stroke="#000000" stroke-width="1.0" stroke-linejoin="round" stroke-linecap="butt" d="m644.3307 585.8609l-333.39487 30.415527" fill-rule="evenodd"/><path fill="#000000" stroke="#000000" stroke-width="1.0" stroke-linecap="butt" d="m310.78577 614.63153l-4.369293 2.05719l4.669403 1.232605z" fill-rule="evenodd"/><path fill="#000000" fill-opacity="0.0" d="m299.2362 635.1601l348.53546 40.125977" fill-rule="evenodd"/><path stroke="#000000" stroke-width="1.0" stroke-linejoin="round" stroke-linecap="butt" d="m299.2362 635.1601l342.57483 39.43976" fill-rule="evenodd"/><path fill="#000000" stroke="#000000" stroke-width="1.0" stroke-linecap="butt" d="m641.62213 676.2407l4.6972046 -1.1218262l-4.319397 -2.159912z" fill-rule="evenodd"/><path fill="#000000" fill-opacity="0.0" d="m397.83466 218.98163l659.2441 0l0 93.102356l-659.2441 0z" fill-rule="evenodd"/><path fill="#000000" d="m407.6784 241.60475l1.65625 -0.140625q0.125 1.0 0.546875 1.640625q0.4375 0.640625 1.34375 1.046875q0.921875 0.390625 2.0625 0.390625q1.0 0 1.78125 -0.296875q0.78125 -0.296875 1.15625 -0.8125q0.375 -0.53125 0.375 -1.15625q0 -0.625 -0.375 -1.09375q-0.359375 -0.46875 -1.1875 -0.796875q-0.546875 -0.203125 -2.390625 -0.640625q-1.828125 -0.453125 -2.5625 -0.84375q-0.96875 -0.5 -1.4375 -1.234375q-0.46875 -0.75 -0.46875 -1.671875q0 -1.0 0.578125 -1.875q0.578125 -0.890625 1.671875 -1.34375q1.109375 -0.453125 2.453125 -0.453125q1.484375 0 2.609375 0.484375q1.140625 0.46875 1.75 1.40625q0.609375 0.921875 0.65625 2.09375l-1.6875 0.125q-0.140625 -1.265625 -0.9375 -1.90625q-0.78125 -0.65625 -2.3125 -0.65625q-1.609375 0 -2.34375 0.59375q-0.734375 0.59375 -0.734375 1.421875q0 0.71875 0.53125 1.171875q0.5 0.46875 2.65625 0.96875q2.15625 0.484375 2.953125 0.84375q1.171875 0.53125 1.71875 1.359375q0.5625 0.828125 0.5625 1.90625q0 1.0625 -0.609375 2.015625q-0.609375 0.9375 -1.75 1.46875q-1.140625 0.515625 -2.578125 0.515625q-1.8125 0 -3.046875 -0.53125q-1.21875 -0.53125 -1.921875 -1.59375q-0.6875 -1.0625 -0.71875 -2.40625zm16.802948 4.296875l0 -5.65625l-5.15625 -7.703125l2.15625 0l2.640625 4.03125q0.71875 1.125 1.34375 2.265625q0.609375 -1.046875 1.46875 -2.359375l2.578125 -3.9375l2.0625 0l-5.328125 7.703125l0 5.65625l-1.765625 0zm8.662323 0l0 -13.359375l1.8125 0l7.015625 10.484375l0 -10.484375l1.6875 0l0 13.359375l-1.8125 0l-7.015625 -10.5l0 10.5l-1.6875 0z" fill-rule="nonzero"/><path fill="#000000" d="m458.17493 241.66725q0 -1.234375 -0.078125 -2.90625l8.453125 0q-0.0625 1.234375 -0.0625 2.46875l0 5.25q0 0.65625 -0.484375 0.84375q-0.46875 0.1875 -1.625 0.40625q-0.15625 -0.65625 -0.59375 -1.3125q1.3125 0 1.3125 -0.4375l0 -1.46875l-5.53125 0l0 3.0625l-1.46875 0q0.078125 -1.453125 0.078125 -2.84375l0 -3.0625zm-1.53125 -4.953125q1.171875 0.078125 4.953125 0.078125l0 -1.390625q-2.765625 0 -3.9375 0.078125l0 -1.09375q1.171875 0.078125 3.9375 0.078125l0 -1.09375q-3.125 0 -4.375 0.0625l0 -1.15625q1.3125 0.0625 4.375 0.0625q0 -0.796875 -0.0625 -1.515625l1.53125 0q-0.078125 0.796875 -0.078125 1.515625q3.421875 0 4.59375 -0.0625l0 1.15625q-1.171875 -0.0625 -4.59375 -0.0625l0 1.09375q3.203125 0 4.15625 -0.078125l0 1.09375q-1.09375 -0.078125 -4.15625 -0.078125l0 1.390625q4.15625 0 5.25 -0.078125l0 1.171875q-0.953125 -0.078125 -5.6875 -0.078125q-4.671875 0 -5.90625 0.078125l0 -1.171875zm0.734375 6.78125q-0.953125 0.734375 -1.96875 1.640625q-1.015625 0.90625 -1.671875 1.640625q-0.515625 -0.796875 -1.03125 -1.3125q0.734375 -0.515625 0.734375 -1.390625l0 -6.1875q-1.09375 0 -2.265625 0.078125l0 -1.3125q0.953125 0.0625 1.53125 0.0625l2.125 0q-0.078125 1.171875 -0.078125 2.625l0 4.734375q1.15625 -1.015625 1.8125 -1.8125q0.296875 0.71875 0.8125 1.234375zm7.71875 0l0 -1.390625l-5.53125 0l0 1.390625l5.53125 0zm0 -2.40625l0 -1.234375l-5.53125 0l0 1.234375l5.53125 0zm-10.125 -6.125q-1.09375 -1.59375 -2.484375 -2.84375q0.515625 -0.359375 0.953125 -0.796875q1.671875 1.453125 2.625 2.703125q-0.65625 0.578125 -1.09375 0.9375z" fill-rule="nonzero"/><path fill="#000000" d="m470.2218 243.96413q4.53125 -2.4375 7.34375 -4.890625l0 -3.640625l-7.265625 0l0 -1.40625l7.265625 0l0 -3.34375l1.421875 0q0.59375 0.078125 0.0625 0.453125l0 2.890625l3.859375 0q-0.890625 -0.890625 -2.375 -1.5625l1.1875 -1.265625q1.34375 0.53125 2.609375 1.71875l-1.1875 1.109375l3.109375 0l0 1.40625l-7.203125 0l0 0.59375q0.296875 1.265625 1.5625 3.1875q1.640625 -1.1875 3.046875 -2.890625l1.40625 1.265625q0.078125 0.375 -0.375 0.21875q-1.03125 1.046875 -3.109375 2.53125q1.625 2.140625 5.265625 3.78125l-0.96875 1.859375q-4.515625 -2.234375 -6.828125 -6.828125l0 7.046875q0 1.1875 -1.1875 1.1875l-1.84375 0l-0.296875 -1.640625l1.546875 0q0.296875 0 0.296875 -0.296875l0 -4.375q-1.921875 1.78125 -5.859375 4.3125q0.15625 0.4375 -0.21875 0.359375l-1.265625 -1.78125zm4.078125 -3.5625q-1.1875 -1.484375 -2.4375 -2.4375l1.25 -1.265625q1.34375 0.734375 2.609375 2.21875l-1.421875 1.484375zm31.84375 5.125l-0.4375 1.421875l-8.171875 0q-2.96875 0 -4.828125 -1.796875q-1.40625 1.796875 -2.8125 2.609375l-0.96875 -1.484375q1.5625 -0.828125 2.828125 -2.3125q-1.421875 -2.375 -1.859375 -3.921875l1.265625 -0.296875q0.359375 1.1875 1.328125 2.8125q0.671875 -1.859375 0.671875 -3.640625l0 -0.65625l-1.5625 0l-0.671875 0.953125l-1.40625 -0.59375q1.640625 -2.734375 2.96875 -5.484375l-3.046875 0l0 -1.40625l3.34375 0l0.296875 -0.375l1.484375 1.109375q0.15625 0.15625 -0.296875 0.296875l-2.0 4.078125l2.375 0l0 1.125q0 3.625 -1.1875 6.0q1.484375 1.5625 4.671875 1.5625l8.015625 0zm-6.96875 -10.765625l0 -1.25l-3.5 0l0 -1.1875l3.5 0l0 -1.859375l1.1875 0q0.59375 0.078125 0.0625 0.4375l0 1.421875l3.859375 0l0 2.4375l1.484375 0l0 1.1875l-1.484375 0l0 2.53125l-3.859375 0l0 1.03125l4.09375 0l0 1.1875l-4.09375 0l0 1.421875l4.984375 0l0 1.1875l-4.984375 0l0 1.625l-1.25 0l0 -1.625l-4.390625 0l0 -1.1875l4.390625 0l0 -1.421875l-3.421875 0l0 -1.1875l3.421875 0l0 -1.03125l-3.5 0l0 -1.1875l3.5 0l0 -1.34375l-4.828125 0l0 -1.1875l4.828125 0zm3.859375 1.1875l-2.609375 0l0 1.34375l2.609375 0l0 -1.34375zm0 -2.4375l-2.609375 0l0 1.25l2.609375 0l0 -1.25zm21.671875 11.34375l0 1.640625l-16.484375 0l0 -1.640625l8.90625 0q1.5625 -4.21875 2.234375 -8.53125l2.078125 0.671875q0.296875 0.296875 -0.234375 0.375q-0.8125 3.78125 -2.375 7.484375l5.875 0zm-11.875 -8.15625q1.109375 2.15625 1.921875 6.234375l-1.703125 0.515625q-0.96875 -4.078125 -1.78125 -6.15625l1.5625 -0.59375zm2.671875 -5.9375l1.625 0q0.75 0.140625 0.078125 0.59375l0 2.515625l6.53125 0l0 1.640625l-14.546875 0l0 -1.640625l6.3125 0l0 -3.109375z" fill-rule="nonzero"/><path fill="#000000" d="m535.2843 233.21413q0.734375 -1.671875 0.875 -2.46875q1.171875 0.515625 1.6875 0.65625q-0.375 0.296875 -1.09375 1.8125l3.921875 0q1.53125 0 2.40625 -0.0625l0 1.3125q-0.9375 -0.078125 -2.1875 -0.078125l-4.734375 0q-0.359375 0.734375 -1.75 2.984375l2.921875 0q0 -1.375 -0.078125 -2.328125l1.46875 0q-0.078125 0.796875 -0.078125 2.328125q3.640625 0 3.859375 -0.0625l0 1.375q-0.4375 -0.140625 -3.859375 -0.140625l0 2.40625l2.6875 0q1.609375 0 2.046875 -0.078125l0 1.3125q-0.875 -0.078125 -2.046875 -0.078125l-2.6875 0q0 2.046875 0.078125 3.578125l-1.46875 0q0.078125 -1.53125 0.078125 -3.578125q-5.03125 0 -5.546875 0.078125l0 -1.3125q1.96875 0.078125 5.546875 0.078125l0 -2.40625l-2.328125 0q-1.609375 0.078125 -2.046875 0.21875l-0.515625 -1.3125q0.59375 -0.359375 1.140625 -1.09375q0.546875 -0.734375 1.125 -1.96875q-1.890625 0 -2.921875 0.078125l0 -1.3125q0.953125 0.0625 3.5 0.0625zm-4.515625 4.15625q-0.0625 1.46875 -0.0625 2.40625l0 4.515625q2.109375 1.828125 6.484375 1.828125q4.4375 0 6.84375 -0.21875q-0.4375 0.734375 -0.578125 1.609375q-2.921875 0 -5.25 -0.046875q-2.328125 -0.03125 -4.15625 -0.359375q-1.828125 -0.328125 -2.890625 -1.0625q-1.046875 -0.71875 -1.703125 -0.109375q-0.65625 0.625 -1.453125 1.578125q-0.4375 -0.59375 -1.171875 -1.09375q1.6875 -1.390625 2.40625 -1.90625l0 -5.96875q-0.9375 0 -2.03125 0.078125l0 -1.3125q1.15625 0.0625 2.109375 0.0625l1.453125 0zm-1.890625 -5.890625q1.390625 1.953125 2.328125 3.484375q-0.65625 0.21875 -1.375 0.734375q-0.375 -1.09375 -2.1875 -3.359375q0.65625 -0.578125 1.234375 -0.859375z" fill-rule="nonzero"/><path fill="#000000" d="m556.7843 238.18288l0.59375 0.21875q0.296875 0.296875 -0.21875 0.375l-0.671875 1.328125l5.640625 0l0 1.421875l-1.921875 0q-0.59375 1.921875 -1.40625 2.890625q1.84375 0.671875 3.484375 1.640625l-0.890625 1.328125q-2.453125 -1.328125 -3.640625 -1.859375q-2.453125 1.640625 -5.71875 2.15625l-0.515625 -1.328125q3.125 -0.375 4.75 -1.5l-1.921875 -0.8125l-0.453125 0.671875l-1.1875 -0.59375l1.484375 -2.59375l-2.21875 0l0 -1.421875l2.96875 0l0.890625 -1.921875l-4.53125 0l0 -1.40625l3.046875 0l-0.828125 -2.671875l-1.109375 0l0 -1.421875l3.640625 0l0 -2.078125l1.40625 0q0.59375 0.078125 0.078125 0.453125l0 1.625l4.15625 0l0 1.421875l-1.5625 0l-0.8125 2.671875l3.40625 0l0 1.40625l-5.9375 0zm0.671875 5.71875q0.75 -0.828125 1.1875 -2.375l-2.8125 0l-0.890625 1.484375l2.515625 0.890625zm-1.5625 -7.125l1.9375 0l0.734375 -2.671875l-3.484375 0l0.8125 2.671875zm-7.9375 -6.171875l1.40625 0q0.59375 0.078125 0.078125 0.453125l0 2.890625l2.078125 0l0 1.40625l-2.078125 0l0 3.859375l1.5625 -0.515625l0.515625 1.265625l-2.078125 0.8125l0 5.875q0 1.03125 -1.03125 1.03125l-1.421875 0l-0.21875 -1.40625l0.890625 0q0.296875 0 0.296875 -0.296875l0 -4.6875l-1.265625 0.375q-0.0625 0.515625 -0.359375 0.21875l-0.59375 -1.625l2.21875 -0.59375l0 -4.3125l-2.0 0l0 -1.40625l2.0 0l0 -3.34375z" fill-rule="nonzero"/><path fill="#000000" fill-opacity="0.0" d="m339.3622 292.36746l292.31497 0l0 63.055115l-292.31497 0z" fill-rule="evenodd"/><path fill="#000000" d="m348.33096 319.28745l5.125 -13.359375l1.90625 0l5.46875 13.359375l-2.015625 0l-1.546875 -4.046875l-5.59375 0l-1.46875 4.046875l-1.875 0zm3.859375 -5.484375l4.53125 0l-1.40625 -3.703125q-0.625 -1.6875 -0.9375 -2.765625q-0.265625 1.28125 -0.71875 2.546875l-1.46875 3.921875zm19.584198 0.796875l1.765625 0.453125q-0.5625 2.171875 -2.0 3.328125q-1.4375 1.140625 -3.53125 1.140625q-2.15625 0 -3.515625 -0.875q-1.34375 -0.890625 -2.0625 -2.546875q-0.703125 -1.671875 -0.703125 -3.59375q0 -2.078125 0.796875 -3.625q0.796875 -1.5625 2.265625 -2.359375q1.484375 -0.8125 3.25 -0.8125q2.0 0 3.359375 1.015625q1.375 1.015625 1.90625 2.875l-1.734375 0.40625q-0.46875 -1.453125 -1.359375 -2.109375q-0.875 -0.671875 -2.203125 -0.671875q-1.546875 0 -2.578125 0.734375q-1.03125 0.734375 -1.453125 1.984375q-0.421875 1.234375 -0.421875 2.5625q0 1.703125 0.5 2.96875q0.5 1.265625 1.546875 1.90625q1.046875 0.625 2.265625 0.625q1.484375 0 2.515625 -0.859375q1.03125 -0.859375 1.390625 -2.546875zm3.863556 4.6875l0 -13.359375l1.78125 0l0 6.625l6.625 -6.625l2.390625 0l-5.59375 5.421875l5.84375 7.9375l-2.328125 0l-4.765625 -6.765625l-2.171875 2.140625l0 4.625l-1.78125 0zm15.443573 3.921875q-1.359375 -1.703125 -2.296875 -4.0q-0.9375 -2.296875 -0.9375 -4.765625q0 -2.15625 0.703125 -4.140625q0.828125 -2.3125 2.53125 -4.59375l1.171875 0q-1.09375 1.890625 -1.453125 2.703125q-0.546875 1.25 -0.875 2.625q-0.390625 1.703125 -0.390625 3.421875q0 4.375 2.71875 8.75l-1.171875 0z" fill-rule="nonzero"/><path fill="#000000" d="m396.5756 319.58432q0.515625 -0.875 0.515625 -1.90625l0 -3.0625l-1.015625 0q-0.65625 0 -1.75 0.078125l0 -1.375q1.09375 0.0625 1.671875 0.0625l1.09375 0l0 -2.03125q-0.515625 0 -1.671875 0.0625l0 -1.234375l-0.8125 1.015625q-0.4375 -0.5 -1.09375 -0.796875q1.90625 -2.328125 2.625 -3.859375q0.734375 -1.53125 1.03125 -2.40625q0.5 0.359375 1.453125 0.65625q-0.375 0.359375 -1.09375 1.671875l1.671875 0q1.171875 0 2.265625 -0.078125l0 1.390625q-1.09375 -0.078125 -2.265625 -0.078125l-2.25 0q-0.515625 0.953125 -1.53125 2.34375q1.09375 0.0625 2.109375 0.0625l1.15625 0q0.953125 0 2.046875 -0.0625l0 1.375q-1.390625 -0.0625 -2.328125 -0.0625l0 2.03125l1.15625 0q0.8125 0 1.75 -0.0625l0 1.375q-1.15625 -0.078125 -1.671875 -0.078125l-1.234375 0l0 3.65625q2.1875 -1.53125 2.984375 -2.1875q0.140625 0.65625 0.359375 1.453125q-0.796875 0.578125 -1.96875 1.390625q-1.15625 0.796875 -2.171875 1.890625q-0.59375 -0.65625 -1.03125 -1.234375zm8.671875 -9.484375l0 -3.5625q0 -0.59375 -0.0625 -1.96875l1.53125 0q-0.078125 0.9375 -0.078125 1.96875l0 3.5625l2.109375 0q0.875 0 1.890625 -0.0625l0 1.375q-1.09375 -0.0625 -1.8125 -0.0625l-2.1875 0l0 7.140625q0 0.5 0.078125 2.328125l-1.53125 0q0.0625 -1.234375 0.0625 -2.265625l0 -7.203125l-2.03125 0q-0.4375 0 -1.828125 0.0625l0 -1.375q0.875 0.0625 1.609375 0.0625l2.25 0zm7.875 -3.203125q1.09375 0.078125 2.546875 0.078125l4.15625 0q-0.734375 4.65625 -1.828125 7.21875q1.828125 2.546875 2.703125 3.921875q-0.515625 0.375 -1.171875 0.953125q-1.53125 -2.625 -2.25 -3.578125q-0.875 1.53125 -1.75 2.5625q-0.875 1.015625 -2.1875 2.25q-0.515625 -0.65625 -1.171875 -0.9375q1.25 -0.875 2.265625 -2.046875q1.015625 -1.171875 1.96875 -2.984375q-1.75 -2.109375 -3.203125 -3.5q0.4375 -0.359375 1.015625 -0.953125q2.109375 2.34375 2.84375 3.140625q0.9375 -2.625 1.234375 -4.890625l-2.625 0q-1.453125 0 -2.546875 0.078125l0 -1.3125zm7.0 1.609375q1.75 0.0625 2.40625 0.0625l3.125 0l0 -2.1875q0 -0.9375 -0.140625 -2.03125l1.671875 0q-0.078125 0.875 -0.078125 2.1875l0 2.03125q0.734375 0 2.40625 -0.0625l0 1.3125q-1.671875 -0.078125 -2.40625 -0.078125l0 9.1875q0.078125 1.375 -0.90625 1.734375q-0.984375 0.375 -2.21875 0.515625q-0.21875 -0.875 -0.65625 -1.59375q1.609375 0 2.0 -0.1875q0.40625 -0.1875 0.328125 -1.0625l0 -8.59375l-3.0625 0q-0.65625 0 -2.46875 0.140625l0 -1.375zm1.53125 2.84375q1.234375 2.1875 2.109375 4.078125q-0.953125 0.359375 -1.390625 0.71875q-0.65625 -1.953125 -1.890625 -4.078125q0.515625 -0.21875 1.171875 -0.71875z" fill-rule="nonzero"/><path fill="#000000" d="m431.09122 314.99057l1.65625 -0.140625q0.125 1.0 0.546875 1.640625q0.4375 0.640625 1.34375 1.046875q0.921875 0.390625 2.0625 0.390625q1.0 0 1.78125 -0.296875q0.78125 -0.296875 1.15625 -0.8125q0.375 -0.53125 0.375 -1.15625q0 -0.625 -0.375 -1.09375q-0.359375 -0.46875 -1.1875 -0.796875q-0.546875 -0.203125 -2.390625 -0.640625q-1.828125 -0.453125 -2.5625 -0.84375q-0.96875 -0.5 -1.4375 -1.234375q-0.46875 -0.75 -0.46875 -1.671875q0 -1.0 0.578125 -1.875q0.578125 -0.890625 1.671875 -1.34375q1.109375 -0.453125 2.453125 -0.453125q1.484375 0 2.609375 0.484375q1.140625 0.46875 1.75 1.40625q0.609375 0.921875 0.65625 2.09375l-1.6875 0.125q-0.140625 -1.265625 -0.9375 -1.90625q-0.78125 -0.65625 -2.3125 -0.65625q-1.609375 0 -2.34375 0.59375q-0.734375 0.59375 -0.734375 1.421875q0 0.71875 0.53125 1.171875q0.5 0.46875 2.65625 0.96875q2.15625 0.484375 2.953125 0.84375q1.171875 0.53125 1.71875 1.359375q0.5625 0.828125 0.5625 1.90625q0 1.0625 -0.609375 2.015625q-0.609375 0.9375 -1.75 1.46875q-1.140625 0.515625 -2.578125 0.515625q-1.8125 0 -3.046875 -0.53125q-1.21875 -0.53125 -1.921875 -1.59375q-0.6875 -1.0625 -0.71875 -2.40625zm16.802948 4.296875l0 -5.65625l-5.15625 -7.703125l2.15625 0l2.640625 4.03125q0.71875 1.125 1.34375 2.265625q0.609375 -1.046875 1.46875 -2.359375l2.578125 -3.9375l2.0625 0l-5.328125 7.703125l0 5.65625l-1.765625 0zm8.662323 0l0 -13.359375l1.8125 0l7.015625 10.484375l0 -10.484375l1.6875 0l0 13.359375l-1.8125 0l-7.015625 -10.5l0 10.5l-1.6875 0z" fill-rule="nonzero"/><path fill="#000000" d="m480.26382 308.74057q-0.75 2.078125 -2.375 3.9375l-1.109375 -1.328125q2.515625 -2.53125 3.1875 -7.203125l1.5625 0.515625q0.65625 0.296875 -0.078125 0.453125q-0.21875 1.03125 -0.59375 2.21875l5.34375 0l-0.375 10.09375q-0.078125 2.96875 -2.375 2.96875l-2.078125 0l-0.21875 -1.40625l1.921875 0q1.046875 0 1.125 -1.34375l0.359375 -8.90625l-4.296875 0zm0.890625 6.90625q-1.046875 -1.484375 -2.296875 -2.671875l1.25 -1.328125q1.484375 1.328125 2.375 2.59375l-1.328125 1.40625zm-8.765625 -8.3125q0.453125 -1.40625 0.828125 -3.265625l1.78125 0.671875q0.296875 0.296875 -0.234375 0.375q-0.21875 0.953125 -0.8125 2.21875l2.75 0l0 12.25l-1.484375 0l0 -0.890625l-3.265625 0l0 1.484375l-1.484375 0l0 -12.84375l1.921875 0zm2.828125 1.40625l-3.265625 0l0 3.265625l3.265625 0l0 -3.265625zm0 4.6875l-3.265625 0l0 3.859375l3.265625 0l0 -3.859375zm16.546875 -1.484375l0 5.265625l1.5625 0l0 -5.265625l-1.5625 0zm2.828125 -1.1875l0 7.640625l-2.828125 0l0 2.0l-1.265625 0l0 -6.828125q-0.4375 0.96875 -1.40625 1.9375l-0.96875 -1.34375q2.53125 -2.515625 3.203125 -7.640625l-2.3125 0l0 -1.40625l6.390625 0l0 1.40625l-2.671875 0q-0.21875 2.15625 -0.890625 4.234375l2.75 0zm0 -0.53125q2.59375 -2.375 3.5625 -6.375l1.484375 0q0.734375 0.140625 -0.078125 0.4375l-0.375 0.96875l3.1875 0l0.15625 -0.21875l1.265625 0.4375q0.65625 0.296875 -0.078125 0.453125l-2.0 2.671875l3.328125 0l0 10.765625q0 1.265625 -1.109375 1.265625l-1.78125 0l-0.296875 -1.421875l1.484375 0q0.21875 0 0.21875 -0.21875l0 -2.890625l-5.265625 0q-0.4375 3.484375 -2.75 4.75l-0.8125 -1.265625q2.078125 -1.1875 2.078125 -4.75l0 -4.90625q-0.515625 0.75 -1.40625 1.5625l-0.8125 -1.265625zm6.96875 1.484375l2.0 0l0 -1.703125l-2.0 0l0 1.703125zm-3.265625 0l2.0 0l0 -1.703125l-2.0 0l0 1.703125zm2.0 1.1875l-2.0 0l0 1.78125l2.0 0l0 -1.78125zm1.265625 1.78125l2.0 0l0 -1.78125l-2.0 0l0 1.78125zm-2.8125 -8.234375q-0.375 1.109375 -1.046875 2.15625l2.671875 0l1.34375 -2.15625l-2.96875 0z" fill-rule="nonzero"/><path fill="#000000" d="m523.0763 321.03745q-1.96875 -1.671875 -3.03125 -3.5q-1.046875 -1.828125 -1.78125 -4.734375q-0.796875 3.203125 -2.296875 5.21875q-1.484375 2.0 -2.796875 3.09375q-0.296875 -0.515625 -1.3905945 -1.03125q1.6093445 -1.09375 2.8749695 -2.796875q1.28125 -1.71875 1.890625 -3.421875q0.625 -1.71875 0.734375 -3.421875q0.109375 -1.71875 0.109375 -3.03125q0 -1.3125 -0.0625 -3.0625q0.875 0.078125 1.890625 0.078125q-0.21875 0.28125 -0.296875 1.59375q-0.0625 1.3125 0.078125 3.328125q0.140625 2.0 0.71875 3.828125q0.59375 1.8125 1.6875 3.640625q1.09375 1.8125 3.125 3.046875q-1.15625 0.4375 -1.453125 1.171875zm-13.5468445 -2.484375q0.5 -0.578125 0.5 -1.234375l0 -6.125q-1.671875 0 -2.46875 0.078125l0 -1.390625q0.796875 0.078125 1.75 0.078125l2.25 0q-0.078125 1.3125 -0.078125 2.484375l0 4.296875q0.5937195 -0.59375 2.2655945 -2.484375q0.296875 0.65625 0.796875 1.3125q-1.09375 1.09375 -2.109375 2.1875q-1.0155945 1.09375 -1.6718445 1.96875q-0.734375 -0.734375 -1.234375 -1.171875zm2.6093445 -10.34375q-1.1562195 -1.609375 -2.6093445 -2.765625q0.65625 -0.4375 1.015625 -1.015625q1.15625 0.9375 2.7655945 2.765625q-0.734375 0.4375 -1.171875 1.015625zm23.40625 -4.296875q0.5 1.3125 0.9375 2.546875l2.625 0q1.53125 0 3.203125 -0.078125l0 1.3125q-1.671875 -0.0625 -3.203125 -0.0625l-9.546875 0q0 4.296875 -0.140625 6.125q-0.140625 1.8125 -0.546875 3.71875q-0.40625 1.890625 -1.421875 3.640625q-0.515625 -0.65625 -1.3125 -1.09375q0.953125 -1.25 1.453125 -3.46875q0.515625 -2.21875 0.578125 -4.765625q0.078125 -2.5625 0.015625 -5.328125l6.546875 0q-0.21875 -1.015625 -0.71875 -2.03125q0.71875 -0.15625 1.53125 -0.515625zm6.109375 6.265625q-0.71875 1.609375 -1.265625 3.140625q-0.546875 1.515625 -2.15625 5.3125l2.046875 0q1.015625 0 2.25 -0.078125l0 1.53125q-1.234375 -0.0625 -2.25 -0.0625l-7.796875 0q-1.25 0 -2.984375 0.0625l0 -1.53125q1.671875 0.078125 2.984375 0.078125l4.296875 0q1.09375 -2.265625 1.921875 -4.734375q0.84375 -2.484375 1.203125 -4.375q0.953125 0.515625 1.75 0.65625zm-10.265625 0.796875q1.890625 3.0 2.84375 5.25q-0.515625 0.296875 -1.25 0.734375q-1.453125 -3.28125 -2.765625 -5.171875q0.65625 -0.515625 1.171875 -0.8125zm3.5 -1.671875q1.453125 2.546875 2.546875 5.03125q-0.65625 0.359375 -1.390625 0.71875q-0.875 -2.46875 -2.328125 -5.09375q0.578125 -0.21875 1.171875 -0.65625z" fill-rule="nonzero"/><path fill="#000000" d="m544.9669 313.05307q4.453125 -1.265625 7.9375 -4.96875l1.703125 0.296875q0.296875 0.296875 -0.21875 0.359375q2.078125 2.375 7.640625 3.796875l-0.515625 1.625q-2.671875 -0.671875 -4.375 -1.625l0 1.03125l-7.421875 0l0 -0.96875q-1.78125 1.265625 -4.15625 2.015625l-0.59375 -1.5625zm11.578125 -0.890625q-1.5625 -0.8125 -3.203125 -2.59375q-1.03125 1.328125 -2.96875 2.59375l6.171875 0zm-11.578125 -3.5625q1.78125 -1.5625 2.8125 -4.671875l1.5625 0.4375q0.296875 0.296875 -0.21875 0.375l-0.53125 1.03125l4.609375 0l0 1.1875l-2.75 0q0.453125 0.828125 0.890625 1.9375l-1.5625 0.4375q-0.359375 -1.328125 -0.8125 -2.375l-0.8125 0q-0.890625 1.78125 -2.15625 2.90625l-1.03125 -1.265625zm10.6875 -2.828125l5.78125 0l0 1.1875l-3.484375 0q0.59375 0.828125 0.96875 1.78125l-1.5625 0.59375q-0.375 -1.25 -0.96875 -2.375l-1.265625 0l-0.65625 1.1875l-1.265625 -0.734375q1.03125 -1.640625 1.625 -3.71875l1.484375 0.453125q0.296875 0.296875 -0.21875 0.375l-0.4375 1.25zm-6.171875 10.328125l0 2.59375l8.015625 0l0 -2.59375l-8.015625 0zm-1.484375 -1.1875l10.984375 0l0 5.78125l-1.484375 0l0 -0.8125l-8.015625 0l0 1.046875l-1.484375 0l0 -6.015625z" fill-rule="nonzero"/><path fill="#000000" d="m565.23254 323.20932l-1.1875 0q2.734375 -4.375 2.734375 -8.75q0 -1.71875 -0.390625 -3.390625q-0.3125 -1.375 -0.875 -2.625q-0.359375 -0.828125 -1.46875 -2.734375l1.1875 0q1.703125 2.28125 2.53125 4.59375q0.6875 1.984375 0.6875 4.140625q0 2.46875 -0.9375 4.765625q-0.9375 2.296875 -2.28125 4.0z" fill-rule="nonzero"/><path fill="#000000" d="m349.20596 336.99057l1.65625 -0.140625q0.125 1.0 0.546875 1.640625q0.4375 0.640625 1.34375 1.046875q0.921875 0.390625 2.0625 0.390625q1.0 0 1.78125 -0.296875q0.78125 -0.296875 1.15625 -0.8125q0.375 -0.53125 0.375 -1.15625q0 -0.625 -0.375 -1.09375q-0.359375 -0.46875 -1.1875 -0.796875q-0.546875 -0.203125 -2.390625 -0.640625q-1.828125 -0.453125 -2.5625 -0.84375q-0.96875 -0.5 -1.4375 -1.234375q-0.46875 -0.75 -0.46875 -1.671875q0 -1.0 0.578125 -1.875q0.578125 -0.890625 1.671875 -1.34375q1.109375 -0.453125 2.453125 -0.453125q1.484375 0 2.609375 0.484375q1.140625 0.46875 1.75 1.40625q0.609375 0.921875 0.65625 2.09375l-1.6875 0.125q-0.140625 -1.265625 -0.9375 -1.90625q-0.78125 -0.65625 -2.3125 -0.65625q-1.609375 0 -2.34375 0.59375q-0.734375 0.59375 -0.734375 1.421875q0 0.71875 0.53125 1.171875q0.5 0.46875 2.65625 0.96875q2.15625 0.484375 2.953125 0.84375q1.171875 0.53125 1.71875 1.359375q0.5625 0.828125 0.5625 1.90625q0 1.0625 -0.609375 2.015625q-0.609375 0.9375 -1.75 1.46875q-1.140625 0.515625 -2.578125 0.515625q-1.8125 0 -3.046875 -0.53125q-1.21875 -0.53125 -1.921875 -1.59375q-0.6875 -1.0625 -0.71875 -2.40625zm16.802948 4.296875l0 -5.65625l-5.15625 -7.703125l2.15625 0l2.640625 4.03125q0.71875 1.125 1.34375 2.265625q0.609375 -1.046875 1.46875 -2.359375l2.578125 -3.9375l2.0625 0l-5.328125 7.703125l0 5.65625l-1.765625 0zm8.662323 0l0 -13.359375l1.8125 0l7.015625 10.484375l0 -10.484375l1.6875 0l0 13.359375l-1.8125 0l-7.015625 -10.5l0 10.5l-1.6875 0zm16.41043 3.921875q-1.359375 -1.703125 -2.296875 -4.0q-0.9375 -2.296875 -0.9375 -4.765625q0 -2.15625 0.703125 -4.140625q0.828125 -2.3125 2.53125 -4.59375l1.171875 0q-1.09375 1.890625 -1.453125 2.703125q-0.546875 1.25 -0.875 2.625q-0.390625 1.703125 -0.390625 3.421875q0 4.375 2.71875 8.75l-1.171875 0z" fill-rule="nonzero"/><path fill="#000000" d="m400.73184 337.05307q0 -1.234375 -0.078125 -2.90625l8.453125 0q-0.0625 1.234375 -0.0625 2.46875l0 5.25q0 0.65625 -0.484375 0.84375q-0.46875 0.1875 -1.625 0.40625q-0.15625 -0.65625 -0.59375 -1.3125q1.3125 0 1.3125 -0.4375l0 -1.46875l-5.53125 0l0 3.0625l-1.46875 0q0.078125 -1.453125 0.078125 -2.84375l0 -3.0625zm-1.53125 -4.953125q1.171875 0.078125 4.953125 0.078125l0 -1.390625q-2.765625 0 -3.9375 0.078125l0 -1.09375q1.171875 0.078125 3.9375 0.078125l0 -1.09375q-3.125 0 -4.375 0.0625l0 -1.15625q1.3125 0.0625 4.375 0.0625q0 -0.796875 -0.0625 -1.515625l1.53125 0q-0.078125 0.796875 -0.078125 1.515625q3.421875 0 4.59375 -0.0625l0 1.15625q-1.171875 -0.0625 -4.59375 -0.0625l0 1.09375q3.203125 0 4.15625 -0.078125l0 1.09375q-1.09375 -0.078125 -4.15625 -0.078125l0 1.390625q4.15625 0 5.25 -0.078125l0 1.171875q-0.953125 -0.078125 -5.6875 -0.078125q-4.671875 0 -5.90625 0.078125l0 -1.171875zm0.734375 6.78125q-0.953125 0.734375 -1.96875 1.640625q-1.015625 0.90625 -1.671875 1.640625q-0.515625 -0.796875 -1.03125 -1.3125q0.734375 -0.515625 0.734375 -1.390625l0 -6.1875q-1.09375 0 -2.265625 0.078125l0 -1.3125q0.953125 0.0625 1.53125 0.0625l2.125 0q-0.078125 1.171875 -0.078125 2.625l0 4.734375q1.15625 -1.015625 1.8125 -1.8125q0.296875 0.71875 0.8125 1.234375zm7.71875 0l0 -1.390625l-5.53125 0l0 1.390625l5.53125 0zm0 -2.40625l0 -1.234375l-5.53125 0l0 1.234375l5.53125 0zm-10.125 -6.125q-1.09375 -1.59375 -2.484375 -2.84375q0.515625 -0.359375 0.953125 -0.796875q1.671875 1.453125 2.625 2.703125q-0.65625 0.578125 -1.09375 0.9375z" fill-rule="nonzero"/><path fill="#000000" d="m412.77872 339.34995q4.53125 -2.4375 7.34375 -4.890625l0 -3.640625l-7.265625 0l0 -1.40625l7.265625 0l0 -3.34375l1.421875 0q0.59375 0.078125 0.0625 0.453125l0 2.890625l3.859375 0q-0.890625 -0.890625 -2.375 -1.5625l1.1875 -1.265625q1.34375 0.53125 2.609375 1.71875l-1.1875 1.109375l3.109375 0l0 1.40625l-7.203125 0l0 0.59375q0.296875 1.265625 1.5625 3.1875q1.640625 -1.1875 3.046875 -2.890625l1.40625 1.265625q0.078125 0.375 -0.375 0.21875q-1.03125 1.046875 -3.109375 2.53125q1.625 2.140625 5.265625 3.78125l-0.96875 1.859375q-4.515625 -2.234375 -6.828125 -6.828125l0 7.046875q0 1.1875 -1.1875 1.1875l-1.84375 0l-0.296875 -1.640625l1.546875 0q0.296875 0 0.296875 -0.296875l0 -4.375q-1.921875 1.78125 -5.859375 4.3125q0.15625 0.4375 -0.21875 0.359375l-1.265625 -1.78125zm4.078125 -3.5625q-1.1875 -1.484375 -2.4375 -2.4375l1.25 -1.265625q1.34375 0.734375 2.609375 2.21875l-1.421875 1.484375zm31.84375 5.125l-0.4375 1.421875l-8.171875 0q-2.96875 0 -4.828125 -1.796875q-1.40625 1.796875 -2.8125 2.609375l-0.96875 -1.484375q1.5625 -0.828125 2.828125 -2.3125q-1.421875 -2.375 -1.859375 -3.921875l1.265625 -0.296875q0.359375 1.1875 1.328125 2.8125q0.671875 -1.859375 0.671875 -3.640625l0 -0.65625l-1.5625 0l-0.671875 0.953125l-1.40625 -0.59375q1.640625 -2.734375 2.96875 -5.484375l-3.046875 0l0 -1.40625l3.34375 0l0.296875 -0.375l1.484375 1.109375q0.15625 0.15625 -0.296875 0.296875l-2.0 4.078125l2.375 0l0 1.125q0 3.625 -1.1875 6.0q1.484375 1.5625 4.671875 1.5625l8.015625 0zm-6.96875 -10.765625l0 -1.25l-3.5 0l0 -1.1875l3.5 0l0 -1.859375l1.1875 0q0.59375 0.078125 0.0625 0.4375l0 1.421875l3.859375 0l0 2.4375l1.484375 0l0 1.1875l-1.484375 0l0 2.53125l-3.859375 0l0 1.03125l4.09375 0l0 1.1875l-4.09375 0l0 1.421875l4.984375 0l0 1.1875l-4.984375 0l0 1.625l-1.25 0l0 -1.625l-4.390625 0l0 -1.1875l4.390625 0l0 -1.421875l-3.421875 0l0 -1.1875l3.421875 0l0 -1.03125l-3.5 0l0 -1.1875l3.5 0l0 -1.34375l-4.828125 0l0 -1.1875l4.828125 0zm3.859375 1.1875l-2.609375 0l0 1.34375l2.609375 0l0 -1.34375zm0 -2.4375l-2.609375 0l0 1.25l2.609375 0l0 -1.25zm21.671875 11.34375l0 1.640625l-16.484375 0l0 -1.640625l8.90625 0q1.5625 -4.21875 2.234375 -8.53125l2.078125 0.671875q0.296875 0.296875 -0.234375 0.375q-0.8125 3.78125 -2.375 7.484375l5.875 0zm-11.875 -8.15625q1.109375 2.15625 1.921875 6.234375l-1.703125 0.515625q-0.96875 -4.078125 -1.78125 -6.15625l1.5625 -0.59375zm2.671875 -5.9375l1.625 0q0.75 0.140625 0.078125 0.59375l0 2.515625l6.53125 0l0 1.640625l-14.546875 0l0 -1.640625l6.3125 0l0 -3.109375z" fill-rule="nonzero"/><path fill="#000000" d="m477.84122 328.59995q0.734375 -1.671875 0.875 -2.46875q1.171875 0.515625 1.6875 0.65625q-0.375 0.296875 -1.09375 1.8125l3.921875 0q1.53125 0 2.40625 -0.0625l0 1.3125q-0.9375 -0.078125 -2.1875 -0.078125l-4.734375 0q-0.359375 0.734375 -1.75 2.984375l2.921875 0q0 -1.375 -0.078125 -2.328125l1.46875 0q-0.078125 0.796875 -0.078125 2.328125q3.640625 0 3.859375 -0.0625l0 1.375q-0.4375 -0.140625 -3.859375 -0.140625l0 2.40625l2.6875 0q1.609375 0 2.046875 -0.078125l0 1.3125q-0.875 -0.078125 -2.046875 -0.078125l-2.6875 0q0 2.046875 0.078125 3.578125l-1.46875 0q0.078125 -1.53125 0.078125 -3.578125q-5.03125 0 -5.546875 0.078125l0 -1.3125q1.96875 0.078125 5.546875 0.078125l0 -2.40625l-2.328125 0q-1.609375 0.078125 -2.046875 0.21875l-0.515625 -1.3125q0.59375 -0.359375 1.140625 -1.09375q0.546875 -0.734375 1.125 -1.96875q-1.890625 0 -2.921875 0.078125l0 -1.3125q0.953125 0.0625 3.5 0.0625zm-4.515625 4.15625q-0.0625 1.46875 -0.0625 2.40625l0 4.515625q2.109375 1.828125 6.484375 1.828125q4.4375 0 6.84375 -0.21875q-0.4375 0.734375 -0.578125 1.609375q-2.921875 0 -5.25 -0.046875q-2.328125 -0.03125 -4.15625 -0.359375q-1.828125 -0.328125 -2.890625 -1.0625q-1.046875 -0.71875 -1.703125 -0.109375q-0.65625 0.625 -1.453125 1.578125q-0.4375 -0.59375 -1.171875 -1.09375q1.6875 -1.390625 2.40625 -1.90625l0 -5.96875q-0.9375 0 -2.03125 0.078125l0 -1.3125q1.15625 0.0625 2.109375 0.0625l1.453125 0zm-1.890625 -5.890625q1.390625 1.953125 2.328125 3.484375q-0.65625 0.21875 -1.375 0.734375q-0.375 -1.09375 -2.1875 -3.359375q0.65625 -0.578125 1.234375 -0.859375z" fill-rule="nonzero"/><path fill="#000000" d="m499.34122 333.5687l0.59375 0.21875q0.296875 0.296875 -0.21875 0.375l-0.671875 1.328125l5.640625 0l0 1.421875l-1.921875 0q-0.59375 1.921875 -1.40625 2.890625q1.84375 0.671875 3.484375 1.640625l-0.890625 1.328125q-2.453125 -1.328125 -3.640625 -1.859375q-2.453125 1.640625 -5.71875 2.15625l-0.515625 -1.328125q3.125 -0.375 4.75 -1.5l-1.921875 -0.8125l-0.453125 0.671875l-1.1875 -0.59375l1.484375 -2.59375l-2.21875 0l0 -1.421875l2.96875 0l0.890625 -1.921875l-4.53125 0l0 -1.40625l3.046875 0l-0.828125 -2.671875l-1.109375 0l0 -1.421875l3.640625 0l0 -2.078125l1.40625 0q0.59375 0.078125 0.078125 0.453125l0 1.625l4.15625 0l0 1.421875l-1.5625 0l-0.8125 2.671875l3.40625 0l0 1.40625l-5.9375 0zm0.671875 5.71875q0.75 -0.828125 1.1875 -2.375l-2.8125 0l-0.890625 1.484375l2.515625 0.890625zm-1.5625 -7.125l1.9375 0l0.734375 -2.671875l-3.484375 0l0.8125 2.671875zm-7.9375 -6.171875l1.40625 0q0.59375 0.078125 0.078125 0.453125l0 2.890625l2.078125 0l0 1.40625l-2.078125 0l0 3.859375l1.5625 -0.515625l0.515625 1.265625l-2.078125 0.8125l0 5.875q0 1.03125 -1.03125 1.03125l-1.421875 0l-0.21875 -1.40625l0.890625 0q0.296875 0 0.296875 -0.296875l0 -4.6875l-1.265625 0.375q-0.0625 0.515625 -0.359375 0.21875l-0.59375 -1.625l2.21875 -0.59375l0 -4.3125l-2.0 0l0 -1.40625l2.0 0l0 -3.34375z" fill-rule="nonzero"/><path fill="#000000" d="m508.55997 345.20932l-1.1875 0q2.734375 -4.375 2.734375 -8.75q0 -1.71875 -0.390625 -3.390625q-0.3125 -1.375 -0.875 -2.625q-0.359375 -0.828125 -1.46875 -2.734375l1.1875 0q1.703125 2.28125 2.53125 4.59375q0.6875 1.984375 0.6875 4.140625q0 2.46875 -0.9375 4.765625q-0.9375 2.296875 -2.28125 4.0z" fill-rule="nonzero"/><path fill="#000000" fill-opacity="0.0" d="m351.97375 388.66928l279.71655 0l0 46.992126l-279.71655 0z" fill-rule="evenodd"/><path fill="#000000" d="m360.9425 415.5893l5.125 -13.359375l1.90625 0l5.46875 13.359375l-2.015625 0l-1.546875 -4.046875l-5.59375 0l-1.46875 4.046875l-1.875 0zm3.859375 -5.484375l4.53125 0l-1.40625 -3.703125q-0.625 -1.6875 -0.9375 -2.765625q-0.265625 1.28125 -0.71875 2.546875l-1.46875 3.921875zm19.584198 0.796875l1.765625 0.453125q-0.5625 2.171875 -2.0 3.328125q-1.4375 1.140625 -3.53125 1.140625q-2.15625 0 -3.515625 -0.875q-1.34375 -0.890625 -2.0625 -2.546875q-0.703125 -1.671875 -0.703125 -3.59375q0 -2.078125 0.796875 -3.625q0.796875 -1.5625 2.265625 -2.359375q1.484375 -0.8125 3.25 -0.8125q2.0 0 3.359375 1.015625q1.375 1.015625 1.90625 2.875l-1.734375 0.40625q-0.46875 -1.453125 -1.359375 -2.109375q-0.875 -0.671875 -2.203125 -0.671875q-1.546875 0 -2.578125 0.734375q-1.03125 0.734375 -1.453125 1.984375q-0.421875 1.234375 -0.421875 2.5625q0 1.703125 0.5 2.96875q0.5 1.265625 1.546875 1.90625q1.046875 0.625 2.265625 0.625q1.484375 0 2.515625 -0.859375q1.03125 -0.859375 1.390625 -2.546875zm3.863556 4.6875l0 -13.359375l1.78125 0l0 6.625l6.625 -6.625l2.390625 0l-5.59375 5.421875l5.84375 7.9375l-2.328125 0l-4.765625 -6.765625l-2.171875 2.140625l0 4.625l-1.78125 0zm15.443573 3.921875q-1.359375 -1.703125 -2.296875 -4.0q-0.9375 -2.296875 -0.9375 -4.765625q0 -2.15625 0.703125 -4.140625q0.828125 -2.3125 2.53125 -4.59375l1.171875 0q-1.09375 1.890625 -1.453125 2.703125q-0.546875 1.25 -0.875 2.625q-0.390625 1.703125 -0.390625 3.421875q0 4.375 2.71875 8.75l-1.171875 0z" fill-rule="nonzero"/><path fill="#000000" d="m409.18713 415.88617q0.515625 -0.875 0.515625 -1.90625l0 -3.0625l-1.015625 0q-0.65625 0 -1.75 0.078125l0 -1.375q1.09375 0.0625 1.671875 0.0625l1.09375 0l0 -2.03125q-0.515625 0 -1.671875 0.0625l0 -1.234375l-0.8125 1.015625q-0.4375 -0.5 -1.09375 -0.796875q1.90625 -2.328125 2.625 -3.859375q0.734375 -1.53125 1.03125 -2.40625q0.5 0.359375 1.453125 0.65625q-0.375 0.359375 -1.09375 1.671875l1.671875 0q1.171875 0 2.265625 -0.078125l0 1.390625q-1.09375 -0.078125 -2.265625 -0.078125l-2.25 0q-0.515625 0.953125 -1.53125 2.34375q1.09375 0.0625 2.109375 0.0625l1.15625 0q0.953125 0 2.046875 -0.0625l0 1.375q-1.390625 -0.0625 -2.328125 -0.0625l0 2.03125l1.15625 0q0.8125 0 1.75 -0.0625l0 1.375q-1.15625 -0.078125 -1.671875 -0.078125l-1.234375 0l0 3.65625q2.1875 -1.53125 2.984375 -2.1875q0.140625 0.65625 0.359375 1.453125q-0.796875 0.578125 -1.96875 1.390625q-1.15625 0.796875 -2.171875 1.890625q-0.59375 -0.65625 -1.03125 -1.234375zm8.671875 -9.484375l0 -3.5625q0 -0.59375 -0.0625 -1.96875l1.53125 0q-0.078125 0.9375 -0.078125 1.96875l0 3.5625l2.109375 0q0.875 0 1.890625 -0.0625l0 1.375q-1.09375 -0.0625 -1.8125 -0.0625l-2.1875 0l0 7.140625q0 0.5 0.078125 2.328125l-1.53125 0q0.0625 -1.234375 0.0625 -2.265625l0 -7.203125l-2.03125 0q-0.4375 0 -1.828125 0.0625l0 -1.375q0.875 0.0625 1.609375 0.0625l2.25 0zm7.875 -3.203125q1.09375 0.078125 2.546875 0.078125l4.15625 0q-0.734375 4.65625 -1.828125 7.21875q1.828125 2.546875 2.703125 3.921875q-0.515625 0.375 -1.171875 0.953125q-1.53125 -2.625 -2.25 -3.578125q-0.875 1.53125 -1.75 2.5625q-0.875 1.015625 -2.1875 2.25q-0.515625 -0.65625 -1.171875 -0.9375q1.25 -0.875 2.265625 -2.046875q1.015625 -1.171875 1.96875 -2.984375q-1.75 -2.109375 -3.203125 -3.5q0.4375 -0.359375 1.015625 -0.953125q2.109375 2.34375 2.84375 3.140625q0.9375 -2.625 1.234375 -4.890625l-2.625 0q-1.453125 0 -2.546875 0.078125l0 -1.3125zm7.0 1.609375q1.75 0.0625 2.40625 0.0625l3.125 0l0 -2.1875q0 -0.9375 -0.140625 -2.03125l1.671875 0q-0.078125 0.875 -0.078125 2.1875l0 2.03125q0.734375 0 2.40625 -0.0625l0 1.3125q-1.671875 -0.078125 -2.40625 -0.078125l0 9.1875q0.078125 1.375 -0.90625 1.734375q-0.984375 0.375 -2.21875 0.515625q-0.21875 -0.875 -0.65625 -1.59375q1.609375 0 2.0 -0.1875q0.40625 -0.1875 0.328125 -1.0625l0 -8.59375l-3.0625 0q-0.65625 0 -2.46875 0.140625l0 -1.375zm1.53125 2.84375q1.234375 2.1875 2.109375 4.078125q-0.953125 0.359375 -1.390625 0.71875q-0.65625 -1.953125 -1.890625 -4.078125q0.515625 -0.21875 1.171875 -0.71875z" fill-rule="nonzero"/><path fill="#000000" d="m443.70276 411.29242l1.65625 -0.140625q0.125 1.0 0.546875 1.640625q0.4375 0.640625 1.34375 1.046875q0.921875 0.390625 2.0625 0.390625q1.0 0 1.78125 -0.296875q0.78125 -0.296875 1.15625 -0.8125q0.375 -0.53125 0.375 -1.15625q0 -0.625 -0.375 -1.09375q-0.359375 -0.46875 -1.1875 -0.796875q-0.546875 -0.203125 -2.390625 -0.640625q-1.828125 -0.453125 -2.5625 -0.84375q-0.96875 -0.5 -1.4375 -1.234375q-0.46875 -0.75 -0.46875 -1.671875q0 -1.0 0.578125 -1.875q0.578125 -0.890625 1.671875 -1.34375q1.109375 -0.453125 2.453125 -0.453125q1.484375 0 2.609375 0.484375q1.140625 0.46875 1.75 1.40625q0.609375 0.921875 0.65625 2.09375l-1.6875 0.125q-0.140625 -1.265625 -0.9375 -1.90625q-0.78125 -0.65625 -2.3125 -0.65625q-1.609375 0 -2.34375 0.59375q-0.734375 0.59375 -0.734375 1.421875q0 0.71875 0.53125 1.171875q0.5 0.46875 2.65625 0.96875q2.15625 0.484375 2.953125 0.84375q1.171875 0.53125 1.71875 1.359375q0.5625 0.828125 0.5625 1.90625q0 1.0625 -0.609375 2.015625q-0.609375 0.9375 -1.75 1.46875q-1.140625 0.515625 -2.578125 0.515625q-1.8125 0 -3.046875 -0.53125q-1.21875 -0.53125 -1.921875 -1.59375q-0.6875 -1.0625 -0.71875 -2.40625zm16.802948 4.296875l0 -5.65625l-5.15625 -7.703125l2.15625 0l2.640625 4.03125q0.71875 1.125 1.34375 2.265625q0.609375 -1.046875 1.46875 -2.359375l2.578125 -3.9375l2.0625 0l-5.328125 7.703125l0 5.65625l-1.765625 0zm8.662323 0l0 -13.359375l1.8125 0l7.015625 10.484375l0 -10.484375l1.6875 0l0 13.359375l-1.8125 0l-7.015625 -10.5l0 10.5l-1.6875 0z" fill-rule="nonzero"/><path fill="#000000" d="m492.87537 405.04242q-0.75 2.078125 -2.375 3.9375l-1.109375 -1.328125q2.515625 -2.53125 3.1875 -7.203125l1.5625 0.515625q0.65625 0.296875 -0.078125 0.453125q-0.21875 1.03125 -0.59375 2.21875l5.34375 0l-0.375 10.09375q-0.078125 2.96875 -2.375 2.96875l-2.078125 0l-0.21875 -1.40625l1.921875 0q1.046875 0 1.125 -1.34375l0.359375 -8.90625l-4.296875 0zm0.890625 6.90625q-1.046875 -1.484375 -2.296875 -2.671875l1.25 -1.328125q1.484375 1.328125 2.375 2.59375l-1.328125 1.40625zm-8.765625 -8.3125q0.453125 -1.40625 0.828125 -3.265625l1.78125 0.671875q0.296875 0.296875 -0.234375 0.375q-0.21875 0.953125 -0.8125 2.21875l2.75 0l0 12.25l-1.484375 0l0 -0.890625l-3.265625 0l0 1.484375l-1.484375 0l0 -12.84375l1.921875 0zm2.828125 1.40625l-3.265625 0l0 3.265625l3.265625 0l0 -3.265625zm0 4.6875l-3.265625 0l0 3.859375l3.265625 0l0 -3.859375zm16.546875 -1.484375l0 5.265625l1.5625 0l0 -5.265625l-1.5625 0zm2.828125 -1.1875l0 7.640625l-2.828125 0l0 2.0l-1.265625 0l0 -6.828125q-0.4375 0.96875 -1.40625 1.9375l-0.96875 -1.34375q2.53125 -2.515625 3.203125 -7.640625l-2.3125 0l0 -1.40625l6.390625 0l0 1.40625l-2.671875 0q-0.21875 2.15625 -0.890625 4.234375l2.75 0zm0 -0.53125q2.59375 -2.375 3.5625 -6.375l1.484375 0q0.734375 0.140625 -0.078125 0.4375l-0.375 0.96875l3.1875 0l0.15625 -0.21875l1.265625 0.4375q0.65625 0.296875 -0.078125 0.453125l-2.0 2.671875l3.328125 0l0 10.765625q0 1.265625 -1.109375 1.265625l-1.78125 0l-0.296875 -1.421875l1.484375 0q0.21875 0 0.21875 -0.21875l0 -2.890625l-5.265625 0q-0.4375 3.484375 -2.75 4.75l-0.8125 -1.265625q2.078125 -1.1875 2.078125 -4.75l0 -4.90625q-0.515625 0.75 -1.40625 1.5625l-0.8125 -1.265625zm6.96875 1.484375l2.0 0l0 -1.703125l-2.0 0l0 1.703125zm-3.265625 0l2.0 0l0 -1.703125l-2.0 0l0 1.703125zm2.0 1.1875l-2.0 0l0 1.78125l2.0 0l0 -1.78125zm1.265625 1.78125l2.0 0l0 -1.78125l-2.0 0l0 1.78125zm-2.8125 -8.234375q-0.375 1.109375 -1.046875 2.15625l2.671875 0l1.34375 -2.15625l-2.96875 0z" fill-rule="nonzero"/><path fill="#000000" d="m535.68787 417.3393q-1.96875 -1.671875 -3.03125 -3.5q-1.046875 -1.828125 -1.78125 -4.734375q-0.796875 3.203125 -2.296875 5.21875q-1.484375 2.0 -2.796875 3.09375q-0.296875 -0.515625 -1.390625 -1.03125q1.609375 -1.09375 2.875 -2.796875q1.28125 -1.71875 1.890625 -3.421875q0.625 -1.71875 0.734375 -3.421875q0.109375 -1.71875 0.109375 -3.03125q0 -1.3125 -0.0625 -3.0625q0.875 0.078125 1.890625 0.078125q-0.21875 0.28125 -0.296875 1.59375q-0.0625 1.3125 0.078125 3.328125q0.140625 2.0 0.71875 3.828125q0.59375 1.8125 1.6875 3.640625q1.09375 1.8125 3.125 3.046875q-1.15625 0.4375 -1.453125 1.171875zm-13.546875 -2.484375q0.5 -0.578125 0.5 -1.234375l0 -6.125q-1.671875 0 -2.46875 0.078125l0 -1.390625q0.796875 0.078125 1.75 0.078125l2.25 0q-0.078125 1.3125 -0.078125 2.484375l0 4.296875q0.59375 -0.59375 2.265625 -2.484375q0.296875 0.65625 0.796875 1.3125q-1.09375 1.09375 -2.109375 2.1875q-1.015625 1.09375 -1.671875 1.96875q-0.734375 -0.734375 -1.234375 -1.171875zm2.609375 -10.34375q-1.15625 -1.609375 -2.609375 -2.765625q0.65625 -0.4375 1.015625 -1.015625q1.15625 0.9375 2.765625 2.765625q-0.734375 0.4375 -1.171875 1.015625zm23.40625 -4.296875q0.5 1.3125 0.9375 2.546875l2.625 0q1.53125 0 3.203125 -0.078125l0 1.3125q-1.671875 -0.0625 -3.203125 -0.0625l-9.546875 0q0 4.296875 -0.140625 6.125q-0.140625 1.8125 -0.546875 3.71875q-0.40625 1.890625 -1.421875 3.640625q-0.515625 -0.65625 -1.3125 -1.09375q0.953125 -1.25 1.453125 -3.46875q0.515625 -2.21875 0.578125 -4.765625q0.078125 -2.5625 0.015625 -5.328125l6.546875 0q-0.21875 -1.015625 -0.71875 -2.03125q0.71875 -0.15625 1.53125 -0.515625zm6.109375 6.265625q-0.71875 1.609375 -1.265625 3.140625q-0.546875 1.515625 -2.15625 5.3125l2.046875 0q1.015625 0 2.25 -0.078125l0 1.53125q-1.234375 -0.0625 -2.25 -0.0625l-7.796875 0q-1.25 0 -2.984375 0.0625l0 -1.53125q1.671875 0.078125 2.984375 0.078125l4.296875 0q1.09375 -2.265625 1.921875 -4.734375q0.84375 -2.484375 1.203125 -4.375q0.953125 0.515625 1.75 0.65625zm-10.265625 0.796875q1.890625 3.0 2.84375 5.25q-0.515625 0.296875 -1.25 0.734375q-1.453125 -3.28125 -2.765625 -5.171875q0.65625 -0.515625 1.171875 -0.8125zm3.5 -1.671875q1.453125 2.546875 2.546875 5.03125q-0.65625 0.359375 -1.390625 0.71875q-0.875 -2.46875 -2.328125 -5.09375q0.578125 -0.21875 1.171875 -0.65625z" fill-rule="nonzero"/><path fill="#000000" d="m557.5785 409.35492q4.453125 -1.265625 7.9375 -4.96875l1.703125 0.296875q0.296875 0.296875 -0.21875 0.359375q2.078125 2.375 7.640625 3.796875l-0.515625 1.625q-2.671875 -0.671875 -4.375 -1.625l0 1.03125l-7.421875 0l0 -0.96875q-1.78125 1.265625 -4.15625 2.015625l-0.59375 -1.5625zm11.578125 -0.890625q-1.5625 -0.8125 -3.203125 -2.59375q-1.03125 1.328125 -2.96875 2.59375l6.171875 0zm-11.578125 -3.5625q1.78125 -1.5625 2.8125 -4.671875l1.5625 0.4375q0.296875 0.296875 -0.21875 0.375l-0.53125 1.03125l4.609375 0l0 1.1875l-2.75 0q0.453125 0.828125 0.890625 1.9375l-1.5625 0.4375q-0.359375 -1.328125 -0.8125 -2.375l-0.8125 0q-0.890625 1.78125 -2.15625 2.90625l-1.03125 -1.265625zm10.6875 -2.828125l5.78125 0l0 1.1875l-3.484375 0q0.59375 0.828125 0.96875 1.78125l-1.5625 0.59375q-0.375 -1.25 -0.96875 -2.375l-1.265625 0l-0.65625 1.1875l-1.265625 -0.734375q1.03125 -1.640625 1.625 -3.71875l1.484375 0.453125q0.296875 0.296875 -0.21875 0.375l-0.4375 1.25zm-6.171875 10.328125l0 2.59375l8.015625 0l0 -2.59375l-8.015625 0zm-1.484375 -1.1875l10.984375 0l0 5.78125l-1.484375 0l0 -0.8125l-8.015625 0l0 1.046875l-1.484375 0l0 -6.015625z" fill-rule="nonzero"/><path fill="#000000" d="m577.8441 419.51117l-1.1875 0q2.734375 -4.375 2.734375 -8.75q0 -1.71875 -0.390625 -3.390625q-0.3125 -1.375 -0.875 -2.625q-0.359375 -0.828125 -1.46875 -2.734375l1.1875 0q1.703125 2.28125 2.53125 4.59375q0.6875 1.984375 0.6875 4.140625q0 2.46875 -0.9375 4.765625q-0.9375 2.296875 -2.28125 4.0z" fill-rule="nonzero"/><path fill="#000000" fill-opacity="0.0" d="m393.76904 460.8924l224.18896 0l0 38.992126l-224.18896 0z" fill-rule="evenodd"/><path fill="#000000" d="m404.3003 487.81238l0 -13.359375l9.015625 0l0 1.578125l-7.25 0l0 4.140625l6.265625 0l0 1.578125l-6.265625 0l0 6.0625l-1.765625 0zm11.599091 0l0 -13.359375l1.765625 0l0 13.359375l-1.765625 0zm4.870819 0l0 -13.359375l1.8125 0l7.015625 10.484375l0 -10.484375l1.6875 0l0 13.359375l-1.8125 0l-7.015625 -10.5l0 10.5l-1.6875 0zm16.41043 3.921875q-1.359375 -1.703125 -2.296875 -4.0q-0.9375 -2.296875 -0.9375 -4.765625q0 -2.15625 0.703125 -4.140625q0.828125 -2.3125 2.53125 -4.59375l1.171875 0q-1.09375 1.890625 -1.453125 2.703125q-0.546875 1.25 -0.875 2.625q-0.390625 1.703125 -0.390625 3.421875q0 4.375 2.71875 8.75l-1.171875 0z" fill-rule="nonzero"/><path fill="#000000" d="m446.8308 483.578q0 -1.234375 -0.078125 -2.90625l8.453125 0q-0.0625 1.234375 -0.0625 2.46875l0 5.25q0 0.65625 -0.484375 0.84375q-0.46875 0.1875 -1.625 0.40625q-0.15625 -0.65625 -0.59375 -1.3125q1.3125 0 1.3125 -0.4375l0 -1.46875l-5.53125 0l0 3.0625l-1.46875 0q0.078125 -1.453125 0.078125 -2.84375l0 -3.0625zm-1.53125 -4.953125q1.171875 0.078125 4.953125 0.078125l0 -1.390625q-2.765625 0 -3.9375 0.078125l0 -1.09375q1.171875 0.078125 3.9375 0.078125l0 -1.09375q-3.125 0 -4.375 0.0625l0 -1.15625q1.3125 0.0625 4.375 0.0625q0 -0.796875 -0.0625 -1.515625l1.53125 0q-0.078125 0.796875 -0.078125 1.515625q3.421875 0 4.59375 -0.0625l0 1.15625q-1.171875 -0.0625 -4.59375 -0.0625l0 1.09375q3.203125 0 4.15625 -0.078125l0 1.09375q-1.09375 -0.078125 -4.15625 -0.078125l0 1.390625q4.15625 0 5.25 -0.078125l0 1.171875q-0.953125 -0.078125 -5.6875 -0.078125q-4.671875 0 -5.90625 0.078125l0 -1.171875zm0.734375 6.78125q-0.953125 0.734375 -1.96875 1.640625q-1.015625 0.90625 -1.671875 1.640625q-0.515625 -0.796875 -1.03125 -1.3125q0.734375 -0.515625 0.734375 -1.390625l0 -6.1875q-1.09375 0 -2.265625 0.078125l0 -1.3125q0.953125 0.0625 1.53125 0.0625l2.125 0q-0.078125 1.171875 -0.078125 2.625l0 4.734375q1.15625 -1.015625 1.8125 -1.8125q0.296875 0.71875 0.8125 1.234375zm7.71875 0l0 -1.390625l-5.53125 0l0 1.390625l5.53125 0zm0 -2.40625l0 -1.234375l-5.53125 0l0 1.234375l5.53125 0zm-10.125 -6.125q-1.09375 -1.59375 -2.484375 -2.84375q0.515625 -0.359375 0.953125 -0.796875q1.671875 1.453125 2.625 2.703125q-0.65625 0.578125 -1.09375 0.9375z" fill-rule="nonzero"/><path fill="#000000" d="m458.8777 485.87488q4.53125 -2.4375 7.34375 -4.890625l0 -3.640625l-7.265625 0l0 -1.40625l7.265625 0l0 -3.34375l1.421875 0q0.59375 0.078125 0.0625 0.453125l0 2.890625l3.859375 0q-0.890625 -0.890625 -2.375 -1.5625l1.1875 -1.265625q1.34375 0.53125 2.609375 1.71875l-1.1875 1.109375l3.109375 0l0 1.40625l-7.203125 0l0 0.59375q0.296875 1.265625 1.5625 3.1875q1.640625 -1.1875 3.046875 -2.890625l1.40625 1.265625q0.078125 0.375 -0.375 0.21875q-1.03125 1.046875 -3.109375 2.53125q1.625 2.140625 5.265625 3.78125l-0.96875 1.859375q-4.515625 -2.234375 -6.828125 -6.828125l0 7.046875q0 1.1875 -1.1875 1.1875l-1.84375 0l-0.296875 -1.640625l1.546875 0q0.296875 0 0.296875 -0.296875l0 -4.375q-1.921875 1.78125 -5.859375 4.3125q0.15625 0.4375 -0.21875 0.359375l-1.265625 -1.78125zm4.078125 -3.5625q-1.1875 -1.484375 -2.4375 -2.4375l1.25 -1.265625q1.34375 0.734375 2.609375 2.21875l-1.421875 1.484375zm18.40625 -3.109375l0 4.234375q0 0.59375 0.53125 0.59375l1.25 0q1.1875 0 1.421875 -2.3125l1.484375 0.59375q-0.453125 3.125 -2.375 3.125l-2.53125 0q-1.265625 0 -1.265625 -1.265625l0 -4.671875l-1.921875 0.4375l-0.296875 -1.625l2.21875 -0.453125l0 -4.890625l1.421875 0q0.734375 0.140625 0.0625 0.59375l0 4.0l3.859375 -0.953125l0.375 1.546875l-4.234375 1.046875zm10.46875 6.671875q0.375 -6.0 0.375 -10.15625l-2.828125 0q0 6.890625 -1.03125 8.90625q-1.640625 3.1875 -5.796875 4.59375l-0.734375 -1.625q4.078125 -1.34375 5.1875 -4.015625q0.828125 -1.921875 0.828125 -7.859375l-2.90625 0l0 -1.640625l8.90625 0q0 5.5 -0.4375 12.46875q-0.15625 2.453125 -2.234375 2.453125l-2.0 0l-0.140625 -1.640625l1.78125 0q0.953125 0 1.03125 -1.484375zm11.578125 -8.15625q0.75 -1.78125 1.109375 -3.421875l1.34375 0.375q0.296875 0.21875 -0.15625 0.375q-0.4375 1.5625 -1.109375 3.109375l-1.1875 -0.4375zm9.953125 -3.125q0.0625 0.53125 -0.59375 0.15625q-2.453125 0.515625 -4.984375 0.8125l0 3.1875l5.9375 0l0 1.421875l-2.0 0l0 9.046875l-1.484375 0l0 -9.046875l-2.453125 0l0 3.1875q0 3.78125 -2.671875 6.015625l-1.109375 -1.265625l0.671875 -0.59375l-5.796875 0l0 1.40625l-1.484375 0l0 -15.4375l1.421875 0q0.59375 0.078125 0.0625 0.453125l0 4.890625l2.75 0l0 -5.640625l1.1875 0q0.59375 0.078125 0.078125 0.453125l0 5.1875l2.8125 0l0 1.1875l-2.8125 0l0 0.59375q1.625 0.890625 2.59375 1.703125l-0.890625 1.421875q-0.671875 -0.75 -1.703125 -1.71875l0 3.421875l-1.265625 0l0 -3.125q-0.8125 1.421875 -1.78125 2.3125l-0.8125 -1.1875q1.5625 -1.421875 2.515625 -3.421875l-2.671875 0l0 6.09375l6.3125 0l0 0.890625q1.109375 -1.265625 1.109375 -3.71875l0 -9.34375l1.421875 0.359375q2.515625 -0.296875 4.296875 -1.328125l1.34375 1.625zm-13.4375 3.640625q-0.375 -2.21875 -0.8125 -3.265625l1.25 -0.4375q0.59375 1.484375 0.828125 3.265625l-1.265625 0.4375z" fill-rule="nonzero"/><path fill="#000000" d="m523.9402 475.12488q0.734375 -1.671875 0.875 -2.46875q1.171875 0.515625 1.6875 0.65625q-0.375 0.296875 -1.09375 1.8125l3.921875 0q1.53125 0 2.40625 -0.0625l0 1.3125q-0.9375 -0.078125 -2.1875 -0.078125l-4.734375 0q-0.359375 0.734375 -1.75 2.984375l2.921875 0q0 -1.375 -0.078125 -2.328125l1.46875 0q-0.078125 0.796875 -0.078125 2.328125q3.640625 0 3.859375 -0.0625l0 1.375q-0.4375 -0.140625 -3.859375 -0.140625l0 2.40625l2.6875 0q1.609375 0 2.046875 -0.078125l0 1.3125q-0.875 -0.078125 -2.046875 -0.078125l-2.6875 0q0 2.046875 0.078125 3.578125l-1.46875 0q0.078125 -1.53125 0.078125 -3.578125q-5.03125 0 -5.546875 0.078125l0 -1.3125q1.96875 0.078125 5.546875 0.078125l0 -2.40625l-2.328125 0q-1.609375 0.078125 -2.046875 0.21875l-0.515625 -1.3125q0.59375 -0.359375 1.140625 -1.09375q0.546875 -0.734375 1.125 -1.96875q-1.890625 0 -2.921875 0.078125l0 -1.3125q0.953125 0.0625 3.5 0.0625zm-4.515625 4.15625q-0.0625 1.46875 -0.0625 2.40625l0 4.515625q2.109375 1.828125 6.484375 1.828125q4.4375 0 6.84375 -0.21875q-0.4375 0.734375 -0.578125 1.609375q-2.921875 0 -5.25 -0.046875q-2.328125 -0.03125 -4.15625 -0.359375q-1.828125 -0.328125 -2.890625 -1.0625q-1.046875 -0.71875 -1.703125 -0.109375q-0.65625 0.625 -1.453125 1.578125q-0.4375 -0.59375 -1.171875 -1.09375q1.6875 -1.390625 2.40625 -1.90625l0 -5.96875q-0.9375 0 -2.03125 0.078125l0 -1.3125q1.15625 0.0625 2.109375 0.0625l1.453125 0zm-1.890625 -5.890625q1.390625 1.953125 2.328125 3.484375q-0.65625 0.21875 -1.375 0.734375q-0.375 -1.09375 -2.1875 -3.359375q0.65625 -0.578125 1.234375 -0.859375z" fill-rule="nonzero"/><path fill="#000000" d="m545.4402 480.09363l0.59375 0.21875q0.296875 0.296875 -0.21875 0.375l-0.671875 1.328125l5.640625 0l0 1.421875l-1.921875 0q-0.59375 1.921875 -1.40625 2.890625q1.84375 0.671875 3.484375 1.640625l-0.890625 1.328125q-2.453125 -1.328125 -3.640625 -1.859375q-2.453125 1.640625 -5.71875 2.15625l-0.515625 -1.328125q3.125 -0.375 4.75 -1.5l-1.921875 -0.8125l-0.453125 0.671875l-1.1875 -0.59375l1.484375 -2.59375l-2.21875 0l0 -1.421875l2.96875 0l0.890625 -1.921875l-4.53125 0l0 -1.40625l3.046875 0l-0.828125 -2.671875l-1.109375 0l0 -1.421875l3.640625 0l0 -2.078125l1.40625 0q0.59375 0.078125 0.078125 0.453125l0 1.625l4.15625 0l0 1.421875l-1.5625 0l-0.8125 2.671875l3.40625 0l0 1.40625l-5.9375 0zm0.671875 5.71875q0.75 -0.828125 1.1875 -2.375l-2.8125 0l-0.890625 1.484375l2.515625 0.890625zm-1.5625 -7.125l1.9375 0l0.734375 -2.671875l-3.484375 0l0.8125 2.671875zm-7.9375 -6.171875l1.40625 0q0.59375 0.078125 0.078125 0.453125l0 2.890625l2.078125 0l0 1.40625l-2.078125 0l0 3.859375l1.5625 -0.515625l0.515625 1.265625l-2.078125 0.8125l0 5.875q0 1.03125 -1.03125 1.03125l-1.421875 0l-0.21875 -1.40625l0.890625 0q0.296875 0 0.296875 -0.296875l0 -4.6875l-1.265625 0.375q-0.0625 0.515625 -0.359375 0.21875l-0.59375 -1.625l2.21875 -0.59375l0 -4.3125l-2.0 0l0 -1.40625l2.0 0l0 -3.34375z" fill-rule="nonzero"/><path fill="#000000" d="m554.65894 491.73425l-1.1875 0q2.734375 -4.375 2.734375 -8.75q0 -1.71875 -0.390625 -3.390625q-0.3125 -1.375 -0.875 -2.625q-0.359375 -0.828125 -1.46875 -2.734375l1.1875 0q1.703125 2.28125 2.53125 4.59375q0.6875 1.984375 0.6875 4.140625q0 2.46875 -0.9375 4.765625q-0.9375 2.296875 -2.28125 4.0z" fill-rule="nonzero"/><path fill="#000000" fill-opacity="0.0" d="m325.5958 517.0761l332.47244 0l0 51.590576l-332.47244 0z" fill-rule="evenodd"/><path fill="#000000" d="m334.56454 543.9961l5.125 -13.359375l1.90625 0l5.46875 13.359375l-2.015625 0l-1.546875 -4.046875l-5.59375 0l-1.46875 4.046875l-1.875 0zm3.859375 -5.484375l4.53125 0l-1.40625 -3.703125q-0.625 -1.6875 -0.9375 -2.765625q-0.265625 1.28125 -0.71875 2.546875l-1.46875 3.921875zm19.584198 0.796875l1.765625 0.453125q-0.5625 2.171875 -2.0 3.328125q-1.4375 1.140625 -3.53125 1.140625q-2.15625 0 -3.515625 -0.875q-1.34375 -0.890625 -2.0625 -2.546875q-0.703125 -1.671875 -0.703125 -3.59375q0 -2.078125 0.796875 -3.625q0.796875 -1.5625 2.265625 -2.359375q1.484375 -0.8125 3.25 -0.8125q2.0 0 3.359375 1.015625q1.375 1.015625 1.90625 2.875l-1.734375 0.40625q-0.46875 -1.453125 -1.359375 -2.109375q-0.875 -0.671875 -2.203125 -0.671875q-1.546875 0 -2.578125 0.734375q-1.03125 0.734375 -1.453125 1.984375q-0.421875 1.234375 -0.421875 2.5625q0 1.703125 0.5 2.96875q0.5 1.265625 1.546875 1.90625q1.046875 0.625 2.265625 0.625q1.484375 0 2.515625 -0.859375q1.03125 -0.859375 1.390625 -2.546875zm3.8635864 4.6875l0 -13.359375l1.78125 0l0 6.625l6.625 -6.625l2.390625 0l-5.59375 5.421875l5.84375 7.9375l-2.328125 0l-4.765625 -6.765625l-2.171875 2.140625l0 4.625l-1.78125 0zm15.443573 3.921875q-1.359375 -1.703125 -2.296875 -4.0q-0.9375 -2.296875 -0.9375 -4.765625q0 -2.15625 0.703125 -4.140625q0.828125 -2.3125 2.53125 -4.59375l1.171875 0q-1.09375 1.890625 -1.453125 2.703125q-0.546875 1.25 -0.875 2.625q-0.390625 1.703125 -0.390625 3.421875q0 4.375 2.71875 8.75l-1.171875 0z" fill-rule="nonzero"/><path fill="#000000" d="m382.8092 544.29297q0.515625 -0.875 0.515625 -1.90625l0 -3.0625l-1.015625 0q-0.65625 0 -1.75 0.078125l0 -1.375q1.09375 0.0625 1.671875 0.0625l1.09375 0l0 -2.03125q-0.515625 0 -1.671875 0.0625l0 -1.234375l-0.8125 1.015625q-0.4375 -0.5 -1.09375 -0.796875q1.90625 -2.328125 2.625 -3.859375q0.734375 -1.53125 1.03125 -2.40625q0.5 0.359375 1.453125 0.65625q-0.375 0.359375 -1.09375 1.671875l1.671875 0q1.171875 0 2.265625 -0.078125l0 1.390625q-1.09375 -0.078125 -2.265625 -0.078125l-2.25 0q-0.515625 0.953125 -1.53125 2.34375q1.09375 0.0625 2.109375 0.0625l1.15625 0q0.953125 0 2.046875 -0.0625l0 1.375q-1.390625 -0.0625 -2.328125 -0.0625l0 2.03125l1.15625 0q0.8125 0 1.75 -0.0625l0 1.375q-1.15625 -0.078125 -1.671875 -0.078125l-1.234375 0l0 3.65625q2.1875 -1.53125 2.984375 -2.1875q0.140625 0.65625 0.359375 1.453125q-0.796875 0.578125 -1.96875 1.390625q-1.15625 0.796875 -2.171875 1.890625q-0.59375 -0.65625 -1.03125 -1.234375zm8.671875 -9.484375l0 -3.5625q0 -0.59375 -0.0625 -1.96875l1.53125 0q-0.078125 0.9375 -0.078125 1.96875l0 3.5625l2.109375 0q0.875 0 1.890625 -0.0625l0 1.375q-1.09375 -0.0625 -1.8125 -0.0625l-2.1875 0l0 7.140625q0 0.5 0.078125 2.328125l-1.53125 0q0.0625 -1.234375 0.0625 -2.265625l0 -7.203125l-2.03125 0q-0.4375 0 -1.828125 0.0625l0 -1.375q0.875 0.0625 1.609375 0.0625l2.25 0zm7.875 -3.203125q1.09375 0.078125 2.546875 0.078125l4.15625 0q-0.734375 4.65625 -1.828125 7.21875q1.828125 2.546875 2.703125 3.921875q-0.515625 0.375 -1.171875 0.953125q-1.53125 -2.625 -2.25 -3.578125q-0.875 1.53125 -1.75 2.5625q-0.875 1.015625 -2.1875 2.25q-0.515625 -0.65625 -1.171875 -0.9375q1.25 -0.875 2.265625 -2.046875q1.015625 -1.171875 1.96875 -2.984375q-1.75 -2.109375 -3.203125 -3.5q0.4375 -0.359375 1.015625 -0.953125q2.109375 2.34375 2.84375 3.140625q0.9375 -2.625 1.234375 -4.890625l-2.625 0q-1.453125 0 -2.546875 0.078125l0 -1.3125zm7.0 1.609375q1.75 0.0625 2.40625 0.0625l3.125 0l0 -2.1875q0 -0.9375 -0.140625 -2.03125l1.671875 0q-0.078125 0.875 -0.078125 2.1875l0 2.03125q0.734375 0 2.40625 -0.0625l0 1.3125q-1.671875 -0.078125 -2.40625 -0.078125l0 9.1875q0.078125 1.375 -0.90625 1.734375q-0.984375 0.375 -2.21875 0.515625q-0.21875 -0.875 -0.65625 -1.59375q1.609375 0 2.0 -0.1875q0.40625 -0.1875 0.328125 -1.0625l0 -8.59375l-3.0625 0q-0.65625 0 -2.46875 0.140625l0 -1.375zm1.53125 2.84375q1.234375 2.1875 2.109375 4.078125q-0.953125 0.359375 -1.390625 0.71875q-0.65625 -1.953125 -1.890625 -4.078125q0.515625 -0.21875 1.171875 -0.71875z" fill-rule="nonzero"/><path fill="#000000" d="m418.01233 543.9961l0 -13.359375l9.015625 0l0 1.578125l-7.25 0l0 4.140625l6.265625 0l0 1.578125l-6.265625 0l0 6.0625l-1.765625 0zm11.599091 0l0 -13.359375l1.765625 0l0 13.359375l-1.765625 0zm4.870819 0l0 -13.359375l1.8125 0l7.015625 10.484375l0 -10.484375l1.6875 0l0 13.359375l-1.8125 0l-7.015625 -10.5l0 10.5l-1.6875 0z" fill-rule="nonzero"/><path fill="#000000" d="m458.18954 533.4492q-0.75 2.078125 -2.375 3.9375l-1.109375 -1.328125q2.515625 -2.53125 3.1875 -7.203125l1.5625 0.515625q0.65625 0.296875 -0.078125 0.453125q-0.21875 1.03125 -0.59375 2.21875l5.34375 0l-0.375 10.09375q-0.078125 2.96875 -2.375 2.96875l-2.078125 0l-0.21875 -1.40625l1.921875 0q1.046875 0 1.125 -1.34375l0.359375 -8.90625l-4.296875 0zm0.890625 6.90625q-1.046875 -1.484375 -2.296875 -2.671875l1.25 -1.328125q1.484375 1.328125 2.375 2.59375l-1.328125 1.40625zm-8.765625 -8.3125q0.453125 -1.40625 0.828125 -3.265625l1.78125 0.671875q0.296875 0.296875 -0.234375 0.375q-0.21875 0.953125 -0.8125 2.21875l2.75 0l0 12.25l-1.484375 0l0 -0.890625l-3.265625 0l0 1.484375l-1.484375 0l0 -12.84375l1.921875 0zm2.828125 1.40625l-3.265625 0l0 3.265625l3.265625 0l0 -3.265625zm0 4.6875l-3.265625 0l0 3.859375l3.265625 0l0 -3.859375zm16.546875 -1.484375l0 5.265625l1.5625 0l0 -5.265625l-1.5625 0zm2.828125 -1.1875l0 7.640625l-2.828125 0l0 2.0l-1.265625 0l0 -6.828125q-0.4375 0.96875 -1.40625 1.9375l-0.96875 -1.34375q2.53125 -2.515625 3.203125 -7.640625l-2.3125 0l0 -1.40625l6.390625 0l0 1.40625l-2.671875 0q-0.21875 2.15625 -0.890625 4.234375l2.75 0zm0 -0.53125q2.59375 -2.375 3.5625 -6.375l1.484375 0q0.734375 0.140625 -0.078125 0.4375l-0.375 0.96875l3.1875 0l0.15625 -0.21875l1.265625 0.4375q0.65625 0.296875 -0.078125 0.453125l-2.0 2.671875l3.328125 0l0 10.765625q0 1.265625 -1.109375 1.265625l-1.78125 0l-0.296875 -1.421875l1.484375 0q0.21875 0 0.21875 -0.21875l0 -2.890625l-5.265625 0q-0.4375 3.484375 -2.75 4.75l-0.8125 -1.265625q2.078125 -1.1875 2.078125 -4.75l0 -4.90625q-0.515625 0.75 -1.40625 1.5625l-0.8125 -1.265625zm6.96875 1.484375l2.0 0l0 -1.703125l-2.0 0l0 1.703125zm-3.265625 0l2.0 0l0 -1.703125l-2.0 0l0 1.703125zm2.0 1.1875l-2.0 0l0 1.78125l2.0 0l0 -1.78125zm1.265625 1.78125l2.0 0l0 -1.78125l-2.0 0l0 1.78125zm-2.8125 -8.234375q-0.375 1.109375 -1.046875 2.15625l2.671875 0l1.34375 -2.15625l-2.96875 0z" fill-rule="nonzero"/><path fill="#000000" d="m501.00204 545.7461q-1.96875 -1.671875 -3.03125 -3.5q-1.046875 -1.828125 -1.78125 -4.734375q-0.796875 3.203125 -2.296875 5.21875q-1.484375 2.0 -2.796875 3.09375q-0.296875 -0.515625 -1.390625 -1.03125q1.609375 -1.09375 2.875 -2.796875q1.28125 -1.71875 1.890625 -3.421875q0.625 -1.71875 0.734375 -3.421875q0.109375 -1.71875 0.109375 -3.03125q0 -1.3125 -0.0625 -3.0625q0.875 0.078125 1.890625 0.078125q-0.21875 0.28125 -0.296875 1.59375q-0.0625 1.3125 0.078125 3.328125q0.140625 2.0 0.71875 3.828125q0.59375 1.8125 1.6875 3.640625q1.09375 1.8125 3.125 3.046875q-1.15625 0.4375 -1.453125 1.171875zm-13.546875 -2.484375q0.5 -0.578125 0.5 -1.234375l0 -6.125q-1.671875 0 -2.46875 0.078125l0 -1.390625q0.796875 0.078125 1.75 0.078125l2.25 0q-0.078125 1.3125 -0.078125 2.484375l0 4.296875q0.59375 -0.59375 2.265625 -2.484375q0.296875 0.65625 0.796875 1.3125q-1.09375 1.09375 -2.109375 2.1875q-1.015625 1.09375 -1.671875 1.96875q-0.734375 -0.734375 -1.234375 -1.171875zm2.609375 -10.34375q-1.15625 -1.609375 -2.609375 -2.765625q0.65625 -0.4375 1.015625 -1.015625q1.15625 0.9375 2.765625 2.765625q-0.734375 0.4375 -1.171875 1.015625zm23.40628 -4.296875q0.5 1.3125 0.9375 2.546875l2.625 0q1.53125 0 3.203125 -0.078125l0 1.3125q-1.671875 -0.0625 -3.203125 -0.0625l-9.5469055 0q0 4.296875 -0.140625 6.125q-0.140625 1.8125 -0.546875 3.71875q-0.40625 1.890625 -1.421875 3.640625q-0.515625 -0.65625 -1.3125 -1.09375q0.953125 -1.25 1.453125 -3.46875q0.515625 -2.21875 0.578125 -4.765625q0.078125 -2.5625 0.015625 -5.328125l6.5469055 0q-0.21875 -1.015625 -0.7187805 -2.03125q0.7187805 -0.15625 1.5312805 -0.515625zm6.109375 6.265625q-0.71875 1.609375 -1.265625 3.140625q-0.546875 1.515625 -2.15625 5.3125l2.046875 0q1.015625 0 2.25 -0.078125l0 1.53125q-1.234375 -0.0625 -2.25 -0.0625l-7.7969055 0q-1.25 0 -2.984375 0.0625l0 -1.53125q1.671875 0.078125 2.984375 0.078125l4.2969055 0q1.09375 -2.265625 1.921875 -4.734375q0.84375 -2.484375 1.203125 -4.375q0.953125 0.515625 1.75 0.65625zm-10.2656555 0.796875q1.890625 3.0 2.8437805 5.25q-0.5156555 0.296875 -1.2500305 0.734375q-1.453125 -3.28125 -2.765625 -5.171875q0.65625 -0.515625 1.171875 -0.8125zm3.5000305 -1.671875q1.453125 2.546875 2.546875 5.03125q-0.65625 0.359375 -1.390625 0.71875q-0.875 -2.46875 -2.3281555 -5.09375q0.5781555 -0.21875 1.1719055 -0.65625z" fill-rule="nonzero"/><path fill="#000000" d="m522.8927 537.7617q4.453125 -1.265625 7.9375 -4.96875l1.703125 0.296875q0.296875 0.296875 -0.21875 0.359375q2.078125 2.375 7.640625 3.796875l-0.515625 1.625q-2.671875 -0.671875 -4.375 -1.625l0 1.03125l-7.421875 0l0 -0.96875q-1.78125 1.265625 -4.15625 2.015625l-0.59375 -1.5625zm11.578125 -0.890625q-1.5625 -0.8125 -3.203125 -2.59375q-1.03125 1.328125 -2.96875 2.59375l6.171875 0zm-11.578125 -3.5625q1.78125 -1.5625 2.8125 -4.671875l1.5625 0.4375q0.296875 0.296875 -0.21875 0.375l-0.53125 1.03125l4.609375 0l0 1.1875l-2.75 0q0.453125 0.828125 0.890625 1.9375l-1.5625 0.4375q-0.359375 -1.328125 -0.8125 -2.375l-0.8125 0q-0.890625 1.78125 -2.15625 2.90625l-1.03125 -1.265625zm10.6875 -2.828125l5.78125 0l0 1.1875l-3.484375 0q0.59375 0.828125 0.96875 1.78125l-1.5625 0.59375q-0.375 -1.25 -0.96875 -2.375l-1.265625 0l-0.65625 1.1875l-1.265625 -0.734375q1.03125 -1.640625 1.625 -3.71875l1.484375 0.453125q0.296875 0.296875 -0.21875 0.375l-0.4375 1.25zm-6.171875 10.328125l0 2.59375l8.015625 0l0 -2.59375l-8.015625 0zm-1.484375 -1.1875l10.984375 0l0 5.78125l-1.484375 0l0 -0.8125l-8.015625 0l0 1.046875l-1.484375 0l0 -6.015625z" fill-rule="nonzero"/><path fill="#000000" d="m543.1583 547.91797l-1.1875 0q2.734375 -4.375 2.734375 -8.75q0 -1.71875 -0.390625 -3.390625q-0.3125 -1.375 -0.875 -2.625q-0.359375 -0.828125 -1.46875 -2.734375l1.1875 0q1.703125 2.28125 2.53125 4.59375q0.6875 1.984375 0.6875 4.140625q0 2.46875 -0.9375 4.765625q-0.9375 2.296875 -2.28125 4.0z" fill-rule="nonzero"/><path fill="#000000" fill-opacity="0.0" d="m408.15222 561.7769l199.4961 0l0 40.125977l-199.4961 0z" fill-rule="evenodd"/><path fill="#000000" d="m418.68347 588.6969l0 -13.359375l9.015625 0l0 1.578125l-7.25 0l0 4.140625l6.265625 0l0 1.578125l-6.265625 0l0 6.0625l-1.765625 0zm11.599121 0l0 -13.359375l1.765625 0l0 13.359375l-1.765625 0zm4.8707886 0l0 -13.359375l1.8125 0l7.015625 10.484375l0 -10.484375l1.6875 0l0 13.359375l-1.8125 0l-7.015625 -10.5l0 10.5l-1.6875 0zm16.410461 3.921875q-1.359375 -1.703125 -2.296875 -4.0q-0.9375 -2.296875 -0.9375 -4.765625q0 -2.15625 0.703125 -4.140625q0.828125 -2.3125 2.53125 -4.59375l1.171875 0q-1.09375 1.890625 -1.453125 2.703125q-0.546875 1.25 -0.875 2.625q-0.390625 1.703125 -0.390625 3.421875q0 4.375 2.71875 8.75l-1.171875 0z" fill-rule="nonzero"/><path fill="#000000" d="m461.21402 584.4625q0 -1.234375 -0.078125 -2.90625l8.453125 0q-0.0625 1.234375 -0.0625 2.46875l0 5.25q0 0.65625 -0.484375 0.84375q-0.46875 0.1875 -1.625 0.40625q-0.15625 -0.65625 -0.59375 -1.3125q1.3125 0 1.3125 -0.4375l0 -1.46875l-5.53125 0l0 3.0625l-1.46875 0q0.078125 -1.453125 0.078125 -2.84375l0 -3.0625zm-1.53125 -4.953125q1.171875 0.078125 4.953125 0.078125l0 -1.390625q-2.765625 0 -3.9375 0.078125l0 -1.09375q1.171875 0.078125 3.9375 0.078125l0 -1.09375q-3.125 0 -4.375 0.0625l0 -1.15625q1.3125 0.0625 4.375 0.0625q0 -0.796875 -0.0625 -1.515625l1.53125 0q-0.078125 0.796875 -0.078125 1.515625q3.421875 0 4.59375 -0.0625l0 1.15625q-1.171875 -0.0625 -4.59375 -0.0625l0 1.09375q3.203125 0 4.15625 -0.078125l0 1.09375q-1.09375 -0.078125 -4.15625 -0.078125l0 1.390625q4.15625 0 5.25 -0.078125l0 1.171875q-0.953125 -0.078125 -5.6875 -0.078125q-4.671875 0 -5.90625 0.078125l0 -1.171875zm0.734375 6.78125q-0.953125 0.734375 -1.96875 1.640625q-1.015625 0.90625 -1.671875 1.640625q-0.515625 -0.796875 -1.03125 -1.3125q0.734375 -0.515625 0.734375 -1.390625l0 -6.1875q-1.09375 0 -2.265625 0.078125l0 -1.3125q0.953125 0.0625 1.53125 0.0625l2.125 0q-0.078125 1.171875 -0.078125 2.625l0 4.734375q1.15625 -1.015625 1.8125 -1.8125q0.296875 0.71875 0.8125 1.234375zm7.71875 0l0 -1.390625l-5.53125 0l0 1.390625l5.53125 0zm0 -2.40625l0 -1.234375l-5.53125 0l0 1.234375l5.53125 0zm-10.125 -6.125q-1.09375 -1.59375 -2.484375 -2.84375q0.515625 -0.359375 0.953125 -0.796875q1.671875 1.453125 2.625 2.703125q-0.65625 0.578125 -1.09375 0.9375z" fill-rule="nonzero"/><path fill="#000000" d="m473.2609 586.7594q4.53125 -2.4375 7.34375 -4.890625l0 -3.640625l-7.265625 0l0 -1.40625l7.265625 0l0 -3.34375l1.421875 0q0.59375 0.078125 0.0625 0.453125l0 2.890625l3.859375 0q-0.890625 -0.890625 -2.375 -1.5625l1.1875 -1.265625q1.34375 0.53125 2.609375 1.71875l-1.1875 1.109375l3.109375 0l0 1.40625l-7.203125 0l0 0.59375q0.296875 1.265625 1.5625 3.1875q1.640625 -1.1875 3.046875 -2.890625l1.40625 1.265625q0.078125 0.375 -0.375 0.21875q-1.03125 1.046875 -3.109375 2.53125q1.625 2.140625 5.265625 3.78125l-0.96875 1.859375q-4.515625 -2.234375 -6.828125 -6.828125l0 7.046875q0 1.1875 -1.1875 1.1875l-1.84375 0l-0.296875 -1.640625l1.546875 0q0.296875 0 0.296875 -0.296875l0 -4.375q-1.921875 1.78125 -5.859375 4.3125q0.15625 0.4375 -0.21875 0.359375l-1.265625 -1.78125zm4.078125 -3.5625q-1.1875 -1.484375 -2.4375 -2.4375l1.25 -1.265625q1.34375 0.734375 2.609375 2.21875l-1.421875 1.484375zm18.40625 -3.109375l0 4.234375q0 0.59375 0.53125 0.59375l1.25 0q1.1875 0 1.421875 -2.3125l1.484375 0.59375q-0.453125 3.125 -2.375 3.125l-2.53125 0q-1.265625 0 -1.265625 -1.265625l0 -4.671875l-1.921875 0.4375l-0.296875 -1.625l2.21875 -0.453125l0 -4.890625l1.421875 0q0.734375 0.140625 0.0625 0.59375l0 4.0l3.859375 -0.953125l0.375 1.546875l-4.234375 1.046875zm10.46875 6.671875q0.375 -6.0 0.375 -10.15625l-2.828125 0q0 6.890625 -1.03125 8.90625q-1.640625 3.1875 -5.796875 4.59375l-0.734375 -1.625q4.078125 -1.34375 5.1875 -4.015625q0.828125 -1.921875 0.828125 -7.859375l-2.90625 0l0 -1.640625l8.90625 0q0 5.5 -0.4375 12.46875q-0.15625 2.453125 -2.234375 2.453125l-2.0 0l-0.140625 -1.640625l1.78125 0q0.953125 0 1.03125 -1.484375zm11.5780945 -8.15625q0.75 -1.78125 1.109375 -3.421875l1.34375 0.375q0.296875 0.21875 -0.15625 0.375q-0.4375 1.5625 -1.109375 3.109375l-1.1875 -0.4375zm9.953125 -3.125q0.0625 0.53125 -0.59375 0.15625q-2.453125 0.515625 -4.984375 0.8125l0 3.1875l5.9375 0l0 1.421875l-2.0 0l0 9.046875l-1.484375 0l0 -9.046875l-2.453125 0l0 3.1875q0 3.78125 -2.671875 6.015625l-1.109375 -1.265625l0.671875 -0.59375l-5.796875 0l0 1.40625l-1.4843445 0l0 -15.4375l1.4218445 0q0.59375 0.078125 0.0625 0.453125l0 4.890625l2.75 0l0 -5.640625l1.1875 0q0.59375 0.078125 0.078125 0.453125l0 5.1875l2.8125 0l0 1.1875l-2.8125 0l0 0.59375q1.625 0.890625 2.59375 1.703125l-0.890625 1.421875q-0.671875 -0.75 -1.703125 -1.71875l0 3.421875l-1.265625 0l0 -3.125q-0.8125 1.421875 -1.78125 2.3125l-0.8125 -1.1875q1.5625 -1.421875 2.515625 -3.421875l-2.671875 0l0 6.09375l6.3125 0l0 0.890625q1.109375 -1.265625 1.109375 -3.71875l0 -9.34375l1.421875 0.359375q2.515625 -0.296875 4.296875 -1.328125l1.34375 1.625zm-13.4375 3.640625q-0.375 -2.21875 -0.8125 -3.265625l1.25 -0.4375q0.59375 1.484375 0.828125 3.265625l-1.265625 0.4375z" fill-rule="nonzero"/><path fill="#000000" d="m538.32336 576.0094q0.734375 -1.671875 0.875 -2.46875q1.171875 0.515625 1.6875 0.65625q-0.375 0.296875 -1.09375 1.8125l3.921875 0q1.53125 0 2.40625 -0.0625l0 1.3125q-0.9375 -0.078125 -2.1875 -0.078125l-4.734375 0q-0.359375 0.734375 -1.75 2.984375l2.921875 0q0 -1.375 -0.078125 -2.328125l1.46875 0q-0.078125 0.796875 -0.078125 2.328125q3.640625 0 3.859375 -0.0625l0 1.375q-0.4375 -0.140625 -3.859375 -0.140625l0 2.40625l2.6875 0q1.609375 0 2.046875 -0.078125l0 1.3125q-0.875 -0.078125 -2.046875 -0.078125l-2.6875 0q0 2.046875 0.078125 3.578125l-1.46875 0q0.078125 -1.53125 0.078125 -3.578125q-5.03125 0 -5.546875 0.078125l0 -1.3125q1.96875 0.078125 5.546875 0.078125l0 -2.40625l-2.328125 0q-1.609375 0.078125 -2.046875 0.21875l-0.515625 -1.3125q0.59375 -0.359375 1.140625 -1.09375q0.546875 -0.734375 1.125 -1.96875q-1.890625 0 -2.921875 0.078125l0 -1.3125q0.953125 0.0625 3.5 0.0625zm-4.515625 4.15625q-0.0625 1.46875 -0.0625 2.40625l0 4.515625q2.109375 1.828125 6.484375 1.828125q4.4375 0 6.84375 -0.21875q-0.4375 0.734375 -0.578125 1.609375q-2.921875 0 -5.25 -0.046875q-2.328125 -0.03125 -4.15625 -0.359375q-1.828125 -0.328125 -2.890625 -1.0625q-1.046875 -0.71875 -1.703125 -0.109375q-0.65625 0.625 -1.453125 1.578125q-0.4375 -0.59375 -1.171875 -1.09375q1.6875 -1.390625 2.40625 -1.90625l0 -5.96875q-0.9375 0 -2.03125 0.078125l0 -1.3125q1.15625 0.0625 2.109375 0.0625l1.453125 0zm-1.890625 -5.890625q1.390625 1.953125 2.328125 3.484375q-0.65625 0.21875 -1.375 0.734375q-0.375 -1.09375 -2.1875 -3.359375q0.65625 -0.578125 1.234375 -0.859375z" fill-rule="nonzero"/><path fill="#000000" d="m559.82336 580.97815l0.59375 0.21875q0.296875 0.296875 -0.21875 0.375l-0.671875 1.328125l5.640625 0l0 1.421875l-1.921875 0q-0.59375 1.921875 -1.40625 2.890625q1.84375 0.671875 3.484375 1.640625l-0.890625 1.328125q-2.453125 -1.328125 -3.640625 -1.859375q-2.453125 1.640625 -5.71875 2.15625l-0.515625 -1.328125q3.125 -0.375 4.75 -1.5l-1.921875 -0.8125l-0.453125 0.671875l-1.1875 -0.59375l1.484375 -2.59375l-2.21875 0l0 -1.421875l2.96875 0l0.890625 -1.921875l-4.53125 0l0 -1.40625l3.046875 0l-0.828125 -2.671875l-1.109375 0l0 -1.421875l3.640625 0l0 -2.078125l1.40625 0q0.59375 0.078125 0.078125 0.453125l0 1.625l4.15625 0l0 1.421875l-1.5625 0l-0.8125 2.671875l3.40625 0l0 1.40625l-5.9375 0zm0.671875 5.71875q0.75 -0.828125 1.1875 -2.375l-2.8125 0l-0.890625 1.484375l2.515625 0.890625zm-1.5625 -7.125l1.9375 0l0.734375 -2.671875l-3.484375 0l0.8125 2.671875zm-7.9375 -6.171875l1.40625 0q0.59375 0.078125 0.078125 0.453125l0 2.890625l2.078125 0l0 1.40625l-2.078125 0l0 3.859375l1.5625 -0.515625l0.515625 1.265625l-2.078125 0.8125l0 5.875q0 1.03125 -1.03125 1.03125l-1.421875 0l-0.21875 -1.40625l0.890625 0q0.296875 0 0.296875 -0.296875l0 -4.6875l-1.265625 0.375q-0.0625 0.515625 -0.359375 0.21875l-0.59375 -1.625l2.21875 -0.59375l0 -4.3125l-2.0 0l0 -1.40625l2.0 0l0 -3.34375z" fill-rule="nonzero"/><path fill="#000000" d="m569.0421 592.6188l-1.1875 0q2.734375 -4.375 2.734375 -8.75q0 -1.71875 -0.390625 -3.390625q-0.3125 -1.375 -0.875 -2.625q-0.359375 -0.828125 -1.46875 -2.734375l1.1875 0q1.703125 2.28125 2.53125 4.59375q0.6875 1.984375 0.6875 4.140625q0 2.46875 -0.9375 4.765625q-0.9375 2.296875 -2.28125 4.0z" fill-rule="nonzero"/><path fill="#000000" fill-opacity="0.0" d="m378.34384 658.08923l264.81888 0l0 51.590576l-264.81888 0z" fill-rule="evenodd"/><path fill="#000000" d="m387.3126 685.0092l5.125 -13.359375l1.90625 0l5.46875 13.359375l-2.015625 0l-1.546875 -4.046875l-5.59375 0l-1.46875 4.046875l-1.875 0zm3.859375 -5.484375l4.53125 0l-1.40625 -3.703125q-0.625 -1.6875 -0.9375 -2.765625q-0.265625 1.28125 -0.71875 2.546875l-1.46875 3.921875zm19.584198 0.796875l1.765625 0.453125q-0.5625 2.171875 -2.0 3.328125q-1.4375 1.140625 -3.53125 1.140625q-2.15625 0 -3.515625 -0.875q-1.34375 -0.890625 -2.0625 -2.546875q-0.703125 -1.671875 -0.703125 -3.59375q0 -2.078125 0.796875 -3.625q0.796875 -1.5625 2.265625 -2.359375q1.484375 -0.8125 3.25 -0.8125q2.0 0 3.359375 1.015625q1.375 1.015625 1.90625 2.875l-1.734375 0.40625q-0.46875 -1.453125 -1.359375 -2.109375q-0.875 -0.671875 -2.203125 -0.671875q-1.546875 0 -2.578125 0.734375q-1.03125 0.734375 -1.453125 1.984375q-0.421875 1.234375 -0.421875 2.5625q0 1.703125 0.5 2.96875q0.5 1.265625 1.546875 1.90625q1.046875 0.625 2.265625 0.625q1.484375 0 2.515625 -0.859375q1.03125 -0.859375 1.390625 -2.546875zm3.863556 4.6875l0 -13.359375l1.78125 0l0 6.625l6.625 -6.625l2.390625 0l-5.59375 5.421875l5.84375 7.9375l-2.328125 0l-4.765625 -6.765625l-2.171875 2.140625l0 4.625l-1.78125 0zm15.443573 3.921875q-1.359375 -1.703125 -2.296875 -4.0q-0.9375 -2.296875 -0.9375 -4.765625q0 -2.15625 0.703125 -4.140625q0.828125 -2.3125 2.53125 -4.59375l1.171875 0q-1.09375 1.890625 -1.453125 2.703125q-0.546875 1.25 -0.875 2.625q-0.390625 1.703125 -0.390625 3.421875q0 4.375 2.71875 8.75l-1.171875 0z" fill-rule="nonzero"/><path fill="#000000" d="m435.55722 685.3061q0.515625 -0.875 0.515625 -1.90625l0 -3.0625l-1.015625 0q-0.65625 0 -1.75 0.078125l0 -1.375q1.09375 0.0625 1.671875 0.0625l1.09375 0l0 -2.03125q-0.515625 0 -1.671875 0.0625l0 -1.234375l-0.8125 1.015625q-0.4375 -0.5 -1.09375 -0.796875q1.90625 -2.328125 2.625 -3.859375q0.734375 -1.53125 1.03125 -2.40625q0.5 0.359375 1.453125 0.65625q-0.375 0.359375 -1.09375 1.671875l1.671875 0q1.171875 0 2.265625 -0.078125l0 1.390625q-1.09375 -0.078125 -2.265625 -0.078125l-2.25 0q-0.515625 0.953125 -1.53125 2.34375q1.09375 0.0625 2.109375 0.0625l1.15625 0q0.953125 0 2.046875 -0.0625l0 1.375q-1.390625 -0.0625 -2.328125 -0.0625l0 2.03125l1.15625 0q0.8125 0 1.75 -0.0625l0 1.375q-1.15625 -0.078125 -1.671875 -0.078125l-1.234375 0l0 3.65625q2.1875 -1.53125 2.984375 -2.1875q0.140625 0.65625 0.359375 1.453125q-0.796875 0.578125 -1.96875 1.390625q-1.15625 0.796875 -2.171875 1.890625q-0.59375 -0.65625 -1.03125 -1.234375zm8.671875 -9.484375l0 -3.5625q0 -0.59375 -0.0625 -1.96875l1.53125 0q-0.078125 0.9375 -0.078125 1.96875l0 3.5625l2.109375 0q0.875 0 1.890625 -0.0625l0 1.375q-1.09375 -0.0625 -1.8125 -0.0625l-2.1875 0l0 7.140625q0 0.5 0.078125 2.328125l-1.53125 0q0.0625 -1.234375 0.0625 -2.265625l0 -7.203125l-2.03125 0q-0.4375 0 -1.828125 0.0625l0 -1.375q0.875 0.0625 1.609375 0.0625l2.25 0zm7.875 -3.203125q1.09375 0.078125 2.546875 0.078125l4.15625 0q-0.734375 4.65625 -1.828125 7.21875q1.828125 2.546875 2.703125 3.921875q-0.515625 0.375 -1.171875 0.953125q-1.53125 -2.625 -2.25 -3.578125q-0.875 1.53125 -1.75 2.5625q-0.875 1.015625 -2.1875 2.25q-0.515625 -0.65625 -1.171875 -0.9375q1.25 -0.875 2.265625 -2.046875q1.015625 -1.171875 1.96875 -2.984375q-1.75 -2.109375 -3.203125 -3.5q0.4375 -0.359375 1.015625 -0.953125q2.109375 2.34375 2.84375 3.140625q0.9375 -2.625 1.234375 -4.890625l-2.625 0q-1.453125 0 -2.546875 0.078125l0 -1.3125zm7.0 1.609375q1.75 0.0625 2.40625 0.0625l3.125 0l0 -2.1875q0 -0.9375 -0.140625 -2.03125l1.671875 0q-0.078125 0.875 -0.078125 2.1875l0 2.03125q0.734375 0 2.40625 -0.0625l0 1.3125q-1.671875 -0.078125 -2.40625 -0.078125l0 9.1875q0.078125 1.375 -0.90625 1.734375q-0.984375 0.375 -2.21875 0.515625q-0.21875 -0.875 -0.65625 -1.59375q1.609375 0 2.0 -0.1875q0.40625 -0.1875 0.328125 -1.0625l0 -8.59375l-3.0625 0q-0.65625 0 -2.46875 0.140625l0 -1.375zm1.53125 2.84375q1.234375 2.1875 2.109375 4.078125q-0.953125 0.359375 -1.390625 0.71875q-0.65625 -1.953125 -1.890625 -4.078125q0.515625 -0.21875 1.171875 -0.71875z" fill-rule="nonzero"/><path fill="#000000" d="m470.76035 685.0092l0 -13.359375l9.015625 0l0 1.578125l-7.25 0l0 4.140625l6.265625 0l0 1.578125l-6.265625 0l0 6.0625l-1.765625 0zm11.599121 0l0 -13.359375l1.765625 0l0 13.359375l-1.765625 0zm4.8707886 0l0 -13.359375l1.8125 0l7.015625 10.484375l0 -10.484375l1.6875 0l0 13.359375l-1.8125 0l-7.015625 -10.5l0 10.5l-1.6875 0z" fill-rule="nonzero"/><path fill="#000000" d="m510.9376 674.46234q-0.75 2.078125 -2.375 3.9375l-1.109375 -1.328125q2.515625 -2.53125 3.1875 -7.203125l1.5624695 0.515625q0.65625 0.296875 -0.078125 0.453125q-0.21871948 1.03125 -0.5937195 2.21875l5.3437195 0l-0.375 10.09375q-0.078125 2.96875 -2.375 2.96875l-2.078125 0l-0.21871948 -1.40625l1.9218445 0q1.046875 0 1.125 -1.34375l0.359375 -8.90625l-4.2968445 0zm0.890625 6.90625q-1.046875 -1.484375 -2.296875 -2.671875l1.25 -1.328125q1.4843445 1.328125 2.3749695 2.59375l-1.3280945 1.40625zm-8.765625 -8.3125q0.453125 -1.40625 0.828125 -3.265625l1.78125 0.671875q0.296875 0.296875 -0.234375 0.375q-0.21875 0.953125 -0.8125 2.21875l2.75 0l0 12.25l-1.484375 0l0 -0.890625l-3.265625 0l0 1.484375l-1.484375 0l0 -12.84375l1.921875 0zm2.828125 1.40625l-3.265625 0l0 3.265625l3.265625 0l0 -3.265625zm0 4.6875l-3.265625 0l0 3.859375l3.265625 0l0 -3.859375zm16.546844 -1.484375l0 5.265625l1.5625 0l0 -5.265625l-1.5625 0zm2.828125 -1.1875l0 7.640625l-2.828125 0l0 2.0l-1.265625 0l0 -6.828125q-0.4375 0.96875 -1.40625 1.9375l-0.96875 -1.34375q2.53125 -2.515625 3.203125 -7.640625l-2.3125 0l0 -1.40625l6.390625 0l0 1.40625l-2.671875 0q-0.21875 2.15625 -0.890625 4.234375l2.75 0zm0 -0.53125q2.59375 -2.375 3.5625 -6.375l1.484375 0q0.734375 0.140625 -0.078125 0.4375l-0.375 0.96875l3.1875 0l0.15625 -0.21875l1.265625 0.4375q0.65625 0.296875 -0.078125 0.453125l-2.0 2.671875l3.328125 0l0 10.765625q0 1.265625 -1.109375 1.265625l-1.78125 0l-0.296875 -1.421875l1.484375 0q0.21875 0 0.21875 -0.21875l0 -2.890625l-5.265625 0q-0.4375 3.484375 -2.75 4.75l-0.8125 -1.265625q2.078125 -1.1875 2.078125 -4.75l0 -4.90625q-0.515625 0.75 -1.40625 1.5625l-0.8125 -1.265625zm6.96875 1.484375l2.0 0l0 -1.703125l-2.0 0l0 1.703125zm-3.265625 0l2.0 0l0 -1.703125l-2.0 0l0 1.703125zm2.0 1.1875l-2.0 0l0 1.78125l2.0 0l0 -1.78125zm1.265625 1.78125l2.0 0l0 -1.78125l-2.0 0l0 1.78125zm-2.8125 -8.234375q-0.375 1.109375 -1.046875 2.15625l2.671875 0l1.34375 -2.15625l-2.96875 0z" fill-rule="nonzero"/><path fill="#000000" d="m553.75006 686.7592q-1.96875 -1.671875 -3.03125 -3.5q-1.046875 -1.828125 -1.78125 -4.734375q-0.796875 3.203125 -2.296875 5.21875q-1.484375 2.0 -2.796875 3.09375q-0.296875 -0.515625 -1.390625 -1.03125q1.609375 -1.09375 2.875 -2.796875q1.28125 -1.71875 1.890625 -3.421875q0.625 -1.71875 0.734375 -3.421875q0.109375 -1.71875 0.109375 -3.03125q0 -1.3125 -0.0625 -3.0625q0.875 0.078125 1.890625 0.078125q-0.21875 0.28125 -0.296875 1.59375q-0.0625 1.3125 0.078125 3.328125q0.140625 2.0 0.71875 3.828125q0.59375 1.8125 1.6875 3.640625q1.09375 1.8125 3.125 3.046875q-1.15625 0.4375 -1.453125 1.171875zm-13.546875 -2.484375q0.5 -0.578125 0.5 -1.234375l0 -6.125q-1.671875 0 -2.46875 0.078125l0 -1.390625q0.796875 0.078125 1.75 0.078125l2.25 0q-0.078125 1.3125 -0.078125 2.484375l0 4.296875q0.59375 -0.59375 2.265625 -2.484375q0.296875 0.65625 0.796875 1.3125q-1.09375 1.09375 -2.109375 2.1875q-1.015625 1.09375 -1.671875 1.96875q-0.734375 -0.734375 -1.234375 -1.171875zm2.609375 -10.34375q-1.15625 -1.609375 -2.609375 -2.765625q0.65625 -0.4375 1.015625 -1.015625q1.15625 0.9375 2.765625 2.765625q-0.734375 0.4375 -1.171875 1.015625zm23.40625 -4.296875q0.5 1.3125 0.9375 2.546875l2.625 0q1.53125 0 3.203125 -0.078125l0 1.3125q-1.671875 -0.0625 -3.203125 -0.0625l-9.546875 0q0 4.296875 -0.140625 6.125q-0.140625 1.8125 -0.546875 3.71875q-0.40625 1.890625 -1.421875 3.640625q-0.515625 -0.65625 -1.3125 -1.09375q0.953125 -1.25 1.453125 -3.46875q0.515625 -2.21875 0.578125 -4.765625q0.078125 -2.5625 0.015625 -5.328125l6.546875 0q-0.21875 -1.015625 -0.71875 -2.03125q0.71875 -0.15625 1.53125 -0.515625zm6.109375 6.265625q-0.71875 1.609375 -1.265625 3.140625q-0.546875 1.515625 -2.15625 5.3125l2.046875 0q1.015625 0 2.25 -0.078125l0 1.53125q-1.234375 -0.0625 -2.25 -0.0625l-7.796875 0q-1.25 0 -2.984375 0.0625l0 -1.53125q1.671875 0.078125 2.984375 0.078125l4.296875 0q1.09375 -2.265625 1.921875 -4.734375q0.84375 -2.484375 1.203125 -4.375q0.953125 0.515625 1.75 0.65625zm-10.265625 0.796875q1.890625 3.0 2.84375 5.25q-0.515625 0.296875 -1.25 0.734375q-1.453125 -3.28125 -2.765625 -5.171875q0.65625 -0.515625 1.171875 -0.8125zm3.5 -1.671875q1.453125 2.546875 2.546875 5.03125q-0.65625 0.359375 -1.390625 0.71875q-0.875 -2.46875 -2.328125 -5.09375q0.578125 -0.21875 1.171875 -0.65625z" fill-rule="nonzero"/><path fill="#000000" d="m575.6407 678.77484q4.453125 -1.265625 7.9375 -4.96875l1.703125 0.296875q0.296875 0.296875 -0.21875 0.359375q2.078125 2.375 7.640625 3.796875l-0.515625 1.625q-2.671875 -0.671875 -4.375 -1.625l0 1.03125l-7.421875 0l0 -0.96875q-1.78125 1.265625 -4.15625 2.015625l-0.59375 -1.5625zm11.578125 -0.890625q-1.5625 -0.8125 -3.203125 -2.59375q-1.03125 1.328125 -2.96875 2.59375l6.171875 0zm-11.578125 -3.5625q1.78125 -1.5625 2.8125 -4.671875l1.5625 0.4375q0.296875 0.296875 -0.21875 0.375l-0.53125 1.03125l4.609375 0l0 1.1875l-2.75 0q0.453125 0.828125 0.890625 1.9375l-1.5625 0.4375q-0.359375 -1.328125 -0.8125 -2.375l-0.8125 0q-0.890625 1.78125 -2.15625 2.90625l-1.03125 -1.265625zm10.6875 -2.828125l5.78125 0l0 1.1875l-3.484375 0q0.59375 0.828125 0.96875 1.78125l-1.5625 0.59375q-0.375 -1.25 -0.96875 -2.375l-1.265625 0l-0.65625 1.1875l-1.265625 -0.734375q1.03125 -1.640625 1.625 -3.71875l1.484375 0.453125q0.296875 0.296875 -0.21875 0.375l-0.4375 1.25zm-6.171875 10.328125l0 2.59375l8.015625 0l0 -2.59375l-8.015625 0zm-1.484375 -1.1875l10.984375 0l0 5.78125l-1.484375 0l0 -0.8125l-8.015625 0l0 1.046875l-1.484375 0l0 -6.015625z" fill-rule="nonzero"/><path fill="#000000" d="m595.9063 688.9311l-1.1875 0q2.734375 -4.375 2.734375 -8.75q0 -1.71875 -0.390625 -3.390625q-0.3125 -1.375 -0.875 -2.625q-0.359375 -0.828125 -1.46875 -2.734375l1.1875 0q1.703125 2.28125 2.53125 4.59375q0.6875 1.984375 0.6875 4.140625q0 2.46875 -0.9375 4.765625q-0.9375 2.296875 -2.28125 4.0z" fill-rule="nonzero"/><path fill="#cfe2f3" d="m377.18372 424.77692l174.2677 0l0 30.960602l-174.2677 0z" fill-rule="evenodd"/><path stroke="#000000" stroke-width="1.0" stroke-linejoin="round" stroke-linecap="butt" d="m377.18372 424.77692l174.2677 0l0 30.960602l-174.2677 0z" fill-rule="evenodd"/><path fill="#000000" d="m436.61447 432.81784q-0.359375 0.796875 -0.578125 1.640625q-0.21875 0.84375 -0.578125 2.296875l5.828125 0q0.71875 0 2.1875 -0.078125l0 1.390625q-1.46875 -0.078125 -2.1875 -0.078125l-6.125 0q-0.4375 1.09375 -0.953125 2.1875l7.734375 0q-1.390625 3.359375 -3.859375 5.609375q1.96875 1.390625 5.75 1.828125q-0.515625 0.578125 -0.875 1.453125q-1.453125 -0.28125 -2.984375 -0.828125q-1.53125 -0.546875 -2.984375 -1.578125q-1.171875 0.734375 -2.859375 1.421875q-1.671875 0.703125 -3.40625 1.140625q-0.15625 -0.734375 -0.734375 -1.390625q1.59375 -0.21875 3.203125 -0.765625q1.609375 -0.546875 2.84375 -1.34375q-1.234375 -1.25 -2.765625 -3.578125q-0.8125 1.3125 -2.046875 2.5625q-1.234375 1.234375 -2.6875 2.25q-0.296875 -0.515625 -1.171875 -1.09375q1.09375 -0.578125 2.140625 -1.53125q1.0625 -0.953125 2.21875 -2.515625q1.171875 -1.5625 1.984375 -3.828125q-1.90625 0 -2.921875 0.078125q-1.015625 0.078125 -1.53125 0.296875q-0.21875 -0.65625 -0.578125 -1.390625q0.734375 -0.140625 1.0625 -1.09375q0.328125 -0.953125 0.6875 -2.90625q0.578125 0.28125 1.59375 0.578125q-0.359375 0.71875 -0.65625 1.484375q-0.28125 0.765625 -0.640625 1.71875l3.34375 0q0.578125 -2.328125 0.875 -4.4375q0.796875 0.4375 1.671875 0.5zm-2.328125 8.53125q1.015625 1.8125 2.84375 3.640625q1.609375 -1.3125 2.84375 -3.640625l-5.6875 0zm5.03125 -8.96875q1.234375 1.390625 2.46875 2.84375q-0.5 0.296875 -1.234375 0.953125q-1.15625 -1.6875 -2.25 -2.84375q0.5 -0.359375 1.015625 -0.953125z" fill-rule="nonzero"/><path fill="#000000" d="m449.3801 436.0366q-0.96875 -1.484375 -2.234375 -2.4375l1.1875 -1.125q1.640625 1.1875 2.234375 2.375l-1.1875 1.1875zm-3.34375 11.140625l2.53125 -1.484375l0 -4.96875l-2.375 0l0 -1.421875l3.859375 0l0 6.015625q1.703125 1.703125 4.0 1.703125l9.203125 0l-0.375 1.421875l-9.046875 0q-2.453125 0 -4.53125 -2.015625l-2.453125 2.453125l-0.8125 -1.703125zm16.25 -6.53125l-5.046875 0l-0.0625 0.671875q2.96875 1.328125 4.8125 3.03125l-1.03125 1.640625q-2.453125 -2.53125 -4.3125 -3.34375q-1.03125 1.9375 -4.21875 3.78125l-0.890625 -1.546875q3.859375 -1.9375 4.21875 -4.234375l-4.671875 0l0 -1.40625l4.75 0l0 -2.453125l-4.15625 0l0 -1.40625l2.59375 0q-0.8125 -1.421875 -1.921875 -2.453125l1.328125 -0.890625q1.046875 0.96875 1.9375 2.453125l-1.1875 0.890625l2.515625 0l1.78125 -3.71875l1.640625 0.75q0.296875 0.296875 -0.21875 0.359375l-1.71875 2.609375l3.265625 0l0 1.40625l-4.375 0l0 2.453125l4.96875 0l0 1.40625zm15.671875 2.453125q1.03125 -2.015625 1.25 -6.09375l-2.515625 0q0.21875 4.078125 1.265625 6.09375zm2.734375 -6.09375q-0.140625 4.609375 -1.78125 7.421875q1.1875 1.484375 3.34375 2.59375l-0.96875 1.640625q-2.375 -1.5625 -3.328125 -2.96875q-1.71875 1.9375 -5.28125 3.34375l-0.734375 -1.484375q3.859375 -1.5625 5.125 -3.203125q-1.265625 -2.4375 -1.421875 -4.890625q-0.4375 1.109375 -0.890625 1.703125l-1.25 -0.96875q2.21875 -3.265625 2.671875 -8.078125l1.546875 0.359375q0.453125 0.296875 -0.21875 0.453125q-0.21875 1.328125 -0.59375 2.671875l5.046875 0l0 1.40625l-1.265625 0zm-6.890625 -3.5625q-0.453125 1.109375 -1.046875 1.859375l-1.1875 -0.671875q0.59375 -0.96875 1.109375 -2.21875l1.34375 0.65625q0.296875 0.296875 -0.21875 0.375zm-4.75 10.46875q1.03125 0.296875 1.84375 0.671875q0.59375 -0.671875 0.96875 -2.015625l-2.15625 0q-0.296875 0.671875 -0.65625 1.34375zm-1.046875 1.859375l-1.1875 -0.671875q0.75 -1.109375 1.484375 -2.53125l-2.8125 0l0 -1.1875l3.265625 0q0.4375 -0.953125 0.65625 -1.625l1.421875 0.375q0.296875 0.296875 -0.234375 0.359375l-0.4375 0.890625l4.234375 0l0 1.1875l-1.125 0q-0.359375 1.484375 -1.109375 2.53125q0.671875 0.296875 1.40625 0.734375l-0.65625 1.1875q-0.828125 -0.515625 -1.484375 -0.8125q-1.9375 1.9375 -5.203125 2.375l-0.515625 -1.328125q2.890625 -0.296875 4.453125 -1.640625q-0.8125 -0.375 -1.640625 -0.671875l-0.515625 0.828125zm1.484375 -13.953125l1.1875 0q0.59375 0.0625 0.078125 0.4375l0 3.1875l3.78125 0l0 1.1875l-3.109375 0q0.8125 0.96875 2.515625 1.859375l-0.8125 1.265625q-1.265625 -0.75 -2.375 -2.078125l0 1.78125l-1.265625 0l0 -1.40625q-1.1875 1.484375 -3.265625 2.671875l-0.96875 -1.1875q2.3125 -1.1875 3.796875 -2.90625l-3.421875 0l0 -1.1875l3.859375 0l0 -3.625zm-2.078125 3.40625q-0.515625 -1.109375 -1.328125 -1.921875l1.1875 -0.75q0.890625 0.890625 1.328125 1.859375l-1.1875 0.8125zm23.15625 -2.96875l9.71875 0l0 4.671875l-3.328125 0l0 2.15625l4.15625 0l0 1.1875l-4.15625 0l0 2.234375l2.890625 0l0 6.15625l-1.265625 0l0 -0.8125l-4.453125 0l0 1.03125l-1.265625 0l0 -6.375l2.609375 0l0 -2.234375l-3.640625 0l0 1.1875q0 4.96875 -2.15625 7.203125l-1.109375 -1.109375q2.0 -2.015625 2.0 -6.390625l0 -8.90625zm8.015625 11.4375l-4.453125 0l0 2.96875l4.453125 0l0 -2.96875zm-3.109375 -4.609375l0 -2.15625l-3.640625 0l0 2.15625l3.640625 0zm-3.640625 -3.34375l6.96875 0l0 -2.296875l-6.96875 0l0 2.296875zm-1.9375 5.578125l-1.921875 0.65625l0 5.796875q0 1.1875 -1.1875 1.1875l-1.484375 0l-0.21875 -1.40625l1.109375 0q0.296875 0 0.296875 -0.296875l0 -4.828125l-1.5625 0.515625q-0.078125 0.515625 -0.375 0.21875l-0.515625 -1.78125l2.453125 -0.515625l0 -3.859375l-2.078125 0l0 -1.40625l2.078125 0l0 -3.859375l1.40625 0q0.59375 0.078125 0.078125 0.4375l0 3.421875l1.921875 0l0 1.40625l-1.921875 0l0 3.5625l1.78125 -0.515625l0.140625 1.265625z" fill-rule="nonzero"/></g></svg>