<svg version="1.1" viewBox="0.0 0.0 960.0 720.0" fill="none" stroke="none" stroke-linecap="square" stroke-miterlimit="10" xmlns:xlink="http://www.w3.org/1999/xlink" xmlns="http://www.w3.org/2000/svg"><clipPath id="p.0"><path d="m0 0l960.0 0l0 720.0l-960.0 0l0 -720.0z" clip-rule="nonzero"/></clipPath><g clip-path="url(#p.0)"><path fill="#000000" fill-opacity="0.0" d="m0 0l960.0 0l0 720.0l-960.0 0z" fill-rule="evenodd"/><path fill="#cfe2f3" d="m224.71391 119.23622l179.99998 0l0 108.91339l-179.99998 0z" fill-rule="evenodd"/><path stroke="#000000" stroke-width="1.0" stroke-linejoin="round" stroke-linecap="butt" d="m224.71391 119.23622l179.99998 0l0 108.91339l-179.99998 0z" fill-rule="evenodd"/><path fill="#000000" d="m299.664 179.94104l7.34375 0l0 1.421875l-16.03125 0l0 -1.421875l7.203125 0l0 -4.59375l-5.125 0l0 -1.421875l5.125 0l0 -3.625l-6.53125 0l0 -1.421875l7.265625 0q-1.1875 -1.40625 -2.671875 -2.4375l1.265625 -1.125q1.484375 0.96875 2.96875 2.53125l-1.328125 1.03125l7.046875 0l0 1.421875l-6.53125 0l0 3.625l5.125 0l0 1.421875l-5.125 0l0 4.59375zm15.359375 0.828125q2.75 -1.265625 2.75 -5.578125l0 -8.53125l5.78125 0l0 12.84375q0 0.59375 0.53125 0.59375l0.4375 0q0.375 0 0.453125 -0.53125l0.140625 -1.546875l1.5625 0.59375l-0.296875 1.84375q-0.15625 1.046875 -1.1875 1.046875l-1.78125 0q-1.34375 0 -1.34375 -1.265625l0 -12.171875l-2.8125 0l0 7.046875q0 5.34375 -3.1875 7.0625l-1.046875 -1.40625zm-0.4375 1.40625l-1.484375 0l0 -7.578125q-1.046875 2.375 -2.609375 4.078125l-0.953125 -1.625q2.96875 -3.046875 3.40625 -6.3125l-2.96875 0l0 -1.40625l3.125 0l0 -3.9375l1.40625 0q0.734375 0.078125 0.078125 0.453125l0 3.484375l2.59375 0l0 1.40625l-2.59375 0l0 2.234375q1.328125 0.59375 2.671875 1.625l-0.828125 1.703125q-0.890625 -0.953125 -1.84375 -1.78125l0 7.65625z" fill-rule="nonzero"/><path fill="#000000" d="m327.46088 180.61292l5.125 -13.359375l1.90625 0l5.46875 13.359375l-2.015625 0l-1.546875 -4.046875l-5.59375 0l-1.46875 4.046875l-1.875 0zm3.859375 -5.484375l4.53125 0l-1.40625 -3.703125q-0.625 -1.6875 -0.9375 -2.765625q-0.265625 1.28125 -0.71875 2.546875l-1.46875 3.921875z" fill-rule="nonzero"/><path fill="#cfe2f3" d="m527.33856 119.23622l180.0 0l0 108.91339l-180.0 0z" fill-rule="evenodd"/><path stroke="#000000" stroke-width="1.0" stroke-linejoin="round" stroke-linecap="butt" d="m527.33856 119.23622l180.0 0l0 108.91339l-180.0 0z" fill-rule="evenodd"/><path fill="#000000" d="m602.2887 179.94104l7.34375 0l0 1.421875l-16.03125 0l0 -1.421875l7.203125 0l0 -4.59375l-5.125 0l0 -1.421875l5.125 0l0 -3.625l-6.53125 0l0 -1.421875l7.265625 0q-1.1875 -1.40625 -2.671875 -2.4375l1.265625 -1.125q1.484375 0.96875 2.96875 2.53125l-1.328125 1.03125l7.046875 0l0 1.421875l-6.53125 0l0 3.625l5.125 0l0 1.421875l-5.125 0l0 4.59375zm15.359375 0.828125q2.75 -1.265625 2.75 -5.578125l0 -8.53125l5.78125 0l0 12.84375q0 0.59375 0.53125 0.59375l0.4375 0q0.375 0 0.453125 -0.53125l0.140625 -1.546875l1.5625 0.59375l-0.296875 1.84375q-0.15625 1.046875 -1.1875 1.046875l-1.78125 0q-1.34375 0 -1.34375 -1.265625l0 -12.171875l-2.8125 0l0 7.046875q0 5.34375 -3.1875 7.0625l-1.046875 -1.40625zm-0.4375 1.40625l-1.484375 0l0 -7.578125q-1.046875 2.375 -2.609375 4.078125l-0.953125 -1.625q2.96875 -3.046875 3.40625 -6.3125l-2.96875 0l0 -1.40625l3.125 0l0 -3.9375l1.40625 0q0.734375 0.078125 0.078125 0.453125l0 3.484375l2.59375 0l0 1.40625l-2.59375 0l0 2.234375q1.328125 0.59375 2.671875 1.625l-0.828125 1.703125q-0.890625 -0.953125 -1.84375 -1.78125l0 7.65625z" fill-rule="nonzero"/><path fill="#000000" d="m631.4762 180.61292l0 -13.359375l5.015625 0q1.53125 0 2.453125 0.40625q0.921875 0.40625 1.4375 1.25q0.53125 0.84375 0.53125 1.765625q0 0.859375 -0.46875 1.625q-0.453125 0.75 -1.390625 1.203125q1.203125 0.359375 1.859375 1.21875q0.65625 0.859375 0.65625 2.015625q0 0.9375 -0.40625 1.75q-0.390625 0.796875 -0.984375 1.234375q-0.578125 0.4375 -1.453125 0.671875q-0.875 0.21875 -2.15625 0.21875l-5.09375 0zm1.78125 -7.75l2.875 0q1.1875 0 1.6875 -0.140625q0.671875 -0.203125 1.015625 -0.671875q0.34375 -0.46875 0.34375 -1.171875q0 -0.65625 -0.328125 -1.15625q-0.3125 -0.515625 -0.90625 -0.703125q-0.59375 -0.1875 -2.03125 -0.1875l-2.65625 0l0 4.03125zm0 6.171875l3.3125 0q0.859375 0 1.203125 -0.0625q0.609375 -0.109375 1.015625 -0.359375q0.421875 -0.265625 0.6875 -0.75q0.265625 -0.484375 0.265625 -1.125q0 -0.75 -0.390625 -1.296875q-0.375 -0.546875 -1.0625 -0.765625q-0.671875 -0.234375 -1.953125 -0.234375l-3.078125 0l0 4.59375z" fill-rule="nonzero"/><path fill="#000000" fill-opacity="0.0" d="m314.7139 228.14961l-2.8661194 401.29132" fill-rule="evenodd"/><path stroke="#000000" stroke-width="1.0" stroke-linejoin="round" stroke-linecap="butt" d="m314.7139 228.14961l-2.8661194 401.29132" fill-rule="evenodd"/><path fill="#000000" fill-opacity="0.0" d="m617.33856 228.14961l-0.5354004 408.15747" fill-rule="evenodd"/><path stroke="#000000" stroke-width="1.0" stroke-linejoin="round" stroke-linecap="butt" d="m617.33856 228.14961l-0.5354004 408.15747" fill-rule="evenodd"/><path fill="#000000" fill-opacity="0.0" d="m319.8714 277.45145l288.9134 60.75589" fill-rule="evenodd"/><path stroke="#000000" stroke-width="1.0" stroke-linejoin="round" stroke-linecap="butt" d="m319.8714 277.45145l283.0418 59.52115" fill-rule="evenodd"/><path fill="#000000" stroke="#000000" stroke-width="1.0" stroke-linecap="butt" d="m602.5733 338.589l4.780884 -0.6824951l-4.101074 -2.5502625z" fill-rule="evenodd"/><path fill="#000000" fill-opacity="0.0" d="m598.4724 356.56168l-275.14957 60.75592" fill-rule="evenodd"/><path stroke="#000000" stroke-width="1.0" stroke-linejoin="round" stroke-linecap="butt" d="m598.4724 356.56168l-269.2907 59.46219" fill-rule="evenodd"/><path fill="#000000" stroke="#000000" stroke-width="1.0" stroke-linecap="butt" d="m328.82556 414.411l-4.075226 2.5913696l4.787506 0.6343994z" fill-rule="evenodd"/><path fill="#000000" fill-opacity="0.0" d="m327.89764 474.6509l265.98425 69.921295" fill-rule="evenodd"/><path stroke="#000000" stroke-width="1.0" stroke-linejoin="round" stroke-linecap="butt" d="m327.89764 474.6509l260.1814 68.39584" fill-rule="evenodd"/><path fill="#000000" stroke="#000000" stroke-width="1.0" stroke-linecap="butt" d="m587.6591 544.6442l4.808899 -0.4437256l-3.9690552 -2.7512207z" fill-rule="evenodd"/><path fill="#000000" fill-opacity="0.0" d="m584.7139 562.92914l-261.41733 46.992126" fill-rule="evenodd"/><path stroke="#000000" stroke-width="1.0" stroke-linejoin="round" stroke-linecap="butt" d="m584.7139 562.92914l-255.512 45.930542" fill-rule="evenodd"/><path fill="#000000" stroke="#000000" stroke-width="1.0" stroke-linecap="butt" d="m328.9097 607.2341l-4.1742554 2.4285278l4.758728 0.82281494z" fill-rule="evenodd"/><path fill="#000000" fill-opacity="0.0" d="m357.12335 233.88452l193.7638 0l0 77.03937l-193.7638 0z" fill-rule="evenodd"/><path fill="#000000" d="m376.67023 252.33577l1.78125 -1.1875l-6.53125 0l0 -1.1875l8.015625 0l0.4375 -0.296875l1.046875 0.75q0.296875 0.4375 -0.296875 0.375q-1.1875 0.890625 -3.34375 2.140625q0.4375 0.234375 0.890625 0.53125l-0.890625 0.953125q-1.9375 -1.1875 -3.640625 -1.921875l0.75 -0.96875l1.78125 0.8125zm-8.09375 -5.046875l6.453125 0l0 -1.921875l1.640625 0q0.734375 0.140625 0.0625 0.59375l0 1.328125l6.984375 0l0 1.421875l-13.65625 0l0 6.890625q0 4.3124847 -1.484375 6.3906097l-1.34375 -1.109375q1.34375 -1.484375 1.34375 -5.2812347l0 -8.3125zm2.21875 8.76561l0 -1.4062347l11.359375 0l0.375 -0.375l1.1875 1.1875q0.21875 0.4375 -0.453125 0.375q-1.625 1.5468597 -3.625 3.1093597l-0.96875 -1.1875q1.328125 -0.8125 2.15625 -1.703125l-3.046875 0l0 4.90625q0 1.328125 -1.1875 1.328125l-1.78125 0l-0.15625 -1.40625l1.421875 0q0.21875 0 0.21875 -0.234375l0 -4.59375l-5.5 0zm20.125 -4.3749847q-0.15625 0.4375 -0.75 1.78125q1.5625 0.734375 2.671875 1.625q0.453125 -1.625 0.59375 -3.40625l-2.515625 0zm-1.421875 2.890625q-1.1875 1.7812347 -2.375 2.5156097l-0.890625 -1.4062347q3.34375 -2.671875 3.859375 -7.640625l-2.671875 0l0 -1.40625l8.6875 0l0 1.40625l-4.53125 0q0 0.375 -0.359375 2.21875l3.859375 0q0.140625 9.062485 -6.90625 12.031235l-0.96875 -1.5625q3.71875 -1.625 4.96875 -4.078125q-0.65625 -0.89060974 -2.671875 -2.0781097zm10.984375 -8.390625l1.421875 0q0.59375 0.078125 0.0625 0.453125l0 14.093735q0 1.125 -0.890625 1.125l-2.21875 0l-0.15625 -1.421875l1.484375 0q0.296875 0 0.296875 -0.296875l0 -13.95311zm-2.375 2.0q0.59375 0.078125 0.078125 0.453125l0 9.79686l-1.484375 0l0 -10.249985l1.40625 0zm9.734375 10.17186q1.25 -2.21875 1.84375 -4.0781097l-4.75 0l0 -1.40625l17.15625 0l0 1.40625l-10.6875 0q-0.296875 0.890625 -0.59375 1.5625l8.828125 0q-0.59375 4.4531097 -1.640625 5.8593597q-0.59375 0.75 -2.21875 0.59375l-2.0 -0.21875l-0.078125 -1.640625l2.296875 0.21875q0.75 0.078125 1.109375 -0.734375q0.15625 -0.375 0.671875 -2.671875l-7.421875 0q-0.296875 0.734375 -0.8125 1.625l-1.703125 -0.515625zm1.703125 -10.98436l0 2.453125l7.9375 0l0 -2.453125l-7.9375 0zm7.9375 4.375l0 -0.515625l-7.9375 0l0 0.671875l-1.484375 0l0 -5.9375l10.90625 0l0 5.78125l-1.484375 0z" fill-rule="nonzero"/><path fill="#000000" d="m430.07648 260.8045l-1.640625 0l0 -10.45311q-0.59375 0.5625 -1.5625 1.140625q-0.953125 0.5625 -1.71875 0.84375l0 -1.59375q1.375 -0.640625 2.40625 -1.5625q1.03125 -0.921875 1.453125 -1.78125l1.0625 0l0 13.406235z" fill-rule="nonzero"/><path fill="#000000" d="m379.93585 278.72638q1.03125 -2.015625 1.25 -6.09375l-2.515625 0q0.21875 4.078125 1.265625 6.09375zm2.734375 -6.09375q-0.140625 4.609375 -1.78125 7.421875q1.1875 1.484375 3.34375 2.59375l-0.96875 1.640625q-2.375 -1.5625 -3.328125 -2.96875q-1.71875 1.9375 -5.28125 3.34375l-0.734375 -1.484375q3.859375 -1.5625 5.125 -3.203125q-1.265625 -2.4375 -1.421875 -4.890625q-0.4375 1.109375 -0.890625 1.703125l-1.25 -0.96875q2.21875 -3.265625 2.671875 -8.078125l1.546875 0.359375q0.453125 0.296875 -0.21875 0.453125q-0.21875 1.328125 -0.59375 2.671875l5.046875 0l0 1.40625l-1.265625 0zm-6.890625 -3.5625q-0.453125 1.109375 -1.046875 1.859375l-1.1875 -0.671875q0.59375 -0.96875 1.109375 -2.21875l1.34375 0.65625q0.296875 0.296875 -0.21875 0.375zm-4.75 10.46875q1.03125 0.296875 1.84375 0.671875q0.59375 -0.671875 0.96875 -2.015625l-2.15625 0q-0.296875 0.671875 -0.65625 1.34375zm-1.046875 1.859375l-1.1875 -0.671875q0.75 -1.109375 1.484375 -2.53125l-2.8125 0l0 -1.1875l3.265625 0q0.4375 -0.953125 0.65625 -1.625l1.421875 0.375q0.296875 0.296875 -0.234375 0.359375l-0.4375 0.890625l4.234375 0l0 1.1875l-1.125 0q-0.359375 1.484375 -1.109375 2.53125q0.671875 0.296875 1.40625 0.734375l-0.65625 1.1875q-0.828125 -0.515625 -1.484375 -0.8125q-1.9375 1.9375 -5.203125 2.375l-0.515625 -1.328125q2.890625 -0.296875 4.453125 -1.640625q-0.8125 -0.375 -1.640625 -0.671875l-0.515625 0.828125zm1.484375 -13.953125l1.1875 0q0.59375 0.0625 0.078125 0.4375l0 3.1875l3.78125 0l0 1.1875l-3.109375 0q0.8125 0.96875 2.515625 1.859375l-0.8125 1.265625q-1.265625 -0.75 -2.375 -2.078125l0 1.78125l-1.265625 0l0 -1.40625q-1.1875 1.484375 -3.265625 2.671875l-0.96875 -1.1875q2.3125 -1.1875 3.796875 -2.90625l-3.421875 0l0 -1.1875l3.859375 0l0 -3.625zm-2.078125 3.40625q-0.515625 -1.109375 -1.328125 -1.921875l1.1875 -0.75q0.890625 0.890625 1.328125 1.859375l-1.1875 0.8125zm23.15625 -2.96875l9.71875 0l0 4.671875l-3.328125 0l0 2.15625l4.15625 0l0 1.1875l-4.15625 0l0 2.234375l2.890625 0l0 6.15625l-1.265625 0l0 -0.8125l-4.453125 0l0 1.03125l-1.265625 0l0 -6.375l2.609375 0l0 -2.234375l-3.640625 0l0 1.1875q0 4.96875 -2.15625 7.203125l-1.109375 -1.109375q2.0 -2.015625 2.0 -6.390625l0 -8.90625zm8.015625 11.4375l-4.453125 0l0 2.96875l4.453125 0l0 -2.96875zm-3.109375 -4.609375l0 -2.15625l-3.640625 0l0 2.15625l3.640625 0zm-3.640625 -3.34375l6.96875 0l0 -2.296875l-6.96875 0l0 2.296875zm-1.9375 5.578125l-1.921875 0.65625l0 5.796875q0 1.1875 -1.1875 1.1875l-1.484375 0l-0.21875 -1.40625l1.109375 0q0.296875 0 0.296875 -0.296875l0 -4.828125l-1.5625 0.515625q-0.078125 0.515625 -0.375 0.21875l-0.515625 -1.78125l2.453125 -0.515625l0 -3.859375l-2.078125 0l0 -1.40625l2.078125 0l0 -3.859375l1.40625 0q0.59375 0.078125 0.078125 0.4375l0 3.421875l1.921875 0l0 1.40625l-1.921875 0l0 3.5625l1.78125 -0.515625l0.140625 1.265625z" fill-rule="nonzero"/><path fill="#000000" d="m409.2171 274.64825l0 -4.8125q0 -0.65625 -0.0625 -1.890625l1.59375 0q-0.0625 1.375 -0.0625 1.8125l0 4.890625l8.8125 0q0.953125 0 2.046875 -0.078125l0 1.453125q-1.390625 -0.0625 -2.5625 -0.0625l-4.21875 0q0.515625 1.453125 1.5625 2.84375q1.0625 1.375 2.515625 2.296875q1.453125 0.90625 2.625 1.265625q-0.953125 0.578125 -1.453125 1.453125q-1.53125 -0.796875 -2.84375 -1.890625q-1.3125 -1.09375 -2.34375 -2.65625q-1.015625 -1.5625 -1.515625 -3.3125l-2.625 0l0 5.75q2.109375 -1.3125 2.84375 -1.96875q0.5 0.796875 1.015625 1.453125q-1.390625 0.65625 -2.78125 1.640625q-1.375 0.984375 -2.03125 1.640625q-0.578125 -0.796875 -1.09375 -1.375q0.578125 -0.59375 0.578125 -1.53125l0 -5.609375l-1.671875 0q-1.015625 0 -2.328125 0.0625l0 -1.453125q1.3125 0.078125 2.1875 0.078125l1.8125 0zm9.1875 -5.546875q-0.796875 0.65625 -2.375 2.234375q-1.5625 1.5625 -3.09375 3.015625q-0.65625 -0.875 -1.09375 -1.171875q1.25 -0.875 2.78125 -2.46875q1.53125 -1.609375 2.328125 -2.765625q0.578125 0.5 1.453125 1.15625z" fill-rule="nonzero"/><path fill="#000000" d="m440.1546 284.50763q-3.5625 -0.4375 -6.3125 -1.859375q-2.59375 1.5625 -6.234375 1.9375l-0.59375 -1.5625q3.34375 -0.296875 5.5625 -1.40625q-1.1875 -1.1875 -2.15625 -2.53125l-2.078125 0l0 -1.1875l8.6875 0l0.21875 -0.21875l1.125 0.890625q0.296875 0.453125 -0.296875 0.375q-1.265625 1.484375 -3.046875 2.75q2.59375 0.890625 5.484375 1.109375l-0.359375 1.703125zm-6.765625 -15.140625l6.6875 0l0 1.40625l-13.140625 0l0 6.53125q0 4.15625 -1.859375 6.984375l-1.328125 -1.109375q1.703125 -2.3125 1.703125 -6.171875l0 -7.640625l6.234375 0l0 -1.921875l1.640625 0q0.59375 0.0625 0.0625 0.4375l0 1.484375zm0.453125 11.5q0.890625 -0.59375 2.078125 -1.78125l-3.859375 0q0.734375 0.890625 1.78125 1.78125zm2.671875 -4.0l-1.484375 0l0 -0.453125l-3.1875 0l0 0.53125l-1.484375 0l0 -2.96875l-2.96875 0l0 -1.1875l2.96875 0l0 -1.421875l1.40625 0q0.59375 0.078125 0.078125 0.453125l0 0.96875l3.1875 0l0 -1.5625l1.40625 0q0.59375 0.078125 0.078125 0.4375l0 1.125l3.5625 0l0 1.1875l-3.5625 0l0 2.890625zm-1.484375 -2.890625l-3.1875 0l0 1.25l3.1875 0l0 -1.25zm10.609375 0.140625l1.703125 0l0 1.640625l-1.703125 0l0 -1.640625zm0 6.828125l1.703125 0l0 1.640625l-1.703125 0l0 -1.640625z" fill-rule="nonzero"/><path fill="#000000" d="m458.23273 282.8045l-1.640625 0l0 -10.453125q-0.59375 0.5625 -1.5625 1.140625q-0.953125 0.5625 -1.71875 0.84375l0 -1.59375q1.375 -0.640625 2.40625 -1.5625q1.03125 -0.921875 1.453125 -1.78125l1.0625 0l0 13.40625zm4.2038574 -6.59375q0 -2.359375 0.484375 -3.796875q0.484375 -1.453125 1.4375 -2.234375q0.96875 -0.78125 2.421875 -0.78125q1.078125 0 1.890625 0.4375q0.8125 0.421875 1.328125 1.25q0.53125 0.8125 0.828125 1.984375q0.3125 1.15625 0.3125 3.140625q0 2.359375 -0.484375 3.8125q-0.484375 1.4375 -1.453125 2.234375q-0.953125 0.78125 -2.421875 0.78125q-1.921875 0 -3.03125 -1.390625q-1.3125 -1.671875 -1.3125 -5.4375zm1.671875 0q0 3.296875 0.765625 4.390625q0.78125 1.078125 1.90625 1.078125q1.140625 0 1.90625 -1.09375q0.765625 -1.09375 0.765625 -4.375q0 -3.296875 -0.765625 -4.375q-0.765625 -1.078125 -1.921875 -1.078125q-1.125 0 -1.796875 0.953125q-0.859375 1.21875 -0.859375 4.5zm8.703827 0q0 -2.359375 0.484375 -3.796875q0.484375 -1.453125 1.4375 -2.234375q0.96875 -0.78125 2.421875 -0.78125q1.078125 0 1.890625 0.4375q0.8125 0.421875 1.328125 1.25q0.53125 0.8125 0.828125 1.984375q0.3125 1.15625 0.3125 3.140625q0 2.359375 -0.484375 3.8125q-0.484375 1.4375 -1.453125 2.234375q-0.953125 0.78125 -2.421875 0.78125q-1.921875 0 -3.03125 -1.390625q-1.3125 -1.671875 -1.3125 -5.4375zm1.671875 0q0 3.296875 0.765625 4.390625q0.78125 1.078125 1.90625 1.078125q1.140625 0 1.90625 -1.09375q0.765625 -1.09375 0.765625 -4.375q0 -3.296875 -0.765625 -4.375q-0.765625 -1.078125 -1.921875 -1.078125q-1.125 0 -1.796875 0.953125q-0.859375 1.21875 -0.859375 4.5zm8.703857 0q0 -2.359375 0.484375 -3.796875q0.484375 -1.453125 1.4375 -2.234375q0.96875 -0.78125 2.421875 -0.78125q1.078125 0 1.890625 0.4375q0.8125 0.421875 1.328125 1.25q0.53125 0.8125 0.828125 1.984375q0.3125 1.15625 0.3125 3.140625q0 2.359375 -0.484375 3.8125q-0.484375 1.4375 -1.453125 2.234375q-0.953125 0.78125 -2.421875 0.78125q-1.921875 0 -3.03125 -1.390625q-1.3125 -1.671875 -1.3125 -5.4375zm1.671875 0q0 3.296875 0.765625 4.390625q0.78125 1.078125 1.90625 1.078125q1.140625 0 1.90625 -1.09375q0.765625 -1.09375 0.765625 -4.375q0 -3.296875 -0.765625 -4.375q-0.765625 -1.078125 -1.921875 -1.078125q-1.125 0 -1.796875 0.953125q-0.859375 1.21875 -0.859375 4.5z" fill-rule="nonzero"/><path fill="#000000" fill-opacity="0.0" d="m400.4042 325.03937l130.70865 0l0 69.921265l-130.70865 0z" fill-rule="evenodd"/><path fill="#000000" d="m413.56046 344.61563l0 5.265625l1.5625 0l0 -5.265625l-1.5625 0zm2.828125 -1.1875l0 7.640625l-2.828125 0l0 2.0l-1.265625 0l0 -6.828125q-0.4375 0.96875 -1.40625 1.9375l-0.96875 -1.34375q2.53125 -2.515625 3.203125 -7.640625l-2.3125 0l0 -1.40625l6.390625 0l0 1.40625l-2.671875 0q-0.21875 2.15625 -0.890625 4.234375l2.75 0zm0 -0.53125q2.59375 -2.375 3.5625 -6.375l1.484375 0q0.734375 0.140625 -0.078125 0.4375l-0.375 0.96875l3.1875 0l0.15625 -0.21875l1.265625 0.4375q0.65625 0.296875 -0.078125 0.453125l-2.0 2.671875l3.328125 0l0 10.765625q0 1.265625 -1.109375 1.265625l-1.78125 0l-0.296875 -1.421875l1.484375 0q0.21875 0 0.21875 -0.21875l0 -2.890625l-5.265625 0q-0.4375 3.484375 -2.75 4.75l-0.8125 -1.265625q2.078125 -1.1875 2.078125 -4.75l0 -4.90625q-0.515625 0.75 -1.40625 1.5625l-0.8125 -1.265625zm6.96875 1.484375l2.0 0l0 -1.703125l-2.0 0l0 1.703125zm-3.265625 0l2.0 0l0 -1.703125l-2.0 0l0 1.703125zm2.0 1.1875l-2.0 0l0 1.78125l2.0 0l0 -1.78125zm1.265625 1.78125l2.0 0l0 -1.78125l-2.0 0l0 1.78125zm-2.8125 -8.234375q-0.375 1.109375 -1.046875 2.15625l2.671875 0l1.34375 -2.15625l-2.96875 0z" fill-rule="nonzero"/><path fill="#000000" d="m444.87296 353.70938q-1.96875 -1.671875 -3.03125 -3.5q-1.046875 -1.828125 -1.78125 -4.734375q-0.796875 3.203125 -2.296875 5.21875q-1.484375 2.0 -2.796875 3.09375q-0.296875 -0.515625 -1.390625 -1.03125q1.609375 -1.09375 2.875 -2.796875q1.28125 -1.71875 1.890625 -3.421875q0.625 -1.71875 0.734375 -3.421875q0.109375 -1.71875 0.109375 -3.03125q0 -1.3125 -0.0625 -3.0625q0.875 0.078125 1.890625 0.078125q-0.21875 0.28125 -0.296875 1.59375q-0.0625 1.3125 0.078125 3.328125q0.140625 2.0 0.71875 3.828125q0.59375 1.8125 1.6875 3.640625q1.09375 1.8125 3.125 3.046875q-1.15625 0.4375 -1.453125 1.171875zm-13.546875 -2.484375q0.5 -0.578125 0.5 -1.234375l0 -6.125q-1.671875 0 -2.46875 0.078125l0 -1.390625q0.796875 0.078125 1.75 0.078125l2.25 0q-0.078125 1.3125 -0.078125 2.484375l0 4.296875q0.59375 -0.59375 2.265625 -2.484375q0.296875 0.65625 0.796875 1.3125q-1.09375 1.09375 -2.109375 2.1875q-1.015625 1.09375 -1.671875 1.96875q-0.734375 -0.734375 -1.234375 -1.171875zm2.609375 -10.34375q-1.15625 -1.609375 -2.609375 -2.765625q0.65625 -0.4375 1.015625 -1.015625q1.15625 0.9375 2.765625 2.765625q-0.734375 0.4375 -1.171875 1.015625zm23.40625 -4.296875q0.5 1.3125 0.9375 2.546875l2.625 0q1.53125 0 3.203125 -0.078125l0 1.3125q-1.671875 -0.0625 -3.203125 -0.0625l-9.546875 0q0 4.296875 -0.140625 6.125q-0.140625 1.8125 -0.546875 3.71875q-0.40625 1.890625 -1.421875 3.640625q-0.515625 -0.65625 -1.3125 -1.09375q0.953125 -1.25 1.453125 -3.46875q0.515625 -2.21875 0.578125 -4.765625q0.078125 -2.5625 0.015625 -5.328125l6.546875 0q-0.21875 -1.015625 -0.71875 -2.03125q0.71875 -0.15625 1.53125 -0.515625zm6.109375 6.265625q-0.71875 1.609375 -1.265625 3.140625q-0.546875 1.515625 -2.15625 5.3125l2.046875 0q1.015625 0 2.25 -0.078125l0 1.53125q-1.234375 -0.0625 -2.25 -0.0625l-7.796875 0q-1.25 0 -2.984375 0.0625l0 -1.53125q1.671875 0.078125 2.984375 0.078125l4.296875 0q1.09375 -2.265625 1.921875 -4.734375q0.84375 -2.484375 1.203125 -4.375q0.953125 0.515625 1.75 0.65625zm-10.265625 0.796875q1.890625 3.0 2.84375 5.25q-0.515625 0.296875 -1.25 0.734375q-1.453125 -3.28125 -2.765625 -5.171875q0.65625 -0.515625 1.171875 -0.8125zm3.5 -1.671875q1.453125 2.546875 2.546875 5.03125q-0.65625 0.359375 -1.390625 0.71875q-0.875 -2.46875 -2.328125 -5.09375q0.578125 -0.21875 1.171875 -0.65625z" fill-rule="nonzero"/><path fill="#000000" d="m466.76358 345.725q4.453125 -1.265625 7.9375 -4.96875l1.703125 0.296875q0.296875 0.296875 -0.21875 0.359375q2.078125 2.375 7.640625 3.796875l-0.515625 1.625q-2.671875 -0.671875 -4.375 -1.625l0 1.03125l-7.421875 0l0 -0.96875q-1.78125 1.265625 -4.15625 2.015625l-0.59375 -1.5625zm11.578125 -0.890625q-1.5625 -0.8125 -3.203125 -2.59375q-1.03125 1.328125 -2.96875 2.59375l6.171875 0zm-11.578125 -3.5625q1.78125 -1.5625 2.8125 -4.671875l1.5625 0.4375q0.296875 0.296875 -0.21875 0.375l-0.53125 1.03125l4.609375 0l0 1.1875l-2.75 0q0.453125 0.828125 0.890625 1.9375l-1.5625 0.4375q-0.359375 -1.328125 -0.8125 -2.375l-0.8125 0q-0.890625 1.78125 -2.15625 2.90625l-1.03125 -1.265625zm10.6875 -2.828125l5.78125 0l0 1.1875l-3.484375 0q0.59375 0.828125 0.96875 1.78125l-1.5625 0.59375q-0.375 -1.25 -0.96875 -2.375l-1.265625 0l-0.65625 1.1875l-1.265625 -0.734375q1.03125 -1.640625 1.625 -3.71875l1.484375 0.453125q0.296875 0.296875 -0.21875 0.375l-0.4375 1.25zm-6.171875 10.328125l0 2.59375l8.015625 0l0 -2.59375l-8.015625 0zm-1.484375 -1.1875l10.984375 0l0 5.78125l-1.484375 0l0 -0.8125l-8.015625 0l0 1.046875l-1.484375 0l0 -6.015625zm18.640625 1.921875q1.25 -2.21875 1.84375 -4.078125l-4.75 0l0 -1.40625l17.15625 0l0 1.40625l-10.6875 0q-0.296875 0.890625 -0.59375 1.5625l8.828125 0q-0.59375 4.453125 -1.640625 5.859375q-0.59375 0.75 -2.21875 0.59375l-2.0 -0.21875l-0.078125 -1.640625l2.296875 0.21875q0.75 0.078125 1.109375 -0.734375q0.15625 -0.375 0.671875 -2.671875l-7.421875 0q-0.296875 0.734375 -0.8125 1.625l-1.703125 -0.515625zm1.703125 -10.984375l0 2.453125l7.9375 0l0 -2.453125l-7.9375 0zm7.9375 4.375l0 -0.515625l-7.9375 0l0 0.671875l-1.484375 0l0 -5.9375l10.90625 0l0 5.78125l-1.484375 0z" fill-rule="nonzero"/><path fill="#000000" d="m416.35733 373.95938l-1.640625 0l0 -10.453125q-0.59375 0.5625 -1.5625 1.140625q-0.953125 0.5625 -1.71875 0.84375l0 -1.59375q1.375 -0.640625 2.40625 -1.5625q1.03125 -0.921875 1.453125 -1.78125l1.0625 0l0 13.40625zm4.203827 -6.59375q0 -2.359375 0.484375 -3.796875q0.484375 -1.453125 1.4375 -2.234375q0.96875 -0.78125 2.421875 -0.78125q1.078125 0 1.890625 0.4375q0.8125 0.421875 1.328125 1.25q0.53125 0.8125 0.828125 1.984375q0.3125 1.15625 0.3125 3.140625q0 2.359375 -0.484375 3.8125q-0.484375 1.4375 -1.453125 2.234375q-0.953125 0.78125 -2.421875 0.78125q-1.921875 0 -3.03125 -1.390625q-1.3125 -1.671875 -1.3125 -5.4375zm1.671875 0q0 3.296875 0.765625 4.390625q0.78125 1.078125 1.90625 1.078125q1.140625 0 1.90625 -1.09375q0.765625 -1.09375 0.765625 -4.375q0 -3.296875 -0.765625 -4.375q-0.765625 -1.078125 -1.921875 -1.078125q-1.125 0 -1.796875 0.953125q-0.859375 1.21875 -0.859375 4.5zm8.703857 0q0 -2.359375 0.484375 -3.796875q0.484375 -1.453125 1.4375 -2.234375q0.96875 -0.78125 2.421875 -0.78125q1.078125 0 1.890625 0.4375q0.8125 0.421875 1.328125 1.25q0.53125 0.8125 0.828125 1.984375q0.3125 1.15625 0.3125 3.140625q0 2.359375 -0.484375 3.8125q-0.484375 1.4375 -1.453125 2.234375q-0.953125 0.78125 -2.421875 0.78125q-1.921875 0 -3.03125 -1.390625q-1.3125 -1.671875 -1.3125 -5.4375zm1.671875 0q0 3.296875 0.765625 4.390625q0.78125 1.078125 1.90625 1.078125q1.140625 0 1.90625 -1.09375q0.765625 -1.09375 0.765625 -4.375q0 -3.296875 -0.765625 -4.375q-0.765625 -1.078125 -1.921875 -1.078125q-1.125 0 -1.796875 0.953125q-0.859375 1.21875 -0.859375 4.5zm14.875702 6.59375l-1.640625 0l0 -10.453125q-0.59375 0.5625 -1.5625 1.140625q-0.953125 0.5625 -1.71875 0.84375l0 -1.59375q1.375 -0.640625 2.40625 -1.5625q1.03125 -0.921875 1.453125 -1.78125l1.0625 0l0 13.40625z" fill-rule="nonzero"/><path fill="#000000" fill-opacity="0.0" d="m357.12335 430.67978l187.4646 0l0 69.921265l-187.4646 0z" fill-rule="evenodd"/><path fill="#000000" d="m376.67023 449.13104l1.78125 -1.1875l-6.53125 0l0 -1.1875l8.015625 0l0.4375 -0.296875l1.046875 0.75q0.296875 0.4375 -0.296875 0.375q-1.1875 0.890625 -3.34375 2.140625q0.4375 0.234375 0.890625 0.53125l-0.890625 0.953125q-1.9375 -1.1875 -3.640625 -1.921875l0.75 -0.96875l1.78125 0.8125zm-8.09375 -5.046875l6.453125 0l0 -1.921875l1.640625 0q0.734375 0.140625 0.0625 0.59375l0 1.328125l6.984375 0l0 1.421875l-13.65625 0l0 6.890625q0 4.3125 -1.484375 6.390625l-1.34375 -1.109375q1.34375 -1.484375 1.34375 -5.28125l0 -8.3125zm2.21875 8.765625l0 -1.40625l11.359375 0l0.375 -0.375l1.1875 1.1875q0.21875 0.4375 -0.453125 0.375q-1.625 1.546875 -3.625 3.109375l-0.96875 -1.1875q1.328125 -0.8125 2.15625 -1.703125l-3.046875 0l0 4.90625q0 1.328125 -1.1875 1.328125l-1.78125 0l-0.15625 -1.40625l1.421875 0q0.21875 0 0.21875 -0.234375l0 -4.59375l-5.5 0zm20.125 -4.375q-0.15625 0.4375 -0.75 1.78125q1.5625 0.734375 2.671875 1.625q0.453125 -1.625 0.59375 -3.40625l-2.515625 0zm-1.421875 2.890625q-1.1875 1.78125 -2.375 2.515625l-0.890625 -1.40625q3.34375 -2.671875 3.859375 -7.640625l-2.671875 0l0 -1.40625l8.6875 0l0 1.40625l-4.53125 0q0 0.375 -0.359375 2.21875l3.859375 0q0.140625 9.0625 -6.90625 12.03125l-0.96875 -1.5625q3.71875 -1.625 4.96875 -4.078125q-0.65625 -0.890625 -2.671875 -2.078125zm10.984375 -8.390625l1.421875 0q0.59375 0.078125 0.0625 0.453125l0 14.09375q0 1.125 -0.890625 1.125l-2.21875 0l-0.15625 -1.421875l1.484375 0q0.296875 0 0.296875 -0.296875l0 -13.953125zm-2.375 2.0q0.59375 0.078125 0.078125 0.453125l0 9.796875l-1.484375 0l0 -10.25l1.40625 0zm9.734375 10.171875q1.25 -2.21875 1.84375 -4.078125l-4.75 0l0 -1.40625l17.15625 0l0 1.40625l-10.6875 0q-0.296875 0.890625 -0.59375 1.5625l8.828125 0q-0.59375 4.453125 -1.640625 5.859375q-0.59375 0.75 -2.21875 0.59375l-2.0 -0.21875l-0.078125 -1.640625l2.296875 0.21875q0.75 0.078125 1.109375 -0.734375q0.15625 -0.375 0.671875 -2.671875l-7.421875 0q-0.296875 0.734375 -0.8125 1.625l-1.703125 -0.515625zm1.703125 -10.984375l0 2.453125l7.9375 0l0 -2.453125l-7.9375 0zm7.9375 4.375l0 -0.515625l-7.9375 0l0 0.671875l-1.484375 0l0 -5.9375l10.90625 0l0 5.78125l-1.484375 0z" fill-rule="nonzero"/><path fill="#000000" d="m430.07648 457.5998l-1.640625 0l0 -10.453125q-0.59375 0.5625 -1.5625 1.140625q-0.953125 0.5625 -1.71875 0.84375l0 -1.59375q1.375 -0.640625 2.40625 -1.5625q1.03125 -0.921875 1.453125 -1.78125l1.0625 0l0 13.40625zm4.2038574 -6.59375q0 -2.359375 0.484375 -3.796875q0.484375 -1.453125 1.4375 -2.234375q0.96875 -0.78125 2.421875 -0.78125q1.078125 0 1.890625 0.4375q0.8125 0.421875 1.328125 1.25q0.53125 0.8125 0.828125 1.984375q0.3125 1.15625 0.3125 3.140625q0 2.359375 -0.484375 3.8125q-0.484375 1.4375 -1.453125 2.234375q-0.953125 0.78125 -2.421875 0.78125q-1.921875 0 -3.03125 -1.390625q-1.3125 -1.671875 -1.3125 -5.4375zm1.671875 0q0 3.296875 0.765625 4.390625q0.78125 1.078125 1.90625 1.078125q1.140625 0 1.90625 -1.09375q0.765625 -1.09375 0.765625 -4.375q0 -3.296875 -0.765625 -4.375q-0.765625 -1.078125 -1.921875 -1.078125q-1.125 0 -1.796875 0.953125q-0.859375 1.21875 -0.859375 4.5zm8.703827 0q0 -2.359375 0.484375 -3.796875q0.484375 -1.453125 1.4375 -2.234375q0.96875 -0.78125 2.421875 -0.78125q1.078125 0 1.890625 0.4375q0.8125 0.421875 1.328125 1.25q0.53125 0.8125 0.828125 1.984375q0.3125 1.15625 0.3125 3.140625q0 2.359375 -0.484375 3.8125q-0.484375 1.4375 -1.453125 2.234375q-0.953125 0.78125 -2.421875 0.78125q-1.921875 0 -3.03125 -1.390625q-1.3125 -1.671875 -1.3125 -5.4375zm1.671875 0q0 3.296875 0.765625 4.390625q0.78125 1.078125 1.90625 1.078125q1.140625 0 1.90625 -1.09375q0.765625 -1.09375 0.765625 -4.375q0 -3.296875 -0.765625 -4.375q-0.765625 -1.078125 -1.921875 -1.078125q-1.125 0 -1.796875 0.953125q-0.859375 1.21875 -0.859375 4.5zm14.875732 6.59375l-1.640625 0l0 -10.453125q-0.59375 0.5625 -1.5625 1.140625q-0.953125 0.5625 -1.71875 0.84375l0 -1.59375q1.375 -0.640625 2.40625 -1.5625q1.03125 -0.921875 1.453125 -1.78125l1.0625 0l0 13.40625z" fill-rule="nonzero"/><path fill="#000000" d="m379.93585 475.52167q1.03125 -2.015625 1.25 -6.09375l-2.515625 0q0.21875 4.078125 1.265625 6.09375zm2.734375 -6.09375q-0.140625 4.609375 -1.78125 7.421875q1.1875 1.484375 3.34375 2.59375l-0.96875 1.640625q-2.375 -1.5625 -3.328125 -2.96875q-1.71875 1.9375 -5.28125 3.34375l-0.734375 -1.484375q3.859375 -1.5625 5.125 -3.203125q-1.265625 -2.4375 -1.421875 -4.890625q-0.4375 1.109375 -0.890625 1.703125l-1.25 -0.96875q2.21875 -3.265625 2.671875 -8.078125l1.546875 0.359375q0.453125 0.296875 -0.21875 0.453125q-0.21875 1.328125 -0.59375 2.671875l5.046875 0l0 1.40625l-1.265625 0zm-6.890625 -3.5625q-0.453125 1.109375 -1.046875 1.859375l-1.1875 -0.671875q0.59375 -0.96875 1.109375 -2.21875l1.34375 0.65625q0.296875 0.296875 -0.21875 0.375zm-4.75 10.46875q1.03125 0.296875 1.84375 0.671875q0.59375 -0.671875 0.96875 -2.015625l-2.15625 0q-0.296875 0.671875 -0.65625 1.34375zm-1.046875 1.859375l-1.1875 -0.671875q0.75 -1.109375 1.484375 -2.53125l-2.8125 0l0 -1.1875l3.265625 0q0.4375 -0.953125 0.65625 -1.625l1.421875 0.375q0.296875 0.296875 -0.234375 0.359375l-0.4375 0.890625l4.234375 0l0 1.1875l-1.125 0q-0.359375 1.484375 -1.109375 2.53125q0.671875 0.296875 1.40625 0.734375l-0.65625 1.1875q-0.828125 -0.515625 -1.484375 -0.8125q-1.9375 1.9375 -5.203125 2.375l-0.515625 -1.328125q2.890625 -0.296875 4.453125 -1.640625q-0.8125 -0.375 -1.640625 -0.671875l-0.515625 0.828125zm1.484375 -13.953125l1.1875 0q0.59375 0.0625 0.078125 0.4375l0 3.1875l3.78125 0l0 1.1875l-3.109375 0q0.8125 0.96875 2.515625 1.859375l-0.8125 1.265625q-1.265625 -0.75 -2.375 -2.078125l0 1.78125l-1.265625 0l0 -1.40625q-1.1875 1.484375 -3.265625 2.671875l-0.96875 -1.1875q2.3125 -1.1875 3.796875 -2.90625l-3.421875 0l0 -1.1875l3.859375 0l0 -3.625zm-2.078125 3.40625q-0.515625 -1.109375 -1.328125 -1.921875l1.1875 -0.75q0.890625 0.890625 1.328125 1.859375l-1.1875 0.8125zm23.15625 -2.96875l9.71875 0l0 4.671875l-3.328125 0l0 2.15625l4.15625 0l0 1.1875l-4.15625 0l0 2.234375l2.890625 0l0 6.15625l-1.265625 0l0 -0.8125l-4.453125 0l0 1.03125l-1.265625 0l0 -6.375l2.609375 0l0 -2.234375l-3.640625 0l0 1.1875q0 4.96875 -2.15625 7.203125l-1.109375 -1.109375q2.0 -2.015625 2.0 -6.390625l0 -8.90625zm8.015625 11.4375l-4.453125 0l0 2.96875l4.453125 0l0 -2.96875zm-3.109375 -4.609375l0 -2.15625l-3.640625 0l0 2.15625l3.640625 0zm-3.640625 -3.34375l6.96875 0l0 -2.296875l-6.96875 0l0 2.296875zm-1.9375 5.578125l-1.921875 0.65625l0 5.796875q0 1.1875 -1.1875 1.1875l-1.484375 0l-0.21875 -1.40625l1.109375 0q0.296875 0 0.296875 -0.296875l0 -4.828125l-1.5625 0.515625q-0.078125 0.515625 -0.375 0.21875l-0.515625 -1.78125l2.453125 -0.515625l0 -3.859375l-2.078125 0l0 -1.40625l2.078125 0l0 -3.859375l1.40625 0q0.59375 0.078125 0.078125 0.4375l0 3.421875l1.921875 0l0 1.40625l-1.921875 0l0 3.5625l1.78125 -0.515625l0.140625 1.265625z" fill-rule="nonzero"/><path fill="#000000" d="m409.2171 471.44354l0 -4.8125q0 -0.65625 -0.0625 -1.890625l1.59375 0q-0.0625 1.375 -0.0625 1.8125l0 4.890625l8.8125 0q0.953125 0 2.046875 -0.078125l0 1.453125q-1.390625 -0.0625 -2.5625 -0.0625l-4.21875 0q0.515625 1.453125 1.5625 2.84375q1.0625 1.375 2.515625 2.296875q1.453125 0.90625 2.625 1.265625q-0.953125 0.578125 -1.453125 1.453125q-1.53125 -0.796875 -2.84375 -1.890625q-1.3125 -1.09375 -2.34375 -2.65625q-1.015625 -1.5625 -1.515625 -3.3125l-2.625 0l0 5.75q2.109375 -1.3125 2.84375 -1.96875q0.5 0.796875 1.015625 1.453125q-1.390625 0.65625 -2.78125 1.640625q-1.375 0.984375 -2.03125 1.640625q-0.578125 -0.796875 -1.09375 -1.375q0.578125 -0.59375 0.578125 -1.53125l0 -5.609375l-1.671875 0q-1.015625 0 -2.328125 0.0625l0 -1.453125q1.3125 0.078125 2.1875 0.078125l1.8125 0zm9.1875 -5.546875q-0.796875 0.65625 -2.375 2.234375q-1.5625 1.5625 -3.09375 3.015625q-0.65625 -0.875 -1.09375 -1.171875q1.25 -0.875 2.78125 -2.46875q1.53125 -1.609375 2.328125 -2.765625q0.578125 0.5 1.453125 1.15625z" fill-rule="nonzero"/><path fill="#000000" d="m440.1546 481.30292q-3.5625 -0.4375 -6.3125 -1.859375q-2.59375 1.5625 -6.234375 1.9375l-0.59375 -1.5625q3.34375 -0.296875 5.5625 -1.40625q-1.1875 -1.1875 -2.15625 -2.53125l-2.078125 0l0 -1.1875l8.6875 0l0.21875 -0.21875l1.125 0.890625q0.296875 0.453125 -0.296875 0.375q-1.265625 1.484375 -3.046875 2.75q2.59375 0.890625 5.484375 1.109375l-0.359375 1.703125zm-6.765625 -15.140625l6.6875 0l0 1.40625l-13.140625 0l0 6.53125q0 4.15625 -1.859375 6.984375l-1.328125 -1.109375q1.703125 -2.3125 1.703125 -6.171875l0 -7.640625l6.234375 0l0 -1.921875l1.640625 0q0.59375 0.0625 0.0625 0.4375l0 1.484375zm0.453125 11.5q0.890625 -0.59375 2.078125 -1.78125l-3.859375 0q0.734375 0.890625 1.78125 1.78125zm2.671875 -4.0l-1.484375 0l0 -0.453125l-3.1875 0l0 0.53125l-1.484375 0l0 -2.96875l-2.96875 0l0 -1.1875l2.96875 0l0 -1.421875l1.40625 0q0.59375 0.078125 0.078125 0.453125l0 0.96875l3.1875 0l0 -1.5625l1.40625 0q0.59375 0.078125 0.078125 0.4375l0 1.125l3.5625 0l0 1.1875l-3.5625 0l0 2.890625zm-1.484375 -2.890625l-3.1875 0l0 1.25l3.1875 0l0 -1.25zm10.609375 0.140625l1.703125 0l0 1.640625l-1.703125 0l0 -1.640625zm0 6.828125l1.703125 0l0 1.640625l-1.703125 0l0 -1.640625z" fill-rule="nonzero"/><path fill="#000000" d="m458.23273 479.5998l-1.640625 0l0 -10.453125q-0.59375 0.5625 -1.5625 1.140625q-0.953125 0.5625 -1.71875 0.84375l0 -1.59375q1.375 -0.640625 2.40625 -1.5625q1.03125 -0.921875 1.453125 -1.78125l1.0625 0l0 13.40625zm4.2038574 -6.59375q0 -2.359375 0.484375 -3.796875q0.484375 -1.453125 1.4375 -2.234375q0.96875 -0.78125 2.421875 -0.78125q1.078125 0 1.890625 0.4375q0.8125 0.421875 1.328125 1.25q0.53125 0.8125 0.828125 1.984375q0.3125 1.15625 0.3125 3.140625q0 2.359375 -0.484375 3.8125q-0.484375 1.4375 -1.453125 2.234375q-0.953125 0.78125 -2.421875 0.78125q-1.921875 0 -3.03125 -1.390625q-1.3125 -1.671875 -1.3125 -5.4375zm1.671875 0q0 3.296875 0.765625 4.390625q0.78125 1.078125 1.90625 1.078125q1.140625 0 1.90625 -1.09375q0.765625 -1.09375 0.765625 -4.375q0 -3.296875 -0.765625 -4.375q-0.765625 -1.078125 -1.921875 -1.078125q-1.125 0 -1.796875 0.953125q-0.859375 1.21875 -0.859375 4.5zm8.703827 0q0 -2.359375 0.484375 -3.796875q0.484375 -1.453125 1.4375 -2.234375q0.96875 -0.78125 2.421875 -0.78125q1.078125 0 1.890625 0.4375q0.8125 0.421875 1.328125 1.25q0.53125 0.8125 0.828125 1.984375q0.3125 1.15625 0.3125 3.140625q0 2.359375 -0.484375 3.8125q-0.484375 1.4375 -1.453125 2.234375q-0.953125 0.78125 -2.421875 0.78125q-1.921875 0 -3.03125 -1.390625q-1.3125 -1.671875 -1.3125 -5.4375zm1.671875 0q0 3.296875 0.765625 4.390625q0.78125 1.078125 1.90625 1.078125q1.140625 0 1.90625 -1.09375q0.765625 -1.09375 0.765625 -4.375q0 -3.296875 -0.765625 -4.375q-0.765625 -1.078125 -1.921875 -1.078125q-1.125 0 -1.796875 0.953125q-0.859375 1.21875 -0.859375 4.5zm8.703857 0q0 -2.359375 0.484375 -3.796875q0.484375 -1.453125 1.4375 -2.234375q0.96875 -0.78125 2.421875 -0.78125q1.078125 0 1.890625 0.4375q0.8125 0.421875 1.328125 1.25q0.53125 0.8125 0.828125 1.984375q0.3125 1.15625 0.3125 3.140625q0 2.359375 -0.484375 3.8125q-0.484375 1.4375 -1.453125 2.234375q-0.953125 0.78125 -2.421875 0.78125q-1.921875 0 -3.03125 -1.390625q-1.3125 -1.671875 -1.3125 -5.4375zm1.671875 0q0 3.296875 0.765625 4.390625q0.78125 1.078125 1.90625 1.078125q1.140625 0 1.90625 -1.09375q0.765625 -1.09375 0.765625 -4.375q0 -3.296875 -0.765625 -4.375q-0.765625 -1.078125 -1.921875 -1.078125q-1.125 0 -1.796875 0.953125q-0.859375 1.21875 -0.859375 4.5z" fill-rule="nonzero"/><path fill="#000000" fill-opacity="0.0" d="m421.32022 578.5276l187.46457 0l0 69.9212l-187.46457 0z" fill-rule="evenodd"/><path fill="#000000" d="m434.47647 598.1038l0 5.265625l1.5625 0l0 -5.265625l-1.5625 0zm2.828125 -1.1875l0 7.640625l-2.828125 0l0 2.0l-1.265625 0l0 -6.828125q-0.4375 0.96875 -1.40625 1.9375l-0.96875 -1.34375q2.53125 -2.515625 3.203125 -7.640625l-2.3125 0l0 -1.40625l6.390625 0l0 1.40625l-2.671875 0q-0.21875 2.15625 -0.890625 4.234375l2.75 0zm0 -0.53125q2.59375 -2.375 3.5625 -6.375l1.484375 0q0.734375 0.140625 -0.078125 0.4375l-0.375 0.96875l3.1875 0l0.15625 -0.21875l1.265625 0.4375q0.65625 0.296875 -0.078125 0.453125l-2.0 2.671875l3.328125 0l0 10.765625q0 1.265625 -1.109375 1.265625l-1.78125 0l-0.296875 -1.421875l1.484375 0q0.21875 0 0.21875 -0.21875l0 -2.890625l-5.265625 0q-0.4375 3.484375 -2.75 4.75l-0.8125 -1.265625q2.078125 -1.1875 2.078125 -4.75l0 -4.90625q-0.515625 0.75 -1.40625 1.5625l-0.8125 -1.265625zm6.96875 1.484375l2.0 0l0 -1.703125l-2.0 0l0 1.703125zm-3.265625 0l2.0 0l0 -1.703125l-2.0 0l0 1.703125zm2.0 1.1875l-2.0 0l0 1.78125l2.0 0l0 -1.78125zm1.265625 1.78125l2.0 0l0 -1.78125l-2.0 0l0 1.78125zm-2.8125 -8.234375q-0.375 1.109375 -1.046875 2.15625l2.671875 0l1.34375 -2.15625l-2.96875 0z" fill-rule="nonzero"/><path fill="#000000" d="m465.78897 607.1976q-1.96875 -1.671875 -3.03125 -3.5q-1.046875 -1.828125 -1.78125 -4.734375q-0.796875 3.203125 -2.296875 5.21875q-1.484375 2.0 -2.796875 3.09375q-0.296875 -0.515625 -1.390625 -1.03125q1.609375 -1.09375 2.875 -2.796875q1.28125 -1.71875 1.890625 -3.421875q0.625 -1.71875 0.734375 -3.421875q0.109375 -1.71875 0.109375 -3.03125q0 -1.3125 -0.0625 -3.0625q0.875 0.078125 1.890625 0.078125q-0.21875 0.28125 -0.296875 1.59375q-0.0625 1.3125 0.078125 3.328125q0.140625 2.0 0.71875 3.828125q0.59375 1.8125 1.6875 3.640625q1.09375 1.8125 3.125 3.046875q-1.15625 0.4375 -1.453125 1.171875zm-13.546875 -2.484375q0.5 -0.578125 0.5 -1.234375l0 -6.125q-1.671875 0 -2.46875 0.078125l0 -1.390625q0.796875 0.078125 1.75 0.078125l2.25 0q-0.078125 1.3125 -0.078125 2.484375l0 4.296875q0.59375 -0.59375 2.265625 -2.484375q0.296875 0.65625 0.796875 1.3125q-1.09375 1.09375 -2.109375 2.1875q-1.015625 1.09375 -1.671875 1.96875q-0.734375 -0.734375 -1.234375 -1.171875zm2.609375 -10.34375q-1.15625 -1.609375 -2.609375 -2.765625q0.65625 -0.4375 1.015625 -1.015625q1.15625 0.9375 2.765625 2.765625q-0.734375 0.4375 -1.171875 1.015625zm23.40625 -4.296875q0.5 1.3125 0.9375 2.546875l2.625 0q1.53125 0 3.203125 -0.078125l0 1.3125q-1.671875 -0.0625 -3.203125 -0.0625l-9.546875 0q0 4.296875 -0.140625 6.125q-0.140625 1.8125 -0.546875 3.71875q-0.40625 1.890625 -1.421875 3.640625q-0.515625 -0.65625 -1.3125 -1.09375q0.953125 -1.25 1.453125 -3.46875q0.515625 -2.21875 0.578125 -4.765625q0.078125 -2.5625 0.015625 -5.328125l6.546875 0q-0.21875 -1.015625 -0.71875 -2.03125q0.71875 -0.15625 1.53125 -0.515625zm6.109375 6.265625q-0.71875 1.609375 -1.265625 3.140625q-0.546875 1.515625 -2.15625 5.3125l2.046875 0q1.015625 0 2.25 -0.078125l0 1.53125q-1.234375 -0.0625 -2.25 -0.0625l-7.796875 0q-1.25 0 -2.984375 0.0625l0 -1.53125q1.671875 0.078125 2.984375 0.078125l4.296875 0q1.09375 -2.265625 1.921875 -4.734375q0.84375 -2.484375 1.203125 -4.375q0.953125 0.515625 1.75 0.65625zm-10.265625 0.796875q1.890625 3.0 2.84375 5.25q-0.515625 0.296875 -1.25 0.734375q-1.453125 -3.28125 -2.765625 -5.171875q0.65625 -0.515625 1.171875 -0.8125zm3.5 -1.671875q1.453125 2.546875 2.546875 5.03125q-0.65625 0.359375 -1.390625 0.71875q-0.875 -2.46875 -2.328125 -5.09375q0.578125 -0.21875 1.171875 -0.65625z" fill-rule="nonzero"/><path fill="#000000" d="m487.6796 599.2132q4.453125 -1.265625 7.9375 -4.96875l1.703125 0.296875q0.296875 0.296875 -0.21875 0.359375q2.078125 2.375 7.640625 3.796875l-0.515625 1.625q-2.671875 -0.671875 -4.375 -1.625l0 1.03125l-7.421875 0l0 -0.96875q-1.78125 1.265625 -4.15625 2.015625l-0.59375 -1.5625zm11.578125 -0.890625q-1.5625 -0.8125 -3.203125 -2.59375q-1.03125 1.328125 -2.96875 2.59375l6.171875 0zm-11.578125 -3.5625q1.78125 -1.5625 2.8125 -4.671875l1.5625 0.4375q0.296875 0.296875 -0.21875 0.375l-0.53125 1.03125l4.609375 0l0 1.1875l-2.75 0q0.453125 0.828125 0.890625 1.9375l-1.5625 0.4375q-0.359375 -1.328125 -0.8125 -2.375l-0.8125 0q-0.890625 1.78125 -2.15625 2.90625l-1.03125 -1.265625zm10.6875 -2.828125l5.78125 0l0 1.1875l-3.484375 0q0.59375 0.828125 0.96875 1.78125l-1.5625 0.59375q-0.375 -1.25 -0.96875 -2.375l-1.265625 0l-0.65625 1.1875l-1.265625 -0.734375q1.03125 -1.640625 1.625 -3.71875l1.484375 0.453125q0.296875 0.296875 -0.21875 0.375l-0.4375 1.25zm-6.171875 10.328125l0 2.59375l8.015625 0l0 -2.59375l-8.015625 0zm-1.484375 -1.1875l10.984375 0l0 5.78125l-1.484375 0l0 -0.8125l-8.015625 0l0 1.046875l-1.484375 0l0 -6.015625zm18.640625 1.921875q1.25 -2.21875 1.84375 -4.078125l-4.75 0l0 -1.40625l17.15622 0l0 1.40625l-10.6875 0q-0.296875 0.890625 -0.59375 1.5625l8.828125 0q-0.59375 4.453125 -1.640625 5.859375q-0.59375 0.75 -2.21875 0.59375l-2.0 -0.21875l-0.078125 -1.640625l2.296875 0.21875q0.75 0.078125 1.109375 -0.734375q0.15625 -0.375 0.671875 -2.671875l-7.4218445 0q-0.296875 0.734375 -0.8125 1.625l-1.703125 -0.515625zm1.703125 -10.984375l0 2.453125l7.9374695 0l0 -2.453125l-7.9374695 0zm7.9374695 4.375l0 -0.515625l-7.9374695 0l0 0.671875l-1.484375 0l0 -5.9375l10.9062195 0l0 5.78125l-1.484375 0z" fill-rule="nonzero"/><path fill="#000000" d="m534.0233 603.86945l0 1.578125l-8.828125 0q-0.015625 -0.59375 0.1875 -1.140625q0.34375 -0.90625 1.078125 -1.78125q0.75 -0.875 2.15625 -2.015625q2.171875 -1.78125 2.9375 -2.828125q0.765625 -1.046875 0.765625 -1.96875q0 -0.984375 -0.703125 -1.640625q-0.6875 -0.671875 -1.8125 -0.671875q-1.1875 0 -1.90625 0.71875q-0.703125 0.703125 -0.703125 1.953125l-1.6875 -0.171875q0.171875 -1.890625 1.296875 -2.875q1.140625 -0.984375 3.03125 -0.984375q1.921875 0 3.046875 1.0625q1.125 1.0625 1.125 2.640625q0 0.796875 -0.328125 1.578125q-0.328125 0.78125 -1.09375 1.640625q-0.75 0.84375 -2.53125 2.34375q-1.46875 1.234375 -1.890625 1.6875q-0.421875 0.4375 -0.6875 0.875l6.546875 0zm1.7663574 -5.015625q0 -2.359375 0.484375 -3.796875q0.484375 -1.453125 1.4375 -2.234375q0.96875 -0.78125 2.421875 -0.78125q1.078125 0 1.890625 0.4375q0.8125 0.421875 1.328125 1.25q0.53125 0.8125 0.828125 1.984375q0.3125 1.15625 0.3125 3.140625q0 2.359375 -0.484375 3.8125q-0.484375 1.4375 -1.453125 2.234375q-0.953125 0.78125 -2.421875 0.78125q-1.921875 0 -3.03125 -1.390625q-1.3125 -1.671875 -1.3125 -5.4375zm1.671875 0q0 3.296875 0.765625 4.390625q0.78125 1.078125 1.90625 1.078125q1.140625 0 1.90625 -1.09375q0.765625 -1.09375 0.765625 -4.375q0 -3.296875 -0.765625 -4.375q-0.765625 -1.078125 -1.921875 -1.078125q-1.125 0 -1.796875 0.953125q-0.859375 1.21875 -0.859375 4.5zm8.703857 0q0 -2.359375 0.484375 -3.796875q0.484375 -1.453125 1.4375 -2.234375q0.96875 -0.78125 2.421875 -0.78125q1.078125 0 1.890625 0.4375q0.8125 0.421875 1.328125 1.25q0.53125 0.8125 0.828125 1.984375q0.3125 1.15625 0.3125 3.140625q0 2.359375 -0.484375 3.8125q-0.484375 1.4375 -1.453125 2.234375q-0.953125 0.78125 -2.421875 0.78125q-1.921875 0 -3.03125 -1.390625q-1.3125 -1.671875 -1.3125 -5.4375zm1.671875 0q0 3.296875 0.765625 4.390625q0.78125 1.078125 1.90625 1.078125q1.140625 0 1.90625 -1.09375q0.765625 -1.09375 0.765625 -4.375q0 -3.296875 -0.765625 -4.375q-0.765625 -1.078125 -1.921875 -1.078125q-1.125 0 -1.796875 0.953125q-0.859375 1.21875 -0.859375 4.5zm14.875732 6.59375l-1.640625 0l0 -10.453125q-0.59375 0.5625 -1.5625 1.140625q-0.953125 0.5625 -1.71875 0.84375l0 -1.59375q1.375 -0.640625 2.40625 -1.5625q1.03125 -0.921875 1.453125 -1.78125l1.0625 0l0 13.40625z" fill-rule="nonzero"/></g></svg>