<svg version="1.1" viewBox="0.0 0.0 960.0 720.0" fill="none" stroke="none" stroke-linecap="square" stroke-miterlimit="10" xmlns:xlink="http://www.w3.org/1999/xlink" xmlns="http://www.w3.org/2000/svg"><clipPath id="p.0"><path d="m0 0l960.0 0l0 720.0l-960.0 0l0 -720.0z" clip-rule="nonzero"/></clipPath><g clip-path="url(#p.0)"><path fill="#000000" fill-opacity="0.0" d="m0 0l960.0 0l0 720.0l-960.0 0z" fill-rule="evenodd"/><path fill="#cfe2f3" d="m220.48032 194.06824l119.433075 0l0 33.291336l-119.433075 0z" fill-rule="evenodd"/><path stroke="#000000" stroke-width="1.0" stroke-linejoin="round" stroke-linecap="butt" d="m220.48032 194.06824l119.433075 0l0 33.291336l-119.433075 0z" fill-rule="evenodd"/><path fill="#000000" d="m231.26157 217.63391q3.9375 -0.890625 6.453125 -3.34375l-3.78125 0l-0.140625 0.515625l-1.484375 -0.296875q0.59375 -2.078125 0.515625 -4.078125l5.71875 0l0 -1.328125l-6.09375 0l0 -1.1875l12.625 0l0 3.703125l-5.046875 0l0 1.484375l6.59375 0l-0.515625 3.484375q-0.21875 1.5625 -1.5625 1.5625l-1.84375 0l-0.15625 -1.40625l1.484375 0q0.515625 0 0.59375 -0.515625l0.296875 -1.9375l-4.890625 0l0 5.046875l-1.484375 0l0 -4.0q-2.609375 2.8125 -6.609375 3.78125l-0.671875 -1.484375zm6.90625 -10.984375q1.5625 -1.859375 2.15625 -4.453125l1.484375 0.4375q0.296875 0.296875 -0.234375 0.375l-0.296875 0.96875l5.796875 0l0 1.40625l-3.34375 0l0.8125 1.40625l-1.703125 0.453125l-0.671875 -1.859375l-1.40625 0q-0.515625 1.109375 -1.40625 2.078125l-1.1875 -0.8125zm-4.078125 -2.671875l4.515625 0l0 1.40625l-2.296875 0l0.75 1.484375l-1.5625 0.375l-0.59375 -1.859375l-1.484375 0q-0.890625 1.484375 -1.9375 2.375l-1.03125 -1.109375q1.859375 -1.703125 2.8125 -4.375l1.421875 0.515625q0.296875 0.296875 -0.234375 0.375l-0.359375 0.8125zm5.9375 6.453125l3.5625 0l0 -1.328125l-3.5625 0l0 1.328125zm-5.71875 1.1875q-0.078125 0.75 -0.15625 1.484375l4.390625 0l0 -1.484375l-4.234375 0z" fill-rule="nonzero"/><path fill="#000000" d="m255.43344 217.63391l-1.640625 0l0 -10.453125q-0.59375 0.5625 -1.5625 1.140625q-0.953125 0.5625 -1.71875 0.84375l0 -1.59375q1.375 -0.640625 2.40625 -1.5625q1.03125 -0.921875 1.453125 -1.78125l1.0625 0l0 13.40625z" fill-rule="nonzero"/><path fill="#000000" d="m268.13727 204.86829q-2.890625 4.078125 -7.28125 5.859375l-0.8125 -1.40625q4.96875 -2.234375 7.640625 -6.6875l1.265625 0.375q0.890625 0.296875 0.078125 0.671875q2.0 3.046875 7.5625 5.265625l-0.890625 1.484375q-5.109375 -2.078125 -7.5625 -5.5625zm0.890625 2.890625q0.734375 0.15625 0.078125 0.59375l0 10.328125l-1.71875 0l0 -10.921875l1.640625 0zm19.21875 3.1875l0 0.96875l7.28125 0l0 1.40625l-7.28125 0l0 4.3125q0 1.1875 -1.1875 1.1875l-2.0 0l-0.375 -1.40625l1.78125 0q0.296875 0 0.296875 -0.296875l0 -3.796875l-7.71875 0l0 -1.40625l7.71875 0l0 -1.921875l0.75 0.140625l2.078125 -1.40625l-7.125 0l0 -1.40625l8.609375 0l0.296875 -0.296875l1.25 1.25l-0.4375 0.15625l-3.9375 2.515625zm-0.078125 -6.59375l6.90625 0l0 3.703125l-1.484375 0l0 -2.296875l-12.546875 0l0 2.453125l-1.484375 0l0 -3.859375l6.90625 0l0 -2.015625l1.640625 0q0.734375 0.15625 0.0625 0.59375l0 1.421875z" fill-rule="nonzero"/><path fill="#000000" d="m309.10602 217.05579q-0.15625 -0.875 -0.734375 -1.75q1.453125 0 2.21875 -0.140625q0.765625 -0.15625 0.84375 -0.890625l0.140625 -3.921875l-6.1875 0l0 6.328125q0 1.3125 0.0625 2.703125l-1.671875 0q0.140625 -1.3125 0.140625 -2.703125l0 -6.328125l-1.59375 0q-2.40625 0 -3.859375 0.0625l0 -1.375q1.53125 0.0625 3.125 0.0625l11.65625 0q-0.21875 3.0625 -0.296875 4.96875q-0.0625 1.890625 -1.078125 2.359375q-1.015625 0.46875 -2.765625 0.625zm-5.03125 -10.9375q0 1.3125 0.0625 2.265625l-1.59375 0q0.0625 -1.09375 0.0625 -2.265625l-2.46875 0q-1.015625 0 -2.265625 0.140625l0 -1.453125q1.25 0.078125 2.265625 0.078125l2.46875 0q0 -1.390625 -0.0625 -2.328125l1.59375 0q-0.0625 0.9375 -0.0625 2.328125l3.859375 0q0 -1.453125 -0.078125 -2.328125l1.6875 0q-0.078125 0.875 -0.078125 2.328125l2.328125 0q1.390625 0 2.546875 -0.078125l0 1.390625q-1.15625 -0.078125 -2.546875 -0.078125l-2.328125 0q0 1.171875 0.078125 2.265625l-1.6875 0q0.078125 -1.171875 0.078125 -2.265625l-3.859375 0z" fill-rule="nonzero"/><path fill="#cfe2f3" d="m339.9134 194.06824l119.433075 0l0 33.291336l-119.433075 0z" fill-rule="evenodd"/><path stroke="#000000" stroke-width="1.0" stroke-linejoin="round" stroke-linecap="butt" d="m339.9134 194.06824l119.433075 0l0 33.291336l-119.433075 0z" fill-rule="evenodd"/><path fill="#000000" d="m350.69464 217.63391q3.9375 -0.890625 6.453125 -3.34375l-3.78125 0l-0.140625 0.515625l-1.484375 -0.296875q0.59375 -2.078125 0.515625 -4.078125l5.71875 0l0 -1.328125l-6.09375 0l0 -1.1875l12.625 0l0 3.703125l-5.046875 0l0 1.484375l6.59375 0l-0.515625 3.484375q-0.21875 1.5625 -1.5625 1.5625l-1.84375 0l-0.15625 -1.40625l1.484375 0q0.515625 0 0.59375 -0.515625l0.296875 -1.9375l-4.890625 0l0 5.046875l-1.484375 0l0 -4.0q-2.609375 2.8125 -6.609375 3.78125l-0.671875 -1.484375zm6.90625 -10.984375q1.5625 -1.859375 2.15625 -4.453125l1.484375 0.4375q0.296875 0.296875 -0.234375 0.375l-0.296875 0.96875l5.796875 0l0 1.40625l-3.34375 0l0.8125 1.40625l-1.703125 0.453125l-0.671875 -1.859375l-1.40625 0q-0.515625 1.109375 -1.40625 2.078125l-1.1875 -0.8125zm-4.078125 -2.671875l4.515625 0l0 1.40625l-2.296875 0l0.75 1.484375l-1.5625 0.375l-0.59375 -1.859375l-1.484375 0q-0.890625 1.484375 -1.9375 2.375l-1.03125 -1.109375q1.859375 -1.703125 2.8125 -4.375l1.421875 0.515625q0.296875 0.296875 -0.234375 0.375l-0.359375 0.8125zm5.9375 6.453125l3.5625 0l0 -1.328125l-3.5625 0l0 1.328125zm-5.71875 1.1875q-0.078125 0.75 -0.15625 1.484375l4.390625 0l0 -1.484375l-4.234375 0z" fill-rule="nonzero"/><path fill="#000000" d="m377.30402 216.05579l0 1.578125l-8.828125 0q-0.015625 -0.59375 0.1875 -1.140625q0.34375 -0.90625 1.078125 -1.78125q0.75 -0.875 2.15625 -2.015625q2.171875 -1.78125 2.9375 -2.828125q0.765625 -1.046875 0.765625 -1.96875q0 -0.984375 -0.703125 -1.640625q-0.6875 -0.671875 -1.8125 -0.671875q-1.1875 0 -1.90625 0.71875q-0.703125 0.703125 -0.703125 1.953125l-1.6875 -0.171875q0.171875 -1.890625 1.296875 -2.875q1.140625 -0.984375 3.03125 -0.984375q1.921875 0 3.046875 1.0625q1.125 1.0625 1.125 2.640625q0 0.796875 -0.328125 1.578125q-0.328125 0.78125 -1.09375 1.640625q-0.75 0.84375 -2.53125 2.34375q-1.46875 1.234375 -1.890625 1.6875q-0.421875 0.4375 -0.6875 0.875l6.546875 0z" fill-rule="nonzero"/><path fill="#000000" d="m387.57034 204.86829q-2.890625 4.078125 -7.28125 5.859375l-0.8125 -1.40625q4.96875 -2.234375 7.640625 -6.6875l1.265625 0.375q0.890625 0.296875 0.078125 0.671875q2.0 3.046875 7.5625 5.265625l-0.890625 1.484375q-5.109375 -2.078125 -7.5625 -5.5625zm0.890625 2.890625q0.734375 0.15625 0.078125 0.59375l0 10.328125l-1.71875 0l0 -10.921875l1.640625 0zm19.21875 3.1875l0 0.96875l7.28125 0l0 1.40625l-7.28125 0l0 4.3125q0 1.1875 -1.1875 1.1875l-2.0 0l-0.375 -1.40625l1.78125 0q0.296875 0 0.296875 -0.296875l0 -3.796875l-7.71875 0l0 -1.40625l7.71875 0l0 -1.921875l0.75 0.140625l2.078125 -1.40625l-7.125 0l0 -1.40625l8.609375 0l0.296875 -0.296875l1.25 1.25l-0.4375 0.15625l-3.9375 2.515625zm-0.078125 -6.59375l6.90625 0l0 3.703125l-1.484375 0l0 -2.296875l-12.546875 0l0 2.453125l-1.484375 0l0 -3.859375l6.90625 0l0 -2.015625l1.640625 0q0.734375 0.15625 0.0625 0.59375l0 1.421875z" fill-rule="nonzero"/><path fill="#000000" d="m428.5391 217.05579q-0.15625 -0.875 -0.734375 -1.75q1.453125 0 2.21875 -0.140625q0.765625 -0.15625 0.84375 -0.890625l0.140625 -3.921875l-6.1875 0l0 6.328125q0 1.3125 0.0625 2.703125l-1.671875 0q0.140625 -1.3125 0.140625 -2.703125l0 -6.328125l-1.59375 0q-2.40625 0 -3.859375 0.0625l0 -1.375q1.53125 0.0625 3.125 0.0625l11.65625 0q-0.21875 3.0625 -0.296875 4.96875q-0.0625 1.890625 -1.078125 2.359375q-1.015625 0.46875 -2.765625 0.625zm-5.03125 -10.9375q0 1.3125 0.0625 2.265625l-1.59375 0q0.0625 -1.09375 0.0625 -2.265625l-2.46875 0q-1.015625 0 -2.265625 0.140625l0 -1.453125q1.25 0.078125 2.265625 0.078125l2.46875 0q0 -1.390625 -0.0625 -2.328125l1.59375 0q-0.0625 0.9375 -0.0625 2.328125l3.859375 0q0 -1.453125 -0.078125 -2.328125l1.6875 0q-0.078125 0.875 -0.078125 2.328125l2.328125 0q1.390625 0 2.546875 -0.078125l0 1.390625q-1.15625 -0.078125 -2.546875 -0.078125l-2.328125 0q0 1.171875 0.078125 2.265625l-1.6875 0q0.078125 -1.171875 0.078125 -2.265625l-3.859375 0z" fill-rule="nonzero"/><path fill="#cfe2f3" d="m459.34647 194.06824l119.433075 0l0 33.291336l-119.433075 0z" fill-rule="evenodd"/><path stroke="#000000" stroke-width="1.0" stroke-linejoin="round" stroke-linecap="butt" d="m459.34647 194.06824l119.433075 0l0 33.291336l-119.433075 0z" fill-rule="evenodd"/><path fill="#000000" d="m470.03397 217.63391l0 -1.875l1.875 0l0 1.875l-1.875 0zm5.1832886 0l0 -1.875l1.875 0l0 1.875l-1.875 0zm5.183319 0l0 -1.875l1.875 0l0 1.875l-1.875 0z" fill-rule="nonzero"/><path fill="#cfe2f3" d="m576.4593 194.06824l164.22052 0l0 33.291336l-164.22052 0z" fill-rule="evenodd"/><path stroke="#000000" stroke-width="1.0" stroke-linejoin="round" stroke-linecap="butt" d="m576.4593 194.06824l164.22052 0l0 33.291336l-164.22052 0z" fill-rule="evenodd"/><path fill="#000000" d="m587.24054 217.63391q3.9375 -0.890625 6.453125 -3.34375l-3.78125 0l-0.140625 0.515625l-1.484375 -0.296875q0.59375 -2.078125 0.515625 -4.078125l5.71875 0l0 -1.328125l-6.09375 0l0 -1.1875l12.625 0l0 3.703125l-5.046875 0l0 1.484375l6.59375 0l-0.515625 3.484375q-0.21875 1.5625 -1.5625 1.5625l-1.84375 0l-0.15625 -1.40625l1.484375 0q0.515625 0 0.59375 -0.515625l0.296875 -1.9375l-4.890625 0l0 5.046875l-1.484375 0l0 -4.0q-2.609375 2.8125 -6.609375 3.78125l-0.671875 -1.484375zm6.90625 -10.984375q1.5625 -1.859375 2.15625 -4.453125l1.484375 0.4375q0.296875 0.296875 -0.234375 0.375l-0.296875 0.96875l5.796875 0l0 1.40625l-3.34375 0l0.8125 1.40625l-1.703125 0.453125l-0.671875 -1.859375l-1.40625 0q-0.515625 1.109375 -1.40625 2.078125l-1.1875 -0.8125zm-4.078125 -2.671875l4.515625 0l0 1.40625l-2.296875 0l0.75 1.484375l-1.5625 0.375l-0.59375 -1.859375l-1.484375 0q-0.890625 1.484375 -1.9375 2.375l-1.03125 -1.109375q1.859375 -1.703125 2.8125 -4.375l1.421875 0.515625q0.296875 0.296875 -0.234375 0.375l-0.359375 0.8125zm5.9375 6.453125l3.5625 0l0 -1.328125l-3.5625 0l0 1.328125zm-5.71875 1.1875q-0.078125 0.75 -0.15625 1.484375l4.390625 0l0 -1.484375l-4.234375 0z" fill-rule="nonzero"/><path fill="#000000" d="m611.4124 217.63391l-1.640625 0l0 -10.453125q-0.59375 0.5625 -1.5625 1.140625q-0.953125 0.5625 -1.71875 0.84375l0 -1.59375q1.375 -0.640625 2.40625 -1.5625q1.03125 -0.921875 1.453125 -1.78125l1.0625 0l0 13.40625zm4.2038574 -6.59375q0 -2.359375 0.484375 -3.796875q0.484375 -1.453125 1.4375 -2.234375q0.96875 -0.78125 2.421875 -0.78125q1.078125 0 1.890625 0.4375q0.8125 0.421875 1.328125 1.25q0.53125 0.8125 0.828125 1.984375q0.3125 1.15625 0.3125 3.140625q0 2.359375 -0.484375 3.8125q-0.484375 1.4375 -1.453125 2.234375q-0.953125 0.78125 -2.421875 0.78125q-1.921875 0 -3.03125 -1.390625q-1.3125 -1.671875 -1.3125 -5.4375zm1.671875 0q0 3.296875 0.765625 4.390625q0.78125 1.078125 1.90625 1.078125q1.140625 0 1.90625 -1.09375q0.765625 -1.09375 0.765625 -4.375q0 -3.296875 -0.765625 -4.375q-0.765625 -1.078125 -1.921875 -1.078125q-1.125 0 -1.796875 0.953125q-0.859375 1.21875 -0.859375 4.5zm8.703857 0q0 -2.359375 0.484375 -3.796875q0.484375 -1.453125 1.4375 -2.234375q0.96875 -0.78125 2.421875 -0.78125q1.078125 0 1.890625 0.4375q0.8125 0.421875 1.328125 1.25q0.53125 0.8125 0.828125 1.984375q0.3125 1.15625 0.3125 3.140625q0 2.359375 -0.484375 3.8125q-0.484375 1.4375 -1.453125 2.234375q-0.953125 0.78125 -2.421875 0.78125q-1.921875 0 -3.03125 -1.390625q-1.3125 -1.671875 -1.3125 -5.4375zm1.671875 0q0 3.296875 0.765625 4.390625q0.78125 1.078125 1.90625 1.078125q1.140625 0 1.90625 -1.09375q0.765625 -1.09375 0.765625 -4.375q0 -3.296875 -0.765625 -4.375q-0.765625 -1.078125 -1.921875 -1.078125q-1.125 0 -1.796875 0.953125q-0.859375 1.21875 -0.859375 4.5zm8.703857 0q0 -2.359375 0.484375 -3.796875q0.484375 -1.453125 1.4375 -2.234375q0.96875 -0.78125 2.421875 -0.78125q1.078125 0 1.890625 0.4375q0.8125 0.421875 1.328125 1.25q0.53125 0.8125 0.828125 1.984375q0.3125 1.15625 0.3125 3.140625q0 2.359375 -0.484375 3.8125q-0.484375 1.4375 -1.453125 2.234375q-0.953125 0.78125 -2.421875 0.78125q-1.921875 0 -3.03125 -1.390625q-1.3125 -1.671875 -1.3125 -5.4375zm1.671875 0q0 3.296875 0.765625 4.390625q0.78125 1.078125 1.90625 1.078125q1.140625 0 1.90625 -1.09375q0.765625 -1.09375 0.765625 -4.375q0 -3.296875 -0.765625 -4.375q-0.765625 -1.078125 -1.921875 -1.078125q-1.125 0 -1.796875 0.953125q-0.859375 1.21875 -0.859375 4.5z" fill-rule="nonzero"/><path fill="#000000" d="m655.2434 204.86829q-2.890625 4.078125 -7.28125 5.859375l-0.8125 -1.40625q4.96875 -2.234375 7.640625 -6.6875l1.265625 0.375q0.890625 0.296875 0.078125 0.671875q2.0 3.046875 7.5625 5.265625l-0.890625 1.484375q-5.109375 -2.078125 -7.5625 -5.5625zm0.890625 2.890625q0.734375 0.15625 0.078125 0.59375l0 10.328125l-1.71875 0l0 -10.921875l1.640625 0zm19.21875 3.1875l0 0.96875l7.28125 0l0 1.40625l-7.28125 0l0 4.3125q0 1.1875 -1.1875 1.1875l-2.0 0l-0.375 -1.40625l1.78125 0q0.296875 0 0.296875 -0.296875l0 -3.796875l-7.71875 0l0 -1.40625l7.71875 0l0 -1.921875l0.75 0.140625l2.078125 -1.40625l-7.125 0l0 -1.40625l8.609375 0l0.296875 -0.296875l1.25 1.25l-0.4375 0.15625l-3.9375 2.515625zm-0.078125 -6.59375l6.90625 0l0 3.703125l-1.484375 0l0 -2.296875l-12.546875 0l0 2.453125l-1.484375 0l0 -3.859375l6.90625 0l0 -2.015625l1.640625 0q0.734375 0.15625 0.0625 0.59375l0 1.421875z" fill-rule="nonzero"/><path fill="#000000" d="m696.21216 217.05579q-0.15625 -0.875 -0.734375 -1.75q1.453125 0 2.21875 -0.140625q0.765625 -0.15625 0.84375 -0.890625l0.140625 -3.921875l-6.1875 0l0 6.328125q0 1.3125 0.0625 2.703125l-1.671875 0q0.140625 -1.3125 0.140625 -2.703125l0 -6.328125l-1.59375 0q-2.40625 0 -3.859375 0.0625l0 -1.375q1.53125 0.0625 3.125 0.0625l11.65625 0q-0.21875 3.0625 -0.296875 4.96875q-0.0625 1.890625 -1.078125 2.359375q-1.015625 0.46875 -2.765625 0.625zm-5.03125 -10.9375q0 1.3125 0.0625 2.265625l-1.59375 0q0.0625 -1.09375 0.0625 -2.265625l-2.46875 0q-1.015625 0 -2.265625 0.140625l0 -1.453125q1.25 0.078125 2.265625 0.078125l2.46875 0q0 -1.390625 -0.0625 -2.328125l1.59375 0q-0.0625 0.9375 -0.0625 2.328125l3.859375 0q0 -1.453125 -0.078125 -2.328125l1.6875 0q-0.078125 0.875 -0.078125 2.328125l2.328125 0q1.390625 0 2.546875 -0.078125l0 1.390625q-1.15625 -0.078125 -2.546875 -0.078125l-2.328125 0q0 1.171875 0.078125 2.265625l-1.6875 0q0.078125 -1.171875 0.078125 -2.265625l-3.859375 0z" fill-rule="nonzero"/><path fill="#000000" fill-opacity="0.0" d="m220.48032 312.34384l0 -80.37796" fill-rule="evenodd"/><path stroke="#000000" stroke-width="1.0" stroke-linejoin="round" stroke-linecap="butt" d="m220.48032 312.34384l0 -74.37796" fill-rule="evenodd"/><path fill="#000000" stroke="#000000" stroke-width="1.0" stroke-linecap="butt" d="m222.13205 237.96588l-1.6517334 -4.538101l-1.6517334 4.538101z" fill-rule="evenodd"/><path fill="#000000" fill-opacity="0.0" d="m339.9134 312.34384l0 -80.37796" fill-rule="evenodd"/><path stroke="#000000" stroke-width="1.0" stroke-linejoin="round" stroke-linecap="butt" d="m339.9134 312.34384l0 -74.37796" fill-rule="evenodd"/><path fill="#000000" stroke="#000000" stroke-width="1.0" stroke-linecap="butt" d="m341.56512 237.96588l-1.6517334 -4.538101l-1.6517334 4.538101z" fill-rule="evenodd"/><path fill="#000000" fill-opacity="0.0" d="m740.6798 312.34384l0 -80.37796" fill-rule="evenodd"/><path stroke="#000000" stroke-width="1.0" stroke-linejoin="round" stroke-linecap="butt" d="m740.6798 312.34384l0 -74.37796" fill-rule="evenodd"/><path fill="#000000" stroke="#000000" stroke-width="1.0" stroke-linecap="butt" d="m742.33154 237.96588l-1.6517334 -4.538101l-1.6517334 4.538101z" fill-rule="evenodd"/><path fill="#000000" fill-opacity="0.0" d="m180.28609 338.75592l89.574814 0l0 59.716522l-89.574814 0z" fill-rule="evenodd"/><path fill="#000000" d="m199.83296 357.20715l1.78125 -1.1875l-6.53125 0l0 -1.1875l8.015625 0l0.4375 -0.296875l1.046875 0.75q0.296875 0.4375 -0.296875 0.375q-1.1875 0.890625 -3.34375 2.140625q0.4375 0.234375 0.890625 0.53125l-0.890625 0.953125q-1.9375 -1.1875 -3.640625 -1.921875l0.75 -0.96875l1.78125 0.8125zm-8.09375 -5.046875l6.453125 0l0 -1.921875l1.640625 0q0.734375 0.140625 0.0625 0.59375l0 1.328125l6.984375 0l0 1.421875l-13.65625 0l0 6.890625q0 4.3125 -1.484375 6.390625l-1.34375 -1.109375q1.34375 -1.484375 1.34375 -5.28125l0 -8.3125zm2.21875 8.765625l0 -1.40625l11.359375 0l0.375 -0.375l1.1875 1.1875q0.21875 0.4375 -0.453125 0.375q-1.625 1.546875 -3.625 3.109375l-0.96875 -1.1875q1.328125 -0.8125 2.15625 -1.703125l-3.046875 0l0 4.90625q0 1.328125 -1.1875 1.328125l-1.78125 0l-0.15625 -1.40625l1.421875 0q0.21875 0 0.21875 -0.234375l0 -4.59375l-5.5 0zm20.125 -4.375q-0.15625 0.4375 -0.75 1.78125q1.5625 0.734375 2.671875 1.625q0.453125 -1.625 0.59375 -3.40625l-2.515625 0zm-1.421875 2.890625q-1.1875 1.78125 -2.375 2.515625l-0.890625 -1.40625q3.34375 -2.671875 3.859375 -7.640625l-2.671875 0l0 -1.40625l8.6875 0l0 1.40625l-4.53125 0q0 0.375 -0.359375 2.21875l3.859375 0q0.140625 9.0625 -6.90625 12.03125l-0.96875 -1.5625q3.71875 -1.625 4.96875 -4.078125q-0.65625 -0.890625 -2.671875 -2.078125zm10.984375 -8.390625l1.421875 0q0.59375 0.078125 0.0625 0.453125l0 14.09375q0 1.125 -0.890625 1.125l-2.21875 0l-0.15625 -1.421875l1.484375 0q0.296875 0 0.296875 -0.296875l0 -13.953125zm-2.375 2.0q0.59375 0.078125 0.078125 0.453125l0 9.796875l-1.484375 0l0 -10.25l1.40625 0zm9.734375 10.171875q1.25 -2.21875 1.84375 -4.078125l-4.75 0l0 -1.40625l17.15625 0l0 1.40625l-10.6875 0q-0.296875 0.890625 -0.59375 1.5625l8.828125 0q-0.59375 4.453125 -1.640625 5.859375q-0.59375 0.75 -2.21875 0.59375l-2.0 -0.21875l-0.078125 -1.640625l2.296875 0.21875q0.75 0.078125 1.109375 -0.734375q0.15625 -0.375 0.671875 -2.671875l-7.421875 0q-0.296875 0.734375 -0.8125 1.625l-1.703125 -0.515625zm1.703125 -10.984375l0 2.453125l7.9375 0l0 -2.453125l-7.9375 0zm7.9375 4.375l0 -0.515625l-7.9375 0l0 0.671875l-1.484375 0l0 -5.9375l10.90625 0l0 5.78125l-1.484375 0z" fill-rule="nonzero"/><path fill="#000000" d="m196.23921 387.6759l-1.640625 0l0 -10.453125q-0.59375 0.5625 -1.5625 1.140625q-0.953125 0.5625 -1.71875 0.84375l0 -1.59375q1.375 -0.640625 2.40625 -1.5625q1.03125 -0.921875 1.453125 -1.78125l1.0625 0l0 13.40625z" fill-rule="nonzero"/><path fill="#000000" fill-opacity="0.0" d="m295.12598 338.75592l89.5748 0l0 74.55118l-89.5748 0z" fill-rule="evenodd"/><path fill="#000000" d="m314.67285 357.20715l1.78125 -1.1875l-6.53125 0l0 -1.1875l8.015625 0l0.4375 -0.296875l1.046875 0.75q0.296875 0.4375 -0.296875 0.375q-1.1875 0.890625 -3.34375 2.140625q0.4375 0.234375 0.890625 0.53125l-0.890625 0.953125q-1.9375 -1.1875 -3.640625 -1.921875l0.75 -0.96875l1.78125 0.8125zm-8.09375 -5.046875l6.453125 0l0 -1.921875l1.640625 0q0.734375 0.140625 0.0625 0.59375l0 1.328125l6.984375 0l0 1.421875l-13.65625 0l0 6.890625q0 4.3125 -1.484375 6.390625l-1.34375 -1.109375q1.34375 -1.484375 1.34375 -5.28125l0 -8.3125zm2.21875 8.765625l0 -1.40625l11.359375 0l0.375 -0.375l1.1875 1.1875q0.21875 0.4375 -0.453125 0.375q-1.625 1.546875 -3.625 3.109375l-0.96875 -1.1875q1.328125 -0.8125 2.15625 -1.703125l-3.046875 0l0 4.90625q0 1.328125 -1.1875 1.328125l-1.78125 0l-0.15625 -1.40625l1.421875 0q0.21875 0 0.21875 -0.234375l0 -4.59375l-5.5 0zm20.125 -4.375q-0.15625 0.4375 -0.75 1.78125q1.5625 0.734375 2.671875 1.625q0.453125 -1.625 0.59375 -3.40625l-2.515625 0zm-1.421875 2.890625q-1.1875 1.78125 -2.375 2.515625l-0.890625 -1.40625q3.34375 -2.671875 3.859375 -7.640625l-2.671875 0l0 -1.40625l8.6875 0l0 1.40625l-4.53125 0q0 0.375 -0.359375 2.21875l3.859375 0q0.140625 9.0625 -6.90625 12.03125l-0.96875 -1.5625q3.71875 -1.625 4.96875 -4.078125q-0.65625 -0.890625 -2.671875 -2.078125zm10.984375 -8.390625l1.421875 0q0.59375 0.078125 0.0625 0.453125l0 14.09375q0 1.125 -0.890625 1.125l-2.21875 0l-0.15625 -1.421875l1.484375 0q0.296875 0 0.296875 -0.296875l0 -13.953125zm-2.375 2.0q0.59375 0.078125 0.078125 0.453125l0 9.796875l-1.484375 0l0 -10.25l1.40625 0zm9.734375 10.171875q1.25 -2.21875 1.84375 -4.078125l-4.75 0l0 -1.40625l17.15625 0l0 1.40625l-10.6875 0q-0.296875 0.890625 -0.59375 1.5625l8.828125 0q-0.59375 4.453125 -1.640625 5.859375q-0.59375 0.75 -2.21875 0.59375l-2.0 -0.21875l-0.078125 -1.640625l2.296875 0.21875q0.75 0.078125 1.109375 -0.734375q0.15625 -0.375 0.671875 -2.671875l-7.421875 0q-0.296875 0.734375 -0.8125 1.625l-1.703125 -0.515625zm1.703125 -10.984375l0 2.453125l7.9375 0l0 -2.453125l-7.9375 0zm7.9375 4.375l0 -0.515625l-7.9375 0l0 0.671875l-1.484375 0l0 -5.9375l10.90625 0l0 5.78125l-1.484375 0z" fill-rule="nonzero"/><path fill="#000000" d="m313.5166 386.09778l0 1.578125l-8.828125 0q-0.015625 -0.59375 0.1875 -1.140625q0.34375 -0.90625 1.078125 -1.78125q0.75 -0.875 2.15625 -2.015625q2.171875 -1.78125 2.9375 -2.828125q0.765625 -1.046875 0.765625 -1.96875q0 -0.984375 -0.703125 -1.640625q-0.6875 -0.671875 -1.8125 -0.671875q-1.1875 0 -1.90625 0.71875q-0.703125 0.703125 -0.703125 1.953125l-1.6875 -0.171875q0.171875 -1.890625 1.296875 -2.875q1.140625 -0.984375 3.03125 -0.984375q1.921875 0 3.046875 1.0625q1.125 1.0625 1.125 2.640625q0 0.796875 -0.328125 1.578125q-0.328125 0.78125 -1.09375 1.640625q-0.75 0.84375 -2.53125 2.34375q-1.46875 1.234375 -1.890625 1.6875q-0.421875 0.4375 -0.6875 0.875l6.546875 0z" fill-rule="nonzero"/><path fill="#000000" fill-opacity="0.0" d="m695.8924 348.55118l89.57477 0l0 54.960632l-89.57477 0z" fill-rule="evenodd"/><path fill="#000000" d="m715.4393 367.00244l1.78125 -1.1875l-6.53125 0l0 -1.1875l8.015625 0l0.4375 -0.296875l1.046875 0.75q0.296875 0.4375 -0.296875 0.375q-1.1875 0.890625 -3.34375 2.140625q0.4375 0.234375 0.890625 0.53125l-0.890625 0.953125q-1.9375 -1.1875 -3.640625 -1.921875l0.75 -0.96875l1.78125 0.8125zm-8.09375 -5.046875l6.453125 0l0 -1.921875l1.640625 0q0.734375 0.140625 0.0625 0.59375l0 1.328125l6.984375 0l0 1.421875l-13.65625 0l0 6.890625q0 4.3125 -1.484375 6.390625l-1.34375 -1.109375q1.34375 -1.484375 1.34375 -5.28125l0 -8.3125zm2.21875 8.765625l0 -1.40625l11.359375 0l0.375 -0.375l1.1875 1.1875q0.21875 0.4375 -0.453125 0.375q-1.625 1.546875 -3.625 3.109375l-0.96875 -1.1875q1.328125 -0.8125 2.15625 -1.703125l-3.046875 0l0 4.90625q0 1.328125 -1.1875 1.328125l-1.78125 0l-0.15625 -1.40625l1.421875 0q0.21875 0 0.21875 -0.234375l0 -4.59375l-5.5 0zm20.125 -4.375q-0.15625 0.4375 -0.75 1.78125q1.5625 0.734375 2.671875 1.625q0.453125 -1.625 0.59375 -3.40625l-2.515625 0zm-1.421875 2.890625q-1.1875 1.78125 -2.375 2.515625l-0.890625 -1.40625q3.34375 -2.671875 3.859375 -7.640625l-2.671875 0l0 -1.40625l8.6875 0l0 1.40625l-4.53125 0q0 0.375 -0.359375 2.21875l3.859375 0q0.140625 9.0625 -6.90625 12.03125l-0.96875 -1.5625q3.71875 -1.625 4.96875 -4.078125q-0.65625 -0.890625 -2.671875 -2.078125zm10.984375 -8.390625l1.421875 0q0.59375 0.078125 0.0625 0.453125l0 14.09375q0 1.125 -0.890625 1.125l-2.21875 0l-0.15625 -1.421875l1.484375 0q0.296875 0 0.296875 -0.296875l0 -13.953125zm-2.375 2.0q0.59375 0.078125 0.078125 0.453125l0 9.796875l-1.484375 0l0 -10.25l1.40625 0zm9.734375 10.171875q1.25 -2.21875 1.84375 -4.078125l-4.75 0l0 -1.40625l17.15625 0l0 1.40625l-10.6875 0q-0.296875 0.890625 -0.59375 1.5625l8.828125 0q-0.59375 4.453125 -1.640625 5.859375q-0.59375 0.75 -2.21875 0.59375l-2.0 -0.21875l-0.078125 -1.640625l2.296875 0.21875q0.75 0.078125 1.109375 -0.734375q0.15625 -0.375 0.671875 -2.671875l-7.421875 0q-0.296875 0.734375 -0.8125 1.625l-1.703125 -0.515625zm1.703125 -10.984375l0 2.453125l7.9375 0l0 -2.453125l-7.9375 0zm7.9375 4.375l0 -0.515625l-7.9375 0l0 0.671875l-1.484375 0l0 -5.9375l10.90625 0l0 5.78125l-1.484375 0z" fill-rule="nonzero"/><path fill="#000000" d="m711.8455 397.4712l-1.640625 0l0 -10.453125q-0.59375 0.5625 -1.5625 1.140625q-0.953125 0.5625 -1.71875 0.84375l0 -1.59375q1.375 -0.640625 2.40625 -1.5625q1.03125 -0.921875 1.453125 -1.78125l1.0625 0l0 13.40625zm4.2038574 -6.59375q0 -2.359375 0.484375 -3.796875q0.484375 -1.453125 1.4375 -2.234375q0.96875 -0.78125 2.421875 -0.78125q1.078125 0 1.890625 0.4375q0.8125 0.421875 1.328125 1.25q0.53125 0.8125 0.828125 1.984375q0.3125 1.15625 0.3125 3.140625q0 2.359375 -0.484375 3.8125q-0.484375 1.4375 -1.453125 2.234375q-0.953125 0.78125 -2.421875 0.78125q-1.921875 0 -3.03125 -1.390625q-1.3125 -1.671875 -1.3125 -5.4375zm1.671875 0q0 3.296875 0.765625 4.390625q0.78125 1.078125 1.90625 1.078125q1.140625 0 1.90625 -1.09375q0.765625 -1.09375 0.765625 -4.375q0 -3.296875 -0.765625 -4.375q-0.765625 -1.078125 -1.921875 -1.078125q-1.125 0 -1.796875 0.953125q-0.859375 1.21875 -0.859375 4.5zm8.703796 0q0 -2.359375 0.484375 -3.796875q0.484375 -1.453125 1.4375 -2.234375q0.96875 -0.78125 2.421875 -0.78125q1.078125 0 1.890625 0.4375q0.8125 0.421875 1.328125 1.25q0.53125 0.8125 0.828125 1.984375q0.3125 1.15625 0.3125 3.140625q0 2.359375 -0.484375 3.8125q-0.484375 1.4375 -1.453125 2.234375q-0.953125 0.78125 -2.421875 0.78125q-1.921875 0 -3.03125 -1.390625q-1.3125 -1.671875 -1.3125 -5.4375zm1.671875 0q0 3.296875 0.765625 4.390625q0.78125 1.078125 1.90625 1.078125q1.140625 0 1.90625 -1.09375q0.765625 -1.09375 0.765625 -4.375q0 -3.296875 -0.765625 -4.375q-0.765625 -1.078125 -1.921875 -1.078125q-1.125 0 -1.796875 0.953125q-0.859375 1.21875 -0.859375 4.5zm14.875732 6.59375l-1.640625 0l0 -10.453125q-0.59375 0.5625 -1.5625 1.140625q-0.953125 0.5625 -1.71875 0.84375l0 -1.59375q1.375 -0.640625 2.40625 -1.5625q1.03125 -0.921875 1.453125 -1.78125l1.0625 0l0 13.40625z" fill-rule="nonzero"/><path fill="#000000" fill-opacity="0.0" d="m171.09973 496.0761l661.44885 0l0 77.165344l-661.44885 0z" fill-rule="evenodd"/><path fill="#000000" d="m184.25598 515.65234l0 5.265625l1.5625 0l0 -5.265625l-1.5625 0zm2.828125 -1.1875l0 7.640625l-2.828125 0l0 2.0l-1.265625 0l0 -6.828125q-0.4375 0.96875 -1.40625 1.9375l-0.96875 -1.34375q2.53125 -2.515625 3.203125 -7.6405945l-2.3125 0l0 -1.40625l6.390625 0l0 1.40625l-2.671875 0q-0.21875 2.1562195 -0.890625 4.2343445l2.75 0zm0 -0.53125q2.59375 -2.3749695 3.5625 -6.3749695l1.484375 0q0.734375 0.140625 -0.078125 0.4375l-0.375 0.96875l3.1875 0l0.15625 -0.21875l1.265625 0.4375q0.65625 0.296875 -0.078125 0.453125l-2.0 2.6718445l3.328125 0l0 10.765625q0 1.265625 -1.109375 1.265625l-1.78125 0l-0.296875 -1.421875l1.484375 0q0.21875 0 0.21875 -0.21875l0 -2.890625l-5.265625 0q-0.4375 3.484375 -2.75 4.75l-0.8125 -1.265625q2.078125 -1.1875 2.078125 -4.75l0 -4.90625q-0.515625 0.75 -1.40625 1.5625l-0.8125 -1.265625zm6.96875 1.484375l2.0 0l0 -1.703125l-2.0 0l0 1.703125zm-3.265625 0l2.0 0l0 -1.703125l-2.0 0l0 1.703125zm2.0 1.1875l-2.0 0l0 1.78125l2.0 0l0 -1.78125zm1.265625 1.78125l2.0 0l0 -1.78125l-2.0 0l0 1.78125zm-2.8125 -8.2343445q-0.375 1.109375 -1.046875 2.1562195l2.671875 0l1.34375 -2.1562195l-2.96875 0z" fill-rule="nonzero"/><path fill="#000000" d="m215.56848 524.7461q-1.96875 -1.671875 -3.03125 -3.5q-1.046875 -1.828125 -1.78125 -4.734375q-0.796875 3.203125 -2.296875 5.21875q-1.484375 2.0 -2.796875 3.09375q-0.296875 -0.515625 -1.390625 -1.03125q1.609375 -1.09375 2.875 -2.796875q1.28125 -1.71875 1.890625 -3.421875q0.625 -1.71875 0.734375 -3.421875q0.109375 -1.71875 0.109375 -3.0312195q0 -1.3125 -0.0625 -3.0625q0.875 0.078125 1.890625 0.078125q-0.21875 0.28125 -0.296875 1.59375q-0.0625 1.3125 0.078125 3.3280945q0.140625 2.0 0.71875 3.828125q0.59375 1.8125 1.6875 3.640625q1.09375 1.8125 3.125 3.046875q-1.15625 0.4375 -1.453125 1.171875zm-13.546875 -2.484375q0.5 -0.578125 0.5 -1.234375l0 -6.125q-1.671875 0 -2.46875 0.078125l0 -1.390625q0.796875 0.078125 1.75 0.078125l2.25 0q-0.078125 1.3125 -0.078125 2.484375l0 4.296875q0.59375 -0.59375 2.265625 -2.484375q0.296875 0.65625 0.796875 1.3125q-1.09375 1.09375 -2.109375 2.1875q-1.015625 1.09375 -1.671875 1.96875q-0.734375 -0.734375 -1.234375 -1.171875zm2.609375 -10.3437195q-1.15625 -1.609375 -2.609375 -2.765625q0.65625 -0.4375 1.015625 -1.015625q1.15625 0.9375 2.765625 2.765625q-0.734375 0.4375 -1.171875 1.015625zm23.40625 -4.296875q0.5 1.3125 0.9375 2.546875l2.625 0q1.53125 0 3.203125 -0.078125l0 1.3125q-1.671875 -0.0625 -3.203125 -0.0625l-9.546875 0q0 4.2968445 -0.140625 6.1249695q-0.140625 1.8125 -0.546875 3.71875q-0.40625 1.890625 -1.421875 3.640625q-0.515625 -0.65625 -1.3125 -1.09375q0.953125 -1.25 1.453125 -3.46875q0.515625 -2.21875 0.578125 -4.765625q0.078125 -2.5625 0.015625 -5.3280945l6.546875 0q-0.21875 -1.015625 -0.71875 -2.03125q0.71875 -0.15625 1.53125 -0.515625zm6.109375 6.2655945q-0.71875 1.609375 -1.265625 3.140625q-0.546875 1.515625 -2.15625 5.3125l2.046875 0q1.015625 0 2.25 -0.078125l0 1.53125q-1.234375 -0.0625 -2.25 -0.0625l-7.796875 0q-1.25 0 -2.984375 0.0625l0 -1.53125q1.671875 0.078125 2.984375 0.078125l4.296875 0q1.09375 -2.265625 1.921875 -4.734375q0.84375 -2.484375 1.203125 -4.375q0.953125 0.515625 1.75 0.65625zm-10.265625 0.796875q1.890625 3.0 2.84375 5.25q-0.515625 0.296875 -1.25 0.734375q-1.453125 -3.28125 -2.765625 -5.171875q0.65625 -0.515625 1.171875 -0.8125zm3.5 -1.671875q1.453125 2.546875 2.546875 5.03125q-0.65625 0.359375 -1.390625 0.71875q-0.875 -2.46875 -2.328125 -5.09375q0.578125 -0.21875 1.171875 -0.65625z" fill-rule="nonzero"/><path fill="#000000" d="m237.4591 516.7617q4.453125 -1.265625 7.9375 -4.9687195l1.703125 0.29684448q0.296875 0.296875 -0.21875 0.359375q2.078125 2.375 7.640625 3.796875l-0.515625 1.625q-2.671875 -0.671875 -4.375 -1.625l0 1.03125l-7.421875 0l0 -0.96875q-1.78125 1.265625 -4.15625 2.015625l-0.59375 -1.5625zm11.578125 -0.890625q-1.5625 -0.8125 -3.203125 -2.59375q-1.03125 1.328125 -2.96875 2.59375l6.171875 0zm-11.578125 -3.5625q1.78125 -1.5624695 2.8125 -4.6718445l1.5625 0.4375q0.296875 0.296875 -0.21875 0.375l-0.53125 1.03125l4.609375 0l0 1.1875l-2.75 0q0.453125 0.828125 0.890625 1.9374695l-1.5625 0.4375q-0.359375 -1.3280945 -0.8125 -2.3749695l-0.8125 0q-0.890625 1.7812195 -2.15625 2.9062195l-1.03125 -1.265625zm10.6875 -2.8280945l5.78125 0l0 1.1875l-3.484375 0q0.59375 0.828125 0.96875 1.7812195l-1.5625 0.59375q-0.375 -1.2499695 -0.96875 -2.3749695l-1.265625 0l-0.65625 1.1875l-1.265625 -0.734375q1.03125 -1.640625 1.625 -3.71875l1.484375 0.453125q0.296875 0.296875 -0.21875 0.375l-0.4375 1.25zm-6.171875 10.3280945l0 2.59375l8.015625 0l0 -2.59375l-8.015625 0zm-1.484375 -1.1875l10.984375 0l0 5.78125l-1.484375 0l0 -0.8125l-8.015625 0l0 1.046875l-1.484375 0l0 -6.015625z" fill-rule="nonzero"/><path fill="#000000" d="m261.81848 508.63675q-0.359375 0.359375 -0.578125 0.984375q-0.21875 0.625 -0.515625 1.5625l4.671875 0q-0.140625 1.3124695 -0.296875 2.2343445q-0.140625 0.90625 -0.40625 2.046875q-0.25 1.125 -0.6875 2.40625q-0.4375 1.265625 -0.9375 2.203125q0.5 0.59375 1.484375 1.25q0.984375 0.65625 2.4375 1.0625q1.46875 0.390625 3.109375 0.5q1.640625 0.109375 3.3125 0.03125q-0.734375 0.875 -0.875 1.6875q-2.265625 0 -3.984375 -0.328125q-1.703125 -0.328125 -2.6875 -0.65625q-0.984375 -0.328125 -1.96875 -1.015625q-0.984375 -0.703125 -1.703125 -1.5q-1.09375 1.09375 -2.125 1.890625q-1.015625 0.796875 -2.90625 1.828125q-0.515625 -0.8125 -1.09375 -1.25q1.609375 -0.578125 3.09375 -1.59375q1.5 -1.03125 2.15625 -1.96875q-0.875 -1.171875 -1.390625 -2.328125q-0.5 -1.171875 -0.9375 -2.40625q-1.03125 1.96875 -1.53125 2.6875q-0.59375 -0.578125 -1.3125 -0.796875q0.65625 -0.734375 1.375 -1.96875q0.734375 -1.234375 1.203125 -2.40625q0.484375 -1.1718445 0.8125 -2.4843445q0.328125 -1.3125 0.46875 -2.328125q0.796875 0.4375 1.8125 0.65625zm6.71875 -0.5q-0.078125 1.078125 -0.078125 2.390625l0 7.2968445q0 1.53125 0.078125 3.859375l-1.53125 0q0.0625 -2.328125 0.0625 -3.859375l0 -7.2968445q0 -1.3125 -0.0625 -2.390625l1.53125 0zm-8.671875 5.5312195q0.28125 1.234375 0.859375 2.59375q0.59375 1.34375 1.46875 2.4375q0.578125 -1.234375 0.96875 -2.796875q0.40625 -1.578125 0.625 -3.46875l-3.421875 0q-0.359375 0.796875 -0.5 1.234375zm10.046875 -1.390625q0.796875 0.953125 1.75 1.984375q0.953125 1.015625 1.671875 1.890625q-0.5 0.28125 -1.3125 1.09375q-0.578125 -0.875 -1.390625 -1.9375q-0.796875 -1.0625 -1.8125 -2.15625q0.59375 -0.359375 1.09375 -0.875z" fill-rule="nonzero"/><path fill="#000000" d="m281.41223 520.10547q-2.890625 1.03125 -5.40625 1.703125q-0.234375 0.59375 -0.453125 0.21875l-0.515625 -1.703125l2.59375 -0.515625l0 -4.09375l-2.0 0l0 -1.40625l2.0 0l0 -3.9374695l-2.21875 0l0 -1.40625l5.9375 0l0 1.40625l-2.234375 0l0 3.9374695l2.0 0l0 1.40625l-2.0 0l0 3.71875q0.59375 -0.078125 2.15625 -0.59375l0.140625 1.265625zm5.875 -3.5l0 2.15625l4.15625 0l0 1.40625l-4.15625 0l0 2.3125l4.890625 0l0 1.40625l-11.796875 0l0 -1.40625l5.640625 0l0 -2.3125l-4.015625 0l0 -1.40625l4.015625 0l0 -2.15625l-2.671875 0l0 0.96875l-1.265625 0l0 -9.1249695l9.203125 0l0 8.8280945l-1.265625 0l0 -0.671875l-2.734375 0zm2.734375 -3.40625l-2.734375 0l0 2.21875l2.734375 0l0 -2.21875zm0 -3.5624695l-2.734375 0l0 2.3749695l2.734375 0l0 -2.3749695zm-4.0 2.3749695l0 -2.3749695l-2.671875 0l0 2.3749695l2.671875 0zm0 1.1875l-2.671875 0l0 2.21875l2.671875 0l0 -2.21875zm12.609375 11.578125q-1.78125 -2.0 -3.703125 -3.265625l1.109375 -1.484375q2.375 1.40625 3.9375 3.1875l-1.34375 1.5625zm15.9609375 -14.9999695q-2.8125 0.078125 -5.484375 0l-0.296875 -1.1875q7.640625 0.078125 11.34375 -0.734375l0.828125 1.328125q0.140625 0.375 -0.53125 0.15625l-4.375 0.296875l0 1.1875l7.203125 0l0 1.1874695l-7.203125 0l0 1.109375l5.046875 0l0 5.71875l-5.046875 0l0 1.328125l5.5625 0l0 1.1875l-5.5625 0l0 1.484375l7.421875 0l0 1.203125l-16.46875 0l0 -1.203125l7.5625 0l0 -1.484375l-5.71875 0l0 -1.1875l5.71875 0l0 -1.328125l-2.515625 0l-2.453125 0l0 -5.71875l4.96875 0l0 -1.109375l-7.265625 0l0 -1.1874695l7.265625 0l0 -1.046875zm-3.703125 5.7187195l3.703125 0l0 -1.1875l-3.703125 0l0 1.1875zm0 2.15625l3.703125 0l0 -1.265625l-3.703125 0l0 1.265625zm5.1875 -2.15625l3.78125 0l0 -1.1875l-3.78125 0l0 1.1875zm3.78125 2.15625l0 -1.265625l-3.78125 0l0 1.265625l3.78125 0z" fill-rule="nonzero"/><path fill="#000000" d="m334.81067 508.63675q-0.359375 0.796875 -0.578125 1.640625q-0.21875 0.84375 -0.578125 2.2968445l5.828125 0q0.71875 0 2.1875 -0.078125l0 1.390625q-1.46875 -0.078125 -2.1875 -0.078125l-6.125 0q-0.4375 1.09375 -0.953125 2.1875l7.734375 0q-1.390625 3.359375 -3.859375 5.609375q1.96875 1.390625 5.75 1.828125q-0.515625 0.578125 -0.875 1.453125q-1.453125 -0.28125 -2.984375 -0.828125q-1.53125 -0.546875 -2.984375 -1.578125q-1.171875 0.734375 -2.859375 1.421875q-1.671875 0.703125 -3.40625 1.140625q-0.15625 -0.734375 -0.734375 -1.390625q1.59375 -0.21875 3.203125 -0.765625q1.609375 -0.546875 2.84375 -1.34375q-1.234375 -1.25 -2.765625 -3.578125q-0.8125 1.3125 -2.046875 2.5625q-1.234375 1.234375 -2.6875 2.25q-0.296875 -0.515625 -1.171875 -1.09375q1.09375 -0.578125 2.140625 -1.53125q1.0625 -0.953125 2.21875 -2.515625q1.171875 -1.5625 1.984375 -3.828125q-1.90625 0 -2.921875 0.078125q-1.015625 0.078125 -1.53125 0.296875q-0.21875 -0.65625 -0.578125 -1.390625q0.734375 -0.140625 1.0625 -1.0937195q0.328125 -0.953125 0.6875 -2.90625q0.578125 0.28125 1.59375 0.578125q-0.359375 0.71875 -0.65625 1.484375q-0.28125 0.765625 -0.640625 1.7187195l3.34375 0q0.578125 -2.3280945 0.875 -4.4374695q0.796875 0.4375 1.671875 0.5zm-2.328125 8.5312195q1.015625 1.8125 2.84375 3.640625q1.609375 -1.3125 2.84375 -3.640625l-5.6875 0zm5.03125 -8.9687195q1.234375 1.390625 2.46875 2.84375q-0.5 0.296875 -1.234375 0.953125q-1.15625 -1.6875 -2.25 -2.84375q0.5 -0.359375 1.015625 -0.953125z" fill-rule="nonzero"/><path fill="#000000" d="m354.54504 512.0117q0.59375 0.078125 0.078125 0.4375l-0.140625 1.125q-0.375 2.59375 -3.859375 3.40625l-0.453125 -1.5625q2.671875 -0.359375 2.890625 -2.21875l0.15625 -1.3437195l1.328125 0.15621948zm4.15625 3.046875q0.53125 0 0.59375 -0.53125l0.15625 -0.953125l1.484375 0.359375l-0.21875 1.34375q-0.234375 1.1875 -1.265625 1.1875l-1.9375 0q-1.484375 0 -1.484375 -1.34375l0 -3.3280945l1.421875 0q0.59375 0.0625 0.0625 0.43746948l0 2.234375q0 0.59375 0.53125 0.59375l0.65625 0zm-13.28125 9.5l-0.21875 -1.40625l1.109375 0q0.296875 0 0.296875 -0.3125l0 -4.75l-1.484375 0.53125q-0.21875 0.734375 -0.4375 0.0625l-0.53125 -1.484375l2.453125 -0.59375l0 -3.78125l-2.0 0l0 -1.4062195l2.0 0l0 -3.78125l1.40625 0q0.59375 0.0625 0.078125 0.4375l0 3.34375l1.484375 0l0 1.4062195l-1.484375 0l0 3.421875l1.484375 -0.453125l0.21875 1.265625l-1.703125 0.59375l0 5.796875q0 1.109375 -1.03125 1.109375l-1.640625 0zm5.5 -5.34375l0 -1.421875l9.125 0l0 1.421875l-3.859375 0l0 3.328125l5.265625 0l0 1.421875l-11.953125 0l0 -1.421875l5.203125 0l0 -3.328125l-3.78125 0zm5.265625 -9.4999695l5.046875 0l0 3.4062195l-1.484375 0l0 -1.9999695l-8.234375 0l0 2.5155945l-1.484375 0l0 -3.9218445l4.671875 0l0 -2.15625l1.40625 0q0.59375 0.078125 0.078125 0.4375l0 1.71875zm21.515625 13.3593445q0.296875 0 0.296875 -0.296875l0 -14.4843445l1.421875 0q0.59375 0.078125 0.0625 0.453125l0 14.7030945q0 1.03125 -1.03125 1.03125l-1.703125 0l-0.375 -1.40625l1.328125 0zm-11.34375 -12.7030945l1.703125 0l0 -2.59375l1.40625 0q0.59375 0.078125 0.078125 0.453125l0 2.140625l3.34375 0l0 1.421875l-3.34375 0l0 1.9218445l4.59375 0l0 1.40625l-4.59375 0l0 1.421875l3.484375 0l0 5.484375q0 1.046875 -1.03125 1.046875l-1.125 0l-0.296875 -1.421875l0.671875 0q0.296875 0 0.296875 -0.296875l0 -3.40625l-2.0 0l0 6.609375l-1.484375 0l0 -6.609375l-1.78125 0l0 5.125l-1.484375 0l0 -6.53125l3.265625 0l0 -1.421875l-4.671875 0l0 -1.40625l4.671875 0l0 -1.9218445l-2.296875 0q-0.453125 0.8124695 -0.96875 1.5468445l-1.1875 -0.8125q1.109375 -1.5624695 2.15625 -4.0780945l1.328125 0.4375q0.296875 0.296875 -0.21875 0.375l-0.515625 1.109375zm8.453125 10.3280945l0 -11.0624695l1.40625 0q0.59375 0.078125 0.078125 0.4375l0 10.6249695l-1.484375 0zm20.484375 -11.6562195l1.40625 0.140625q0.59375 0.078125 0.078125 0.453125l0 5.3437195q0 2.59375 -0.890625 4.296875l3.5625 2.90625l-1.109375 1.484375l-3.125 -3.125q-1.921875 2.671875 -6.96875 3.859375l-0.59375 -1.625q3.859375 -0.59375 5.71875 -2.453125q1.921875 -1.9375 1.921875 -5.859375l0 -5.4218445zm-2.59375 8.4530945q-2.375 1.9375 -8.3125 5.421875q-0.15625 0.59375 -0.515625 0.078125l-0.75 -1.5625q0.453125 -0.140625 1.859375 -0.890625l-0.453125 -11.0624695l1.5625 0.15625q0.59375 0.078125 0.078125 0.4375l0.375 9.7343445q3.328125 -1.9375 5.40625 -3.5625l0.75 1.25zm-3.125 -7.6405945q1.484375 1.046875 2.75 2.7499695l-1.484375 1.109375q-1.328125 -1.8593445 -2.515625 -2.6718445l1.25 -1.1875zm16.625 0.515625l-3.109375 0l0 -1.40625l8.75 0l0.234375 -0.4375l1.546875 0.8125l-0.296875 0.4375l-1.03125 3.2655945l2.515625 0l0.234375 -0.359375l1.328125 1.03125q0.15625 0.15625 -0.296875 0.296875q-1.265625 4.15625 -3.1875 6.3125q1.625 1.1875 5.125 2.0l-0.671875 1.859375q-3.5625 -1.109375 -5.5625 -2.75q-1.78125 1.71875 -6.09375 3.046875l-0.734375 -1.703125q4.21875 -1.125 5.640625 -2.453125q-2.15625 -2.59375 -3.125 -5.265625q-0.671875 5.859375 -4.96875 8.90625l-1.046875 -1.484375q4.75 -3.421875 4.75 -9.953125l0 -2.1562195zm1.71875 0l0 2.0155945q0.515625 2.96875 3.78125 6.96875q1.484375 -1.703125 2.515625 -4.890625l-2.375 0l-0.359375 1.03125l-1.484375 -0.4375l1.546875 -4.6874695l-3.625 0zm20.328125 -0.59375q-2.8125 0.078125 -5.484375 0l-0.296875 -1.1875q7.640625 0.078125 11.34375 -0.734375l0.828125 1.328125q0.140625 0.375 -0.53125 0.15625l-4.375 0.296875l0 1.1875l7.203125 0l0 1.1874695l-7.203125 0l0 1.109375l5.046875 0l0 5.71875l-5.046875 0l0 1.328125l5.5625 0l0 1.1875l-5.5625 0l0 1.484375l7.421875 0l0 1.203125l-16.46875 0l0 -1.203125l7.5625 0l0 -1.484375l-5.71875 0l0 -1.1875l5.71875 0l0 -1.328125l-2.515625 0l-2.453125 0l0 -5.71875l4.96875 0l0 -1.109375l-7.265625 0l0 -1.1874695l7.265625 0l0 -1.046875zm-3.703125 5.7187195l3.703125 0l0 -1.1875l-3.703125 0l0 1.1875zm0 2.15625l3.703125 0l0 -1.265625l-3.703125 0l0 1.265625zm5.1875 -2.15625l3.78125 0l0 -1.1875l-3.78125 0l0 1.1875zm3.78125 2.15625l0 -1.265625l-3.78125 0l0 1.265625l3.78125 0zm15.96875 4.296875q1.40625 0.59375 4.8125 0.96875l-0.59375 1.640625q-3.484375 -0.453125 -5.40625 -1.5625q-2.234375 1.34375 -5.875 1.703125l-0.515625 -1.484375q3.125 -0.296875 5.203125 -1.265625q-0.96875 -0.890625 -1.484375 -1.84375q-1.265625 1.40625 -2.671875 2.078125l-0.890625 -1.265625q2.734375 -1.484375 3.921875 -3.640625l-1.625 0l0 -4.59375l-1.5625 1.546875l-1.1875 -1.03125q2.453125 -2.2343445 3.71875 -5.5624695l1.484375 0.59375q0.296875 0.296875 -0.234375 0.359375l-0.4375 0.96875l7.5 0l0 1.40625l-8.171875 0l-0.515625 0.828125l7.203125 0l0 5.4843445l-4.53125 0l-0.515625 0.890625l3.703125 0l0.296875 -0.296875l1.109375 0.96875q0.453125 0.21875 -0.21875 0.375q-1.03125 1.484375 -2.515625 2.734375zm-2.828125 -2.59375q0.515625 0.890625 1.640625 1.78125q1.1875 -1.03125 1.78125 -1.78125l-3.421875 0zm-1.03125 -6.375l0 0.953125l5.265625 0l0 -0.953125l-5.265625 0zm0 2.140625l0 0.96875l5.265625 0l0 -0.96875l-5.265625 0zm22.921875 -3.109375q0.59375 0.078125 0.078125 0.4375l-0.140625 1.125q-0.375 2.59375 -3.859375 3.40625l-0.453125 -1.5625q2.671875 -0.359375 2.890625 -2.21875l0.15625 -1.3437195l1.328125 0.15621948zm4.15625 3.046875q0.53125 0 0.59375 -0.53125l0.15625 -0.953125l1.484375 0.359375l-0.21875 1.34375q-0.234375 1.1875 -1.265625 1.1875l-1.9375 0q-1.484375 0 -1.484375 -1.34375l0 -3.3280945l1.421875 0q0.59375 0.0625 0.0625 0.43746948l0 2.234375q0 0.59375 0.53125 0.59375l0.65625 0zm-13.28125 9.5l-0.21875 -1.40625l1.109375 0q0.296875 0 0.296875 -0.3125l0 -4.75l-1.484375 0.53125q-0.21875 0.734375 -0.4375 0.0625l-0.53125 -1.484375l2.453125 -0.59375l0 -3.78125l-2.0 0l0 -1.4062195l2.0 0l0 -3.78125l1.40625 0q0.59375 0.0625 0.078125 0.4375l0 3.34375l1.484375 0l0 1.4062195l-1.484375 0l0 3.421875l1.484375 -0.453125l0.21875 1.265625l-1.703125 0.59375l0 5.796875q0 1.109375 -1.03125 1.109375l-1.640625 0zm5.5 -5.34375l0 -1.421875l9.125 0l0 1.421875l-3.859375 0l0 3.328125l5.265625 0l0 1.421875l-11.953125 0l0 -1.421875l5.203125 0l0 -3.328125l-3.78125 0zm5.265625 -9.4999695l5.046875 0l0 3.4062195l-1.484375 0l0 -1.9999695l-8.234375 0l0 2.5155945l-1.484375 0l0 -3.9218445l4.671875 0l0 -2.15625l1.40625 0q0.59375 0.078125 0.078125 0.4375l0 1.71875zm21.515625 13.3593445q0.296875 0 0.296875 -0.296875l0 -14.4843445l1.421875 0q0.59375 0.078125 0.0625 0.453125l0 14.7030945q0 1.03125 -1.03125 1.03125l-1.703125 0l-0.375 -1.40625l1.328125 0zm-11.34375 -12.7030945l1.703125 0l0 -2.59375l1.40625 0q0.59375 0.078125 0.078125 0.453125l0 2.140625l3.34375 0l0 1.421875l-3.34375 0l0 1.9218445l4.59375 0l0 1.40625l-4.59375 0l0 1.421875l3.484375 0l0 5.484375q0 1.046875 -1.03125 1.046875l-1.125 0l-0.296875 -1.421875l0.671875 0q0.296875 0 0.296875 -0.296875l0 -3.40625l-2.0 0l0 6.609375l-1.484375 0l0 -6.609375l-1.78125 0l0 5.125l-1.484375 0l0 -6.53125l3.265625 0l0 -1.421875l-4.671875 0l0 -1.40625l4.671875 0l0 -1.9218445l-2.296875 0q-0.453125 0.8124695 -0.96875 1.5468445l-1.1875 -0.8125q1.109375 -1.5624695 2.15625 -4.0780945l1.328125 0.4375q0.296875 0.296875 -0.21875 0.375l-0.515625 1.109375zm8.453125 10.3280945l0 -11.0624695l1.40625 0q0.59375 0.078125 0.078125 0.4375l0 10.6249695l-1.484375 0zm7.578125 -8.9062195q1.703125 -1.5625 2.671875 -4.15625l1.546875 0.4375q0.296875 0.296875 -0.21875 0.375l-0.4375 0.96875l4.75 0l0 1.1875l-2.609375 0l0.828125 1.4062195l-1.640625 0.296875l-0.734375 -1.7030945l-1.125 0q-0.734375 1.1875 -1.921875 2.2968445l-1.109375 -1.1093445zm8.078125 -0.671875q1.046875 -1.5625 1.5625 -3.5625l1.5625 0.296875q0.296875 0.296875 -0.21875 0.375l-0.453125 1.1875l6.015625 0l0 1.1875l-3.484375 0l0.953125 1.25l-1.625 0.45309448l-0.96875 -1.7030945l-1.328125 0q-0.296875 0.65625 -0.75 1.25l-1.265625 -0.734375zm-1.546875 11.9530945q-0.671875 -0.96875 -1.9375 -2.078125l0.96875 -0.890625l-4.234375 0l0 -1.421875l9.796875 0l0 -1.25l-10.828125 0l0 -1.421875l7.421875 0l0 -1.484375l-5.28125 0l0 -1.40625l5.28125 0l0 -1.1874695l1.40625 0q0.59375 0.07809448 0.078125 0.45309448l0 0.734375l5.484375 0l0 1.40625l-5.484375 0l0 1.484375l7.484375 0l0 1.421875l-4.078125 0l0 1.25l3.1875 0l0 1.421875l-3.1875 0l0 3.265625q0 1.1875 -1.1875 1.1875l-1.78125 0l-0.296875 -1.40625l1.484375 0q0.296875 0 0.296875 -0.3125l0 -2.734375l-5.125 0q1.125 0.734375 1.859375 1.84375l-1.328125 1.125zm24.109375 0.96875l-0.140625 -1.640625l1.703125 0q0.96875 0 1.046875 -2.078125l0.359375 -7.046875l-3.03125 0q0.296875 8.90625 -7.796875 11.0625l-0.515625 -1.71875q7.125 -1.859375 6.828125 -9.34375l-3.203125 0l0 -1.4218445l3.203125 0l0 -4.078125l1.40625 0q0.59375 0.078125 0.078125 0.453125l0 3.625l4.671875 0l-0.453125 8.8437195q-0.140625 3.34375 -1.921875 3.34375l-2.234375 0zm-7.1875 -12.7030945l0 6.6093445l2.96875 -0.8125l0.140625 1.546875l-6.53125 2.015625q-0.078125 0.59375 -0.375 0.296875l-0.59375 -1.9375l2.90625 -0.734375l0 -6.9843445l-2.453125 0l0 -1.40625l6.53125 0l0 1.40625l-2.59375 0zm21.375 -2.15625q1.40625 1.5625 2.515625 3.4218445l-1.40625 0.8125l-0.59375 -0.890625l-6.609375 0.671875q-0.078125 0.515625 -0.375 0.21875l-0.4375 -1.7812195l2.0 0l1.484375 -4.0l1.859375 0.4375q0.296875 0.296875 -0.21875 0.375l-1.78125 3.109375l3.484375 -0.21875l-1.109375 -1.484375l1.1875 -0.671875zm-3.9375 6.1718445l0 1.25l3.484375 0l0 -1.25l-3.484375 0zm0 2.671875l0 1.25l3.484375 0l0 -1.25l-3.484375 0zm4.96875 -4.09375l0 9.359375q0 1.1875 -1.1875 1.1875l-1.265625 0l-0.21875 -1.40625l0.96875 0q0.21875 0 0.21875 -0.234375l0 -2.140625l-3.484375 0l0 3.859375l-1.484375 0l0 -10.625l6.453125 0zm3.265625 2.90625q0.59375 0.0625 0.078125 0.4375l0 1.9375l4.234375 -1.5625l0.734375 1.265625q0.078125 0.515625 -0.4375 0.21875l-4.53125 1.1875l0 2.078125q0 0.515625 0.4375 0.515625l2.96875 0q0.53125 0 0.59375 -0.515625l0.234375 -1.265625l1.546875 0.296875l-0.296875 1.71875q-0.21875 1.1875 -1.25 1.1875l-4.390625 0q-1.328125 0 -1.328125 -1.265625l0 -6.234375l1.40625 0zm4.75 -5.8749695q0.078125 0.53125 -0.4375 0.234375l-4.234375 1.1874695l0 1.78125q0 0.515625 0.4375 0.515625l2.96875 0q0.453125 0 0.53125 -0.59375l0.140625 -1.34375l1.5625 0.296875l-0.15625 1.640625q-0.140625 1.40625 -1.40625 1.40625l-4.234375 0q-1.328125 0 -1.328125 -1.265625l0 -6.5937195l1.40625 0q0.59375 0.0625 0.078125 0.4375l0 2.59375l3.78125 -1.625l0.890625 1.328125zm18.265625 7.4218445q-0.375 -1.546875 -1.9375 -3.40625l1.34375 -4.6093445l-2.234375 0l0 14.2655945l-1.484375 0l0 -15.6718445l4.078125 0l0.15625 -0.375l1.5625 1.046875l-0.296875 0.21875l-1.640625 4.8280945q1.640625 1.703125 2.0 3.109375q1.125 4.53125 -1.78125 4.53125l-1.25 0l-0.296875 -1.625l1.109375 0q1.1875 0 0.671875 -2.3125zm-7.578125 -7.2655945q0.671875 -0.96875 1.40625 -2.59375l1.34375 0.953125q0.515625 0.375 -0.21875 0.453125q-1.125 1.859375 -2.453125 3.2655945l2.453125 0l0 1.40625l-3.5 0q-0.8125 0.8125 -1.703125 1.484375l4.15625 0l0 8.3125l-1.484375 0l0 -0.890625l-3.78125 0l0 1.1875l-1.484375 0l0 -6.453125q-1.046875 0.734375 -2.078125 1.1875l-0.671875 -1.5625q2.53125 -0.96875 5.046875 -3.265625l-4.234375 0l0 -1.40625l3.5 0l0 -1.9374695l-2.671875 0l0 -1.40625l2.671875 0l0 -2.375l1.40625 0q0.59375 0.078125 0.078125 0.453125l0 1.921875l2.21875 0l0 1.265625zm0 9.2812195l-3.78125 0l0 1.921875l3.78125 0l0 -1.921875zm-3.78125 -3.125l0 1.9375l3.78125 0l0 -1.9375l-3.78125 0zm2.0 -4.078125q0.671875 -0.59375 1.703125 -1.9374695l-2.140625 0l0 1.9374695l0.4375 0zm13.4375 -4.1562195l16.328125 0l0 1.625l-2.296875 0l0 12.1718445q0 1.421875 -1.34375 1.421875l-2.515625 0l-0.296875 -1.640625l2.140625 0q0.296875 0 0.296875 -0.296875l0 -11.6562195l-12.3125 0l0 -1.625zm9.796875 11.4218445l-1.703125 0l0 -0.65625l-4.09375 0l0 1.40625l-1.703125 0l0 -7.9375l7.5 0l0 7.1875zm-1.703125 -5.78125l-4.09375 0l0 3.703125l4.09375 0l0 -3.703125zm23.59375 -5.6405945l1.40625 0.140625q0.59375 0.078125 0.078125 0.453125l0 5.3437195q0 2.59375 -0.890625 4.296875l3.5625 2.90625l-1.109375 1.484375l-3.125 -3.125q-1.921875 2.671875 -6.96875 3.859375l-0.59375 -1.625q3.859375 -0.59375 5.71875 -2.453125q1.921875 -1.9375 1.921875 -5.859375l0 -5.4218445zm-2.59375 8.4530945q-2.375 1.9375 -8.3125 5.421875q-0.15625 0.59375 -0.515625 0.078125l-0.75 -1.5625q0.453125 -0.140625 1.859375 -0.890625l-0.453125 -11.0624695l1.5625 0.15625q0.59375 0.078125 0.078125 0.4375l0.375 9.7343445q3.328125 -1.9375 5.40625 -3.5625l0.75 1.25zm-3.125 -7.6405945q1.484375 1.046875 2.75 2.7499695l-1.484375 1.109375q-1.328125 -1.8593445 -2.515625 -2.6718445l1.25 -1.1875zm19.296875 14.4843445q-2.296875 0 -4.21875 -1.796875q-0.890625 1.046875 -2.75 2.09375l-0.59375 -1.859375q0.8125 -0.234375 2.515625 -1.34375l0 -4.828125l-2.296875 0l0 -1.40625l3.78125 0l0 6.15625q1.484375 1.34375 3.859375 1.34375l9.203125 0l-0.296875 1.640625l-9.203125 0zm1.046875 -14.4062195q1.859375 0.4375 2.375 0.671875l1.40625 -1.046875l-6.828125 0l0 -1.40625l8.46875 0l0.359375 -0.21875l1.125 0.8125q0.4375 0.375 -0.375 0.4375l-2.890625 1.9375l0.953125 0.4375l-0.890625 0.8905945l3.34375 0l0 8.46875q0 1.03125 -1.03125 1.03125l-1.640625 0l-0.078125 -1.40625l0.96875 0q0.296875 0 0.296875 -0.296875l0 -1.40625l-2.8125 0l0 2.890625l-1.484375 0l0 -2.890625l-2.671875 0l0 3.1875l-1.484375 0l0 -9.578125l5.484375 0q-3.109375 -1.2499695 -3.703125 -1.4062195l1.109375 -1.109375zm2.75 3.7030945l0 1.421875l2.8125 0l0 -1.421875l-2.8125 0zm-4.15625 0l0 1.421875l2.671875 0l0 -1.421875l-2.671875 0zm2.671875 2.609375l-2.671875 0l0 1.40625l2.671875 0l0 -1.40625zm4.296875 0l-2.8125 0l0 1.40625l2.8125 0l0 -1.40625zm-12.09375 -8.2499695q2.0 1.265625 2.75 2.453125l-1.265625 1.34375q-1.1875 -1.484375 -2.53125 -2.53125l1.046875 -1.265625z" fill-rule="nonzero"/><path fill="#000000" d="m629.0763 523.5742q2.25 -1.96875 2.984375 -2.46875l0 -5.328125q-1.75 0 -2.546875 0.078125l0 -1.453125q0.65625 0.140625 2.6875 0.140625l1.390625 0q-0.078125 1.09375 -0.078125 2.1875l0 4.515625q2.109375 1.828125 6.21875 1.859375q4.125 0.03125 6.53125 -0.328125q-0.4375 0.734375 -0.65625 1.828125l-4.359375 0q-1.828125 0 -3.359375 -0.109375q-1.53125 -0.109375 -2.59375 -0.625q-1.046875 -0.515625 -1.859375 -1.09375q-0.796875 -0.578125 -1.484375 0.109375q-0.6875 0.6875 -1.5625 1.9375q-0.4375 -0.734375 -1.3125 -1.25zm9.828125 -3.0625q1.6875 0.078125 2.125 -0.0625q0.4375 -0.15625 0.4375 -1.25l0 -6.625l-4.75 0q-0.796875 0 -1.75 0.078125l0 -1.3905945q0.953125 0.078125 2.34375 0.078125l4.15625 0q0 -1.90625 -0.15625 -3.28125l1.671875 0q-0.0625 0.9375 -0.0625 3.28125q1.53125 0 2.765625 -0.078125l0 1.3905945q-1.171875 -0.078125 -2.765625 -0.078125l0 7.21875q0 1.671875 -0.984375 2.0q-0.984375 0.328125 -2.4375 0.40625q-0.15625 -0.8125 -0.59375 -1.6875zm-1.453125 -2.1875q-0.65625 -1.953125 -1.609375 -3.640625q0.65625 -0.28125 1.390625 -0.796875q1.3125 2.625 1.671875 3.640625q-0.5 0.296875 -1.453125 0.796875zm-5.75 -9.8280945q0.71875 0.875 2.25 3.203125q-0.734375 0.43746948 -1.375 0.9530945q-1.46875 -2.4843445 -2.1875 -3.1405945q0.65625 -0.359375 1.3125 -1.015625z" fill-rule="nonzero"/><path fill="#000000" d="m657.54504 514.52734l1.78125 -1.1875l-6.53125 0l0 -1.1875l8.015625 0l0.4375 -0.29684448l1.046875 0.7499695q0.296875 0.4375 -0.296875 0.375q-1.1875 0.890625 -3.34375 2.140625q0.4375 0.234375 0.890625 0.53125l-0.890625 0.953125q-1.9375 -1.1875 -3.640625 -1.921875l0.75 -0.96875l1.78125 0.8125zm-8.09375 -5.0468445l6.453125 0l0 -1.921875l1.640625 0q0.734375 0.140625 0.0625 0.59375l0 1.328125l6.984375 0l0 1.421875l-13.65625 0l0 6.8905945q0 4.3125 -1.484375 6.390625l-1.34375 -1.109375q1.34375 -1.484375 1.34375 -5.28125l0 -8.3124695zm2.21875 8.7655945l0 -1.40625l11.359375 0l0.375 -0.375l1.1875 1.1875q0.21875 0.4375 -0.453125 0.375q-1.625 1.546875 -3.625 3.109375l-0.96875 -1.1875q1.328125 -0.8125 2.15625 -1.703125l-3.046875 0l0 4.90625q0 1.328125 -1.1875 1.328125l-1.78125 0l-0.15625 -1.40625l1.421875 0q0.21875 0 0.21875 -0.234375l0 -4.59375l-5.5 0zm20.125 -4.375q-0.15625 0.4375 -0.75 1.78125q1.5625 0.734375 2.671875 1.625q0.453125 -1.625 0.59375 -3.40625l-2.515625 0zm-1.421875 2.890625q-1.1875 1.78125 -2.375 2.515625l-0.890625 -1.40625q3.34375 -2.671875 3.859375 -7.6405945l-2.671875 0l0 -1.40625l8.6875 0l0 1.40625l-4.53125 0q0 0.375 -0.359375 2.2187195l3.859375 0q0.140625 9.0625 -6.90625 12.03125l-0.96875 -1.5625q3.71875 -1.625 4.96875 -4.078125q-0.65625 -0.890625 -2.671875 -2.078125zm10.984375 -8.3905945l1.421875 0q0.59375 0.078125 0.0625 0.453125l0 14.0937195q0 1.125 -0.890625 1.125l-2.21875 0l-0.15625 -1.421875l1.484375 0q0.296875 0 0.296875 -0.296875l0 -13.9530945zm-2.375 2.0q0.59375 0.078125 0.078125 0.453125l0 9.7968445l-1.484375 0l0 -10.2499695l1.40625 0zm9.734375 10.1718445q1.25 -2.21875 1.84375 -4.078125l-4.75 0l0 -1.40625l17.15625 0l0 1.40625l-10.6875 0q-0.296875 0.890625 -0.59375 1.5625l8.828125 0q-0.59375 4.453125 -1.640625 5.859375q-0.59375 0.75 -2.21875 0.59375l-2.0 -0.21875l-0.078125 -1.640625l2.296875 0.21875q0.75 0.078125 1.109375 -0.734375q0.15625 -0.375 0.671875 -2.671875l-7.421875 0q-0.296875 0.734375 -0.8125 1.625l-1.703125 -0.515625zm1.703125 -10.9843445l0 2.4530945l7.9375 0l0 -2.4530945l-7.9375 0zm7.9375 4.3749695l0 -0.515625l-7.9375 0l0 0.671875l-1.484375 0l0 -5.9374695l10.90625 0l0 5.7812195l-1.484375 0zm10.90625 -2.1405945q1.1875 1.1874695 1.71875 2.4374695l-1.34375 0.890625q-0.59375 -1.328125 -1.625 -2.375l1.25 -0.9530945zm-3.921875 10.3905945q4.671875 -1.78125 7.125 -5.34375l-6.90625 0l0 -1.421875l7.265625 0l0 -3.9218445l-6.296875 0l0 -1.421875l6.296875 0l0 -2.515625l1.421875 0q0.59375 0.078125 0.0625 0.4375l0 2.078125l6.234375 0l0 1.421875l-6.234375 0l0 3.9218445l1.1875 0l1.484375 -3.5624695l1.5625 0.7499695q0.296875 0.296875 -0.21875 0.375l-1.34375 2.4375l4.53125 0l0 1.421875l-6.828125 0q2.375 3.40625 7.046875 4.96875l-0.890625 1.5625q-4.0 -1.5625 -6.53125 -4.75l0 5.859375l-1.484375 0l0 -5.796875q-2.296875 3.203125 -6.671875 5.0625l-0.8125 -1.5625z" fill-rule="nonzero"/><path fill="#000000" d="m735.0294 512.79297q-0.21875 0.875 -0.375 2.40625q-0.140625 1.53125 -0.4375 3.28125l3.421875 0q1.3125 0 2.78125 -0.078125l0 1.390625q-1.53125 -0.078125 -2.84375 -0.078125l-3.71875 0q-0.65625 1.453125 -1.96875 2.546875q-1.3125 1.09375 -3.0625 1.71875q-1.75 0.625 -3.125 0.984375q-0.296875 -0.875 -1.25 -1.390625q2.125 -0.21875 4.515625 -1.203125q2.40625 -0.984375 3.359375 -2.65625l-5.171875 0q-1.3125 0 -2.921875 0.078125l0 -1.390625q1.6875 0.078125 2.921875 0.078125l5.6875 0q0.21875 -1.234375 0.328125 -2.65625q0.109375 -1.421875 0.03125 -3.46875q0.875 0.296875 1.828125 0.4375zm-2.5625 -5.0937195q0.59375 1.15625 1.03125 2.546875l6.328125 0q-0.0625 0.796875 -0.0625 1.59375q0 0.7343445 0.0625 1.6093445l-1.671875 0l0 -2.0468445l-11.578125 0l0 2.1874695l-1.609375 0q0.078125 -0.875 0.078125 -1.6718445q0 -0.875 -0.078125 -1.671875l6.703125 0q-0.21875 -0.875 -0.796875 -2.046875q0.578125 -0.21875 1.59375 -0.5zm2.1875 12.8905945q1.609375 0.875 3.0625 1.640625q1.453125 0.765625 2.546875 1.421875q-0.5 0.578125 -1.09375 1.234375q-1.3125 -0.9375 -2.84375 -1.78125q-1.515625 -0.84375 -2.609375 -1.28125q0.578125 -0.71875 0.9375 -1.234375zm-8.234375 -5.609375q1.25 0.578125 3.421875 2.046875q-0.28125 0.4375 -0.875 1.15625q-2.03125 -1.53125 -3.265625 -2.03125q0.4375 -0.4375 0.71875 -1.171875zm5.765625 -0.21875q-0.515625 0.578125 -0.875 1.171875q-2.34375 -1.6875 -3.4375 -2.046875q0.375 -0.515625 0.8125 -1.171875l3.5 2.046875zm23.03125 -2.9843445q-0.296875 0.7968445 -0.40625 2.5468445q-0.109375 1.75 -0.46875 3.71875l1.453125 0q-0.078125 0.71875 -0.078125 1.96875l0 2.328125q0 1.09375 0.390625 1.15625q0.40625 0.078125 0.921875 0.046875q0.515625 -0.03125 0.734375 -0.515625q0.21875 -0.46875 0.28125 -1.703125q0.734375 0.4375 1.609375 0.578125q-0.359375 1.53125 -0.734375 2.078125q-0.359375 0.546875 -1.53125 0.6875l-1.453125 0q-1.59375 0 -1.59375 -1.375l0 -5.109375q-0.65625 2.328125 -1.90625 3.90625q-1.234375 1.5625 -3.71875 2.875q-0.359375 -0.578125 -1.234375 -1.015625q2.328125 -0.953125 3.421875 -2.078125q1.09375 -1.140625 1.75 -2.875q0.65625 -1.75 0.765625 -3.640625q0.109375 -1.90625 0.046875 -3.7968445q0.9375 0.140625 1.75 0.21875zm-8.171875 -2.265625q0.796875 0 1.96875 -0.078125l0 1.390625q-1.171875 -0.078125 -2.484375 -0.078125l0 4.0155945q1.03125 0 2.1875 -0.078125l0 1.390625q-1.15625 -0.078125 -2.1875 -0.078125l0 4.453125q1.25 -0.296875 2.5625 -0.734375q-0.078125 0.796875 -0.078125 1.390625q-2.40625 0.578125 -3.859375 1.09375q-1.453125 0.5 -2.1875 0.875q-0.21875 -1.03125 -0.578125 -1.75q1.15625 -0.15625 2.84375 -0.515625l0 -4.8125q-1.171875 0 -2.265625 0.078125l0 -1.390625q1.09375 0.078125 2.265625 0.078125l0 -4.0155945q-1.3125 0 -2.34375 0.078125l0 -1.390625q0.875 0.078125 1.6875 0.078125l2.46875 0zm11.375 -0.71875q-0.078125 1.15625 -0.078125 2.328125l0 4.8749695q0 1.390625 0.078125 2.40625l-1.390625 0l0 -8.4530945l-5.53125 0l0 8.5312195l-1.390625 0q0.078125 -1.234375 0.078125 -2.765625l0 -4.0155945q0 -1.609375 -0.078125 -2.90625l8.3125 0z" fill-rule="nonzero"/></g></svg>