<svg version="1.1" viewBox="0.0 0.0 960.0 720.0" fill="none" stroke="none" stroke-linecap="square" stroke-miterlimit="10" xmlns:xlink="http://www.w3.org/1999/xlink" xmlns="http://www.w3.org/2000/svg"><clipPath id="p.0"><path d="m0 0l960.0 0l0 720.0l-960.0 0l0 -720.0z" clip-rule="nonzero"/></clipPath><g clip-path="url(#p.0)"><path fill="#000000" fill-opacity="0.0" d="m0 0l960.0 0l0 720.0l-960.0 0z" fill-rule="evenodd"/><path fill="#cfe2f3" d="m147.00262 130.91077l107.93701 0l0 59.716537l-107.93701 0z" fill-rule="evenodd"/><path stroke="#000000" stroke-width="1.0" stroke-linejoin="round" stroke-linecap="butt" d="m147.00262 130.91077l107.93701 0l0 59.716537l-107.93701 0z" fill-rule="evenodd"/><path fill="#cfe2f3" d="m254.93964 130.91077l107.93701 0l0 59.716537l-107.93701 0z" fill-rule="evenodd"/><path stroke="#000000" stroke-width="1.0" stroke-linejoin="round" stroke-linecap="butt" d="m254.93964 130.91077l107.93701 0l0 59.716537l-107.93701 0z" fill-rule="evenodd"/><path fill="#cfe2f3" d="m362.87665 130.91077l107.93701 0l0 59.716537l-107.93701 0z" fill-rule="evenodd"/><path stroke="#000000" stroke-width="1.0" stroke-linejoin="round" stroke-linecap="butt" d="m362.87665 130.91077l107.93701 0l0 59.716537l-107.93701 0z" fill-rule="evenodd"/><path fill="#cfe2f3" d="m470.81366 130.91077l107.93701 0l0 59.716537l-107.93701 0z" fill-rule="evenodd"/><path stroke="#000000" stroke-width="1.0" stroke-linejoin="round" stroke-linecap="butt" d="m470.81366 130.91077l107.93701 0l0 59.716537l-107.93701 0z" fill-rule="evenodd"/><path fill="#cfe2f3" d="m578.7507 130.91077l107.93701 0l0 59.716537l-107.93701 0z" fill-rule="evenodd"/><path stroke="#000000" stroke-width="1.0" stroke-linejoin="round" stroke-linecap="butt" d="m578.7507 130.91077l107.93701 0l0 59.716537l-107.93701 0z" fill-rule="evenodd"/><path fill="#cfe2f3" d="m686.6877 130.91077l107.93701 0l0 59.716537l-107.93701 0z" fill-rule="evenodd"/><path stroke="#000000" stroke-width="1.0" stroke-linejoin="round" stroke-linecap="butt" d="m686.6877 130.91077l107.93701 0l0 59.716537l-107.93701 0z" fill-rule="evenodd"/><path fill="#cfe2f3" d="m147.00262 476.48032l107.93701 0l0 59.716522l-107.93701 0z" fill-rule="evenodd"/><path stroke="#000000" stroke-width="1.0" stroke-linejoin="round" stroke-linecap="butt" d="m147.00262 476.48032l107.93701 0l0 59.716522l-107.93701 0z" fill-rule="evenodd"/><path fill="#cfe2f3" d="m254.93964 476.48032l107.93701 0l0 59.716522l-107.93701 0z" fill-rule="evenodd"/><path stroke="#000000" stroke-width="1.0" stroke-linejoin="round" stroke-linecap="butt" d="m254.93964 476.48032l107.93701 0l0 59.716522l-107.93701 0z" fill-rule="evenodd"/><path fill="#cfe2f3" d="m362.87665 476.48032l107.93701 0l0 59.716522l-107.93701 0z" fill-rule="evenodd"/><path stroke="#000000" stroke-width="1.0" stroke-linejoin="round" stroke-linecap="butt" d="m362.87665 476.48032l107.93701 0l0 59.716522l-107.93701 0z" fill-rule="evenodd"/><path fill="#cfe2f3" d="m470.81366 476.48032l107.93701 0l0 59.716522l-107.93701 0z" fill-rule="evenodd"/><path stroke="#000000" stroke-width="1.0" stroke-linejoin="round" stroke-linecap="butt" d="m470.81366 476.48032l107.93701 0l0 59.716522l-107.93701 0z" fill-rule="evenodd"/><path fill="#cfe2f3" d="m578.7507 476.48032l107.93701 0l0 59.716522l-107.93701 0z" fill-rule="evenodd"/><path stroke="#000000" stroke-width="1.0" stroke-linejoin="round" stroke-linecap="butt" d="m578.7507 476.48032l107.93701 0l0 59.716522l-107.93701 0z" fill-rule="evenodd"/><path fill="#cfe2f3" d="m686.6877 476.48032l107.93701 0l0 59.716522l-107.93701 0z" fill-rule="evenodd"/><path stroke="#000000" stroke-width="1.0" stroke-linejoin="round" stroke-linecap="butt" d="m686.6877 476.48032l107.93701 0l0 59.716522l-107.93701 0z" fill-rule="evenodd"/><path fill="#000000" fill-opacity="0.0" d="m242.29659 227.36745l0 196.37794" fill-rule="evenodd"/><path stroke="#000000" stroke-width="1.0" stroke-linejoin="round" stroke-linecap="butt" d="m242.29659 227.36745l0 196.37794" fill-rule="evenodd"/><path fill="#000000" fill-opacity="0.0" d="m676.2861 227.36745l0 196.37794" fill-rule="evenodd"/><path stroke="#000000" stroke-width="1.0" stroke-linejoin="round" stroke-linecap="butt" d="m676.2861 227.36745l0 196.37794" fill-rule="evenodd"/><path fill="#000000" fill-opacity="0.0" d="m231.96063 105.068245l469.6693 0l0 111.40157l-469.6693 0z" fill-rule="evenodd"/><path stroke="#000000" stroke-width="1.0" stroke-linejoin="round" stroke-linecap="butt" d="m231.96063 105.068245l469.6693 0l0 111.40157l-469.6693 0z" fill-rule="evenodd"/><path fill="#000000" fill-opacity="0.0" d="m344.41995 450.6378l469.66928 0l0 111.40158l-469.66928 0z" fill-rule="evenodd"/><path stroke="#000000" stroke-width="1.0" stroke-linejoin="round" stroke-linecap="butt" d="m344.41995 450.6378l469.66928 0l0 111.40158l-469.66928 0z" fill-rule="evenodd"/><path fill="#000000" fill-opacity="0.0" d="m686.6877 256.0761l81.543274 0l0 77.165344l-81.543274 0z" fill-rule="evenodd"/><path fill="#000000" d="m705.85956 282.32425l7.34375 0l0 1.421875l-16.03125 0l0 -1.421875l7.203125 0l0 -4.59375l-5.125 0l0 -1.421875l5.125 0l0 -3.625l-6.53125 0l0 -1.421875l7.265625 0q-1.1875 -1.40625 -2.671875 -2.4375l1.265625 -1.125q1.484375 0.96875 2.96875 2.53125l-1.328125 1.03125l7.046875 0l0 1.421875l-6.53125 0l0 3.625l5.125 0l0 1.421875l-5.125 0l0 4.59375zm15.359375 0.828125q2.75 -1.265625 2.75 -5.578125l0 -8.53125l5.78125 0l0 12.84375q0 0.59375 0.53125 0.59375l0.4375 0q0.375 0 0.453125 -0.53125l0.140625 -1.546875l1.5625 0.59375l-0.296875 1.84375q-0.15625 1.046875 -1.1875 1.046875l-1.78125 0q-1.34375 0 -1.34375 -1.265625l0 -12.171875l-2.8125 0l0 7.046875q0 5.34375 -3.1875 7.0625l-1.046875 -1.40625zm-0.4375 1.40625l-1.484375 0l0 -7.578125q-1.046875 2.375 -2.609375 4.078125l-0.953125 -1.625q2.96875 -3.046875 3.40625 -6.3125l-2.96875 0l0 -1.40625l3.125 0l0 -3.9375l1.40625 0q0.734375 0.078125 0.078125 0.453125l0 3.484375l2.59375 0l0 1.40625l-2.59375 0l0 2.234375q1.328125 0.59375 2.671875 1.625l-0.828125 1.703125q-0.890625 -0.953125 -1.84375 -1.78125l0 7.65625z" fill-rule="nonzero"/><path fill="#000000" d="m735.04706 282.99612l0 -13.359375l5.015625 0q1.53125 0 2.453125 0.40625q0.921875 0.40625 1.4375 1.25q0.53125 0.84375 0.53125 1.765625q0 0.859375 -0.46875 1.625q-0.453125 0.75 -1.390625 1.203125q1.203125 0.359375 1.859375 1.21875q0.65625 0.859375 0.65625 2.015625q0 0.9375 -0.40625 1.75q-0.390625 0.796875 -0.984375 1.234375q-0.578125 0.4375 -1.453125 0.671875q-0.875 0.21875 -2.15625 0.21875l-5.09375 0zm1.78125 -7.75l2.875 0q1.1875 0 1.6875 -0.140625q0.671875 -0.203125 1.015625 -0.671875q0.34375 -0.46875 0.34375 -1.171875q0 -0.65625 -0.328125 -1.15625q-0.3125 -0.515625 -0.90625 -0.703125q-0.59375 -0.1875 -2.03125 -0.1875l-2.65625 0l0 4.03125zm0 6.171875l3.3125 0q0.859375 0 1.203125 -0.0625q0.609375 -0.109375 1.015625 -0.359375q0.421875 -0.265625 0.6875 -0.75q0.265625 -0.484375 0.265625 -1.125q0 -0.75 -0.390625 -1.296875q-0.375 -0.546875 -1.0625 -0.765625q-0.671875 -0.234375 -1.953125 -0.234375l-3.078125 0l0 4.59375z" fill-rule="nonzero"/><path fill="#000000" fill-opacity="0.0" d="m166.43045 267.48294l81.543304 0l0 77.165344l-81.543304 0z" fill-rule="evenodd"/><path fill="#000000" d="m185.60233 293.73105l7.34375 0l0 1.421875l-16.03125 0l0 -1.421875l7.203125 0l0 -4.59375l-5.125 0l0 -1.421875l5.125 0l0 -3.625l-6.53125 0l0 -1.421875l7.265625 0q-1.1875 -1.40625 -2.671875 -2.4375l1.265625 -1.125q1.484375 0.96875 2.96875 2.53125l-1.328125 1.03125l7.046875 0l0 1.421875l-6.53125 0l0 3.625l5.125 0l0 1.421875l-5.125 0l0 4.59375zm15.359375 0.828125q2.75 -1.265625 2.75 -5.578125l0 -8.53125l5.78125 0l0 12.84375q0 0.59375 0.53125 0.59375l0.4375 0q0.375 0 0.453125 -0.53125l0.140625 -1.546875l1.5625 0.59375l-0.296875 1.84375q-0.15625 1.046875 -1.1875 1.046875l-1.78125 0q-1.34375 0 -1.34375 -1.265625l0 -12.171875l-2.8125 0l0 7.046875q0 5.34375 -3.1875 7.0625l-1.046875 -1.40625zm-0.4375 1.40625l-1.484375 0l0 -7.578125q-1.046875 2.375 -2.609375 4.078125l-0.953125 -1.625q2.96875 -3.046875 3.40625 -6.3125l-2.96875 0l0 -1.40625l3.125 0l0 -3.9375l1.40625 0q0.734375 0.078125 0.078125 0.453125l0 3.484375l2.59375 0l0 1.40625l-2.59375 0l0 2.234375q1.328125 0.59375 2.671875 1.625l-0.828125 1.703125q-0.890625 -0.953125 -1.84375 -1.78125l0 7.65625z" fill-rule="nonzero"/><path fill="#000000" d="m213.3992 294.40292l5.125 -13.359375l1.90625 0l5.46875 13.359375l-2.015625 0l-1.546875 -4.046875l-5.59375 0l-1.46875 4.046875l-1.875 0zm3.859375 -5.484375l4.53125 0l-1.40625 -3.703125q-0.625 -1.6875 -0.9375 -2.765625q-0.265625 1.28125 -0.71875 2.546875l-1.46875 3.921875z" fill-rule="nonzero"/><path fill="#000000" fill-opacity="0.0" d="m128.61154 91.86614l763.6221 0l0 77.16535l-763.6221 0z" fill-rule="evenodd"/><path fill="#000000" d="m149.74797 118.78614l-1.640625 0l0 -10.453125q-0.59375 0.5625 -1.5625 1.140625q-0.953125 0.5625 -1.71875 0.84375l0 -1.59375q1.375 -0.640625 2.40625 -1.5625q1.03125 -0.921875 1.453125 -1.78125l1.0625 0l0 13.40625z" fill-rule="nonzero"/><path fill="#000000" d="m240.56467 118.78614l-1.640625 0l0 -10.453125q-0.59375 0.5625 -1.5625 1.140625q-0.953125 0.5625 -1.71875 0.84375l0 -1.59375q1.375 -0.640625 2.40625 -1.5625q1.03125 -0.921875 1.453125 -1.78125l1.0625 0l0 13.40625zm4.203842 -6.59375q0 -2.359375 0.484375 -3.796875q0.484375 -1.453125 1.4375 -2.234375q0.96875 -0.78125 2.421875 -0.78125q1.078125 0 1.890625 0.4375q0.8125 0.421875 1.328125 1.25q0.53125 0.8125 0.828125 1.984375q0.3125 1.15625 0.3125 3.140625q0 2.359375 -0.484375 3.8125q-0.484375 1.4375 -1.453125 2.234375q-0.953125 0.78125 -2.421875 0.78125q-1.921875 0 -3.03125 -1.390625q-1.3125 -1.671875 -1.3125 -5.4375zm1.671875 0q0 3.296875 0.765625 4.390625q0.78125 1.078125 1.90625 1.078125q1.140625 0 1.90625 -1.09375q0.765625 -1.09375 0.765625 -4.375q0 -3.296875 -0.765625 -4.375q-0.765625 -1.078125 -1.921875 -1.078125q-1.125 0 -1.796875 0.953125q-0.859375 1.21875 -0.859375 4.5zm8.703842 0q0 -2.359375 0.484375 -3.796875q0.484375 -1.453125 1.4375 -2.234375q0.96875 -0.78125 2.421875 -0.78125q1.078125 0 1.890625 0.4375q0.8125 0.421875 1.328125 1.25q0.53125 0.8125 0.828125 1.984375q0.3125 1.15625 0.3125 3.140625q0 2.359375 -0.484375 3.8125q-0.484375 1.4375 -1.453125 2.234375q-0.953125 0.78125 -2.421875 0.78125q-1.921875 0 -3.03125 -1.390625q-1.3125 -1.671875 -1.3125 -5.4375zm1.671875 0q0 3.296875 0.765625 4.390625q0.78125 1.078125 1.90625 1.078125q1.140625 0 1.90625 -1.09375q0.765625 -1.09375 0.765625 -4.375q0 -3.296875 -0.765625 -4.375q-0.765625 -1.078125 -1.921875 -1.078125q-1.125 0 -1.796875 0.953125q-0.859375 1.21875 -0.859375 4.5zm14.875732 6.59375l-1.640625 0l0 -10.453125q-0.59375 0.5625 -1.5625 1.140625q-0.953125 0.5625 -1.71875 0.84375l0 -1.59375q1.375 -0.640625 2.40625 -1.5625q1.03125 -0.921875 1.453125 -1.78125l1.0625 0l0 13.40625z" fill-rule="nonzero"/><path fill="#000000" d="m339.00217 117.208015l0 1.578125l-8.828125 0q-0.015625 -0.59375 0.1875 -1.140625q0.34375 -0.90625 1.078125 -1.78125q0.75 -0.875 2.15625 -2.015625q2.171875 -1.78125 2.9375 -2.828125q0.765625 -1.046875 0.765625 -1.96875q0 -0.984375 -0.703125 -1.640625q-0.6875 -0.671875 -1.8125 -0.671875q-1.1875 0 -1.90625 0.71875q-0.703125 0.703125 -0.703125 1.953125l-1.6875 -0.171875q0.171875 -1.890625 1.296875 -2.875q1.140625 -0.984375 3.03125 -0.984375q1.921875 0 3.046875 1.0625q1.125 1.0625 1.125 2.640625q0 0.796875 -0.328125 1.578125q-0.328125 0.78125 -1.09375 1.640625q-0.75 0.84375 -2.53125 2.34375q-1.46875 1.234375 -1.890625 1.6875q-0.421875 0.4375 -0.6875 0.875l6.546875 0zm1.7663574 -5.015625q0 -2.359375 0.484375 -3.796875q0.484375 -1.453125 1.4375 -2.234375q0.96875 -0.78125 2.421875 -0.78125q1.078125 0 1.890625 0.4375q0.8125 0.421875 1.328125 1.25q0.53125 0.8125 0.828125 1.984375q0.3125 1.15625 0.3125 3.140625q0 2.359375 -0.484375 3.8125q-0.484375 1.4375 -1.453125 2.234375q-0.953125 0.78125 -2.421875 0.78125q-1.921875 0 -3.03125 -1.390625q-1.3125 -1.671875 -1.3125 -5.4375zm1.671875 0q0 3.296875 0.765625 4.390625q0.78125 1.078125 1.90625 1.078125q1.140625 0 1.90625 -1.09375q0.765625 -1.09375 0.765625 -4.375q0 -3.296875 -0.765625 -4.375q-0.765625 -1.078125 -1.921875 -1.078125q-1.125 0 -1.796875 0.953125q-0.859375 1.21875 -0.859375 4.5zm8.703827 0q0 -2.359375 0.484375 -3.796875q0.484375 -1.453125 1.4375 -2.234375q0.96875 -0.78125 2.421875 -0.78125q1.078125 0 1.890625 0.4375q0.8125 0.421875 1.328125 1.25q0.53125 0.8125 0.828125 1.984375q0.3125 1.15625 0.3125 3.140625q0 2.359375 -0.484375 3.8125q-0.484375 1.4375 -1.453125 2.234375q-0.953125 0.78125 -2.421875 0.78125q-1.921875 0 -3.03125 -1.390625q-1.3125 -1.671875 -1.3125 -5.4375zm1.671875 0q0 3.296875 0.765625 4.390625q0.78125 1.078125 1.90625 1.078125q1.140625 0 1.90625 -1.09375q0.765625 -1.09375 0.765625 -4.375q0 -3.296875 -0.765625 -4.375q-0.765625 -1.078125 -1.921875 -1.078125q-1.125 0 -1.796875 0.953125q-0.859375 1.21875 -0.859375 4.5zm14.875732 6.59375l-1.640625 0l0 -10.453125q-0.59375 0.5625 -1.5625 1.140625q-0.953125 0.5625 -1.71875 0.84375l0 -1.59375q1.375 -0.640625 2.40625 -1.5625q1.03125 -0.921875 1.453125 -1.78125l1.0625 0l0 13.40625z" fill-rule="nonzero"/><path fill="#000000" d="m431.57608 115.25489l1.640625 -0.21875q0.28125 1.40625 0.953125 2.015625q0.6875 0.609375 1.65625 0.609375q1.15625 0 1.953125 -0.796875q0.796875 -0.796875 0.796875 -1.984375q0 -1.125 -0.734375 -1.859375q-0.734375 -0.734375 -1.875 -0.734375q-0.46875 0 -1.15625 0.171875l0.1875 -1.4375q0.15625 0.015625 0.265625 0.015625q1.046875 0 1.875 -0.546875q0.84375 -0.546875 0.84375 -1.671875q0 -0.90625 -0.609375 -1.5q-0.609375 -0.59375 -1.578125 -0.59375q-0.953125 0 -1.59375 0.609375q-0.640625 0.59375 -0.8125 1.796875l-1.640625 -0.296875q0.296875 -1.640625 1.359375 -2.546875q1.0625 -0.90625 2.65625 -0.90625q1.09375 0 2.0 0.46875q0.921875 0.46875 1.40625 1.28125q0.5 0.8125 0.5 1.71875q0 0.859375 -0.46875 1.578125q-0.46875 0.703125 -1.375 1.125q1.1875 0.28125 1.84375 1.140625q0.65625 0.859375 0.65625 2.15625q0 1.734375 -1.28125 2.953125q-1.265625 1.21875 -3.21875 1.21875q-1.765625 0 -2.921875 -1.046875q-1.15625 -1.046875 -1.328125 -2.71875zm10.375732 -3.0625q0 -2.359375 0.484375 -3.796875q0.484375 -1.453125 1.4375 -2.234375q0.96875 -0.78125 2.421875 -0.78125q1.078125 0 1.890625 0.4375q0.8125 0.421875 1.328125 1.25q0.53125 0.8125 0.828125 1.984375q0.3125 1.15625 0.3125 3.140625q0 2.359375 -0.484375 3.8125q-0.484375 1.4375 -1.453125 2.234375q-0.953125 0.78125 -2.421875 0.78125q-1.921875 0 -3.03125 -1.390625q-1.3125 -1.671875 -1.3125 -5.4375zm1.671875 0q0 3.296875 0.765625 4.390625q0.78125 1.078125 1.90625 1.078125q1.140625 0 1.90625 -1.09375q0.765625 -1.09375 0.765625 -4.375q0 -3.296875 -0.765625 -4.375q-0.765625 -1.078125 -1.921875 -1.078125q-1.125 0 -1.796875 0.953125q-0.859375 1.21875 -0.859375 4.5zm8.703857 0q0 -2.359375 0.484375 -3.796875q0.484375 -1.453125 1.4375 -2.234375q0.96875 -0.78125 2.421875 -0.78125q1.078125 0 1.890625 0.4375q0.8125 0.421875 1.328125 1.25q0.53125 0.8125 0.828125 1.984375q0.3125 1.15625 0.3125 3.140625q0 2.359375 -0.484375 3.8125q-0.484375 1.4375 -1.453125 2.234375q-0.953125 0.78125 -2.421875 0.78125q-1.921875 0 -3.03125 -1.390625q-1.3125 -1.671875 -1.3125 -5.4375zm1.671875 0q0 3.296875 0.765625 4.390625q0.78125 1.078125 1.90625 1.078125q1.140625 0 1.90625 -1.09375q0.765625 -1.09375 0.765625 -4.375q0 -3.296875 -0.765625 -4.375q-0.765625 -1.078125 -1.921875 -1.078125q-1.125 0 -1.796875 0.953125q-0.859375 1.21875 -0.859375 4.5zm14.875702 6.59375l-1.640625 0l0 -10.453125q-0.59375 0.5625 -1.5625 1.140625q-0.953125 0.5625 -1.71875 0.84375l0 -1.59375q1.375 -0.640625 2.40625 -1.5625q1.03125 -0.921875 1.453125 -1.78125l1.0625 0l0 13.40625z" fill-rule="nonzero"/><path fill="#000000" d="m553.5593 118.78614l0 -3.203125l-5.796875 0l0 -1.5l6.09375 -8.65625l1.34375 0l0 8.65625l1.796875 0l0 1.5l-1.796875 0l0 3.203125l-1.640625 0zm0 -4.703125l0 -6.015625l-4.1875 6.015625l4.1875 0zm5.1257324 -1.890625q0 -2.359375 0.484375 -3.796875q0.484375 -1.453125 1.4375 -2.234375q0.96875 -0.78125 2.421875 -0.78125q1.078125 0 1.890625 0.4375q0.8125 0.421875 1.328125 1.25q0.53125 0.8125 0.828125 1.984375q0.3125 1.15625 0.3125 3.140625q0 2.359375 -0.484375 3.8125q-0.484375 1.4375 -1.453125 2.234375q-0.953125 0.78125 -2.421875 0.78125q-1.921875 0 -3.03125 -1.390625q-1.3125 -1.671875 -1.3125 -5.4375zm1.671875 0q0 3.296875 0.765625 4.390625q0.78125 1.078125 1.90625 1.078125q1.140625 0 1.90625 -1.09375q0.765625 -1.09375 0.765625 -4.375q0 -3.296875 -0.765625 -4.375q-0.765625 -1.078125 -1.921875 -1.078125q-1.125 0 -1.796875 0.953125q-0.859375 1.21875 -0.859375 4.5zm8.703857 0q0 -2.359375 0.484375 -3.796875q0.484375 -1.453125 1.4375 -2.234375q0.96875 -0.78125 2.421875 -0.78125q1.078125 0 1.890625 0.4375q0.8125 0.421875 1.328125 1.25q0.53125 0.8125 0.828125 1.984375q0.3125 1.15625 0.3125 3.140625q0 2.359375 -0.484375 3.8125q-0.484375 1.4375 -1.453125 2.234375q-0.953125 0.78125 -2.421875 0.78125q-1.921875 0 -3.03125 -1.390625q-1.3125 -1.671875 -1.3125 -5.4375zm1.671875 0q0 3.296875 0.765625 4.390625q0.78125 1.078125 1.90625 1.078125q1.140625 0 1.90625 -1.09375q0.765625 -1.09375 0.765625 -4.375q0 -3.296875 -0.765625 -4.375q-0.765625 -1.078125 -1.921875 -1.078125q-1.125 0 -1.796875 0.953125q-0.859375 1.21875 -0.859375 4.5zm14.875671 6.59375l-1.640625 0l0 -10.453125q-0.59375 0.5625 -1.5625 1.140625q-0.953125 0.5625 -1.71875 0.84375l0 -1.59375q1.375 -0.640625 2.40625 -1.5625q1.03125 -0.921875 1.453125 -1.78125l1.0625 0l0 13.40625z" fill-rule="nonzero"/><path fill="#000000" d="m666.3928 115.28614l1.71875 -0.140625q0.1875 1.25 0.875 1.890625q0.703125 0.625 1.6875 0.625q1.1875 0 2.0 -0.890625q0.828125 -0.890625 0.828125 -2.359375q0 -1.40625 -0.796875 -2.21875q-0.78125 -0.8125 -2.0625 -0.8125q-0.78125 0 -1.421875 0.359375q-0.640625 0.359375 -1.0 0.9375l-1.546875 -0.203125l1.296875 -6.859375l6.640625 0l0 1.5625l-5.328125 0l-0.71875 3.59375q1.203125 -0.84375 2.515625 -0.84375q1.75 0 2.953125 1.21875q1.203125 1.203125 1.203125 3.109375q0 1.8125 -1.046875 3.140625q-1.296875 1.625 -3.515625 1.625q-1.8125 0 -2.96875 -1.015625q-1.15625 -1.03125 -1.3125 -2.71875zm10.375732 -3.09375q0 -2.359375 0.484375 -3.796875q0.484375 -1.453125 1.4375 -2.234375q0.96875 -0.78125 2.421875 -0.78125q1.078125 0 1.890625 0.4375q0.8125 0.421875 1.328125 1.25q0.53125 0.8125 0.828125 1.984375q0.3125 1.15625 0.3125 3.140625q0 2.359375 -0.484375 3.8125q-0.484375 1.4375 -1.453125 2.234375q-0.953125 0.78125 -2.421875 0.78125q-1.921875 0 -3.03125 -1.390625q-1.3125 -1.671875 -1.3125 -5.4375zm1.671875 0q0 3.296875 0.765625 4.390625q0.78125 1.078125 1.90625 1.078125q1.140625 0 1.90625 -1.09375q0.765625 -1.09375 0.765625 -4.375q0 -3.296875 -0.765625 -4.375q-0.765625 -1.078125 -1.921875 -1.078125q-1.125 0 -1.796875 0.953125q-0.859375 1.21875 -0.859375 4.5zm8.703857 0q0 -2.359375 0.484375 -3.796875q0.484375 -1.453125 1.4375 -2.234375q0.96875 -0.78125 2.421875 -0.78125q1.078125 0 1.890625 0.4375q0.8125 0.421875 1.328125 1.25q0.53125 0.8125 0.828125 1.984375q0.3125 1.15625 0.3125 3.140625q0 2.359375 -0.484375 3.8125q-0.484375 1.4375 -1.453125 2.234375q-0.953125 0.78125 -2.421875 0.78125q-1.921875 0 -3.03125 -1.390625q-1.3125 -1.671875 -1.3125 -5.4375zm1.671875 0q0 3.296875 0.765625 4.390625q0.78125 1.078125 1.90625 1.078125q1.140625 0 1.90625 -1.09375q0.765625 -1.09375 0.765625 -4.375q0 -3.296875 -0.765625 -4.375q-0.765625 -1.078125 -1.921875 -1.078125q-1.125 0 -1.796875 0.953125q-0.859375 1.21875 -0.859375 4.5zm14.875671 6.59375l-1.640625 0l0 -10.453125q-0.59375 0.5625 -1.5625 1.140625q-0.953125 0.5625 -1.71875 0.84375l0 -1.59375q1.375 -0.640625 2.40625 -1.5625q1.03125 -0.921875 1.453125 -1.78125l1.0625 0l0 13.40625z" fill-rule="nonzero"/><path fill="#000000" d="m770.8928 108.708015l-1.625 0.125q-0.21875 -0.96875 -0.625 -1.40625q-0.65625 -0.703125 -1.640625 -0.703125q-0.78125 0 -1.375 0.4375q-0.765625 0.5625 -1.21875 1.65625q-0.453125 1.078125 -0.46875 3.078125q0.59375 -0.890625 1.453125 -1.328125q0.859375 -0.4375 1.796875 -0.4375q1.640625 0 2.78125 1.203125q1.15625 1.203125 1.15625 3.109375q0 1.265625 -0.546875 2.34375q-0.53125 1.078125 -1.484375 1.65625q-0.9375 0.578125 -2.140625 0.578125q-2.0625 0 -3.359375 -1.5q-1.28125 -1.515625 -1.28125 -4.984375q0 -3.875 1.421875 -5.625q1.25 -1.53125 3.375 -1.53125q1.5625 0 2.5625 0.890625q1.015625 0.875 1.21875 2.4375zm-6.6875 5.75q0 0.84375 0.359375 1.625q0.359375 0.765625 1.0 1.171875q0.640625 0.40625 1.359375 0.40625q1.03125 0 1.78125 -0.828125q0.75 -0.84375 0.75 -2.28125q0 -1.390625 -0.734375 -2.1875q-0.734375 -0.796875 -1.859375 -0.796875q-1.109375 0 -1.890625 0.796875q-0.765625 0.796875 -0.765625 2.09375zm8.563232 -2.265625q0 -2.359375 0.484375 -3.796875q0.484375 -1.453125 1.4375 -2.234375q0.96875 -0.78125 2.421875 -0.78125q1.078125 0 1.890625 0.4375q0.8125 0.421875 1.328125 1.25q0.53125 0.8125 0.828125 1.984375q0.3125 1.15625 0.3125 3.140625q0 2.359375 -0.484375 3.8125q-0.484375 1.4375 -1.453125 2.234375q-0.953125 0.78125 -2.421875 0.78125q-1.921875 0 -3.03125 -1.390625q-1.3125 -1.671875 -1.3125 -5.4375zm1.671875 0q0 3.296875 0.765625 4.390625q0.78125 1.078125 1.90625 1.078125q1.140625 0 1.90625 -1.09375q0.765625 -1.09375 0.765625 -4.375q0 -3.296875 -0.765625 -4.375q-0.765625 -1.078125 -1.921875 -1.078125q-1.125 0 -1.796875 0.953125q-0.859375 1.21875 -0.859375 4.5zm8.703857 0q0 -2.359375 0.484375 -3.796875q0.484375 -1.453125 1.4375 -2.234375q0.96875 -0.78125 2.421875 -0.78125q1.078125 0 1.890625 0.4375q0.8125 0.421875 1.328125 1.25q0.53125 0.8125 0.828125 1.984375q0.3125 1.15625 0.3125 3.140625q0 2.359375 -0.484375 3.8125q-0.484375 1.4375 -1.453125 2.234375q-0.953125 0.78125 -2.421875 0.78125q-1.921875 0 -3.03125 -1.390625q-1.3125 -1.671875 -1.3125 -5.4375zm1.671875 0q0 3.296875 0.765625 4.390625q0.78125 1.078125 1.90625 1.078125q1.140625 0 1.90625 -1.09375q0.765625 -1.09375 0.765625 -4.375q0 -3.296875 -0.765625 -4.375q-0.765625 -1.078125 -1.921875 -1.078125q-1.125 0 -1.796875 0.953125q-0.859375 1.21875 -0.859375 4.5zm14.875671 6.59375l-1.640625 0l0 -10.453125q-0.59375 0.5625 -1.5625 1.140625q-0.953125 0.5625 -1.71875 0.84375l0 -1.59375q1.375 -0.640625 2.40625 -1.5625q1.03125 -0.921875 1.453125 -1.78125l1.0625 0l0 13.40625z" fill-rule="nonzero"/><path fill="#000000" fill-opacity="0.0" d="m128.61154 443.09973l763.6221 0l0 77.165344l-763.6221 0z" fill-rule="evenodd"/><path fill="#000000" d="m149.74797 470.01974l-1.640625 0l0 -10.453125q-0.59375 0.5625 -1.5625 1.140625q-0.953125 0.5625 -1.71875 0.84375l0 -1.59375q1.375 -0.640625 2.40625 -1.5625q1.03125 -0.921875 1.453125 -1.78125l1.0625 0l0 13.40625z" fill-rule="nonzero"/><path fill="#000000" d="m240.56467 470.01974l-1.640625 0l0 -10.453125q-0.59375 0.5625 -1.5625 1.140625q-0.953125 0.5625 -1.71875 0.84375l0 -1.59375q1.375 -0.640625 2.40625 -1.5625q1.03125 -0.921875 1.453125 -1.78125l1.0625 0l0 13.40625zm4.203842 -6.59375q0 -2.359375 0.484375 -3.796875q0.484375 -1.453125 1.4375 -2.234375q0.96875 -0.78125 2.421875 -0.78125q1.078125 0 1.890625 0.4375q0.8125 0.421875 1.328125 1.25q0.53125 0.8125 0.828125 1.984375q0.3125 1.15625 0.3125 3.140625q0 2.359375 -0.484375 3.8125q-0.484375 1.4375 -1.453125 2.234375q-0.953125 0.78125 -2.421875 0.78125q-1.921875 0 -3.03125 -1.390625q-1.3125 -1.671875 -1.3125 -5.4375zm1.671875 0q0 3.296875 0.765625 4.390625q0.78125 1.078125 1.90625 1.078125q1.140625 0 1.90625 -1.09375q0.765625 -1.09375 0.765625 -4.375q0 -3.296875 -0.765625 -4.375q-0.765625 -1.078125 -1.921875 -1.078125q-1.125 0 -1.796875 0.953125q-0.859375 1.21875 -0.859375 4.5zm8.703842 0q0 -2.359375 0.484375 -3.796875q0.484375 -1.453125 1.4375 -2.234375q0.96875 -0.78125 2.421875 -0.78125q1.078125 0 1.890625 0.4375q0.8125 0.421875 1.328125 1.25q0.53125 0.8125 0.828125 1.984375q0.3125 1.15625 0.3125 3.140625q0 2.359375 -0.484375 3.8125q-0.484375 1.4375 -1.453125 2.234375q-0.953125 0.78125 -2.421875 0.78125q-1.921875 0 -3.03125 -1.390625q-1.3125 -1.671875 -1.3125 -5.4375zm1.671875 0q0 3.296875 0.765625 4.390625q0.78125 1.078125 1.90625 1.078125q1.140625 0 1.90625 -1.09375q0.765625 -1.09375 0.765625 -4.375q0 -3.296875 -0.765625 -4.375q-0.765625 -1.078125 -1.921875 -1.078125q-1.125 0 -1.796875 0.953125q-0.859375 1.21875 -0.859375 4.5zm14.875732 6.59375l-1.640625 0l0 -10.453125q-0.59375 0.5625 -1.5625 1.140625q-0.953125 0.5625 -1.71875 0.84375l0 -1.59375q1.375 -0.640625 2.40625 -1.5625q1.03125 -0.921875 1.453125 -1.78125l1.0625 0l0 13.40625z" fill-rule="nonzero"/><path fill="#000000" d="m339.00217 468.44162l0 1.578125l-8.828125 0q-0.015625 -0.59375 0.1875 -1.140625q0.34375 -0.90625 1.078125 -1.78125q0.75 -0.875 2.15625 -2.015625q2.171875 -1.78125 2.9375 -2.828125q0.765625 -1.046875 0.765625 -1.96875q0 -0.984375 -0.703125 -1.640625q-0.6875 -0.671875 -1.8125 -0.671875q-1.1875 0 -1.90625 0.71875q-0.703125 0.703125 -0.703125 1.953125l-1.6875 -0.171875q0.171875 -1.890625 1.296875 -2.875q1.140625 -0.984375 3.03125 -0.984375q1.921875 0 3.046875 1.0625q1.125 1.0625 1.125 2.640625q0 0.796875 -0.328125 1.578125q-0.328125 0.78125 -1.09375 1.640625q-0.75 0.84375 -2.53125 2.34375q-1.46875 1.234375 -1.890625 1.6875q-0.421875 0.4375 -0.6875 0.875l6.546875 0zm1.7663574 -5.015625q0 -2.359375 0.484375 -3.796875q0.484375 -1.453125 1.4375 -2.234375q0.96875 -0.78125 2.421875 -0.78125q1.078125 0 1.890625 0.4375q0.8125 0.421875 1.328125 1.25q0.53125 0.8125 0.828125 1.984375q0.3125 1.15625 0.3125 3.140625q0 2.359375 -0.484375 3.8125q-0.484375 1.4375 -1.453125 2.234375q-0.953125 0.78125 -2.421875 0.78125q-1.921875 0 -3.03125 -1.390625q-1.3125 -1.671875 -1.3125 -5.4375zm1.671875 0q0 3.296875 0.765625 4.390625q0.78125 1.078125 1.90625 1.078125q1.140625 0 1.90625 -1.09375q0.765625 -1.09375 0.765625 -4.375q0 -3.296875 -0.765625 -4.375q-0.765625 -1.078125 -1.921875 -1.078125q-1.125 0 -1.796875 0.953125q-0.859375 1.21875 -0.859375 4.5zm8.703827 0q0 -2.359375 0.484375 -3.796875q0.484375 -1.453125 1.4375 -2.234375q0.96875 -0.78125 2.421875 -0.78125q1.078125 0 1.890625 0.4375q0.8125 0.421875 1.328125 1.25q0.53125 0.8125 0.828125 1.984375q0.3125 1.15625 0.3125 3.140625q0 2.359375 -0.484375 3.8125q-0.484375 1.4375 -1.453125 2.234375q-0.953125 0.78125 -2.421875 0.78125q-1.921875 0 -3.03125 -1.390625q-1.3125 -1.671875 -1.3125 -5.4375zm1.671875 0q0 3.296875 0.765625 4.390625q0.78125 1.078125 1.90625 1.078125q1.140625 0 1.90625 -1.09375q0.765625 -1.09375 0.765625 -4.375q0 -3.296875 -0.765625 -4.375q-0.765625 -1.078125 -1.921875 -1.078125q-1.125 0 -1.796875 0.953125q-0.859375 1.21875 -0.859375 4.5zm14.875732 6.59375l-1.640625 0l0 -10.453125q-0.59375 0.5625 -1.5625 1.140625q-0.953125 0.5625 -1.71875 0.84375l0 -1.59375q1.375 -0.640625 2.40625 -1.5625q1.03125 -0.921875 1.453125 -1.78125l1.0625 0l0 13.40625z" fill-rule="nonzero"/><path fill="#000000" d="m431.57608 466.4885l1.640625 -0.21875q0.28125 1.40625 0.953125 2.015625q0.6875 0.609375 1.65625 0.609375q1.15625 0 1.953125 -0.796875q0.796875 -0.796875 0.796875 -1.984375q0 -1.125 -0.734375 -1.859375q-0.734375 -0.734375 -1.875 -0.734375q-0.46875 0 -1.15625 0.171875l0.1875 -1.4375q0.15625 0.015625 0.265625 0.015625q1.046875 0 1.875 -0.546875q0.84375 -0.546875 0.84375 -1.671875q0 -0.90625 -0.609375 -1.5q-0.609375 -0.59375 -1.578125 -0.59375q-0.953125 0 -1.59375 0.609375q-0.640625 0.59375 -0.8125 1.796875l-1.640625 -0.296875q0.296875 -1.640625 1.359375 -2.546875q1.0625 -0.90625 2.65625 -0.90625q1.09375 0 2.0 0.46875q0.921875 0.46875 1.40625 1.28125q0.5 0.8125 0.5 1.71875q0 0.859375 -0.46875 1.578125q-0.46875 0.703125 -1.375 1.125q1.1875 0.28125 1.84375 1.140625q0.65625 0.859375 0.65625 2.15625q0 1.734375 -1.28125 2.953125q-1.265625 1.21875 -3.21875 1.21875q-1.765625 0 -2.921875 -1.046875q-1.15625 -1.046875 -1.328125 -2.71875zm10.375732 -3.0625q0 -2.359375 0.484375 -3.796875q0.484375 -1.453125 1.4375 -2.234375q0.96875 -0.78125 2.421875 -0.78125q1.078125 0 1.890625 0.4375q0.8125 0.421875 1.328125 1.25q0.53125 0.8125 0.828125 1.984375q0.3125 1.15625 0.3125 3.140625q0 2.359375 -0.484375 3.8125q-0.484375 1.4375 -1.453125 2.234375q-0.953125 0.78125 -2.421875 0.78125q-1.921875 0 -3.03125 -1.390625q-1.3125 -1.671875 -1.3125 -5.4375zm1.671875 0q0 3.296875 0.765625 4.390625q0.78125 1.078125 1.90625 1.078125q1.140625 0 1.90625 -1.09375q0.765625 -1.09375 0.765625 -4.375q0 -3.296875 -0.765625 -4.375q-0.765625 -1.078125 -1.921875 -1.078125q-1.125 0 -1.796875 0.953125q-0.859375 1.21875 -0.859375 4.5zm8.703857 0q0 -2.359375 0.484375 -3.796875q0.484375 -1.453125 1.4375 -2.234375q0.96875 -0.78125 2.421875 -0.78125q1.078125 0 1.890625 0.4375q0.8125 0.421875 1.328125 1.25q0.53125 0.8125 0.828125 1.984375q0.3125 1.15625 0.3125 3.140625q0 2.359375 -0.484375 3.8125q-0.484375 1.4375 -1.453125 2.234375q-0.953125 0.78125 -2.421875 0.78125q-1.921875 0 -3.03125 -1.390625q-1.3125 -1.671875 -1.3125 -5.4375zm1.671875 0q0 3.296875 0.765625 4.390625q0.78125 1.078125 1.90625 1.078125q1.140625 0 1.90625 -1.09375q0.765625 -1.09375 0.765625 -4.375q0 -3.296875 -0.765625 -4.375q-0.765625 -1.078125 -1.921875 -1.078125q-1.125 0 -1.796875 0.953125q-0.859375 1.21875 -0.859375 4.5zm14.875702 6.59375l-1.640625 0l0 -10.453125q-0.59375 0.5625 -1.5625 1.140625q-0.953125 0.5625 -1.71875 0.84375l0 -1.59375q1.375 -0.640625 2.40625 -1.5625q1.03125 -0.921875 1.453125 -1.78125l1.0625 0l0 13.40625z" fill-rule="nonzero"/><path fill="#000000" d="m553.5593 470.01974l0 -3.203125l-5.796875 0l0 -1.5l6.09375 -8.65625l1.34375 0l0 8.65625l1.796875 0l0 1.5l-1.796875 0l0 3.203125l-1.640625 0zm0 -4.703125l0 -6.015625l-4.1875 6.015625l4.1875 0zm5.1257324 -1.890625q0 -2.359375 0.484375 -3.796875q0.484375 -1.453125 1.4375 -2.234375q0.96875 -0.78125 2.421875 -0.78125q1.078125 0 1.890625 0.4375q0.8125 0.421875 1.328125 1.25q0.53125 0.8125 0.828125 1.984375q0.3125 1.15625 0.3125 3.140625q0 2.359375 -0.484375 3.8125q-0.484375 1.4375 -1.453125 2.234375q-0.953125 0.78125 -2.421875 0.78125q-1.921875 0 -3.03125 -1.390625q-1.3125 -1.671875 -1.3125 -5.4375zm1.671875 0q0 3.296875 0.765625 4.390625q0.78125 1.078125 1.90625 1.078125q1.140625 0 1.90625 -1.09375q0.765625 -1.09375 0.765625 -4.375q0 -3.296875 -0.765625 -4.375q-0.765625 -1.078125 -1.921875 -1.078125q-1.125 0 -1.796875 0.953125q-0.859375 1.21875 -0.859375 4.5zm8.703857 0q0 -2.359375 0.484375 -3.796875q0.484375 -1.453125 1.4375 -2.234375q0.96875 -0.78125 2.421875 -0.78125q1.078125 0 1.890625 0.4375q0.8125 0.421875 1.328125 1.25q0.53125 0.8125 0.828125 1.984375q0.3125 1.15625 0.3125 3.140625q0 2.359375 -0.484375 3.8125q-0.484375 1.4375 -1.453125 2.234375q-0.953125 0.78125 -2.421875 0.78125q-1.921875 0 -3.03125 -1.390625q-1.3125 -1.671875 -1.3125 -5.4375zm1.671875 0q0 3.296875 0.765625 4.390625q0.78125 1.078125 1.90625 1.078125q1.140625 0 1.90625 -1.09375q0.765625 -1.09375 0.765625 -4.375q0 -3.296875 -0.765625 -4.375q-0.765625 -1.078125 -1.921875 -1.078125q-1.125 0 -1.796875 0.953125q-0.859375 1.21875 -0.859375 4.5zm14.875671 6.59375l-1.640625 0l0 -10.453125q-0.59375 0.5625 -1.5625 1.140625q-0.953125 0.5625 -1.71875 0.84375l0 -1.59375q1.375 -0.640625 2.40625 -1.5625q1.03125 -0.921875 1.453125 -1.78125l1.0625 0l0 13.40625z" fill-rule="nonzero"/><path fill="#000000" d="m666.3928 466.51974l1.71875 -0.140625q0.1875 1.25 0.875 1.890625q0.703125 0.625 1.6875 0.625q1.1875 0 2.0 -0.890625q0.828125 -0.890625 0.828125 -2.359375q0 -1.40625 -0.796875 -2.21875q-0.78125 -0.8125 -2.0625 -0.8125q-0.78125 0 -1.421875 0.359375q-0.640625 0.359375 -1.0 0.9375l-1.546875 -0.203125l1.296875 -6.859375l6.640625 0l0 1.5625l-5.328125 0l-0.71875 3.59375q1.203125 -0.84375 2.515625 -0.84375q1.75 0 2.953125 1.21875q1.203125 1.203125 1.203125 3.109375q0 1.8125 -1.046875 3.140625q-1.296875 1.625 -3.515625 1.625q-1.8125 0 -2.96875 -1.015625q-1.15625 -1.03125 -1.3125 -2.71875zm10.375732 -3.09375q0 -2.359375 0.484375 -3.796875q0.484375 -1.453125 1.4375 -2.234375q0.96875 -0.78125 2.421875 -0.78125q1.078125 0 1.890625 0.4375q0.8125 0.421875 1.328125 1.25q0.53125 0.8125 0.828125 1.984375q0.3125 1.15625 0.3125 3.140625q0 2.359375 -0.484375 3.8125q-0.484375 1.4375 -1.453125 2.234375q-0.953125 0.78125 -2.421875 0.78125q-1.921875 0 -3.03125 -1.390625q-1.3125 -1.671875 -1.3125 -5.4375zm1.671875 0q0 3.296875 0.765625 4.390625q0.78125 1.078125 1.90625 1.078125q1.140625 0 1.90625 -1.09375q0.765625 -1.09375 0.765625 -4.375q0 -3.296875 -0.765625 -4.375q-0.765625 -1.078125 -1.921875 -1.078125q-1.125 0 -1.796875 0.953125q-0.859375 1.21875 -0.859375 4.5zm8.703857 0q0 -2.359375 0.484375 -3.796875q0.484375 -1.453125 1.4375 -2.234375q0.96875 -0.78125 2.421875 -0.78125q1.078125 0 1.890625 0.4375q0.8125 0.421875 1.328125 1.25q0.53125 0.8125 0.828125 1.984375q0.3125 1.15625 0.3125 3.140625q0 2.359375 -0.484375 3.8125q-0.484375 1.4375 -1.453125 2.234375q-0.953125 0.78125 -2.421875 0.78125q-1.921875 0 -3.03125 -1.390625q-1.3125 -1.671875 -1.3125 -5.4375zm1.671875 0q0 3.296875 0.765625 4.390625q0.78125 1.078125 1.90625 1.078125q1.140625 0 1.90625 -1.09375q0.765625 -1.09375 0.765625 -4.375q0 -3.296875 -0.765625 -4.375q-0.765625 -1.078125 -1.921875 -1.078125q-1.125 0 -1.796875 0.953125q-0.859375 1.21875 -0.859375 4.5zm14.875671 6.59375l-1.640625 0l0 -10.453125q-0.59375 0.5625 -1.5625 1.140625q-0.953125 0.5625 -1.71875 0.84375l0 -1.59375q1.375 -0.640625 2.40625 -1.5625q1.03125 -0.921875 1.453125 -1.78125l1.0625 0l0 13.40625z" fill-rule="nonzero"/><path fill="#000000" d="m770.8928 459.94162l-1.625 0.125q-0.21875 -0.96875 -0.625 -1.40625q-0.65625 -0.703125 -1.640625 -0.703125q-0.78125 0 -1.375 0.4375q-0.765625 0.5625 -1.21875 1.65625q-0.453125 1.078125 -0.46875 3.078125q0.59375 -0.890625 1.453125 -1.328125q0.859375 -0.4375 1.796875 -0.4375q1.640625 0 2.78125 1.203125q1.15625 1.203125 1.15625 3.109375q0 1.265625 -0.546875 2.34375q-0.53125 1.078125 -1.484375 1.65625q-0.9375 0.578125 -2.140625 0.578125q-2.0625 0 -3.359375 -1.5q-1.28125 -1.515625 -1.28125 -4.984375q0 -3.875 1.421875 -5.625q1.25 -1.53125 3.375 -1.53125q1.5625 0 2.5625 0.890625q1.015625 0.875 1.21875 2.4375zm-6.6875 5.75q0 0.84375 0.359375 1.625q0.359375 0.765625 1.0 1.171875q0.640625 0.40625 1.359375 0.40625q1.03125 0 1.78125 -0.828125q0.75 -0.84375 0.75 -2.28125q0 -1.390625 -0.734375 -2.1875q-0.734375 -0.796875 -1.859375 -0.796875q-1.109375 0 -1.890625 0.796875q-0.765625 0.796875 -0.765625 2.09375zm8.563232 -2.265625q0 -2.359375 0.484375 -3.796875q0.484375 -1.453125 1.4375 -2.234375q0.96875 -0.78125 2.421875 -0.78125q1.078125 0 1.890625 0.4375q0.8125 0.421875 1.328125 1.25q0.53125 0.8125 0.828125 1.984375q0.3125 1.15625 0.3125 3.140625q0 2.359375 -0.484375 3.8125q-0.484375 1.4375 -1.453125 2.234375q-0.953125 0.78125 -2.421875 0.78125q-1.921875 0 -3.03125 -1.390625q-1.3125 -1.671875 -1.3125 -5.4375zm1.671875 0q0 3.296875 0.765625 4.390625q0.78125 1.078125 1.90625 1.078125q1.140625 0 1.90625 -1.09375q0.765625 -1.09375 0.765625 -4.375q0 -3.296875 -0.765625 -4.375q-0.765625 -1.078125 -1.921875 -1.078125q-1.125 0 -1.796875 0.953125q-0.859375 1.21875 -0.859375 4.5zm8.703857 0q0 -2.359375 0.484375 -3.796875q0.484375 -1.453125 1.4375 -2.234375q0.96875 -0.78125 2.421875 -0.78125q1.078125 0 1.890625 0.4375q0.8125 0.421875 1.328125 1.25q0.53125 0.8125 0.828125 1.984375q0.3125 1.15625 0.3125 3.140625q0 2.359375 -0.484375 3.8125q-0.484375 1.4375 -1.453125 2.234375q-0.953125 0.78125 -2.421875 0.78125q-1.921875 0 -3.03125 -1.390625q-1.3125 -1.671875 -1.3125 -5.4375zm1.671875 0q0 3.296875 0.765625 4.390625q0.78125 1.078125 1.90625 1.078125q1.140625 0 1.90625 -1.09375q0.765625 -1.09375 0.765625 -4.375q0 -3.296875 -0.765625 -4.375q-0.765625 -1.078125 -1.921875 -1.078125q-1.125 0 -1.796875 0.953125q-0.859375 1.21875 -0.859375 4.5zm14.875671 6.59375l-1.640625 0l0 -10.453125q-0.59375 0.5625 -1.5625 1.140625q-0.953125 0.5625 -1.71875 0.84375l0 -1.59375q1.375 -0.640625 2.40625 -1.5625q1.03125 -0.921875 1.453125 -1.78125l1.0625 0l0 13.40625z" fill-rule="nonzero"/><path fill="#000000" fill-opacity="0.0" d="m256.0761 265.26248l390.42523 34.456665" fill-rule="evenodd"/><path stroke="#000000" stroke-width="1.0" stroke-linejoin="round" stroke-linecap="butt" d="m256.0761 265.26248l384.44843 33.9292" fill-rule="evenodd"/><path fill="#000000" stroke="#000000" stroke-width="1.0" stroke-linecap="butt" d="m640.37933 300.83704l4.6657104 -1.2463989l-4.375305 -2.044281z" fill-rule="evenodd"/><path fill="#000000" fill-opacity="0.0" d="m647.6562 341.0525l-372.06302 64.31497" fill-rule="evenodd"/><path stroke="#000000" stroke-width="1.0" stroke-linejoin="round" stroke-linecap="butt" d="m647.6562 341.0525l-366.1507 63.29294" fill-rule="evenodd"/><path fill="#000000" stroke="#000000" stroke-width="1.0" stroke-linecap="butt" d="m281.22415 402.71786l-4.1904297 2.4005737l4.753113 0.85461426z" fill-rule="evenodd"/><path fill="#000000" fill-opacity="0.0" d="m345.56168 233.97638l661.44885 0l0 77.165344l-661.44885 0z" fill-rule="evenodd"/><path fill="#000000" d="m368.37418 256.81824q1.03125 -2.0156097 1.25 -6.0937347l-2.515625 0q0.21875 4.078125 1.265625 6.0937347zm2.734375 -6.0937347q-0.140625 4.609375 -1.78125 7.4218597q1.1875 1.484375 3.34375 2.59375l-0.96875 1.640625q-2.375 -1.5625 -3.328125 -2.96875q-1.71875 1.9375 -5.28125 3.34375l-0.734375 -1.484375q3.859375 -1.5625 5.125 -3.203125q-1.265625 -2.4374847 -1.421875 -4.8906097q-0.4375 1.109375 -0.890625 1.703125l-1.25 -0.96875q2.21875 -3.265625 2.671875 -8.078125l1.546875 0.359375q0.453125 0.296875 -0.21875 0.453125q-0.21875 1.328125 -0.59375 2.671875l5.046875 0l0 1.40625l-1.265625 0zm-6.890625 -3.5625q-0.453125 1.109375 -1.046875 1.859375l-1.1875 -0.671875q0.59375 -0.96875 1.109375 -2.21875l1.34375 0.65625q0.296875 0.296875 -0.21875 0.375zm-4.75 10.468735q1.03125 0.296875 1.84375 0.671875q0.59375 -0.671875 0.96875 -2.015625l-2.15625 0q-0.296875 0.671875 -0.65625 1.34375zm-1.046875 1.859375l-1.1875 -0.671875q0.75 -1.109375 1.484375 -2.53125l-2.8125 0l0 -1.1874847l3.265625 0q0.4375 -0.953125 0.65625 -1.625l1.421875 0.375q0.296875 0.296875 -0.234375 0.359375l-0.4375 0.890625l4.234375 0l0 1.1874847l-1.125 0q-0.359375 1.484375 -1.109375 2.53125q0.671875 0.296875 1.40625 0.734375l-0.65625 1.1875q-0.828125 -0.515625 -1.484375 -0.8125q-1.9375 1.9375 -5.203125 2.375l-0.515625 -1.328125q2.890625 -0.296875 4.453125 -1.640625q-0.8125 -0.375 -1.640625 -0.671875l-0.515625 0.828125zm1.484375 -13.95311l1.1875 0q0.59375 0.0625 0.078125 0.4375l0 3.1875l3.78125 0l0 1.1875l-3.109375 0q0.8125 0.96875 2.515625 1.859375l-0.8125 1.265625q-1.265625 -0.75 -2.375 -2.078125l0 1.78125l-1.265625 0l0 -1.40625q-1.1875 1.484375 -3.265625 2.671875l-0.96875 -1.1875q2.3125 -1.1875 3.796875 -2.90625l-3.421875 0l0 -1.1875l3.859375 0l0 -3.625zm-2.078125 3.40625q-0.515625 -1.109375 -1.328125 -1.921875l1.1875 -0.75q0.890625 0.890625 1.328125 1.859375l-1.1875 0.8125zm23.15625 -2.96875l9.71875 0l0 4.671875l-3.328125 0l0 2.15625l4.15625 0l0 1.1875l-4.15625 0l0 2.2343597l2.890625 0l0 6.15625l-1.265625 0l0 -0.8125l-4.453125 0l0 1.03125l-1.265625 0l0 -6.375l2.609375 0l0 -2.2343597l-3.640625 0l0 1.1875q0 4.9687347 -2.15625 7.2031097l-1.109375 -1.109375q2.0 -2.015625 2.0 -6.3906097l0 -8.90625zm8.015625 11.437485l-4.453125 0l0 2.96875l4.453125 0l0 -2.96875zm-3.109375 -4.6093597l0 -2.15625l-3.640625 0l0 2.15625l3.640625 0zm-3.640625 -3.34375l6.96875 0l0 -2.296875l-6.96875 0l0 2.296875zm-1.9375 5.578125l-1.921875 0.65625l0 5.7968597q0 1.1875 -1.1875 1.1875l-1.484375 0l-0.21875 -1.40625l1.109375 0q0.296875 0 0.296875 -0.296875l0 -4.828125l-1.5625 0.515625q-0.078125 0.515625 -0.375 0.21875l-0.515625 -1.7812347l2.453125 -0.515625l0 -3.859375l-2.078125 0l0 -1.40625l2.078125 0l0 -3.859375l1.40625 0q0.59375 0.078125 0.078125 0.4375l0 3.421875l1.921875 0l0 1.40625l-1.921875 0l0 3.5625l1.78125 -0.515625l0.140625 1.265625zm16.625 -5.421875q0.828125 -1.703125 2.75 -3.484375l0.8125 0.734375q-1.84375 1.703125 -2.59375 3.265625q-0.8125 1.703125 -0.8125 4.078125q0 2.0156097 0.8125 3.7968597q0.75 1.625 2.59375 3.640625l-0.8125 0.8125q-1.859375 -2.078125 -2.75 -3.9375q-0.953125 -2.0 -0.953125 -4.3124847q0 -2.59375 0.953125 -4.59375z" fill-rule="nonzero"/><path fill="#000000" d="m409.0148 260.89636l-1.640625 0l0 -10.45311q-0.59375 0.5625 -1.5625 1.140625q-0.953125 0.5625 -1.71875 0.84375l0 -1.59375q1.375 -0.640625 2.40625 -1.5625q1.03125 -0.921875 1.453125 -1.78125l1.0625 0l0 13.406235zm4.2038574 -6.5937347q0 -2.359375 0.484375 -3.796875q0.484375 -1.453125 1.4375 -2.234375q0.96875 -0.78125 2.421875 -0.78125q1.078125 0 1.890625 0.4375q0.8125 0.421875 1.328125 1.25q0.53125 0.8125 0.828125 1.984375q0.3125 1.15625 0.3125 3.140625q0 2.3593597 -0.484375 3.8124847q-0.484375 1.4375 -1.453125 2.234375q-0.953125 0.78125 -2.421875 0.78125q-1.921875 0 -3.03125 -1.390625q-1.3125 -1.671875 -1.3125 -5.4374847zm1.671875 0q0 3.2968597 0.765625 4.3906097q0.78125 1.078125 1.90625 1.078125q1.140625 0 1.90625 -1.09375q0.765625 -1.09375 0.765625 -4.3749847q0 -3.296875 -0.765625 -4.375q-0.765625 -1.078125 -1.921875 -1.078125q-1.125 0 -1.796875 0.953125q-0.859375 1.21875 -0.859375 4.5zm8.703827 0q0 -2.359375 0.484375 -3.796875q0.484375 -1.453125 1.4375 -2.234375q0.96875 -0.78125 2.421875 -0.78125q1.078125 0 1.890625 0.4375q0.8125 0.421875 1.328125 1.25q0.53125 0.8125 0.828125 1.984375q0.3125 1.15625 0.3125 3.140625q0 2.3593597 -0.484375 3.8124847q-0.484375 1.4375 -1.453125 2.234375q-0.953125 0.78125 -2.421875 0.78125q-1.921875 0 -3.03125 -1.390625q-1.3125 -1.671875 -1.3125 -5.4374847zm1.671875 0q0 3.2968597 0.765625 4.3906097q0.78125 1.078125 1.90625 1.078125q1.140625 0 1.90625 -1.09375q0.765625 -1.09375 0.765625 -4.3749847q0 -3.296875 -0.765625 -4.375q-0.765625 -1.078125 -1.921875 -1.078125q-1.125 0 -1.796875 0.953125q-0.859375 1.21875 -0.859375 4.5zm14.875732 6.5937347l-1.640625 0l0 -10.45311q-0.59375 0.5625 -1.5625 1.140625q-0.953125 0.5625 -1.71875 0.84375l0 -1.59375q1.375 -0.640625 2.40625 -1.5625q1.03125 -0.921875 1.453125 -1.78125l1.0625 0l0 13.406235zm9.402771 -5.0781097l0 -1.859375q0.96875 -1.09375 2.53125 -1.09375q0.546875 0 1.140625 0.15625q0.609375 0.15625 1.71875 0.640625q0.625 0.25 0.9375 0.34375q0.3125 0.078125 0.640625 0.078125q0.59375 0 1.21875 -0.359375q0.640625 -0.359375 1.125 -0.890625l0 1.9375q-0.578125 0.546875 -1.1875 0.796875q-0.59375 0.234375 -1.328125 0.234375q-0.546875 0 -1.046875 -0.125q-0.5 -0.125 -1.578125 -0.609375q-1.078125 -0.484375 -1.796875 -0.484375q-0.578125 0 -1.09375 0.25q-0.515625 0.25 -1.28125 0.984375zm24.671997 3.4999847l0 1.578125l-8.828125 0q-0.015625 -0.59375 0.1875 -1.140625q0.34375 -0.90625 1.078125 -1.78125q0.75 -0.875 2.15625 -2.0156097q2.171875 -1.78125 2.9375 -2.828125q0.765625 -1.046875 0.765625 -1.96875q0 -0.984375 -0.703125 -1.640625q-0.6875 -0.671875 -1.8125 -0.671875q-1.1875 0 -1.90625 0.71875q-0.703125 0.703125 -0.703125 1.953125l-1.6875 -0.171875q0.171875 -1.890625 1.296875 -2.875q1.140625 -0.984375 3.03125 -0.984375q1.921875 0 3.046875 1.0625q1.125 1.0625 1.125 2.640625q0 0.796875 -0.328125 1.578125q-0.328125 0.78125 -1.09375 1.640625q-0.75 0.84375 -2.53125 2.3437347q-1.46875 1.234375 -1.890625 1.6875q-0.421875 0.4375 -0.6875 0.875l6.546875 0zm1.7663574 -5.0156097q0 -2.359375 0.484375 -3.796875q0.484375 -1.453125 1.4375 -2.234375q0.96875 -0.78125 2.421875 -0.78125q1.078125 0 1.890625 0.4375q0.8125 0.421875 1.328125 1.25q0.53125 0.8125 0.828125 1.984375q0.3125 1.15625 0.3125 3.140625q0 2.3593597 -0.484375 3.8124847q-0.484375 1.4375 -1.453125 2.234375q-0.953125 0.78125 -2.421875 0.78125q-1.921875 0 -3.03125 -1.390625q-1.3125 -1.671875 -1.3125 -5.4374847zm1.671875 0q0 3.2968597 0.765625 4.3906097q0.78125 1.078125 1.90625 1.078125q1.140625 0 1.90625 -1.09375q0.765625 -1.09375 0.765625 -4.3749847q0 -3.296875 -0.765625 -4.375q-0.765625 -1.078125 -1.921875 -1.078125q-1.125 0 -1.796875 0.953125q-0.859375 1.21875 -0.859375 4.5zm8.703827 0q0 -2.359375 0.484375 -3.796875q0.484375 -1.453125 1.4375 -2.234375q0.96875 -0.78125 2.421875 -0.78125q1.078125 0 1.890625 0.4375q0.8125 0.421875 1.328125 1.25q0.53125 0.8125 0.828125 1.984375q0.3125 1.15625 0.3125 3.140625q0 2.3593597 -0.484375 3.8124847q-0.484375 1.4375 -1.453125 2.234375q-0.953125 0.78125 -2.421875 0.78125q-1.921875 0 -3.03125 -1.390625q-1.3125 -1.671875 -1.3125 -5.4374847zm1.671875 0q0 3.2968597 0.765625 4.3906097q0.78125 1.078125 1.90625 1.078125q1.140625 0 1.90625 -1.09375q0.765625 -1.09375 0.765625 -4.3749847q0 -3.296875 -0.765625 -4.375q-0.765625 -1.078125 -1.921875 -1.078125q-1.125 0 -1.796875 0.953125q-0.859375 1.21875 -0.859375 4.5zm8.703857 0q0 -2.359375 0.484375 -3.796875q0.484375 -1.453125 1.4375 -2.234375q0.96875 -0.78125 2.421875 -0.78125q1.078125 0 1.890625 0.4375q0.8125 0.421875 1.328125 1.25q0.53125 0.8125 0.828125 1.984375q0.3125 1.15625 0.3125 3.140625q0 2.3593597 -0.484375 3.8124847q-0.484375 1.4375 -1.453125 2.234375q-0.953125 0.78125 -2.421875 0.78125q-1.921875 0 -3.03125 -1.390625q-1.3125 -1.671875 -1.3125 -5.4374847zm1.671875 0q0 3.2968597 0.765625 4.3906097q0.78125 1.078125 1.90625 1.078125q1.140625 0 1.90625 -1.09375q0.765625 -1.09375 0.765625 -4.3749847q0 -3.296875 -0.765625 -4.375q-0.765625 -1.078125 -1.921875 -1.078125q-1.125 0 -1.796875 0.953125q-0.859375 1.21875 -0.859375 4.5z" fill-rule="nonzero"/><path fill="#000000" d="m511.37585 258.52136q-0.890625 1.859375 -2.75 3.9375l-0.8125 -0.8125q1.859375 -2.015625 2.59375 -3.640625q0.828125 -1.78125 0.828125 -3.7968597q0 -2.375 -0.828125 -4.078125q-0.734375 -1.5625 -2.59375 -3.265625l0.8125 -0.734375q1.9375 1.78125 2.75 3.484375q0.96875 2.0 0.96875 4.59375q0 2.3124847 -0.96875 4.3124847z" fill-rule="nonzero"/><path fill="#000000" fill-opacity="0.0" d="m324.97375 324.30185l661.4488 0l0 105.63779l-661.4488 0z" fill-rule="evenodd"/><path fill="#000000" d="m338.13 343.87808l0 5.265625l1.5625 0l0 -5.265625l-1.5625 0zm2.828125 -1.1875l0 7.640625l-2.828125 0l0 2.0l-1.265625 0l0 -6.828125q-0.4375 0.96875 -1.40625 1.9375l-0.96875 -1.34375q2.53125 -2.515625 3.203125 -7.640625l-2.3125 0l0 -1.40625l6.390625 0l0 1.40625l-2.671875 0q-0.21875 2.15625 -0.890625 4.234375l2.75 0zm0 -0.53125q2.59375 -2.375 3.5625 -6.375l1.484375 0q0.734375 0.140625 -0.078125 0.4375l-0.375 0.96875l3.1875 0l0.15625 -0.21875l1.265625 0.4375q0.65625 0.296875 -0.078125 0.453125l-2.0 2.671875l3.328125 0l0 10.765625q0 1.265625 -1.109375 1.265625l-1.78125 0l-0.296875 -1.421875l1.484375 0q0.21875 0 0.21875 -0.21875l0 -2.890625l-5.265625 0q-0.4375 3.484375 -2.75 4.75l-0.8125 -1.265625q2.078125 -1.1875 2.078125 -4.75l0 -4.90625q-0.515625 0.75 -1.40625 1.5625l-0.8125 -1.265625zm6.96875 1.484375l2.0 0l0 -1.703125l-2.0 0l0 1.703125zm-3.265625 0l2.0 0l0 -1.703125l-2.0 0l0 1.703125zm2.0 1.1875l-2.0 0l0 1.78125l2.0 0l0 -1.78125zm1.265625 1.78125l2.0 0l0 -1.78125l-2.0 0l0 1.78125zm-2.8125 -8.234375q-0.375 1.109375 -1.046875 2.15625l2.671875 0l1.34375 -2.15625l-2.96875 0z" fill-rule="nonzero"/><path fill="#000000" d="m369.4425 352.97183q-1.96875 -1.671875 -3.03125 -3.5q-1.046875 -1.828125 -1.78125 -4.734375q-0.796875 3.203125 -2.296875 5.21875q-1.484375 2.0 -2.796875 3.09375q-0.296875 -0.515625 -1.390625 -1.03125q1.609375 -1.09375 2.875 -2.796875q1.28125 -1.71875 1.890625 -3.421875q0.625 -1.71875 0.734375 -3.421875q0.109375 -1.71875 0.109375 -3.03125q0 -1.3125 -0.0625 -3.0625q0.875 0.078125 1.890625 0.078125q-0.21875 0.28125 -0.296875 1.59375q-0.0625 1.3125 0.078125 3.328125q0.140625 2.0 0.71875 3.828125q0.59375 1.8125 1.6875 3.640625q1.09375 1.8125 3.125 3.046875q-1.15625 0.4375 -1.453125 1.171875zm-13.546875 -2.484375q0.5 -0.578125 0.5 -1.234375l0 -6.125q-1.671875 0 -2.46875 0.078125l0 -1.390625q0.796875 0.078125 1.75 0.078125l2.25 0q-0.078125 1.3125 -0.078125 2.484375l0 4.296875q0.59375 -0.59375 2.265625 -2.484375q0.296875 0.65625 0.796875 1.3125q-1.09375 1.09375 -2.109375 2.1875q-1.015625 1.09375 -1.671875 1.96875q-0.734375 -0.734375 -1.234375 -1.171875zm2.609375 -10.34375q-1.15625 -1.609375 -2.609375 -2.765625q0.65625 -0.4375 1.015625 -1.015625q1.15625 0.9375 2.765625 2.765625q-0.734375 0.4375 -1.171875 1.015625zm23.40625 -4.296875q0.5 1.3125 0.9375 2.546875l2.625 0q1.53125 0 3.203125 -0.078125l0 1.3125q-1.671875 -0.0625 -3.203125 -0.0625l-9.546875 0q0 4.296875 -0.140625 6.125q-0.140625 1.8125 -0.546875 3.71875q-0.40625 1.890625 -1.421875 3.640625q-0.515625 -0.65625 -1.3125 -1.09375q0.953125 -1.25 1.453125 -3.46875q0.515625 -2.21875 0.578125 -4.765625q0.078125 -2.5625 0.015625 -5.328125l6.546875 0q-0.21875 -1.015625 -0.71875 -2.03125q0.71875 -0.15625 1.53125 -0.515625zm6.109375 6.265625q-0.71875 1.609375 -1.265625 3.140625q-0.546875 1.515625 -2.15625 5.3125l2.046875 0q1.015625 0 2.25 -0.078125l0 1.53125q-1.234375 -0.0625 -2.25 -0.0625l-7.796875 0q-1.25 0 -2.984375 0.0625l0 -1.53125q1.671875 0.078125 2.984375 0.078125l4.296875 0q1.09375 -2.265625 1.921875 -4.734375q0.84375 -2.484375 1.203125 -4.375q0.953125 0.515625 1.75 0.65625zm-10.265625 0.796875q1.890625 3.0 2.84375 5.25q-0.515625 0.296875 -1.25 0.734375q-1.453125 -3.28125 -2.765625 -5.171875q0.65625 -0.515625 1.171875 -0.8125zm3.5 -1.671875q1.453125 2.546875 2.546875 5.03125q-0.65625 0.359375 -1.390625 0.71875q-0.875 -2.46875 -2.328125 -5.09375q0.578125 -0.21875 1.171875 -0.65625z" fill-rule="nonzero"/><path fill="#000000" d="m391.33313 344.98746q4.453125 -1.265625 7.9375 -4.96875l1.703125 0.296875q0.296875 0.296875 -0.21875 0.359375q2.078125 2.375 7.640625 3.796875l-0.515625 1.625q-2.671875 -0.671875 -4.375 -1.625l0 1.03125l-7.421875 0l0 -0.96875q-1.78125 1.265625 -4.15625 2.015625l-0.59375 -1.5625zm11.578125 -0.890625q-1.5625 -0.8125 -3.203125 -2.59375q-1.03125 1.328125 -2.96875 2.59375l6.171875 0zm-11.578125 -3.5625q1.78125 -1.5625 2.8125 -4.671875l1.5625 0.4375q0.296875 0.296875 -0.21875 0.375l-0.53125 1.03125l4.609375 0l0 1.1875l-2.75 0q0.453125 0.828125 0.890625 1.9375l-1.5625 0.4375q-0.359375 -1.328125 -0.8125 -2.375l-0.8125 0q-0.890625 1.78125 -2.15625 2.90625l-1.03125 -1.265625zm10.6875 -2.828125l5.78125 0l0 1.1875l-3.484375 0q0.59375 0.828125 0.96875 1.78125l-1.5625 0.59375q-0.375 -1.25 -0.96875 -2.375l-1.265625 0l-0.65625 1.1875l-1.265625 -0.734375q1.03125 -1.640625 1.625 -3.71875l1.484375 0.453125q0.296875 0.296875 -0.21875 0.375l-0.4375 1.25zm-6.171875 10.328125l0 2.59375l8.015625 0l0 -2.59375l-8.015625 0zm-1.484375 -1.1875l10.984375 0l0 5.78125l-1.484375 0l0 -0.8125l-8.015625 0l0 1.046875l-1.484375 0l0 -6.015625zm19.296875 -6.90625q0.828125 -1.703125 2.75 -3.484375l0.8125 0.734375q-1.84375 1.703125 -2.59375 3.265625q-0.8125 1.703125 -0.8125 4.078125q0 2.015625 0.8125 3.796875q0.75 1.625 2.59375 3.640625l-0.8125 0.8125q-1.859375 -2.078125 -2.75 -3.9375q-0.953125 -2.0 -0.953125 -4.3125q0 -2.59375 0.953125 -4.59375zm15.890625 1.625q3.34375 1.859375 5.484375 4.015625l-1.1875 1.328125q-2.140625 -2.140625 -5.1875 -4.078125l0.890625 -1.265625zm-2.671875 10.765625l0 -13.0625l-6.6875 0l0 -1.625l15.96875 0l0 1.625l-7.578125 0l0 13.0625l-1.703125 0zm28.046875 -9.28125l0 1.640625l-15.65625 0l0 -1.640625l15.65625 0zm11.140625 -4.59375q-2.890625 4.078125 -7.28125 5.859375l-0.8125 -1.40625q4.96875 -2.234375 7.640625 -6.6875l1.265625 0.375q0.890625 0.296875 0.078125 0.671875q2.0 3.046875 7.5625 5.265625l-0.890625 1.484375q-5.109375 -2.078125 -7.5625 -5.5625zm0.890625 2.890625q0.734375 0.15625 0.078125 0.59375l0 10.328125l-1.71875 0l0 -10.921875l1.640625 0zm9.9375 10.03125q2.90625 -1.265625 3.9375 -5.203125l1.640625 0.4375q0.296875 0.296875 -0.234375 0.375l-0.515625 1.34375q1.40625 1.625 3.046875 2.140625l0 -5.046875l-7.28125 0l0 -1.40625l16.03125 0l0 1.40625l-7.265625 0l0 1.71875l5.34375 0l0 1.40625l-5.34375 0l0 2.375l7.34375 0l-0.375 1.40625l-5.9375 0q-4.0 0 -6.15625 -2.75q-1.484375 2.3125 -3.34375 3.203125l-0.890625 -1.40625zm12.46875 -12.328125l0 -1.40625l-7.9375 0l0 1.40625l7.9375 0zm1.484375 3.78125l-10.90625 0l0 -6.375l10.90625 0l0 6.375zm-1.484375 -1.1875l0 -1.40625l-7.9375 0l0 1.40625l7.9375 0z" fill-rule="nonzero"/><path fill="#000000" d="m504.17688 349.6437l0 1.578125l-8.828125 0q-0.015625 -0.59375 0.1875 -1.140625q0.34375 -0.90625 1.078125 -1.78125q0.75 -0.875 2.15625 -2.015625q2.171875 -1.78125 2.9375 -2.828125q0.765625 -1.046875 0.765625 -1.96875q0 -0.984375 -0.703125 -1.640625q-0.6875 -0.671875 -1.8125 -0.671875q-1.1875 0 -1.90625 0.71875q-0.703125 0.703125 -0.703125 1.953125l-1.6875 -0.171875q0.171875 -1.890625 1.296875 -2.875q1.140625 -0.984375 3.03125 -0.984375q1.921875 0 3.046875 1.0625q1.125 1.0625 1.125 2.640625q0 0.796875 -0.328125 1.578125q-0.328125 0.78125 -1.09375 1.640625q-0.75 0.84375 -2.53125 2.34375q-1.46875 1.234375 -1.890625 1.6875q-0.421875 0.4375 -0.6875 0.875l6.546875 0zm1.7663269 -5.015625q0 -2.359375 0.484375 -3.796875q0.484375 -1.453125 1.4375 -2.234375q0.96875 -0.78125 2.421875 -0.78125q1.078125 0 1.8906555 0.4375q0.8125 0.421875 1.328125 1.25q0.53125 0.8125 0.828125 1.984375q0.3125 1.15625 0.3125 3.140625q0 2.359375 -0.484375 3.8125q-0.484375 1.4375 -1.453125 2.234375q-0.9531555 0.78125 -2.4219055 0.78125q-1.921875 0 -3.03125 -1.390625q-1.3125 -1.671875 -1.3125 -5.4375zm1.671875 0q0 3.296875 0.765625 4.390625q0.78125 1.078125 1.90625 1.078125q1.140625 0 1.9062805 -1.09375q0.765625 -1.09375 0.765625 -4.375q0 -3.296875 -0.765625 -4.375q-0.7656555 -1.078125 -1.9219055 -1.078125q-1.125 0 -1.796875 0.953125q-0.859375 1.21875 -0.859375 4.5zm8.703827 0q0 -2.359375 0.484375 -3.796875q0.484375 -1.453125 1.4375 -2.234375q0.96875 -0.78125 2.421875 -0.78125q1.078125 0 1.890625 0.4375q0.8125 0.421875 1.328125 1.25q0.53125 0.8125 0.828125 1.984375q0.3125 1.15625 0.3125 3.140625q0 2.359375 -0.484375 3.8125q-0.484375 1.4375 -1.453125 2.234375q-0.953125 0.78125 -2.421875 0.78125q-1.921875 0 -3.03125 -1.390625q-1.3125 -1.671875 -1.3125 -5.4375zm1.671875 0q0 3.296875 0.765625 4.390625q0.78125 1.078125 1.90625 1.078125q1.140625 0 1.90625 -1.09375q0.765625 -1.09375 0.765625 -4.375q0 -3.296875 -0.765625 -4.375q-0.765625 -1.078125 -1.921875 -1.078125q-1.125 0 -1.796875 0.953125q-0.859375 1.21875 -0.859375 4.5zm14.875732 6.59375l-1.640625 0l0 -10.453125q-0.59375 0.5625 -1.5625 1.140625q-0.953125 0.5625 -1.71875 0.84375l0 -1.59375q1.375 -0.640625 2.40625 -1.5625q1.03125 -0.921875 1.453125 -1.78125l1.0625 0l0 13.40625z" fill-rule="nonzero"/><path fill="#000000" d="m541.336 348.84683q-0.890625 1.859375 -2.75 3.9375l-0.8125 -0.8125q1.859375 -2.015625 2.59375 -3.640625q0.828125 -1.78125 0.828125 -3.796875q0 -2.375 -0.828125 -4.078125q-0.734375 -1.5625 -2.59375 -3.265625l0.8125 -0.734375q1.9375 1.78125 2.75 3.484375q0.96875 2.0 0.96875 4.59375q0 2.3125 -0.96875 4.3125z" fill-rule="nonzero"/></g></svg>