<svg version="1.1" xmlns="http://www.w3.org/2000/svg" xmlns:xlink="http://www.w3.org/1999/xlink" width="1442.4597930908203" height="986"><defs/><g><g transform="translate(-118,-22) scale(1,1)"><rect fill="#C0C0C0" stroke="none" x="135" y="551" width="318.63232421875" height="190" opacity="0.2"/></g><g transform="translate(-118,-22) scale(1,1)"><rect fill="#ffffff" stroke="none" x="128" y="544" width="318.63232421875" height="190"/></g><g transform="translate(-118,-22) scale(1,1)"><path fill="none" stroke="#000000" d="M 128 544 L 446.63232421875 544 L 446.63232421875 734 L 128 734 L 128 544 Z Z" stroke-miterlimit="10"/></g><g transform="translate(-118,-22) scale(1,1)"><path fill="none" stroke="#000000" d="M 128 569 L 446.63232421875 569" stroke-miterlimit="10"/></g><g transform="translate(-118,-22) scale(1,1)"><path fill="none" stroke="#000000" d="M 128 637 L 446.63232421875 637" stroke-miterlimit="10"/></g><g transform="translate(-118,-22) scale(1,1)"><g><path fill="none" stroke="none"/><text fill="#000000" stroke="none" font-family="Arial" font-size="13px" font-style="normal" font-weight="bold" text-decoration="none" x="263.47119140625" y="563.5">Address</text></g></g><g transform="translate(-118,-22) scale(1,1)"><g><path fill="none" stroke="none"/><text fill="#000000" stroke="none" font-family="Arial" font-size="13px" font-style="normal" font-weight="normal" text-decoration="none" x="133" y="586.5">-originalString: string</text></g></g><g transform="translate(-118,-22) scale(1,1)"><g><path fill="none" stroke="none"/><text fill="#000000" stroke="none" font-family="Arial" font-size="13px" font-style="normal" font-weight="normal" text-decoration="none" x="133" y="601.5">«std::vector&lt;std::pair&lt;std::string, std::string&gt;&gt;»+hosts</text></g></g><g transform="translate(-118,-22) scale(1,1)"><g><path fill="none" stroke="none"/><text fill="#000000" stroke="none" font-family="Arial" font-size="13px" font-style="normal" font-weight="normal" text-decoration="none" x="133" y="616.5">«sockaddr_storage»+storage</text></g></g><g transform="translate(-118,-22) scale(1,1)"><g><path fill="none" stroke="none"/><text fill="#000000" stroke="none" font-family="Arial" font-size="13px" font-style="normal" font-weight="normal" text-decoration="none" x="133" y="631.5">«socklen_t»+len</text></g></g><g transform="translate(-118,-22) scale(1,1)"><g><path fill="none" stroke="none"/><text fill="#000000" stroke="none" font-family="Arial" font-size="13px" font-style="normal" font-weight="normal" text-decoration="none" x="133" y="654.5">+isValid()</text></g></g><g transform="translate(-118,-22) scale(1,1)"><g><path fill="none" stroke="none"/><text fill="#000000" stroke="none" font-family="Arial" font-size="13px" font-style="normal" font-weight="normal" text-decoration="none" x="133" y="669.5">+getSockAddr()</text></g></g><g transform="translate(-118,-22) scale(1,1)"><g><path fill="none" stroke="none"/><text fill="#000000" stroke="none" font-family="Arial" font-size="13px" font-style="normal" font-weight="normal" text-decoration="none" x="133" y="684.5">+getSockAddrLen()</text></g></g><g transform="translate(-118,-22) scale(1,1)"><g><path fill="none" stroke="none"/><text fill="#000000" stroke="none" font-family="Arial" font-size="13px" font-style="normal" font-weight="normal" text-decoration="none" x="133" y="699.5">+getResolvedString()</text></g></g><g transform="translate(-118,-22) scale(1,1)"><g><path fill="none" stroke="none"/><text fill="#000000" stroke="none" font-family="Arial" font-size="13px" font-style="normal" font-weight="normal" text-decoration="none" x="133" y="714.5">+toString()</text></g></g><g transform="translate(-118,-22) scale(1,1)"><g><path fill="none" stroke="none"/><text fill="#000000" stroke="none" font-family="Arial" font-size="13px" font-style="normal" font-weight="normal" text-decoration="none" x="133" y="729.5">+refresh()</text></g></g><g transform="translate(-118,-22) scale(1,1)"><rect fill="#C0C0C0" stroke="none" x="295" y="103" width="71.6005859375" height="44" opacity="0.2"/></g><g transform="translate(-118,-22) scale(1,1)"><rect fill="#ffffff" stroke="none" x="288" y="96" width="71.6005859375" height="44"/></g><g transform="translate(-118,-22) scale(1,1)"><path fill="none" stroke="#000000" d="M 288 96 L 359.6005859375 96 L 359.6005859375 140 L 288 140 L 288 96 Z Z" stroke-miterlimit="10"/></g><g transform="translate(-118,-22) scale(1,1)"><path fill="none" stroke="#000000" d="M 288 121 L 359.6005859375 121" stroke-miterlimit="10"/></g><g transform="translate(-118,-22) scale(1,1)"><path fill="none" stroke="#000000" d="M 288 131 L 359.6005859375 131" stroke-miterlimit="10"/></g><g transform="translate(-118,-22) scale(1,1)"><g><path fill="none" stroke="none"/><text fill="#000000" stroke="none" font-family="Arial" font-size="13px" font-style="normal" font-weight="bold" text-decoration="none" x="294.781982421875" y="115.5">TimePoint</text></g></g><g transform="translate(-118,-22) scale(1,1)"><rect fill="#C0C0C0" stroke="none" x="199" y="831" width="208.82421875" height="145" opacity="0.2"/></g><g transform="translate(-118,-22) scale(1,1)"><rect fill="#ffffff" stroke="none" x="192" y="824" width="208.82421875" height="145"/></g><g transform="translate(-118,-22) scale(1,1)"><path fill="none" stroke="#000000" d="M 192 824 L 400.82421875 824 L 400.82421875 969 L 192 969 L 192 824 Z Z" stroke-miterlimit="10"/></g><g transform="translate(-118,-22) scale(1,1)"><path fill="none" stroke="#000000" d="M 192 849 L 400.82421875 849" stroke-miterlimit="10"/></g><g transform="translate(-118,-22) scale(1,1)"><path fill="none" stroke="#000000" d="M 192 902 L 400.82421875 902" stroke-miterlimit="10"/></g><g transform="translate(-118,-22) scale(1,1)"><g><path fill="none" stroke="none"/><text fill="#000000" stroke="none" font-family="Arial" font-size="13px" font-style="normal" font-weight="bold" text-decoration="none" x="266.0703125" y="843.5">ClientRPC</text></g></g><g transform="translate(-118,-22) scale(1,1)"><g><path fill="none" stroke="none"/><text fill="#000000" stroke="none" font-family="Arial" font-size="13px" font-style="normal" font-weight="normal" text-decoration="none" x="197" y="866.5">+service</text></g></g><g transform="translate(-118,-22) scale(1,1)"><g><path fill="none" stroke="none"/><text fill="#000000" stroke="none" font-family="Arial" font-size="13px" font-style="normal" font-weight="normal" text-decoration="none" x="197" y="881.5">+opCode</text></g></g><g transform="translate(-118,-22) scale(1,1)"><g><path fill="none" stroke="none"/><text fill="#000000" stroke="none" font-family="Arial" font-size="13px" font-style="normal" font-weight="normal" text-decoration="none" x="197" y="896.5">«OpaqueClientRPC»+opaqueRPC</text></g></g><g transform="translate(-118,-22) scale(1,1)"><g><path fill="none" stroke="none"/><text fill="#000000" stroke="none" font-family="Arial" font-size="13px" font-style="normal" font-weight="normal" text-decoration="none" x="197" y="919.5">+getErrorMessage()</text></g></g><g transform="translate(-118,-22) scale(1,1)"><g><path fill="none" stroke="none"/><text fill="#000000" stroke="none" font-family="Arial" font-size="13px" font-style="normal" font-weight="normal" text-decoration="none" x="197" y="934.5">+waitForReply()</text></g></g><g transform="translate(-118,-22) scale(1,1)"><g><path fill="none" stroke="none"/><text fill="#000000" stroke="none" font-family="Arial" font-size="13px" font-style="normal" font-weight="normal" text-decoration="none" x="197" y="949.5">+isReady()</text></g></g><g transform="translate(-118,-22) scale(1,1)"><g><path fill="none" stroke="none"/><text fill="#000000" stroke="none" font-family="Arial" font-size="13px" font-style="normal" font-weight="normal" text-decoration="none" x="197" y="964.5">+cancel()</text></g></g><g transform="translate(-118,-22) scale(1,1)"><rect fill="#C0C0C0" stroke="none" x="639" y="903" width="129.14588928222656" height="102" opacity="0.2"/></g><g transform="translate(-118,-22) scale(1,1)"><rect fill="#ffffff" stroke="none" x="632" y="896" width="129.14588928222656" height="102"/></g><g transform="translate(-118,-22) scale(1,1)"><path fill="none" stroke="#000000" d="M 632 896 L 761.1458892822266 896 L 761.1458892822266 998 L 632 998 L 632 896 Z Z" stroke-miterlimit="10"/></g><g transform="translate(-118,-22) scale(1,1)"><path fill="none" stroke="#000000" d="M 632 921 L 761.1458892822266 921" stroke-miterlimit="10"/></g><g transform="translate(-118,-22) scale(1,1)"><path fill="none" stroke="#000000" d="M 632 931 L 761.1458892822266 931" stroke-miterlimit="10"/></g><g transform="translate(-118,-22) scale(1,1)"><g><path fill="none" stroke="none"/><text fill="#000000" stroke="none" font-family="Arial" font-size="13px" font-style="normal" font-weight="bold" text-decoration="none" x="643.1002883911133" y="915.5">OpaqueClientRPC</text></g></g><g transform="translate(-118,-22) scale(1,1)"><g><path fill="none" stroke="none"/><text fill="#000000" stroke="none" font-family="Arial" font-size="13px" font-style="normal" font-weight="normal" text-decoration="none" x="637" y="948.5">+cancel()</text></g></g><g transform="translate(-118,-22) scale(1,1)"><g><path fill="none" stroke="none"/><text fill="#000000" stroke="none" font-family="Arial" font-size="13px" font-style="normal" font-weight="normal" text-decoration="none" x="637" y="963.5">+getErrorMessage()</text></g></g><g transform="translate(-118,-22) scale(1,1)"><g><path fill="none" stroke="none"/><text fill="#000000" stroke="none" font-family="Arial" font-size="13px" font-style="normal" font-weight="normal" text-decoration="none" x="637" y="978.5">+getStatus()</text></g></g><g transform="translate(-118,-22) scale(1,1)"><g><path fill="none" stroke="none"/><text fill="#000000" stroke="none" font-family="Arial" font-size="13px" font-style="normal" font-weight="normal" text-decoration="none" x="637" y="993.5">+peekReply()</text></g></g><g transform="translate(-118,-22) scale(1,1)"><rect fill="#C0C0C0" stroke="none" x="135" y="207" width="139.38720703125" height="220" opacity="0.2"/></g><g transform="translate(-118,-22) scale(1,1)"><rect fill="#ffffff" stroke="none" x="128" y="200" width="139.38720703125" height="220"/></g><g transform="translate(-118,-22) scale(1,1)"><path fill="none" stroke="#000000" d="M 128 200 L 267.38720703125 200 L 267.38720703125 420 L 128 420 L 128 200 Z Z" stroke-miterlimit="10"/></g><g transform="translate(-118,-22) scale(1,1)"><path fill="none" stroke="#000000" d="M 128 225 L 267.38720703125 225" stroke-miterlimit="10"/></g><g transform="translate(-118,-22) scale(1,1)"><path fill="none" stroke="#000000" d="M 128 293 L 267.38720703125 293" stroke-miterlimit="10"/></g><g transform="translate(-118,-22) scale(1,1)"><g><path fill="none" stroke="none"/><text fill="#000000" stroke="none" font-family="Arial" font-size="13px" font-style="normal" font-weight="bold" text-decoration="none" x="157.950927734375" y="219.5">ClientSession</text></g></g><g transform="translate(-118,-22) scale(1,1)"><g><path fill="none" stroke="none"/><text fill="#000000" stroke="none" font-family="Arial" font-size="13px" font-style="normal" font-weight="normal" text-decoration="none" x="133" y="242.5">+self: ClientSession</text></g></g><g transform="translate(-118,-22) scale(1,1)"><g><path fill="none" stroke="none"/><text fill="#000000" stroke="none" font-family="Arial" font-size="13px" font-style="normal" font-weight="normal" text-decoration="none" x="133" y="257.5">+PING_TIMEOUT_NS</text></g></g><g transform="translate(-118,-22) scale(1,1)"><g><path fill="none" stroke="none"/><text fill="#000000" stroke="none" font-family="Arial" font-size="13px" font-style="normal" font-weight="normal" text-decoration="none" x="133" y="272.5">+eventLoop</text></g></g><g transform="translate(-118,-22) scale(1,1)"><g><path fill="none" stroke="none"/><text fill="#000000" stroke="none" font-family="Arial" font-size="13px" font-style="normal" font-weight="normal" text-decoration="none" x="133" y="287.5">+address</text></g></g><g transform="translate(-118,-22) scale(1,1)"><g><path fill="none" stroke="none"/><text fill="#000000" stroke="none" font-family="Arial" font-size="13px" font-style="normal" font-weight="normal" text-decoration="none" x="133" y="310.5">+makeSession()</text></g></g><g transform="translate(-118,-22) scale(1,1)"><g><path fill="none" stroke="none"/><text fill="#000000" stroke="none" font-family="Arial" font-size="13px" font-style="normal" font-weight="normal" text-decoration="none" x="133" y="325.5">+makeErrorSession()</text></g></g><g transform="translate(-118,-22) scale(1,1)"><g><path fill="none" stroke="none"/><text fill="#000000" stroke="none" font-family="Arial" font-size="13px" font-style="normal" font-weight="normal" text-decoration="none" x="133" y="340.5">+sendRequest()</text></g></g><g transform="translate(-118,-22) scale(1,1)"><g><path fill="none" stroke="none"/><text fill="#000000" stroke="none" font-family="Arial" font-size="13px" font-style="normal" font-weight="normal" text-decoration="none" x="133" y="355.5">+getErrorMessage()</text></g></g><g transform="translate(-118,-22) scale(1,1)"><g><path fill="none" stroke="none"/><text fill="#000000" stroke="none" font-family="Arial" font-size="13px" font-style="normal" font-weight="normal" text-decoration="none" x="133" y="370.5">+toString()</text></g></g><g transform="translate(-118,-22) scale(1,1)"><g><path fill="none" stroke="none"/><text fill="#000000" stroke="none" font-family="Arial" font-size="13px" font-style="normal" font-weight="normal" text-decoration="none" x="133" y="385.5">+cancel()</text></g></g><g transform="translate(-118,-22) scale(1,1)"><g><path fill="none" stroke="none"/><text fill="#000000" stroke="none" font-family="Arial" font-size="13px" font-style="normal" font-weight="normal" text-decoration="none" x="133" y="400.5">+update()</text></g></g><g transform="translate(-118,-22) scale(1,1)"><g><path fill="none" stroke="none"/><text fill="#000000" stroke="none" font-family="Arial" font-size="13px" font-style="normal" font-weight="normal" text-decoration="none" x="133" y="415.5">+wait()</text></g></g><g transform="translate(-118,-22) scale(1,1)"><rect fill="#C0C0C0" stroke="none" x="671" y="159" width="378.71966552734375" height="340" opacity="0.2"/></g><g transform="translate(-118,-22) scale(1,1)"><rect fill="#ffffff" stroke="none" x="664" y="152" width="378.71966552734375" height="340"/></g><g transform="translate(-118,-22) scale(1,1)"><path fill="none" stroke="#000000" d="M 664 152 L 1042.7196655273438 152 L 1042.7196655273438 492 L 664 492 L 664 152 Z Z" stroke-miterlimit="10"/></g><g transform="translate(-118,-22) scale(1,1)"><path fill="none" stroke="#000000" d="M 664 177 L 1042.7196655273438 177" stroke-miterlimit="10"/></g><g transform="translate(-118,-22) scale(1,1)"><path fill="none" stroke="#000000" d="M 664 335 L 1042.7196655273438 335" stroke-miterlimit="10"/></g><g transform="translate(-118,-22) scale(1,1)"><g><path fill="none" stroke="none"/><text fill="#000000" stroke="none" font-family="Arial" font-size="13px" font-style="normal" font-weight="bold" text-decoration="none" x="807.1139831542969" y="171.5">MessageSocket</text></g></g><g transform="translate(-118,-22) scale(1,1)"><g><path fill="none" stroke="none"/><text fill="#000000" stroke="none" font-family="Arial" font-size="13px" font-style="normal" font-weight="normal" text-decoration="none" x="669" y="194.5">«ReceiveSocket»+receiveSocket</text></g></g><g transform="translate(-118,-22) scale(1,1)"><g><path fill="none" stroke="none"/><text fill="#000000" stroke="none" font-family="Arial" font-size="13px" font-style="normal" font-weight="normal" text-decoration="none" x="669" y="209.5">«SendSocket»+sendSocket</text></g></g><g transform="translate(-118,-22) scale(1,1)"><g><path fill="none" stroke="none"/><text fill="#000000" stroke="none" font-family="Arial" font-size="13px" font-style="normal" font-weight="normal" text-decoration="none" x="669" y="224.5">+maxMessageLength: const uint32_t</text></g></g><g transform="translate(-118,-22) scale(1,1)"><g><path fill="none" stroke="none"/><text fill="#000000" stroke="none" font-family="Arial" font-size="13px" font-style="normal" font-weight="normal" text-decoration="none" x="669" y="239.5">«Handler»+handler</text></g></g><g transform="translate(-118,-22) scale(1,1)"><g><path fill="none" stroke="none"/><text fill="#000000" stroke="none" font-family="Arial" font-size="13px" font-style="normal" font-weight="normal" text-decoration="none" x="669" y="254.5">«Event::Loop»+eventLoop</text></g></g><g transform="translate(-118,-22) scale(1,1)"><g><path fill="none" stroke="none"/><text fill="#000000" stroke="none" font-family="Arial" font-size="13px" font-style="normal" font-weight="normal" text-decoration="none" x="669" y="269.5">«Inbound»+inbound</text></g></g><g transform="translate(-118,-22) scale(1,1)"><g><path fill="none" stroke="none"/><text fill="#000000" stroke="none" font-family="Arial" font-size="13px" font-style="normal" font-weight="normal" text-decoration="none" x="669" y="284.5">«Core::Mutex»+outboundQueueMutex</text></g></g><g transform="translate(-118,-22) scale(1,1)"><g><path fill="none" stroke="none"/><text fill="#000000" stroke="none" font-family="Arial" font-size="13px" font-style="normal" font-weight="normal" text-decoration="none" x="669" y="299.5">«std::deque&lt;Outbound&gt;»+outboundQueue</text></g></g><g transform="translate(-118,-22) scale(1,1)"><g><path fill="none" stroke="none"/><text fill="#000000" stroke="none" font-family="Arial" font-size="13px" font-style="normal" font-weight="normal" text-decoration="none" x="669" y="314.5">«Event::File::Monitor»+receiveSocketMonitor</text></g></g><g transform="translate(-118,-22) scale(1,1)"><g><path fill="none" stroke="none"/><text fill="#000000" stroke="none" font-family="Arial" font-size="13px" font-style="normal" font-weight="normal" text-decoration="none" x="669" y="329.5">«Event::File::Monitor»+sendSocketMonitor</text></g></g><g transform="translate(-118,-22) scale(1,1)"><g><path fill="none" stroke="none"/><text fill="#000000" stroke="none" font-family="Arial" font-size="13px" font-style="normal" font-weight="normal" text-decoration="none" x="669" y="352.5">+handleReceivedMessage()</text></g></g><g transform="translate(-118,-22) scale(1,1)"><g><path fill="none" stroke="none"/><text fill="#000000" stroke="none" font-family="Arial" font-size="13px" font-style="normal" font-weight="normal" text-decoration="none" x="669" y="367.5">+handleDisconnect()</text></g></g><g transform="translate(-118,-22) scale(1,1)"><g><path fill="none" stroke="none"/><text fill="#000000" stroke="none" font-family="Arial" font-size="13px" font-style="normal" font-weight="normal" text-decoration="none" x="669" y="382.5">+MessageSocket()</text></g></g><g transform="translate(-118,-22) scale(1,1)"><g><path fill="none" stroke="none"/><text fill="#000000" stroke="none" font-family="Arial" font-size="13px" font-style="normal" font-weight="normal" text-decoration="none" x="669" y="397.5">~MessageSocket()</text></g></g><g transform="translate(-118,-22) scale(1,1)"><g><path fill="none" stroke="none"/><text fill="#000000" stroke="none" font-family="Arial" font-size="13px" font-style="normal" font-weight="normal" text-decoration="none" x="669" y="412.5">+close()</text></g></g><g transform="translate(-118,-22) scale(1,1)"><g><path fill="none" stroke="none"/><text fill="#000000" stroke="none" font-family="Arial" font-size="13px" font-style="normal" font-weight="normal" text-decoration="none" x="669" y="427.5">+sendMessage(MessageId messageId, Core::Buffer contents)</text></g></g><g transform="translate(-118,-22) scale(1,1)"><g><path fill="none" stroke="none"/><text fill="#000000" stroke="none" font-family="Arial" font-size="13px" font-style="normal" font-weight="normal" text-decoration="none" x="669" y="442.5">+disconnect()</text></g></g><g transform="translate(-118,-22) scale(1,1)"><g><path fill="none" stroke="none"/><text fill="#000000" stroke="none" font-family="Arial" font-size="13px" font-style="normal" font-weight="normal" text-decoration="none" x="669" y="457.5">+readable()</text></g></g><g transform="translate(-118,-22) scale(1,1)"><g><path fill="none" stroke="none"/><text fill="#000000" stroke="none" font-family="Arial" font-size="13px" font-style="normal" font-weight="normal" text-decoration="none" x="669" y="472.5">+read(void* buf, size_t maxBytes)</text></g></g><g transform="translate(-118,-22) scale(1,1)"><g><path fill="none" stroke="none"/><text fill="#000000" stroke="none" font-family="Arial" font-size="13px" font-style="normal" font-weight="normal" text-decoration="none" x="669" y="487.5">+writable()</text></g></g><g transform="translate(-118,-22) scale(1,1)"><rect fill="#C0C0C0" stroke="none" x="927" y="39" width="444.4605712890625" height="72" opacity="0.2"/></g><g transform="translate(-118,-22) scale(1,1)"><rect fill="#ffffff" stroke="none" x="920" y="32" width="444.4605712890625" height="72"/></g><g transform="translate(-118,-22) scale(1,1)"><path fill="none" stroke="#000000" d="M 920 32 L 1364.4605712890625 32 L 1364.4605712890625 104 L 920 104 L 920 32 Z Z" stroke-miterlimit="10"/></g><g transform="translate(-118,-22) scale(1,1)"><path fill="none" stroke="#000000" d="M 920 57 L 1364.4605712890625 57" stroke-miterlimit="10"/></g><g transform="translate(-118,-22) scale(1,1)"><path fill="none" stroke="#000000" d="M 920 67 L 1364.4605712890625 67" stroke-miterlimit="10"/></g><g transform="translate(-118,-22) scale(1,1)"><g><path fill="none" stroke="none"/><text fill="#000000" stroke="none" font-family="Arial" font-size="13px" font-style="normal" font-weight="bold" text-decoration="none" x="1119.4675903320312" y="51.5">Handler</text></g></g><g transform="translate(-118,-22) scale(1,1)"><g><path fill="none" stroke="none"/><text fill="#000000" stroke="none" font-family="Arial" font-size="13px" font-style="italic" font-weight="normal" text-decoration="none" x="925" y="84.5">+handleReceivedMessage(MessageId messageId, Core::Buffer contents)</text></g></g><g transform="translate(-118,-22) scale(1,1)"><g><path fill="none" stroke="none"/><text fill="#000000" stroke="none" font-family="Arial" font-size="13px" font-style="italic" font-weight="normal" text-decoration="none" x="925" y="99.5">+handleDisconnect()</text></g></g><g transform="translate(-118,-22) scale(1,1)"><rect fill="#C0C0C0" stroke="none" x="935" y="711" width="115.72987365722656" height="100" opacity="0.2"/></g><g transform="translate(-118,-22) scale(1,1)"><rect fill="#ffffff" stroke="none" x="928" y="704" width="115.72987365722656" height="100"/></g><g transform="translate(-118,-22) scale(1,1)"><path fill="none" stroke="#000000" d="M 928 704 L 1043.7298736572266 704 L 1043.7298736572266 804 L 928 804 L 928 704 Z Z" stroke-miterlimit="10"/></g><g transform="translate(-118,-22) scale(1,1)"><path fill="none" stroke="#000000" d="M 928 729 L 1043.7298736572266 729" stroke-miterlimit="10"/></g><g transform="translate(-118,-22) scale(1,1)"><path fill="none" stroke="#000000" d="M 928 767 L 1043.7298736572266 767" stroke-miterlimit="10"/></g><g transform="translate(-118,-22) scale(1,1)"><g><path fill="none" stroke="none"/><text fill="#000000" stroke="none" font-family="Arial" font-size="13px" font-style="normal" font-weight="bold" text-decoration="none" x="966.7204055786133" y="723.5">Server</text></g></g><g transform="translate(-118,-22) scale(1,1)"><g><path fill="none" stroke="none"/><text fill="#000000" stroke="none" font-family="Arial" font-size="13px" font-style="normal" font-weight="normal" text-decoration="none" x="933" y="746.5">+mutex</text></g></g><g transform="translate(-118,-22) scale(1,1)"><g><path fill="none" stroke="none"/><text fill="#000000" stroke="none" font-family="Arial" font-size="13px" font-style="normal" font-weight="normal" text-decoration="none" x="933" y="761.5">+services</text></g></g><g transform="translate(-118,-22) scale(1,1)"><g><path fill="none" stroke="none"/><text fill="#000000" stroke="none" font-family="Arial" font-size="13px" font-style="normal" font-weight="normal" text-decoration="none" x="933" y="784.5">+bind()</text></g></g><g transform="translate(-118,-22) scale(1,1)"><g><path fill="none" stroke="none"/><text fill="#000000" stroke="none" font-family="Arial" font-size="13px" font-style="normal" font-weight="normal" text-decoration="none" x="933" y="799.5">+registerService()</text></g></g><g transform="translate(-118,-22) scale(1,1)"><path fill="none" stroke="#000000" d="M 1100 105 L 1044 154" stroke-miterlimit="10"/></g><g transform="translate(-118,-22) scale(1,1)"><path fill="#000000" stroke="none" d="M 1048.8762054144906 144.13984681885253 L 1044 154 L 1054.4201790929724 150.47581673711738 L 1060.5566872835514 139.5128986268926"/></g><g transform="translate(-118,-22) scale(1,1)"><path fill="none" stroke="#000000" d="M 1048.8762054144906 144.13984681885253 L 1044 154 L 1054.4201790929724 150.47581673711738 L 1060.5566872835514 139.5128986268926 L 1048.8762054144906 144.13984681885253" stroke-miterlimit="10"/></g><g transform="translate(-118,-22) scale(1,1)"><rect fill="#C0C0C0" stroke="none" x="1143" y="711" width="96" height="56" opacity="0.2"/></g><g transform="translate(-118,-22) scale(1,1)"><rect fill="#ffffff" stroke="none" x="1136" y="704" width="96" height="56"/></g><g transform="translate(-118,-22) scale(1,1)"><path fill="none" stroke="#000000" d="M 1136 704 L 1232 704 L 1232 760 L 1136 760 L 1136 704 Z Z" stroke-miterlimit="10"/></g><g transform="translate(-118,-22) scale(1,1)"><path fill="none" stroke="#000000" d="M 1136 729 L 1232 729" stroke-miterlimit="10"/></g><g transform="translate(-118,-22) scale(1,1)"><path fill="none" stroke="#000000" d="M 1136 739 L 1232 739" stroke-miterlimit="10"/></g><g transform="translate(-118,-22) scale(1,1)"><g><path fill="none" stroke="none"/><text fill="#000000" stroke="none" font-family="Arial" font-size="13px" font-style="normal" font-weight="bold" text-decoration="none" x="1147.513671875" y="723.5">RPCHandler</text></g></g><g transform="translate(-118,-22) scale(1,1)"><path fill="none" stroke="#000000" d="M 1135 737 L 1045 747" stroke-miterlimit="10"/></g><g transform="translate(-118,-22) scale(1,1)"><path fill="#000000" stroke="none" d="M 1054.6356537719332 741.6939490779461 L 1045 747 L 1055.5653807116053 750.0614915349942 L 1066.8654421628196 744.5705064263534"/></g><g transform="translate(-118,-22) scale(1,1)"><path fill="none" stroke="#000000" d="M 1054.6356537719332 741.6939490779461 L 1045 747 L 1055.5653807116053 750.0614915349942 L 1066.8654421628196 744.5705064263534 L 1054.6356537719332 741.6939490779461" stroke-miterlimit="10"/></g><g transform="translate(-118,-22) scale(1,1)"><rect fill="#C0C0C0" stroke="none" x="1143" y="791" width="97.87353515625" height="44" opacity="0.2"/></g><g transform="translate(-118,-22) scale(1,1)"><rect fill="#ffffff" stroke="none" x="1136" y="784" width="97.87353515625" height="44"/></g><g transform="translate(-118,-22) scale(1,1)"><path fill="none" stroke="#000000" d="M 1136 784 L 1233.87353515625 784 L 1233.87353515625 828 L 1136 828 L 1136 784 Z Z" stroke-miterlimit="10"/></g><g transform="translate(-118,-22) scale(1,1)"><path fill="none" stroke="#000000" d="M 1136 809 L 1233.87353515625 809" stroke-miterlimit="10"/></g><g transform="translate(-118,-22) scale(1,1)"><path fill="none" stroke="#000000" d="M 1136 819 L 1233.87353515625 819" stroke-miterlimit="10"/></g><g transform="translate(-118,-22) scale(1,1)"><g><path fill="none" stroke="none"/><text fill="#000000" stroke="none" font-family="Arial" font-size="13px" font-style="normal" font-weight="bold" text-decoration="none" x="1142.661376953125" y="803.5">OpaqueServer</text></g></g><g transform="translate(-118,-22) scale(1,1)"><path fill="none" stroke="#000000" d="M 1135 793 L 1045 770" stroke-miterlimit="10"/></g><g transform="translate(-118,-22) scale(1,1)"><path fill="#000000" stroke="none" d="M 1055.8885067783237 768.4378155875837 L 1045 770 L 1053.803968171432 776.5947057884649 L 1066.314981290069 775.4471618852399"/></g><g transform="translate(-118,-22) scale(1,1)"><path fill="none" stroke="#000000" d="M 1055.8885067783237 768.4378155875837 L 1045 770 L 1053.803968171432 776.5947057884649 L 1066.314981290069 775.4471618852399 L 1055.8885067783237 768.4378155875837" stroke-miterlimit="10"/></g><g transform="translate(-118,-22) scale(1,1)"><rect fill="#C0C0C0" stroke="none" x="367" y="215" width="155.13284301757812" height="44" opacity="0.2"/></g><g transform="translate(-118,-22) scale(1,1)"><rect fill="#ffffff" stroke="none" x="360" y="208" width="155.13284301757812" height="44"/></g><g transform="translate(-118,-22) scale(1,1)"><path fill="none" stroke="#000000" d="M 360 208 L 515.1328430175781 208 L 515.1328430175781 252 L 360 252 L 360 208 Z Z" stroke-miterlimit="10"/></g><g transform="translate(-118,-22) scale(1,1)"><path fill="none" stroke="#000000" d="M 360 233 L 515.1328430175781 233" stroke-miterlimit="10"/></g><g transform="translate(-118,-22) scale(1,1)"><path fill="none" stroke="#000000" d="M 360 243 L 515.1328430175781 243" stroke-miterlimit="10"/></g><g transform="translate(-118,-22) scale(1,1)"><g><path fill="none" stroke="none"/><text fill="#000000" stroke="none" font-family="Arial" font-size="13px" font-style="normal" font-weight="bold" text-decoration="none" x="368.55787658691406" y="227.5">MessageSocketHandler</text></g></g><g transform="translate(-118,-22) scale(1,1)"><path fill="none" stroke="#000000" d="M 368 253 L 268 286" stroke-miterlimit="10"/></g><g transform="translate(-118,-22) scale(1,1)"><path fill="#000000" stroke="none" d="M 276.3315992385095 278.8177681651963 L 268 286 L 278.96993515412237 286.81272548523515 L 288.89183028026014 279.10569600751415"/></g><g transform="translate(-118,-22) scale(1,1)"><path fill="none" stroke="#000000" d="M 276.3315992385095 278.8177681651963 L 268 286 L 278.96993515412237 286.81272548523515 L 288.89183028026014 279.10569600751415 L 276.3315992385095 278.8177681651963" stroke-miterlimit="10"/></g><g transform="translate(-118,-22) scale(1,1)"><rect fill="#C0C0C0" stroke="none" x="367" y="279" width="152" height="44" opacity="0.2"/></g><g transform="translate(-118,-22) scale(1,1)"><rect fill="#ffffff" stroke="none" x="360" y="272" width="152" height="44"/></g><g transform="translate(-118,-22) scale(1,1)"><path fill="none" stroke="#000000" d="M 360 272 L 512 272 L 512 316 L 360 316 L 360 272 Z Z" stroke-miterlimit="10"/></g><g transform="translate(-118,-22) scale(1,1)"><path fill="none" stroke="#000000" d="M 360 297 L 512 297" stroke-miterlimit="10"/></g><g transform="translate(-118,-22) scale(1,1)"><path fill="none" stroke="#000000" d="M 360 307 L 512 307" stroke-miterlimit="10"/></g><g transform="translate(-118,-22) scale(1,1)"><g><path fill="none" stroke="none"/><text fill="#000000" stroke="none" font-family="Arial" font-size="13px" font-style="normal" font-weight="bold" text-decoration="none" x="406.73095703125" y="291.5">Response</text></g></g><g transform="translate(-118,-22) scale(1,1)"><path fill="none" stroke="#000000" d="M 359 299 L 268 305" stroke-miterlimit="10"/></g><g transform="translate(-118,-22) scale(1,1)"><path fill="#000000" stroke="none" d="M 277.8637072352303 300.13098782321657 L 268 305 L 278.4176058015536 308.5317827457867 L 289.95233504270334 303.5525932938877"/></g><g transform="translate(-118,-22) scale(1,1)"><path fill="none" stroke="#000000" d="M 277.8637072352303 300.13098782321657 L 268 305 L 278.4176058015536 308.5317827457867 L 289.95233504270334 303.5525932938877 L 277.8637072352303 300.13098782321657" stroke-miterlimit="10"/></g><g transform="translate(-118,-22) scale(1,1)"><rect fill="#C0C0C0" stroke="none" x="367" y="343" width="152" height="44" opacity="0.2"/></g><g transform="translate(-118,-22) scale(1,1)"><rect fill="#ffffff" stroke="none" x="360" y="336" width="152" height="44"/></g><g transform="translate(-118,-22) scale(1,1)"><path fill="none" stroke="#000000" d="M 360 336 L 512 336 L 512 380 L 360 380 L 360 336 Z Z" stroke-miterlimit="10"/></g><g transform="translate(-118,-22) scale(1,1)"><path fill="none" stroke="#000000" d="M 360 361 L 512 361" stroke-miterlimit="10"/></g><g transform="translate(-118,-22) scale(1,1)"><path fill="none" stroke="#000000" d="M 360 371 L 512 371" stroke-miterlimit="10"/></g><g transform="translate(-118,-22) scale(1,1)"><g><path fill="none" stroke="none"/><text fill="#000000" stroke="none" font-family="Arial" font-size="13px" font-style="normal" font-weight="bold" text-decoration="none" x="419.632568359375" y="355.5">Timer</text></g></g><g transform="translate(-118,-22) scale(1,1)"><path fill="none" stroke="#000000" d="M 359 343 L 268 324" stroke-miterlimit="10"/></g><g transform="translate(-118,-22) scale(1,1)"><path fill="#000000" stroke="none" d="M 278.8085064891978 321.95642776663783 L 268 324 L 277.0877920170655 330.19774444895563 L 289.5355983178686 328.4964436048297"/></g><g transform="translate(-118,-22) scale(1,1)"><path fill="none" stroke="#000000" d="M 278.8085064891978 321.95642776663783 L 268 324 L 277.0877920170655 330.19774444895563 L 289.5355983178686 328.4964436048297 L 278.8085064891978 321.95642776663783" stroke-miterlimit="10"/></g><g transform="translate(-118,-22) scale(1,1)"><rect fill="#C0C0C0" stroke="none" x="1199" y="127" width="222.4597930908203" height="70" opacity="0.2"/></g><g transform="translate(-118,-22) scale(1,1)"><rect fill="#ffffff" stroke="none" x="1192" y="120" width="222.4597930908203" height="70"/></g><g transform="translate(-118,-22) scale(1,1)"><path fill="none" stroke="#000000" d="M 1192 120 L 1414.4597930908203 120 L 1414.4597930908203 190 L 1192 190 L 1192 120 Z Z" stroke-miterlimit="10"/></g><g transform="translate(-118,-22) scale(1,1)"><path fill="none" stroke="#000000" d="M 1192 145 L 1414.4597930908203 145" stroke-miterlimit="10"/></g><g transform="translate(-118,-22) scale(1,1)"><path fill="none" stroke="#000000" d="M 1192 168 L 1414.4597930908203 168" stroke-miterlimit="10"/></g><g transform="translate(-118,-22) scale(1,1)"><g><path fill="none" stroke="none"/><text fill="#000000" stroke="none" font-family="Arial" font-size="13px" font-style="normal" font-weight="bold" text-decoration="none" x="1268.1781387329102" y="139.5">SendSocket</text></g></g><g transform="translate(-118,-22) scale(1,1)"><g><path fill="none" stroke="none"/><text fill="#000000" stroke="none" font-family="Arial" font-size="13px" font-style="normal" font-weight="normal" text-decoration="none" x="1197" y="162.5">«MessageSocket»+messageSocket</text></g></g><g transform="translate(-118,-22) scale(1,1)"><g><path fill="none" stroke="none"/><text fill="#000000" stroke="none" font-family="Arial" font-size="13px" font-style="normal" font-weight="normal" text-decoration="none" x="1197" y="185.5">+handleFileEvent()</text></g></g><g transform="translate(-118,-22) scale(1,1)"><rect fill="#C0C0C0" stroke="none" x="1335" y="207" width="222.4597930908203" height="70" opacity="0.2"/></g><g transform="translate(-118,-22) scale(1,1)"><rect fill="#ffffff" stroke="none" x="1328" y="200" width="222.4597930908203" height="70"/></g><g transform="translate(-118,-22) scale(1,1)"><path fill="none" stroke="#000000" d="M 1328 200 L 1550.4597930908203 200 L 1550.4597930908203 270 L 1328 270 L 1328 200 Z Z" stroke-miterlimit="10"/></g><g transform="translate(-118,-22) scale(1,1)"><path fill="none" stroke="#000000" d="M 1328 225 L 1550.4597930908203 225" stroke-miterlimit="10"/></g><g transform="translate(-118,-22) scale(1,1)"><path fill="none" stroke="#000000" d="M 1328 248 L 1550.4597930908203 248" stroke-miterlimit="10"/></g><g transform="translate(-118,-22) scale(1,1)"><g><path fill="none" stroke="none"/><text fill="#000000" stroke="none" font-family="Arial" font-size="13px" font-style="normal" font-weight="bold" text-decoration="none" x="1395.8754043579102" y="219.5">ReceiveSocket</text></g></g><g transform="translate(-118,-22) scale(1,1)"><g><path fill="none" stroke="none"/><text fill="#000000" stroke="none" font-family="Arial" font-size="13px" font-style="normal" font-weight="normal" text-decoration="none" x="1333" y="242.5">«MessageSocket»+messageSocket</text></g></g><g transform="translate(-118,-22) scale(1,1)"><g><path fill="none" stroke="none"/><text fill="#000000" stroke="none" font-family="Arial" font-size="13px" font-style="normal" font-weight="normal" text-decoration="none" x="1333" y="265.5">+handleFileEvent()</text></g></g><g transform="translate(-118,-22) scale(1,1)"><path fill="none" stroke="#000000" d="M 1206 191 L 1044 251" stroke-miterlimit="10"/></g><g transform="translate(-118,-22) scale(1,1)"><path fill="#000000" stroke="none" d="M 1052.0680098056164 243.52288706943122 L 1044 251 L 1054.9920617011337 251.41782718732804 L 1064.6304727359216 243.35908417188094"/></g><g transform="translate(-118,-22) scale(1,1)"><path fill="none" stroke="#000000" d="M 1052.0680098056164 243.52288706943122 L 1044 251 L 1054.9920617011337 251.41782718732804 L 1064.6304727359216 243.35908417188094 L 1052.0680098056164 243.52288706943122" stroke-miterlimit="10"/></g><g transform="translate(-118,-22) scale(1,1)"><path fill="none" stroke="#000000" d="M 1327 252 L 1044 294" stroke-miterlimit="10"/></g><g transform="translate(-118,-22) scale(1,1)"><path fill="#000000" stroke="none" d="M 1053.4346057375055 288.34418754043014 L 1044 294 L 1054.670537038093 296.6720103515305 L 1065.7616497260728 290.77035587104217"/></g><g transform="translate(-118,-22) scale(1,1)"><path fill="none" stroke="#000000" d="M 1053.4346057375055 288.34418754043014 L 1044 294 L 1054.670537038093 296.6720103515305 L 1065.7616497260728 290.77035587104217 L 1053.4346057375055 288.34418754043014" stroke-miterlimit="10"/></g><g transform="translate(-118,-22) scale(1,1)"><rect fill="#C0C0C0" stroke="none" x="1175" y="311" width="162.37387084960938" height="130" opacity="0.2"/></g><g transform="translate(-118,-22) scale(1,1)"><rect fill="#ffffff" stroke="none" x="1168" y="304" width="162.37387084960938" height="130"/></g><g transform="translate(-118,-22) scale(1,1)"><path fill="none" stroke="#000000" d="M 1168 304 L 1330.3738708496094 304 L 1330.3738708496094 434 L 1168 434 L 1168 304 Z Z" stroke-miterlimit="10"/></g><g transform="translate(-118,-22) scale(1,1)"><path fill="none" stroke="#000000" d="M 1168 329 L 1330.3738708496094 329" stroke-miterlimit="10"/></g><g transform="translate(-118,-22) scale(1,1)"><path fill="none" stroke="#000000" d="M 1168 397 L 1330.3738708496094 397" stroke-miterlimit="10"/></g><g transform="translate(-118,-22) scale(1,1)"><g><path fill="none" stroke="none"/><text fill="#000000" stroke="none" font-family="Arial" font-size="13px" font-style="normal" font-weight="bold" text-decoration="none" x="1227.8683319091797" y="323.5">Header</text></g></g><g transform="translate(-118,-22) scale(1,1)"><g><path fill="none" stroke="none"/><text fill="#000000" stroke="none" font-family="Arial" font-size="13px" font-style="normal" font-weight="normal" text-decoration="none" x="1173" y="346.5">+fixed: uint16_t</text></g></g><g transform="translate(-118,-22) scale(1,1)"><g><path fill="none" stroke="none"/><text fill="#000000" stroke="none" font-family="Arial" font-size="13px" font-style="normal" font-weight="normal" text-decoration="none" x="1173" y="361.5">+version: uint16_t</text></g></g><g transform="translate(-118,-22) scale(1,1)"><g><path fill="none" stroke="none"/><text fill="#000000" stroke="none" font-family="Arial" font-size="13px" font-style="normal" font-weight="normal" text-decoration="none" x="1173" y="376.5">+payloadLength: uint32_t</text></g></g><g transform="translate(-118,-22) scale(1,1)"><g><path fill="none" stroke="none"/><text fill="#000000" stroke="none" font-family="Arial" font-size="13px" font-style="normal" font-weight="normal" text-decoration="none" x="1173" y="391.5">+messageId: uint64_t</text></g></g><g transform="translate(-118,-22) scale(1,1)"><g><path fill="none" stroke="none"/><text fill="#000000" stroke="none" font-family="Arial" font-size="13px" font-style="normal" font-weight="normal" text-decoration="none" x="1173" y="414.5">+fromBigEndian()</text></g></g><g transform="translate(-118,-22) scale(1,1)"><g><path fill="none" stroke="none"/><text fill="#000000" stroke="none" font-family="Arial" font-size="13px" font-style="normal" font-weight="normal" text-decoration="none" x="1173" y="429.5">+toBigEndian()</text></g></g><g transform="translate(-118,-22) scale(1,1)"><path fill="none" stroke="#000000" d="M 1167 359 L 1044 345" stroke-miterlimit="10"/></g><g transform="translate(-118,-22) scale(1,1)"><path fill="#000000" stroke="none" d="M 1054.5735359565842 341.9667942082967 L 1044 345 L 1053.621419360068 350.3318185919727 L 1065.8588621199979 347.48800056650384"/></g><g transform="translate(-118,-22) scale(1,1)"><path fill="none" stroke="#000000" d="M 1054.5735359565842 341.9667942082967 L 1044 345 L 1053.621419360068 350.3318185919727 L 1065.8588621199979 347.48800056650384 L 1054.5735359565842 341.9667942082967" stroke-miterlimit="10"/></g><g transform="translate(-118,-22) scale(1,1)"><rect fill="#C0C0C0" stroke="none" x="1183" y="495" width="158.04486083984375" height="87" opacity="0.2"/></g><g transform="translate(-118,-22) scale(1,1)"><rect fill="#ffffff" stroke="none" x="1176" y="488" width="158.04486083984375" height="87"/></g><g transform="translate(-118,-22) scale(1,1)"><path fill="none" stroke="#000000" d="M 1176 488 L 1334.0448608398438 488 L 1334.0448608398438 575 L 1176 575 L 1176 488 Z Z" stroke-miterlimit="10"/></g><g transform="translate(-118,-22) scale(1,1)"><path fill="none" stroke="#000000" d="M 1176 513 L 1334.0448608398438 513" stroke-miterlimit="10"/></g><g transform="translate(-118,-22) scale(1,1)"><path fill="none" stroke="#000000" d="M 1176 566 L 1334.0448608398438 566" stroke-miterlimit="10"/></g><g transform="translate(-118,-22) scale(1,1)"><g><path fill="none" stroke="none"/><text fill="#000000" stroke="none" font-family="Arial" font-size="13px" font-style="normal" font-weight="bold" text-decoration="none" x="1231.5265808105469" y="507.5">Inbound</text></g></g><g transform="translate(-118,-22) scale(1,1)"><g><path fill="none" stroke="none"/><text fill="#000000" stroke="none" font-family="Arial" font-size="13px" font-style="normal" font-weight="normal" text-decoration="none" x="1181" y="530.5">+bytesRead</text></g></g><g transform="translate(-118,-22) scale(1,1)"><g><path fill="none" stroke="none"/><text fill="#000000" stroke="none" font-family="Arial" font-size="13px" font-style="normal" font-weight="normal" text-decoration="none" x="1181" y="545.5">«Header»+header</text></g></g><g transform="translate(-118,-22) scale(1,1)"><g><path fill="none" stroke="none"/><text fill="#000000" stroke="none" font-family="Arial" font-size="13px" font-style="normal" font-weight="normal" text-decoration="none" x="1181" y="560.5">«Core::Buffer»+message</text></g></g><g transform="translate(-118,-22) scale(1,1)"><rect fill="#C0C0C0" stroke="none" x="935" y="583" width="158.04486083984375" height="87" opacity="0.2"/></g><g transform="translate(-118,-22) scale(1,1)"><rect fill="#ffffff" stroke="none" x="928" y="576" width="158.04486083984375" height="87"/></g><g transform="translate(-118,-22) scale(1,1)"><path fill="none" stroke="#000000" d="M 928 576 L 1086.0448608398438 576 L 1086.0448608398438 663 L 928 663 L 928 576 Z Z" stroke-miterlimit="10"/></g><g transform="translate(-118,-22) scale(1,1)"><path fill="none" stroke="#000000" d="M 928 601 L 1086.0448608398438 601" stroke-miterlimit="10"/></g><g transform="translate(-118,-22) scale(1,1)"><path fill="none" stroke="#000000" d="M 928 654 L 1086.0448608398438 654" stroke-miterlimit="10"/></g><g transform="translate(-118,-22) scale(1,1)"><g><path fill="none" stroke="none"/><text fill="#000000" stroke="none" font-family="Arial" font-size="13px" font-style="normal" font-weight="bold" text-decoration="none" x="978.4706726074219" y="595.5">Outbound</text></g></g><g transform="translate(-118,-22) scale(1,1)"><g><path fill="none" stroke="none"/><text fill="#000000" stroke="none" font-family="Arial" font-size="13px" font-style="normal" font-weight="normal" text-decoration="none" x="933" y="618.5">+bytesSent</text></g></g><g transform="translate(-118,-22) scale(1,1)"><g><path fill="none" stroke="none"/><text fill="#000000" stroke="none" font-family="Arial" font-size="13px" font-style="normal" font-weight="normal" text-decoration="none" x="933" y="633.5">«Header»+header</text></g></g><g transform="translate(-118,-22) scale(1,1)"><g><path fill="none" stroke="none"/><text fill="#000000" stroke="none" font-family="Arial" font-size="13px" font-style="normal" font-weight="normal" text-decoration="none" x="933" y="648.5">«Core::Buffer»+message</text></g></g><g transform="translate(-118,-22) scale(1,1)"><path fill="none" stroke="#000000" d="M 1175 489 L 1044 421" stroke-miterlimit="10"/></g><g transform="translate(-118,-22) scale(1,1)"><path fill="#000000" stroke="none" d="M 1054.9592535832278 421.94591801891517 L 1044 421 L 1051.0804974798218 429.41822757106485 L 1063.5260858458614 431.13567814899676"/></g><g transform="translate(-118,-22) scale(1,1)"><path fill="none" stroke="#000000" d="M 1054.9592535832278 421.94591801891517 L 1044 421 L 1051.0804974798218 429.41822757106485 L 1063.5260858458614 431.13567814899676 L 1054.9592535832278 421.94591801891517" stroke-miterlimit="10"/></g><g transform="translate(-118,-22) scale(1,1)"><path fill="none" stroke="#000000" d="M 984 575 L 942 493" stroke-miterlimit="10"/></g><g transform="translate(-118,-22) scale(1,1)"><path fill="#000000" stroke="none" d="M 950.3795715882683 500.1262037577582 L 942 493 L 942.8862648922748 503.9642388947305 L 952.0292691357245 512.5809540268906"/></g><g transform="translate(-118,-22) scale(1,1)"><path fill="none" stroke="#000000" d="M 950.3795715882683 500.1262037577582 L 942 493 L 942.8862648922748 503.9642388947305 L 952.0292691357245 512.5809540268906 L 950.3795715882683 500.1262037577582" stroke-miterlimit="10"/></g><g transform="translate(-118,-22) scale(1,1)"><rect fill="#C0C0C0" stroke="none" x="639" y="583" width="96.0517578125" height="102" opacity="0.2"/></g><g transform="translate(-118,-22) scale(1,1)"><rect fill="#ffffff" stroke="none" x="632" y="576" width="96.0517578125" height="102"/></g><g transform="translate(-118,-22) scale(1,1)"><path fill="none" stroke="#000000" d="M 632 576 L 728.0517578125 576 L 728.0517578125 678 L 632 678 L 632 576 Z Z" stroke-miterlimit="10"/></g><g transform="translate(-118,-22) scale(1,1)"><path fill="none" stroke="#000000" d="M 632 601 L 728.0517578125 601" stroke-miterlimit="10"/></g><g transform="translate(-118,-22) scale(1,1)"><path fill="none" stroke="#000000" d="M 632 669 L 728.0517578125 669" stroke-miterlimit="10"/></g><g transform="translate(-118,-22) scale(1,1)"><g><path fill="none" stroke="none"/><text fill="#000000" stroke="none" font-family="Arial" font-size="13px" font-style="normal" font-weight="bold" text-decoration="none" x="661.5986328125" y="595.5">Status</text></g></g><g transform="translate(-118,-22) scale(1,1)"><g><path fill="none" stroke="none"/><text fill="#000000" stroke="none" font-family="Arial" font-size="13px" font-style="normal" font-weight="normal" text-decoration="none" x="637" y="618.5">+NOT_READY</text></g></g><g transform="translate(-118,-22) scale(1,1)"><g><path fill="none" stroke="none"/><text fill="#000000" stroke="none" font-family="Arial" font-size="13px" font-style="normal" font-weight="normal" text-decoration="none" x="637" y="633.5">+OK</text></g></g><g transform="translate(-118,-22) scale(1,1)"><g><path fill="none" stroke="none"/><text fill="#000000" stroke="none" font-family="Arial" font-size="13px" font-style="normal" font-weight="normal" text-decoration="none" x="637" y="648.5">+ERROR</text></g></g><g transform="translate(-118,-22) scale(1,1)"><g><path fill="none" stroke="none"/><text fill="#000000" stroke="none" font-family="Arial" font-size="13px" font-style="normal" font-weight="normal" text-decoration="none" x="637" y="663.5">+CANCELED</text></g></g><g transform="translate(-118,-22) scale(1,1)"><path fill="none" stroke="#000000" d="M 402 909 L 631 939" stroke-miterlimit="10" stroke-dasharray="3"/></g><g transform="translate(-118,-22) scale(1,1)"><path fill="none" stroke="#000000" d="M 620.3766320162929 941.8537786674418 L 631 939 L 621.470218211927 933.5060707074342" stroke-miterlimit="10"/></g></g></svg>